%TF.GenerationSoftware,KiCad,Pcbnew,7.0.11-7.0.11~ubuntu22.04.1*%
%TF.CreationDate,2024-09-22T23:22:13-04:00*%
%TF.ProjectId,ad-vca,61642d76-6361-42e6-9b69-6361645f7063,rev?*%
%TF.SameCoordinates,Original*%
%TF.FileFunction,Legend,Top*%
%TF.FilePolarity,Positive*%
%FSLAX46Y46*%
G04 Gerber Fmt 4.6, Leading zero omitted, Abs format (unit mm)*
G04 Created by KiCad (PCBNEW 7.0.11-7.0.11~ubuntu22.04.1) date 2024-09-22 23:22:13*
%MOMM*%
%LPD*%
G01*
G04 APERTURE LIST*
%ADD10C,0.134811*%
%ADD11C,0.300000*%
%ADD12C,0.150000*%
%ADD13C,0.120000*%
%ADD14C,0.127000*%
%ADD15C,1.800000*%
%ADD16C,2.000000*%
%ADD17R,2.000000X2.000000*%
G04 APERTURE END LIST*
D10*
X192518833Y-134826925D02*
X192381363Y-135305059D01*
X179157141Y-133658009D02*
X179048295Y-136161991D01*
X180320887Y-133658009D02*
X180228449Y-136161991D01*
X190278185Y-135653601D02*
X190175656Y-134390104D01*
X192143641Y-135383505D02*
X192023981Y-134639112D01*
X190976433Y-135653601D02*
X190883749Y-134390104D01*
X179855389Y-133658009D02*
X179756388Y-136161991D01*
X179048295Y-136161991D02*
X178924393Y-133658009D01*
X179756388Y-136161991D02*
X179622639Y-133658009D01*
X189579937Y-135653601D02*
X189467562Y-134390104D01*
X177062398Y-133658009D02*
X176924012Y-136161991D01*
X189939625Y-134390104D02*
X189812687Y-135653601D01*
X178458893Y-133658009D02*
X178340201Y-136161991D01*
X176926125Y-118454021D02*
X176993728Y-120915225D01*
X192848839Y-135124678D02*
X192742373Y-134871939D01*
X180464482Y-136161991D02*
X180320887Y-133658009D01*
X180228449Y-136161991D02*
X180088139Y-133658009D01*
X187753488Y-120793356D02*
X188174320Y-118289999D01*
X180700512Y-136161991D02*
X180553639Y-133658009D01*
X188881689Y-135653601D02*
X188759470Y-134390104D01*
X188056448Y-134480825D02*
X187982922Y-135284346D01*
X190743683Y-135653601D02*
X190695032Y-135043705D01*
X191688650Y-135554464D02*
X191585186Y-134450621D01*
X176829648Y-133658009D02*
X176687981Y-136161991D01*
X179389891Y-133658009D02*
X179284325Y-136161991D01*
X181408608Y-136161991D02*
X181251887Y-133658009D01*
X190580000Y-135000000D02*
X190510933Y-135653601D01*
X192381363Y-135305059D02*
X192243773Y-134713041D01*
X190045435Y-135653601D02*
X189939625Y-134390104D01*
X190661960Y-134612110D02*
X190647717Y-134390104D01*
X179992419Y-136161991D02*
X179855389Y-133658009D01*
X178924393Y-133658009D02*
X178812264Y-136161991D01*
X187982922Y-135284346D02*
X187869259Y-135018942D01*
X177396075Y-136161991D02*
X177295146Y-133658009D01*
X177160044Y-136161991D02*
X177062398Y-133658009D01*
X189703594Y-134390104D02*
X189579937Y-135653601D01*
X192023981Y-134639112D02*
X191933760Y-135458670D01*
X178576232Y-136161991D02*
X178458893Y-133658009D01*
X181019137Y-133658009D02*
X180936543Y-136161991D01*
X190883749Y-134390104D02*
X190743683Y-135653601D01*
X189812687Y-135653601D02*
X189703594Y-134390104D01*
X192243773Y-134713041D02*
X192143641Y-135383505D01*
X176993728Y-120915225D02*
X181626271Y-120944774D01*
X179520356Y-136161991D02*
X179389891Y-133658009D01*
X181484637Y-133658009D02*
X181408608Y-136161991D01*
X176513530Y-118454021D02*
X176926125Y-118454021D01*
X177760645Y-133658009D02*
X177632105Y-136161991D01*
X191810248Y-134532370D02*
X191688650Y-135554464D01*
X191119780Y-134390104D02*
X190976433Y-135653601D01*
X180936543Y-136161991D02*
X180786387Y-133658009D01*
X188995501Y-134390104D02*
X188881689Y-135653601D01*
X178104170Y-136161991D02*
X177993395Y-133658009D01*
X189114439Y-135653601D02*
X188995501Y-134390104D01*
X178812264Y-136161991D02*
X178691643Y-133658009D01*
X189467562Y-134390104D02*
X189347187Y-135653601D01*
X189231531Y-134390104D02*
X189114439Y-135653601D01*
X177993395Y-133658009D02*
X177868138Y-136161991D01*
X188529917Y-134195349D02*
X188416268Y-136040426D01*
X177295146Y-133658009D02*
X177160044Y-136161991D01*
X177527895Y-133658009D02*
X177396075Y-136161991D01*
X191209181Y-135653601D02*
X191119780Y-134390104D01*
X180553639Y-133658009D02*
X180464482Y-136161991D01*
X188287272Y-133786093D02*
X188197329Y-135964437D01*
X188197329Y-135964437D02*
X188056448Y-134480825D01*
X190510933Y-135653601D02*
X190411686Y-134390104D01*
X176596900Y-133658009D02*
X176451951Y-136161991D01*
X191151155Y-119458525D02*
X192866228Y-120798879D01*
X190627104Y-134562942D02*
X190580000Y-135000000D01*
X176364150Y-133658009D02*
X176215920Y-136161991D01*
X188759470Y-134390104D02*
X188660843Y-135647772D01*
X190647717Y-134390104D02*
X190627104Y-134562942D01*
X192959490Y-135012327D02*
X192848839Y-135124678D01*
X192635950Y-135226683D02*
X192518833Y-134826925D01*
X188660843Y-135647772D02*
X188529917Y-134195349D01*
X190411686Y-134390104D02*
X190278185Y-135653601D01*
X190695032Y-135043705D02*
X190661960Y-134612110D01*
X180786387Y-133658009D02*
X180700512Y-136161991D01*
X191355810Y-134390104D02*
X191209181Y-135653601D01*
X188416268Y-136040426D02*
X188287272Y-133786093D01*
X179284325Y-136161991D02*
X179157141Y-133658009D01*
X191488943Y-135630697D02*
X191355810Y-134390104D01*
X178226145Y-133658009D02*
X178104170Y-136161991D01*
X192742373Y-134871939D02*
X192635950Y-135226683D01*
X176687981Y-136161991D02*
X176596900Y-133658009D01*
X191585186Y-134450621D02*
X191488943Y-135630697D01*
X189347187Y-135653601D02*
X189231531Y-134390104D01*
X190175656Y-134390104D02*
X190045435Y-135653601D01*
X181251887Y-133658009D02*
X181172576Y-136161991D01*
X178340201Y-136161991D02*
X178226145Y-133658009D01*
X191933760Y-135458670D02*
X191810248Y-134532370D01*
X176513530Y-120939288D02*
X176513530Y-118454021D01*
X188528845Y-119481474D02*
X191151155Y-119458525D01*
X177632105Y-136161991D02*
X177527895Y-133658009D01*
X177868138Y-136161991D02*
X177760645Y-133658009D01*
X180088139Y-133658009D02*
X179992419Y-136161991D01*
X179622639Y-133658009D02*
X179520356Y-136161991D01*
X181172576Y-136161991D02*
X181019137Y-133658009D01*
X193089003Y-135021574D02*
X192959490Y-135012327D01*
X176924012Y-136161991D02*
X176829648Y-133658009D01*
X188174320Y-118289999D02*
X188528845Y-119481474D01*
X178691643Y-133658009D02*
X178576232Y-136161991D01*
X176451951Y-136161991D02*
X176364150Y-133658009D01*
D11*
X180664320Y-44126209D02*
X181616701Y-44126209D01*
X180473844Y-44697638D02*
X181140510Y-42697638D01*
X181140510Y-42697638D02*
X181807177Y-44697638D01*
X182188130Y-43364304D02*
X182950034Y-43364304D01*
X182473844Y-42697638D02*
X182473844Y-44411923D01*
X182473844Y-44411923D02*
X182569082Y-44602400D01*
X182569082Y-44602400D02*
X182759558Y-44697638D01*
X182759558Y-44697638D02*
X182950034Y-44697638D01*
X183330987Y-43364304D02*
X184092891Y-43364304D01*
X183616701Y-42697638D02*
X183616701Y-44411923D01*
X183616701Y-44411923D02*
X183711939Y-44602400D01*
X183711939Y-44602400D02*
X183902415Y-44697638D01*
X183902415Y-44697638D02*
X184092891Y-44697638D01*
X185616701Y-44697638D02*
X185616701Y-43650019D01*
X185616701Y-43650019D02*
X185521463Y-43459542D01*
X185521463Y-43459542D02*
X185330987Y-43364304D01*
X185330987Y-43364304D02*
X184950034Y-43364304D01*
X184950034Y-43364304D02*
X184759558Y-43459542D01*
X185616701Y-44602400D02*
X185426225Y-44697638D01*
X185426225Y-44697638D02*
X184950034Y-44697638D01*
X184950034Y-44697638D02*
X184759558Y-44602400D01*
X184759558Y-44602400D02*
X184664320Y-44411923D01*
X184664320Y-44411923D02*
X184664320Y-44221447D01*
X184664320Y-44221447D02*
X184759558Y-44030971D01*
X184759558Y-44030971D02*
X184950034Y-43935733D01*
X184950034Y-43935733D02*
X185426225Y-43935733D01*
X185426225Y-43935733D02*
X185616701Y-43840495D01*
X187426225Y-44602400D02*
X187235749Y-44697638D01*
X187235749Y-44697638D02*
X186854796Y-44697638D01*
X186854796Y-44697638D02*
X186664320Y-44602400D01*
X186664320Y-44602400D02*
X186569082Y-44507161D01*
X186569082Y-44507161D02*
X186473844Y-44316685D01*
X186473844Y-44316685D02*
X186473844Y-43745257D01*
X186473844Y-43745257D02*
X186569082Y-43554780D01*
X186569082Y-43554780D02*
X186664320Y-43459542D01*
X186664320Y-43459542D02*
X186854796Y-43364304D01*
X186854796Y-43364304D02*
X187235749Y-43364304D01*
X187235749Y-43364304D02*
X187426225Y-43459542D01*
X188283368Y-44697638D02*
X188283368Y-42697638D01*
X188473844Y-43935733D02*
X189045273Y-44697638D01*
X189045273Y-43364304D02*
X188283368Y-44126209D01*
G36*
X189139942Y-145815535D02*
G01*
X189236208Y-145911801D01*
X189293082Y-146139292D01*
X189293082Y-146602363D01*
X189236208Y-146829854D01*
X189139941Y-146926122D01*
X189050529Y-146970828D01*
X188835635Y-146970828D01*
X188746221Y-146926121D01*
X188649954Y-146829854D01*
X188593082Y-146602364D01*
X188593082Y-146139291D01*
X188649954Y-145911802D01*
X188746221Y-145815534D01*
X188835635Y-145770828D01*
X189050529Y-145770828D01*
X189139942Y-145815535D01*
G37*
G36*
X192164511Y-147485114D02*
G01*
X188078796Y-147485114D01*
X188078796Y-146620828D01*
X188293082Y-146620828D01*
X188297872Y-146638705D01*
X188297561Y-146657208D01*
X188368989Y-146942922D01*
X188369621Y-146944060D01*
X188369621Y-146945365D01*
X188388433Y-146977948D01*
X188406675Y-147010809D01*
X188407792Y-147011479D01*
X188408444Y-147012608D01*
X188551302Y-147155466D01*
X188572216Y-147167540D01*
X188590286Y-147183564D01*
X188733144Y-147254992D01*
X188766919Y-147261903D01*
X188800225Y-147270828D01*
X189085939Y-147270828D01*
X189119242Y-147261904D01*
X189153021Y-147254992D01*
X189295878Y-147183564D01*
X189313947Y-147167540D01*
X189334862Y-147155466D01*
X189477719Y-147012608D01*
X189478370Y-147011479D01*
X189479488Y-147010809D01*
X189497744Y-146977922D01*
X189516542Y-146945364D01*
X189516542Y-146944061D01*
X189517174Y-146942923D01*
X189526269Y-146906542D01*
X189935939Y-146906542D01*
X189944862Y-146939843D01*
X189951775Y-146973624D01*
X190023204Y-147116482D01*
X190029289Y-147123344D01*
X190032191Y-147132049D01*
X190054731Y-147152036D01*
X190074719Y-147174577D01*
X190083423Y-147177478D01*
X190090286Y-147183564D01*
X190233144Y-147254992D01*
X190266919Y-147261903D01*
X190300225Y-147270828D01*
X190514511Y-147270828D01*
X190547814Y-147261904D01*
X190581593Y-147254992D01*
X190632569Y-147229504D01*
X190653797Y-147250732D01*
X190728797Y-147270828D01*
X190803797Y-147250732D01*
X190858701Y-147195828D01*
X190878797Y-147120828D01*
X190878797Y-146120828D01*
X191078797Y-146120828D01*
X191098893Y-146195828D01*
X191153797Y-146250732D01*
X191228797Y-146270828D01*
X191293082Y-146270828D01*
X191293082Y-146906542D01*
X191302005Y-146939843D01*
X191308918Y-146973624D01*
X191380347Y-147116482D01*
X191386432Y-147123344D01*
X191389334Y-147132049D01*
X191411874Y-147152036D01*
X191431862Y-147174577D01*
X191440566Y-147177478D01*
X191447429Y-147183564D01*
X191590287Y-147254992D01*
X191624062Y-147261903D01*
X191657368Y-147270828D01*
X191800225Y-147270828D01*
X191875225Y-147250732D01*
X191930129Y-147195828D01*
X191950225Y-147120828D01*
X191930129Y-147045828D01*
X191875225Y-146990924D01*
X191800225Y-146970828D01*
X191692778Y-146970828D01*
X191626314Y-146937596D01*
X191593082Y-146871132D01*
X191593082Y-146270828D01*
X191800225Y-146270828D01*
X191875225Y-146250732D01*
X191930129Y-146195828D01*
X191950225Y-146120828D01*
X191930129Y-146045828D01*
X191875225Y-145990924D01*
X191800225Y-145970828D01*
X191593082Y-145970828D01*
X191593082Y-145620828D01*
X191572986Y-145545828D01*
X191518082Y-145490924D01*
X191443082Y-145470828D01*
X191368082Y-145490924D01*
X191313178Y-145545828D01*
X191293082Y-145620828D01*
X191293082Y-145970828D01*
X191228797Y-145970828D01*
X191153797Y-145990924D01*
X191098893Y-146045828D01*
X191078797Y-146120828D01*
X190878797Y-146120828D01*
X190858701Y-146045828D01*
X190803797Y-145990924D01*
X190728797Y-145970828D01*
X190653797Y-145990924D01*
X190598893Y-146045828D01*
X190578797Y-146120828D01*
X190578797Y-146915839D01*
X190568513Y-146926122D01*
X190479101Y-146970828D01*
X190335635Y-146970828D01*
X190269171Y-146937596D01*
X190235939Y-146871132D01*
X190235939Y-146120828D01*
X190215843Y-146045828D01*
X190160939Y-145990924D01*
X190085939Y-145970828D01*
X190010939Y-145990924D01*
X189956035Y-146045828D01*
X189935939Y-146120828D01*
X189935939Y-146906542D01*
X189526269Y-146906542D01*
X189588603Y-146657209D01*
X189588291Y-146638704D01*
X189593082Y-146620828D01*
X189593082Y-146120828D01*
X189588291Y-146102951D01*
X189588603Y-146084447D01*
X189517174Y-145798733D01*
X189516542Y-145797594D01*
X189516542Y-145796291D01*
X189497736Y-145763719D01*
X189479488Y-145730847D01*
X189478370Y-145730176D01*
X189477719Y-145729048D01*
X189334862Y-145586191D01*
X189313946Y-145574115D01*
X189295878Y-145558093D01*
X189153021Y-145486664D01*
X189119240Y-145479751D01*
X189085939Y-145470828D01*
X188800225Y-145470828D01*
X188766924Y-145479750D01*
X188733142Y-145486664D01*
X188590286Y-145558093D01*
X188572216Y-145574115D01*
X188551302Y-145586191D01*
X188408444Y-145729048D01*
X188407792Y-145730176D01*
X188406675Y-145730847D01*
X188388433Y-145763707D01*
X188369621Y-145796291D01*
X188369621Y-145797595D01*
X188368989Y-145798734D01*
X188297561Y-146084448D01*
X188297872Y-146102950D01*
X188293082Y-146120828D01*
X188293082Y-146620828D01*
X188078796Y-146620828D01*
X188078796Y-145256542D01*
X192164511Y-145256542D01*
X192164511Y-147485114D01*
G37*
X180943558Y-77209638D02*
X180943558Y-75209638D01*
X180943558Y-75209638D02*
X181419748Y-75209638D01*
X181419748Y-75209638D02*
X181705463Y-75304876D01*
X181705463Y-75304876D02*
X181895939Y-75495352D01*
X181895939Y-75495352D02*
X181991177Y-75685828D01*
X181991177Y-75685828D02*
X182086415Y-76066780D01*
X182086415Y-76066780D02*
X182086415Y-76352495D01*
X182086415Y-76352495D02*
X181991177Y-76733447D01*
X181991177Y-76733447D02*
X181895939Y-76923923D01*
X181895939Y-76923923D02*
X181705463Y-77114400D01*
X181705463Y-77114400D02*
X181419748Y-77209638D01*
X181419748Y-77209638D02*
X180943558Y-77209638D01*
X183705463Y-77114400D02*
X183514987Y-77209638D01*
X183514987Y-77209638D02*
X183134034Y-77209638D01*
X183134034Y-77209638D02*
X182943558Y-77114400D01*
X182943558Y-77114400D02*
X182848320Y-76923923D01*
X182848320Y-76923923D02*
X182848320Y-76162019D01*
X182848320Y-76162019D02*
X182943558Y-75971542D01*
X182943558Y-75971542D02*
X183134034Y-75876304D01*
X183134034Y-75876304D02*
X183514987Y-75876304D01*
X183514987Y-75876304D02*
X183705463Y-75971542D01*
X183705463Y-75971542D02*
X183800701Y-76162019D01*
X183800701Y-76162019D02*
X183800701Y-76352495D01*
X183800701Y-76352495D02*
X182848320Y-76542971D01*
X185514987Y-77114400D02*
X185324511Y-77209638D01*
X185324511Y-77209638D02*
X184943558Y-77209638D01*
X184943558Y-77209638D02*
X184753082Y-77114400D01*
X184753082Y-77114400D02*
X184657844Y-77019161D01*
X184657844Y-77019161D02*
X184562606Y-76828685D01*
X184562606Y-76828685D02*
X184562606Y-76257257D01*
X184562606Y-76257257D02*
X184657844Y-76066780D01*
X184657844Y-76066780D02*
X184753082Y-75971542D01*
X184753082Y-75971542D02*
X184943558Y-75876304D01*
X184943558Y-75876304D02*
X185324511Y-75876304D01*
X185324511Y-75876304D02*
X185514987Y-75971542D01*
X187229273Y-77209638D02*
X187229273Y-76162019D01*
X187229273Y-76162019D02*
X187134035Y-75971542D01*
X187134035Y-75971542D02*
X186943559Y-75876304D01*
X186943559Y-75876304D02*
X186562606Y-75876304D01*
X186562606Y-75876304D02*
X186372130Y-75971542D01*
X187229273Y-77114400D02*
X187038797Y-77209638D01*
X187038797Y-77209638D02*
X186562606Y-77209638D01*
X186562606Y-77209638D02*
X186372130Y-77114400D01*
X186372130Y-77114400D02*
X186276892Y-76923923D01*
X186276892Y-76923923D02*
X186276892Y-76733447D01*
X186276892Y-76733447D02*
X186372130Y-76542971D01*
X186372130Y-76542971D02*
X186562606Y-76447733D01*
X186562606Y-76447733D02*
X187038797Y-76447733D01*
X187038797Y-76447733D02*
X187229273Y-76352495D01*
X187991178Y-75876304D02*
X188467368Y-77209638D01*
X188943559Y-75876304D02*
X188467368Y-77209638D01*
X188467368Y-77209638D02*
X188276892Y-77685828D01*
X188276892Y-77685828D02*
X188181654Y-77781066D01*
X188181654Y-77781066D02*
X187991178Y-77876304D01*
X179688320Y-60444400D02*
X179974034Y-60539638D01*
X179974034Y-60539638D02*
X180450225Y-60539638D01*
X180450225Y-60539638D02*
X180640701Y-60444400D01*
X180640701Y-60444400D02*
X180735939Y-60349161D01*
X180735939Y-60349161D02*
X180831177Y-60158685D01*
X180831177Y-60158685D02*
X180831177Y-59968209D01*
X180831177Y-59968209D02*
X180735939Y-59777733D01*
X180735939Y-59777733D02*
X180640701Y-59682495D01*
X180640701Y-59682495D02*
X180450225Y-59587257D01*
X180450225Y-59587257D02*
X180069272Y-59492019D01*
X180069272Y-59492019D02*
X179878796Y-59396780D01*
X179878796Y-59396780D02*
X179783558Y-59301542D01*
X179783558Y-59301542D02*
X179688320Y-59111066D01*
X179688320Y-59111066D02*
X179688320Y-58920590D01*
X179688320Y-58920590D02*
X179783558Y-58730114D01*
X179783558Y-58730114D02*
X179878796Y-58634876D01*
X179878796Y-58634876D02*
X180069272Y-58539638D01*
X180069272Y-58539638D02*
X180545463Y-58539638D01*
X180545463Y-58539638D02*
X180831177Y-58634876D01*
X182545463Y-59206304D02*
X182545463Y-60539638D01*
X181688320Y-59206304D02*
X181688320Y-60253923D01*
X181688320Y-60253923D02*
X181783558Y-60444400D01*
X181783558Y-60444400D02*
X181974034Y-60539638D01*
X181974034Y-60539638D02*
X182259749Y-60539638D01*
X182259749Y-60539638D02*
X182450225Y-60444400D01*
X182450225Y-60444400D02*
X182545463Y-60349161D01*
X183402606Y-60444400D02*
X183593082Y-60539638D01*
X183593082Y-60539638D02*
X183974034Y-60539638D01*
X183974034Y-60539638D02*
X184164511Y-60444400D01*
X184164511Y-60444400D02*
X184259749Y-60253923D01*
X184259749Y-60253923D02*
X184259749Y-60158685D01*
X184259749Y-60158685D02*
X184164511Y-59968209D01*
X184164511Y-59968209D02*
X183974034Y-59872971D01*
X183974034Y-59872971D02*
X183688320Y-59872971D01*
X183688320Y-59872971D02*
X183497844Y-59777733D01*
X183497844Y-59777733D02*
X183402606Y-59587257D01*
X183402606Y-59587257D02*
X183402606Y-59492019D01*
X183402606Y-59492019D02*
X183497844Y-59301542D01*
X183497844Y-59301542D02*
X183688320Y-59206304D01*
X183688320Y-59206304D02*
X183974034Y-59206304D01*
X183974034Y-59206304D02*
X184164511Y-59301542D01*
X184831178Y-59206304D02*
X185593082Y-59206304D01*
X185116892Y-58539638D02*
X185116892Y-60253923D01*
X185116892Y-60253923D02*
X185212130Y-60444400D01*
X185212130Y-60444400D02*
X185402606Y-60539638D01*
X185402606Y-60539638D02*
X185593082Y-60539638D01*
X187116892Y-60539638D02*
X187116892Y-59492019D01*
X187116892Y-59492019D02*
X187021654Y-59301542D01*
X187021654Y-59301542D02*
X186831178Y-59206304D01*
X186831178Y-59206304D02*
X186450225Y-59206304D01*
X186450225Y-59206304D02*
X186259749Y-59301542D01*
X187116892Y-60444400D02*
X186926416Y-60539638D01*
X186926416Y-60539638D02*
X186450225Y-60539638D01*
X186450225Y-60539638D02*
X186259749Y-60444400D01*
X186259749Y-60444400D02*
X186164511Y-60253923D01*
X186164511Y-60253923D02*
X186164511Y-60063447D01*
X186164511Y-60063447D02*
X186259749Y-59872971D01*
X186259749Y-59872971D02*
X186450225Y-59777733D01*
X186450225Y-59777733D02*
X186926416Y-59777733D01*
X186926416Y-59777733D02*
X187116892Y-59682495D01*
X188069273Y-60539638D02*
X188069273Y-59206304D01*
X188069273Y-58539638D02*
X187974035Y-58634876D01*
X187974035Y-58634876D02*
X188069273Y-58730114D01*
X188069273Y-58730114D02*
X188164511Y-58634876D01*
X188164511Y-58634876D02*
X188069273Y-58539638D01*
X188069273Y-58539638D02*
X188069273Y-58730114D01*
X189021654Y-59206304D02*
X189021654Y-60539638D01*
X189021654Y-59396780D02*
X189116892Y-59301542D01*
X189116892Y-59301542D02*
X189307368Y-59206304D01*
X189307368Y-59206304D02*
X189593083Y-59206304D01*
X189593083Y-59206304D02*
X189783559Y-59301542D01*
X189783559Y-59301542D02*
X189878797Y-59492019D01*
X189878797Y-59492019D02*
X189878797Y-60539638D01*
X177250225Y-110390828D02*
X177535939Y-110390828D01*
X177535939Y-110390828D02*
X177678796Y-110462257D01*
X177678796Y-110462257D02*
X177821653Y-110605114D01*
X177821653Y-110605114D02*
X177893082Y-110890828D01*
X177893082Y-110890828D02*
X177893082Y-111390828D01*
X177893082Y-111390828D02*
X177821653Y-111676542D01*
X177821653Y-111676542D02*
X177678796Y-111819400D01*
X177678796Y-111819400D02*
X177535939Y-111890828D01*
X177535939Y-111890828D02*
X177250225Y-111890828D01*
X177250225Y-111890828D02*
X177107368Y-111819400D01*
X177107368Y-111819400D02*
X176964510Y-111676542D01*
X176964510Y-111676542D02*
X176893082Y-111390828D01*
X176893082Y-111390828D02*
X176893082Y-110890828D01*
X176893082Y-110890828D02*
X176964510Y-110605114D01*
X176964510Y-110605114D02*
X177107368Y-110462257D01*
X177107368Y-110462257D02*
X177250225Y-110390828D01*
X178535939Y-110890828D02*
X178535939Y-111890828D01*
X178535939Y-111033685D02*
X178607368Y-110962257D01*
X178607368Y-110962257D02*
X178750225Y-110890828D01*
X178750225Y-110890828D02*
X178964511Y-110890828D01*
X178964511Y-110890828D02*
X179107368Y-110962257D01*
X179107368Y-110962257D02*
X179178797Y-111105114D01*
X179178797Y-111105114D02*
X179178797Y-111890828D01*
X175584225Y-130452257D02*
X175441368Y-130380828D01*
X175441368Y-130380828D02*
X175227082Y-130380828D01*
X175227082Y-130380828D02*
X175012796Y-130452257D01*
X175012796Y-130452257D02*
X174869939Y-130595114D01*
X174869939Y-130595114D02*
X174798510Y-130737971D01*
X174798510Y-130737971D02*
X174727082Y-131023685D01*
X174727082Y-131023685D02*
X174727082Y-131237971D01*
X174727082Y-131237971D02*
X174798510Y-131523685D01*
X174798510Y-131523685D02*
X174869939Y-131666542D01*
X174869939Y-131666542D02*
X175012796Y-131809400D01*
X175012796Y-131809400D02*
X175227082Y-131880828D01*
X175227082Y-131880828D02*
X175369939Y-131880828D01*
X175369939Y-131880828D02*
X175584225Y-131809400D01*
X175584225Y-131809400D02*
X175655653Y-131737971D01*
X175655653Y-131737971D02*
X175655653Y-131237971D01*
X175655653Y-131237971D02*
X175369939Y-131237971D01*
X176941368Y-131880828D02*
X176941368Y-131095114D01*
X176941368Y-131095114D02*
X176869939Y-130952257D01*
X176869939Y-130952257D02*
X176727082Y-130880828D01*
X176727082Y-130880828D02*
X176441368Y-130880828D01*
X176441368Y-130880828D02*
X176298510Y-130952257D01*
X176941368Y-131809400D02*
X176798510Y-131880828D01*
X176798510Y-131880828D02*
X176441368Y-131880828D01*
X176441368Y-131880828D02*
X176298510Y-131809400D01*
X176298510Y-131809400D02*
X176227082Y-131666542D01*
X176227082Y-131666542D02*
X176227082Y-131523685D01*
X176227082Y-131523685D02*
X176298510Y-131380828D01*
X176298510Y-131380828D02*
X176441368Y-131309400D01*
X176441368Y-131309400D02*
X176798510Y-131309400D01*
X176798510Y-131309400D02*
X176941368Y-131237971D01*
X177441368Y-130880828D02*
X178012796Y-130880828D01*
X177655653Y-130380828D02*
X177655653Y-131666542D01*
X177655653Y-131666542D02*
X177727082Y-131809400D01*
X177727082Y-131809400D02*
X177869939Y-131880828D01*
X177869939Y-131880828D02*
X178012796Y-131880828D01*
X179084225Y-131809400D02*
X178941368Y-131880828D01*
X178941368Y-131880828D02*
X178655654Y-131880828D01*
X178655654Y-131880828D02*
X178512796Y-131809400D01*
X178512796Y-131809400D02*
X178441368Y-131666542D01*
X178441368Y-131666542D02*
X178441368Y-131095114D01*
X178441368Y-131095114D02*
X178512796Y-130952257D01*
X178512796Y-130952257D02*
X178655654Y-130880828D01*
X178655654Y-130880828D02*
X178941368Y-130880828D01*
X178941368Y-130880828D02*
X179084225Y-130952257D01*
X179084225Y-130952257D02*
X179155654Y-131095114D01*
X179155654Y-131095114D02*
X179155654Y-131237971D01*
X179155654Y-131237971D02*
X178441368Y-131380828D01*
X180941367Y-131880828D02*
X180941367Y-130880828D01*
X180941367Y-130380828D02*
X180869939Y-130452257D01*
X180869939Y-130452257D02*
X180941367Y-130523685D01*
X180941367Y-130523685D02*
X181012796Y-130452257D01*
X181012796Y-130452257D02*
X180941367Y-130380828D01*
X180941367Y-130380828D02*
X180941367Y-130523685D01*
X181655653Y-130880828D02*
X181655653Y-131880828D01*
X181655653Y-131023685D02*
X181727082Y-130952257D01*
X181727082Y-130952257D02*
X181869939Y-130880828D01*
X181869939Y-130880828D02*
X182084225Y-130880828D01*
X182084225Y-130880828D02*
X182227082Y-130952257D01*
X182227082Y-130952257D02*
X182298511Y-131095114D01*
X182298511Y-131095114D02*
X182298511Y-131880828D01*
X180441939Y-93973638D02*
X179489558Y-93973638D01*
X179489558Y-93973638D02*
X179489558Y-91973638D01*
X180822892Y-92640304D02*
X181584796Y-92640304D01*
X181108606Y-93973638D02*
X181108606Y-92259352D01*
X181108606Y-92259352D02*
X181203844Y-92068876D01*
X181203844Y-92068876D02*
X181394320Y-91973638D01*
X181394320Y-91973638D02*
X181584796Y-91973638D01*
X182537177Y-93973638D02*
X182346701Y-93878400D01*
X182346701Y-93878400D02*
X182251463Y-93783161D01*
X182251463Y-93783161D02*
X182156225Y-93592685D01*
X182156225Y-93592685D02*
X182156225Y-93021257D01*
X182156225Y-93021257D02*
X182251463Y-92830780D01*
X182251463Y-92830780D02*
X182346701Y-92735542D01*
X182346701Y-92735542D02*
X182537177Y-92640304D01*
X182537177Y-92640304D02*
X182822892Y-92640304D01*
X182822892Y-92640304D02*
X183013368Y-92735542D01*
X183013368Y-92735542D02*
X183108606Y-92830780D01*
X183108606Y-92830780D02*
X183203844Y-93021257D01*
X183203844Y-93021257D02*
X183203844Y-93592685D01*
X183203844Y-93592685D02*
X183108606Y-93783161D01*
X183108606Y-93783161D02*
X183013368Y-93878400D01*
X183013368Y-93878400D02*
X182822892Y-93973638D01*
X182822892Y-93973638D02*
X182537177Y-93973638D01*
X185584797Y-93973638D02*
X185584797Y-92640304D01*
X185584797Y-93021257D02*
X185680035Y-92830780D01*
X185680035Y-92830780D02*
X185775273Y-92735542D01*
X185775273Y-92735542D02*
X185965749Y-92640304D01*
X185965749Y-92640304D02*
X186156226Y-92640304D01*
X187680035Y-93973638D02*
X187680035Y-92926019D01*
X187680035Y-92926019D02*
X187584797Y-92735542D01*
X187584797Y-92735542D02*
X187394321Y-92640304D01*
X187394321Y-92640304D02*
X187013368Y-92640304D01*
X187013368Y-92640304D02*
X186822892Y-92735542D01*
X187680035Y-93878400D02*
X187489559Y-93973638D01*
X187489559Y-93973638D02*
X187013368Y-93973638D01*
X187013368Y-93973638D02*
X186822892Y-93878400D01*
X186822892Y-93878400D02*
X186727654Y-93687923D01*
X186727654Y-93687923D02*
X186727654Y-93497447D01*
X186727654Y-93497447D02*
X186822892Y-93306971D01*
X186822892Y-93306971D02*
X187013368Y-93211733D01*
X187013368Y-93211733D02*
X187489559Y-93211733D01*
X187489559Y-93211733D02*
X187680035Y-93116495D01*
X188346702Y-92640304D02*
X189108606Y-92640304D01*
X188632416Y-91973638D02*
X188632416Y-93687923D01*
X188632416Y-93687923D02*
X188727654Y-93878400D01*
X188727654Y-93878400D02*
X188918130Y-93973638D01*
X188918130Y-93973638D02*
X189108606Y-93973638D01*
X190537178Y-93878400D02*
X190346702Y-93973638D01*
X190346702Y-93973638D02*
X189965749Y-93973638D01*
X189965749Y-93973638D02*
X189775273Y-93878400D01*
X189775273Y-93878400D02*
X189680035Y-93687923D01*
X189680035Y-93687923D02*
X189680035Y-92926019D01*
X189680035Y-92926019D02*
X189775273Y-92735542D01*
X189775273Y-92735542D02*
X189965749Y-92640304D01*
X189965749Y-92640304D02*
X190346702Y-92640304D01*
X190346702Y-92640304D02*
X190537178Y-92735542D01*
X190537178Y-92735542D02*
X190632416Y-92926019D01*
X190632416Y-92926019D02*
X190632416Y-93116495D01*
X190632416Y-93116495D02*
X189680035Y-93306971D01*
X178134510Y-147120828D02*
X178134510Y-145620828D01*
X178848796Y-146120828D02*
X178848796Y-147120828D01*
X178848796Y-146263685D02*
X178920225Y-146192257D01*
X178920225Y-146192257D02*
X179063082Y-146120828D01*
X179063082Y-146120828D02*
X179277368Y-146120828D01*
X179277368Y-146120828D02*
X179420225Y-146192257D01*
X179420225Y-146192257D02*
X179491654Y-146335114D01*
X179491654Y-146335114D02*
X179491654Y-147120828D01*
X189670225Y-110320828D02*
X189955939Y-110320828D01*
X189955939Y-110320828D02*
X190098796Y-110392257D01*
X190098796Y-110392257D02*
X190241653Y-110535114D01*
X190241653Y-110535114D02*
X190313082Y-110820828D01*
X190313082Y-110820828D02*
X190313082Y-111320828D01*
X190313082Y-111320828D02*
X190241653Y-111606542D01*
X190241653Y-111606542D02*
X190098796Y-111749400D01*
X190098796Y-111749400D02*
X189955939Y-111820828D01*
X189955939Y-111820828D02*
X189670225Y-111820828D01*
X189670225Y-111820828D02*
X189527368Y-111749400D01*
X189527368Y-111749400D02*
X189384510Y-111606542D01*
X189384510Y-111606542D02*
X189313082Y-111320828D01*
X189313082Y-111320828D02*
X189313082Y-110820828D01*
X189313082Y-110820828D02*
X189384510Y-110535114D01*
X189384510Y-110535114D02*
X189527368Y-110392257D01*
X189527368Y-110392257D02*
X189670225Y-110320828D01*
X190741654Y-110820828D02*
X191313082Y-110820828D01*
X190955939Y-111820828D02*
X190955939Y-110535114D01*
X190955939Y-110535114D02*
X191027368Y-110392257D01*
X191027368Y-110392257D02*
X191170225Y-110320828D01*
X191170225Y-110320828D02*
X191313082Y-110320828D01*
X191598797Y-110820828D02*
X192170225Y-110820828D01*
X191813082Y-111820828D02*
X191813082Y-110535114D01*
X191813082Y-110535114D02*
X191884511Y-110392257D01*
X191884511Y-110392257D02*
X192027368Y-110320828D01*
X192027368Y-110320828D02*
X192170225Y-110320828D01*
G36*
X190750800Y-131075535D02*
G01*
X190787804Y-131112539D01*
X190832510Y-131201951D01*
X190832510Y-131559704D01*
X190787803Y-131649117D01*
X190750798Y-131686122D01*
X190661386Y-131730828D01*
X190517920Y-131730828D01*
X190428506Y-131686121D01*
X190391501Y-131649116D01*
X190346796Y-131559704D01*
X190346796Y-131201951D01*
X190391501Y-131112540D01*
X190428506Y-131075535D01*
X190517920Y-131030828D01*
X190661386Y-131030828D01*
X190750800Y-131075535D01*
G37*
G36*
X193703939Y-132245114D02*
G01*
X186046796Y-132245114D01*
X186046796Y-131237971D01*
X186261082Y-131237971D01*
X186265872Y-131255848D01*
X186265561Y-131274351D01*
X186336989Y-131560065D01*
X186345025Y-131574542D01*
X186348346Y-131590767D01*
X186419775Y-131733624D01*
X186435797Y-131751693D01*
X186447873Y-131772608D01*
X186590730Y-131915466D01*
X186620589Y-131932705D01*
X186649362Y-131951703D01*
X186863648Y-132023131D01*
X186887756Y-132024578D01*
X186911082Y-132030828D01*
X187053939Y-132030828D01*
X187077264Y-132024578D01*
X187101373Y-132023131D01*
X187315659Y-131951703D01*
X187344434Y-131932703D01*
X187374292Y-131915465D01*
X187445720Y-131844036D01*
X187484542Y-131776793D01*
X187484542Y-131699147D01*
X187445718Y-131631904D01*
X187378475Y-131593082D01*
X187300829Y-131593082D01*
X187233586Y-131631906D01*
X187187198Y-131678294D01*
X187029596Y-131730828D01*
X186935425Y-131730828D01*
X186777822Y-131678294D01*
X186677217Y-131577688D01*
X186624036Y-131471328D01*
X186561082Y-131219507D01*
X186561082Y-131042148D01*
X186608146Y-130853889D01*
X187692092Y-130853889D01*
X187698392Y-130931278D01*
X188055535Y-131931278D01*
X188070902Y-131953510D01*
X188082474Y-131977939D01*
X188092650Y-131984973D01*
X188099685Y-131995150D01*
X188124113Y-132006721D01*
X188146346Y-132022089D01*
X188158675Y-132023092D01*
X188169857Y-132028389D01*
X188196796Y-132026195D01*
X188223735Y-132028389D01*
X188234916Y-132023092D01*
X188247246Y-132022089D01*
X188269478Y-132006721D01*
X188293907Y-131995150D01*
X188300941Y-131984973D01*
X188311118Y-131977939D01*
X188322689Y-131953510D01*
X188338057Y-131931278D01*
X188458116Y-131595114D01*
X190046796Y-131595114D01*
X190055719Y-131628417D01*
X190062632Y-131662196D01*
X190134060Y-131805053D01*
X190150083Y-131823122D01*
X190162158Y-131844037D01*
X190233587Y-131915466D01*
X190254501Y-131927540D01*
X190272571Y-131943564D01*
X190415429Y-132014992D01*
X190449204Y-132021903D01*
X190482510Y-132030828D01*
X190696796Y-132030828D01*
X190730099Y-132021904D01*
X190763878Y-132014992D01*
X190906735Y-131943564D01*
X190924804Y-131927540D01*
X190945719Y-131915466D01*
X191017148Y-131844037D01*
X191029222Y-131823122D01*
X191045246Y-131805053D01*
X191114501Y-131666542D01*
X191475367Y-131666542D01*
X191484290Y-131699843D01*
X191491203Y-131733624D01*
X191562632Y-131876482D01*
X191568717Y-131883344D01*
X191571619Y-131892049D01*
X191594159Y-131912036D01*
X191614147Y-131934577D01*
X191622851Y-131937478D01*
X191629714Y-131943564D01*
X191772572Y-132014992D01*
X191806347Y-132021903D01*
X191839653Y-132030828D01*
X192053939Y-132030828D01*
X192087242Y-132021904D01*
X192121021Y-132014992D01*
X192171997Y-131989504D01*
X192193225Y-132010732D01*
X192268225Y-132030828D01*
X192343225Y-132010732D01*
X192398129Y-131955828D01*
X192418225Y-131880828D01*
X192418225Y-130880828D01*
X192618225Y-130880828D01*
X192638321Y-130955828D01*
X192693225Y-131010732D01*
X192768225Y-131030828D01*
X192832510Y-131030828D01*
X192832510Y-131666542D01*
X192841433Y-131699843D01*
X192848346Y-131733624D01*
X192919775Y-131876482D01*
X192925860Y-131883344D01*
X192928762Y-131892049D01*
X192951302Y-131912036D01*
X192971290Y-131934577D01*
X192979994Y-131937478D01*
X192986857Y-131943564D01*
X193129715Y-132014992D01*
X193163490Y-132021903D01*
X193196796Y-132030828D01*
X193339653Y-132030828D01*
X193414653Y-132010732D01*
X193469557Y-131955828D01*
X193489653Y-131880828D01*
X193469557Y-131805828D01*
X193414653Y-131750924D01*
X193339653Y-131730828D01*
X193232206Y-131730828D01*
X193165742Y-131697596D01*
X193132510Y-131631132D01*
X193132510Y-131030828D01*
X193339653Y-131030828D01*
X193414653Y-131010732D01*
X193469557Y-130955828D01*
X193489653Y-130880828D01*
X193469557Y-130805828D01*
X193414653Y-130750924D01*
X193339653Y-130730828D01*
X193132510Y-130730828D01*
X193132510Y-130380828D01*
X193112414Y-130305828D01*
X193057510Y-130250924D01*
X192982510Y-130230828D01*
X192907510Y-130250924D01*
X192852606Y-130305828D01*
X192832510Y-130380828D01*
X192832510Y-130730828D01*
X192768225Y-130730828D01*
X192693225Y-130750924D01*
X192638321Y-130805828D01*
X192618225Y-130880828D01*
X192418225Y-130880828D01*
X192398129Y-130805828D01*
X192343225Y-130750924D01*
X192268225Y-130730828D01*
X192193225Y-130750924D01*
X192138321Y-130805828D01*
X192118225Y-130880828D01*
X192118225Y-131675839D01*
X192107941Y-131686122D01*
X192018529Y-131730828D01*
X191875063Y-131730828D01*
X191808599Y-131697596D01*
X191775367Y-131631132D01*
X191775367Y-130880828D01*
X191755271Y-130805828D01*
X191700367Y-130750924D01*
X191625367Y-130730828D01*
X191550367Y-130750924D01*
X191495463Y-130805828D01*
X191475367Y-130880828D01*
X191475367Y-131666542D01*
X191114501Y-131666542D01*
X191116674Y-131662195D01*
X191123585Y-131628419D01*
X191132510Y-131595114D01*
X191132510Y-131166542D01*
X191123585Y-131133236D01*
X191116674Y-131099461D01*
X191045246Y-130956603D01*
X191029222Y-130938533D01*
X191017147Y-130917618D01*
X190945718Y-130846190D01*
X190924803Y-130834115D01*
X190906735Y-130818093D01*
X190763878Y-130746664D01*
X190730097Y-130739751D01*
X190696796Y-130730828D01*
X190482510Y-130730828D01*
X190449209Y-130739750D01*
X190415427Y-130746664D01*
X190272571Y-130818093D01*
X190254502Y-130834115D01*
X190233588Y-130846190D01*
X190162159Y-130917618D01*
X190150083Y-130938533D01*
X190134060Y-130956603D01*
X190062632Y-131099460D01*
X190055719Y-131133238D01*
X190046796Y-131166542D01*
X190046796Y-131595114D01*
X188458116Y-131595114D01*
X188695200Y-130931279D01*
X188701500Y-130853889D01*
X188668261Y-130783717D01*
X188604389Y-130739567D01*
X188527000Y-130733267D01*
X188456828Y-130766506D01*
X188412678Y-130830378D01*
X188196796Y-131434847D01*
X187980914Y-130830378D01*
X187936764Y-130766506D01*
X187866592Y-130733267D01*
X187789203Y-130739567D01*
X187725331Y-130783717D01*
X187692092Y-130853889D01*
X186608146Y-130853889D01*
X186624036Y-130790327D01*
X186677217Y-130683967D01*
X186777823Y-130583361D01*
X186935425Y-130530828D01*
X187029599Y-130530828D01*
X187187197Y-130583361D01*
X187233587Y-130629751D01*
X187300830Y-130668574D01*
X187378476Y-130668574D01*
X187445719Y-130629751D01*
X187484542Y-130562508D01*
X187484542Y-130484862D01*
X187445719Y-130417619D01*
X187374291Y-130346191D01*
X187344434Y-130328953D01*
X187315659Y-130309954D01*
X187101373Y-130238526D01*
X187077267Y-130237078D01*
X187053939Y-130230828D01*
X186911082Y-130230828D01*
X186887753Y-130237078D01*
X186863647Y-130238526D01*
X186649362Y-130309955D01*
X186620589Y-130328951D01*
X186590730Y-130346191D01*
X186447873Y-130489048D01*
X186435797Y-130509963D01*
X186419775Y-130528032D01*
X186348346Y-130670889D01*
X186345025Y-130687113D01*
X186336989Y-130701591D01*
X186265561Y-130987305D01*
X186265872Y-131005807D01*
X186261082Y-131023685D01*
X186261082Y-131237971D01*
X186046796Y-131237971D01*
X186046796Y-130016542D01*
X193703939Y-130016542D01*
X193703939Y-132245114D01*
G37*
X184664701Y-35299638D02*
X184664701Y-34252019D01*
X184664701Y-34252019D02*
X184569463Y-34061542D01*
X184569463Y-34061542D02*
X184378987Y-33966304D01*
X184378987Y-33966304D02*
X183998034Y-33966304D01*
X183998034Y-33966304D02*
X183807558Y-34061542D01*
X184664701Y-35204400D02*
X184474225Y-35299638D01*
X184474225Y-35299638D02*
X183998034Y-35299638D01*
X183998034Y-35299638D02*
X183807558Y-35204400D01*
X183807558Y-35204400D02*
X183712320Y-35013923D01*
X183712320Y-35013923D02*
X183712320Y-34823447D01*
X183712320Y-34823447D02*
X183807558Y-34632971D01*
X183807558Y-34632971D02*
X183998034Y-34537733D01*
X183998034Y-34537733D02*
X184474225Y-34537733D01*
X184474225Y-34537733D02*
X184664701Y-34442495D01*
X186474225Y-35299638D02*
X186474225Y-33299638D01*
X186474225Y-35204400D02*
X186283749Y-35299638D01*
X186283749Y-35299638D02*
X185902796Y-35299638D01*
X185902796Y-35299638D02*
X185712320Y-35204400D01*
X185712320Y-35204400D02*
X185617082Y-35109161D01*
X185617082Y-35109161D02*
X185521844Y-34918685D01*
X185521844Y-34918685D02*
X185521844Y-34347257D01*
X185521844Y-34347257D02*
X185617082Y-34156780D01*
X185617082Y-34156780D02*
X185712320Y-34061542D01*
X185712320Y-34061542D02*
X185902796Y-33966304D01*
X185902796Y-33966304D02*
X186283749Y-33966304D01*
X186283749Y-33966304D02*
X186474225Y-34061542D01*
X187426606Y-34537733D02*
X188950416Y-34537733D01*
X189712320Y-33966304D02*
X190188510Y-35299638D01*
X190188510Y-35299638D02*
X190664701Y-33966304D01*
X192283749Y-35204400D02*
X192093273Y-35299638D01*
X192093273Y-35299638D02*
X191712320Y-35299638D01*
X191712320Y-35299638D02*
X191521844Y-35204400D01*
X191521844Y-35204400D02*
X191426606Y-35109161D01*
X191426606Y-35109161D02*
X191331368Y-34918685D01*
X191331368Y-34918685D02*
X191331368Y-34347257D01*
X191331368Y-34347257D02*
X191426606Y-34156780D01*
X191426606Y-34156780D02*
X191521844Y-34061542D01*
X191521844Y-34061542D02*
X191712320Y-33966304D01*
X191712320Y-33966304D02*
X192093273Y-33966304D01*
X192093273Y-33966304D02*
X192283749Y-34061542D01*
X193998035Y-35299638D02*
X193998035Y-34252019D01*
X193998035Y-34252019D02*
X193902797Y-34061542D01*
X193902797Y-34061542D02*
X193712321Y-33966304D01*
X193712321Y-33966304D02*
X193331368Y-33966304D01*
X193331368Y-33966304D02*
X193140892Y-34061542D01*
X193998035Y-35204400D02*
X193807559Y-35299638D01*
X193807559Y-35299638D02*
X193331368Y-35299638D01*
X193331368Y-35299638D02*
X193140892Y-35204400D01*
X193140892Y-35204400D02*
X193045654Y-35013923D01*
X193045654Y-35013923D02*
X193045654Y-34823447D01*
X193045654Y-34823447D02*
X193140892Y-34632971D01*
X193140892Y-34632971D02*
X193331368Y-34537733D01*
X193331368Y-34537733D02*
X193807559Y-34537733D01*
X193807559Y-34537733D02*
X193998035Y-34442495D01*
D12*
X101047580Y-70184666D02*
X101095200Y-70232285D01*
X101095200Y-70232285D02*
X101142819Y-70375142D01*
X101142819Y-70375142D02*
X101142819Y-70470380D01*
X101142819Y-70470380D02*
X101095200Y-70613237D01*
X101095200Y-70613237D02*
X100999961Y-70708475D01*
X100999961Y-70708475D02*
X100904723Y-70756094D01*
X100904723Y-70756094D02*
X100714247Y-70803713D01*
X100714247Y-70803713D02*
X100571390Y-70803713D01*
X100571390Y-70803713D02*
X100380914Y-70756094D01*
X100380914Y-70756094D02*
X100285676Y-70708475D01*
X100285676Y-70708475D02*
X100190438Y-70613237D01*
X100190438Y-70613237D02*
X100142819Y-70470380D01*
X100142819Y-70470380D02*
X100142819Y-70375142D01*
X100142819Y-70375142D02*
X100190438Y-70232285D01*
X100190438Y-70232285D02*
X100238057Y-70184666D01*
X100238057Y-69803713D02*
X100190438Y-69756094D01*
X100190438Y-69756094D02*
X100142819Y-69660856D01*
X100142819Y-69660856D02*
X100142819Y-69422761D01*
X100142819Y-69422761D02*
X100190438Y-69327523D01*
X100190438Y-69327523D02*
X100238057Y-69279904D01*
X100238057Y-69279904D02*
X100333295Y-69232285D01*
X100333295Y-69232285D02*
X100428533Y-69232285D01*
X100428533Y-69232285D02*
X100571390Y-69279904D01*
X100571390Y-69279904D02*
X101142819Y-69851332D01*
X101142819Y-69851332D02*
X101142819Y-69232285D01*
X116209580Y-54036666D02*
X116257200Y-54084285D01*
X116257200Y-54084285D02*
X116304819Y-54227142D01*
X116304819Y-54227142D02*
X116304819Y-54322380D01*
X116304819Y-54322380D02*
X116257200Y-54465237D01*
X116257200Y-54465237D02*
X116161961Y-54560475D01*
X116161961Y-54560475D02*
X116066723Y-54608094D01*
X116066723Y-54608094D02*
X115876247Y-54655713D01*
X115876247Y-54655713D02*
X115733390Y-54655713D01*
X115733390Y-54655713D02*
X115542914Y-54608094D01*
X115542914Y-54608094D02*
X115447676Y-54560475D01*
X115447676Y-54560475D02*
X115352438Y-54465237D01*
X115352438Y-54465237D02*
X115304819Y-54322380D01*
X115304819Y-54322380D02*
X115304819Y-54227142D01*
X115304819Y-54227142D02*
X115352438Y-54084285D01*
X115352438Y-54084285D02*
X115400057Y-54036666D01*
X116304819Y-53084285D02*
X116304819Y-53655713D01*
X116304819Y-53369999D02*
X115304819Y-53369999D01*
X115304819Y-53369999D02*
X115447676Y-53465237D01*
X115447676Y-53465237D02*
X115542914Y-53560475D01*
X115542914Y-53560475D02*
X115590533Y-53655713D01*
X100313333Y-139449580D02*
X100265714Y-139497200D01*
X100265714Y-139497200D02*
X100122857Y-139544819D01*
X100122857Y-139544819D02*
X100027619Y-139544819D01*
X100027619Y-139544819D02*
X99884762Y-139497200D01*
X99884762Y-139497200D02*
X99789524Y-139401961D01*
X99789524Y-139401961D02*
X99741905Y-139306723D01*
X99741905Y-139306723D02*
X99694286Y-139116247D01*
X99694286Y-139116247D02*
X99694286Y-138973390D01*
X99694286Y-138973390D02*
X99741905Y-138782914D01*
X99741905Y-138782914D02*
X99789524Y-138687676D01*
X99789524Y-138687676D02*
X99884762Y-138592438D01*
X99884762Y-138592438D02*
X100027619Y-138544819D01*
X100027619Y-138544819D02*
X100122857Y-138544819D01*
X100122857Y-138544819D02*
X100265714Y-138592438D01*
X100265714Y-138592438D02*
X100313333Y-138640057D01*
X101218095Y-138544819D02*
X100741905Y-138544819D01*
X100741905Y-138544819D02*
X100694286Y-139021009D01*
X100694286Y-139021009D02*
X100741905Y-138973390D01*
X100741905Y-138973390D02*
X100837143Y-138925771D01*
X100837143Y-138925771D02*
X101075238Y-138925771D01*
X101075238Y-138925771D02*
X101170476Y-138973390D01*
X101170476Y-138973390D02*
X101218095Y-139021009D01*
X101218095Y-139021009D02*
X101265714Y-139116247D01*
X101265714Y-139116247D02*
X101265714Y-139354342D01*
X101265714Y-139354342D02*
X101218095Y-139449580D01*
X101218095Y-139449580D02*
X101170476Y-139497200D01*
X101170476Y-139497200D02*
X101075238Y-139544819D01*
X101075238Y-139544819D02*
X100837143Y-139544819D01*
X100837143Y-139544819D02*
X100741905Y-139497200D01*
X100741905Y-139497200D02*
X100694286Y-139449580D01*
X100433333Y-143369580D02*
X100385714Y-143417200D01*
X100385714Y-143417200D02*
X100242857Y-143464819D01*
X100242857Y-143464819D02*
X100147619Y-143464819D01*
X100147619Y-143464819D02*
X100004762Y-143417200D01*
X100004762Y-143417200D02*
X99909524Y-143321961D01*
X99909524Y-143321961D02*
X99861905Y-143226723D01*
X99861905Y-143226723D02*
X99814286Y-143036247D01*
X99814286Y-143036247D02*
X99814286Y-142893390D01*
X99814286Y-142893390D02*
X99861905Y-142702914D01*
X99861905Y-142702914D02*
X99909524Y-142607676D01*
X99909524Y-142607676D02*
X100004762Y-142512438D01*
X100004762Y-142512438D02*
X100147619Y-142464819D01*
X100147619Y-142464819D02*
X100242857Y-142464819D01*
X100242857Y-142464819D02*
X100385714Y-142512438D01*
X100385714Y-142512438D02*
X100433333Y-142560057D01*
X101290476Y-142798152D02*
X101290476Y-143464819D01*
X101052381Y-142417200D02*
X100814286Y-143131485D01*
X100814286Y-143131485D02*
X101433333Y-143131485D01*
X138913779Y-95345019D02*
X138913779Y-94345019D01*
X138913779Y-94345019D02*
X139294731Y-94345019D01*
X139294731Y-94345019D02*
X139389969Y-94392638D01*
X139389969Y-94392638D02*
X139437588Y-94440257D01*
X139437588Y-94440257D02*
X139485207Y-94535495D01*
X139485207Y-94535495D02*
X139485207Y-94678352D01*
X139485207Y-94678352D02*
X139437588Y-94773590D01*
X139437588Y-94773590D02*
X139389969Y-94821209D01*
X139389969Y-94821209D02*
X139294731Y-94868828D01*
X139294731Y-94868828D02*
X138913779Y-94868828D01*
X140104255Y-94345019D02*
X140294731Y-94345019D01*
X140294731Y-94345019D02*
X140389969Y-94392638D01*
X140389969Y-94392638D02*
X140485207Y-94487876D01*
X140485207Y-94487876D02*
X140532826Y-94678352D01*
X140532826Y-94678352D02*
X140532826Y-95011685D01*
X140532826Y-95011685D02*
X140485207Y-95202161D01*
X140485207Y-95202161D02*
X140389969Y-95297400D01*
X140389969Y-95297400D02*
X140294731Y-95345019D01*
X140294731Y-95345019D02*
X140104255Y-95345019D01*
X140104255Y-95345019D02*
X140009017Y-95297400D01*
X140009017Y-95297400D02*
X139913779Y-95202161D01*
X139913779Y-95202161D02*
X139866160Y-95011685D01*
X139866160Y-95011685D02*
X139866160Y-94678352D01*
X139866160Y-94678352D02*
X139913779Y-94487876D01*
X139913779Y-94487876D02*
X140009017Y-94392638D01*
X140009017Y-94392638D02*
X140104255Y-94345019D01*
X140818541Y-94345019D02*
X141389969Y-94345019D01*
X141104255Y-95345019D02*
X141104255Y-94345019D01*
X142151874Y-94678352D02*
X142151874Y-95345019D01*
X141913779Y-94297400D02*
X141675684Y-95011685D01*
X141675684Y-95011685D02*
X142294731Y-95011685D01*
X138782588Y-104328219D02*
X138211160Y-104328219D01*
X138496874Y-104328219D02*
X138496874Y-103328219D01*
X138496874Y-103328219D02*
X138401636Y-103471076D01*
X138401636Y-103471076D02*
X138306398Y-103566314D01*
X138306398Y-103566314D02*
X138211160Y-103613933D01*
X139211160Y-104328219D02*
X139211160Y-103328219D01*
X139211160Y-103328219D02*
X139544493Y-104042504D01*
X139544493Y-104042504D02*
X139877826Y-103328219D01*
X139877826Y-103328219D02*
X139877826Y-104328219D01*
X138191999Y-100063219D02*
X138191999Y-99063219D01*
X138191999Y-99063219D02*
X138406285Y-99063219D01*
X138406285Y-99063219D02*
X138534856Y-99110838D01*
X138534856Y-99110838D02*
X138620571Y-99206076D01*
X138620571Y-99206076D02*
X138663428Y-99301314D01*
X138663428Y-99301314D02*
X138706285Y-99491790D01*
X138706285Y-99491790D02*
X138706285Y-99634647D01*
X138706285Y-99634647D02*
X138663428Y-99825123D01*
X138663428Y-99825123D02*
X138620571Y-99920361D01*
X138620571Y-99920361D02*
X138534856Y-100015600D01*
X138534856Y-100015600D02*
X138406285Y-100063219D01*
X138406285Y-100063219D02*
X138191999Y-100063219D01*
X139049142Y-100015600D02*
X139177714Y-100063219D01*
X139177714Y-100063219D02*
X139391999Y-100063219D01*
X139391999Y-100063219D02*
X139477714Y-100015600D01*
X139477714Y-100015600D02*
X139520571Y-99967980D01*
X139520571Y-99967980D02*
X139563428Y-99872742D01*
X139563428Y-99872742D02*
X139563428Y-99777504D01*
X139563428Y-99777504D02*
X139520571Y-99682266D01*
X139520571Y-99682266D02*
X139477714Y-99634647D01*
X139477714Y-99634647D02*
X139391999Y-99587028D01*
X139391999Y-99587028D02*
X139220571Y-99539409D01*
X139220571Y-99539409D02*
X139134856Y-99491790D01*
X139134856Y-99491790D02*
X139091999Y-99444171D01*
X139091999Y-99444171D02*
X139049142Y-99348933D01*
X139049142Y-99348933D02*
X139049142Y-99253695D01*
X139049142Y-99253695D02*
X139091999Y-99158457D01*
X139091999Y-99158457D02*
X139134856Y-99110838D01*
X139134856Y-99110838D02*
X139220571Y-99063219D01*
X139220571Y-99063219D02*
X139434856Y-99063219D01*
X139434856Y-99063219D02*
X139563428Y-99110838D01*
X139949142Y-100063219D02*
X139949142Y-99063219D01*
X139949142Y-99539409D02*
X140463428Y-99539409D01*
X140463428Y-100063219D02*
X140463428Y-99063219D01*
X140849142Y-99777504D02*
X141277714Y-99777504D01*
X140763428Y-100063219D02*
X141063428Y-99063219D01*
X141063428Y-99063219D02*
X141363428Y-100063219D01*
X141963428Y-99539409D02*
X141663428Y-99539409D01*
X141663428Y-100063219D02*
X141663428Y-99063219D01*
X141663428Y-99063219D02*
X142092000Y-99063219D01*
X142306286Y-99063219D02*
X142820572Y-99063219D01*
X142563429Y-100063219D02*
X142563429Y-99063219D01*
X100224819Y-108102857D02*
X99748628Y-108436190D01*
X100224819Y-108674285D02*
X99224819Y-108674285D01*
X99224819Y-108674285D02*
X99224819Y-108293333D01*
X99224819Y-108293333D02*
X99272438Y-108198095D01*
X99272438Y-108198095D02*
X99320057Y-108150476D01*
X99320057Y-108150476D02*
X99415295Y-108102857D01*
X99415295Y-108102857D02*
X99558152Y-108102857D01*
X99558152Y-108102857D02*
X99653390Y-108150476D01*
X99653390Y-108150476D02*
X99701009Y-108198095D01*
X99701009Y-108198095D02*
X99748628Y-108293333D01*
X99748628Y-108293333D02*
X99748628Y-108674285D01*
X100224819Y-107150476D02*
X100224819Y-107721904D01*
X100224819Y-107436190D02*
X99224819Y-107436190D01*
X99224819Y-107436190D02*
X99367676Y-107531428D01*
X99367676Y-107531428D02*
X99462914Y-107626666D01*
X99462914Y-107626666D02*
X99510533Y-107721904D01*
X99320057Y-106769523D02*
X99272438Y-106721904D01*
X99272438Y-106721904D02*
X99224819Y-106626666D01*
X99224819Y-106626666D02*
X99224819Y-106388571D01*
X99224819Y-106388571D02*
X99272438Y-106293333D01*
X99272438Y-106293333D02*
X99320057Y-106245714D01*
X99320057Y-106245714D02*
X99415295Y-106198095D01*
X99415295Y-106198095D02*
X99510533Y-106198095D01*
X99510533Y-106198095D02*
X99653390Y-106245714D01*
X99653390Y-106245714D02*
X100224819Y-106817142D01*
X100224819Y-106817142D02*
X100224819Y-106198095D01*
X96974819Y-122592857D02*
X96498628Y-122926190D01*
X96974819Y-123164285D02*
X95974819Y-123164285D01*
X95974819Y-123164285D02*
X95974819Y-122783333D01*
X95974819Y-122783333D02*
X96022438Y-122688095D01*
X96022438Y-122688095D02*
X96070057Y-122640476D01*
X96070057Y-122640476D02*
X96165295Y-122592857D01*
X96165295Y-122592857D02*
X96308152Y-122592857D01*
X96308152Y-122592857D02*
X96403390Y-122640476D01*
X96403390Y-122640476D02*
X96451009Y-122688095D01*
X96451009Y-122688095D02*
X96498628Y-122783333D01*
X96498628Y-122783333D02*
X96498628Y-123164285D01*
X96070057Y-122211904D02*
X96022438Y-122164285D01*
X96022438Y-122164285D02*
X95974819Y-122069047D01*
X95974819Y-122069047D02*
X95974819Y-121830952D01*
X95974819Y-121830952D02*
X96022438Y-121735714D01*
X96022438Y-121735714D02*
X96070057Y-121688095D01*
X96070057Y-121688095D02*
X96165295Y-121640476D01*
X96165295Y-121640476D02*
X96260533Y-121640476D01*
X96260533Y-121640476D02*
X96403390Y-121688095D01*
X96403390Y-121688095D02*
X96974819Y-122259523D01*
X96974819Y-122259523D02*
X96974819Y-121640476D01*
X95974819Y-120735714D02*
X95974819Y-121211904D01*
X95974819Y-121211904D02*
X96451009Y-121259523D01*
X96451009Y-121259523D02*
X96403390Y-121211904D01*
X96403390Y-121211904D02*
X96355771Y-121116666D01*
X96355771Y-121116666D02*
X96355771Y-120878571D01*
X96355771Y-120878571D02*
X96403390Y-120783333D01*
X96403390Y-120783333D02*
X96451009Y-120735714D01*
X96451009Y-120735714D02*
X96546247Y-120688095D01*
X96546247Y-120688095D02*
X96784342Y-120688095D01*
X96784342Y-120688095D02*
X96879580Y-120735714D01*
X96879580Y-120735714D02*
X96927200Y-120783333D01*
X96927200Y-120783333D02*
X96974819Y-120878571D01*
X96974819Y-120878571D02*
X96974819Y-121116666D01*
X96974819Y-121116666D02*
X96927200Y-121211904D01*
X96927200Y-121211904D02*
X96879580Y-121259523D01*
X108191905Y-73934819D02*
X108191905Y-72934819D01*
X108191905Y-72934819D02*
X108430000Y-72934819D01*
X108430000Y-72934819D02*
X108572857Y-72982438D01*
X108572857Y-72982438D02*
X108668095Y-73077676D01*
X108668095Y-73077676D02*
X108715714Y-73172914D01*
X108715714Y-73172914D02*
X108763333Y-73363390D01*
X108763333Y-73363390D02*
X108763333Y-73506247D01*
X108763333Y-73506247D02*
X108715714Y-73696723D01*
X108715714Y-73696723D02*
X108668095Y-73791961D01*
X108668095Y-73791961D02*
X108572857Y-73887200D01*
X108572857Y-73887200D02*
X108430000Y-73934819D01*
X108430000Y-73934819D02*
X108191905Y-73934819D01*
X109620476Y-73268152D02*
X109620476Y-73934819D01*
X109382381Y-72887200D02*
X109144286Y-73601485D01*
X109144286Y-73601485D02*
X109763333Y-73601485D01*
X112718095Y-75624819D02*
X112718095Y-74624819D01*
X113289523Y-75624819D02*
X112860952Y-75053390D01*
X113289523Y-74624819D02*
X112718095Y-75196247D01*
X138730666Y-144976819D02*
X138730666Y-145691104D01*
X138730666Y-145691104D02*
X138683047Y-145833961D01*
X138683047Y-145833961D02*
X138587809Y-145929200D01*
X138587809Y-145929200D02*
X138444952Y-145976819D01*
X138444952Y-145976819D02*
X138349714Y-145976819D01*
X139111619Y-144976819D02*
X139730666Y-144976819D01*
X139730666Y-144976819D02*
X139397333Y-145357771D01*
X139397333Y-145357771D02*
X139540190Y-145357771D01*
X139540190Y-145357771D02*
X139635428Y-145405390D01*
X139635428Y-145405390D02*
X139683047Y-145453009D01*
X139683047Y-145453009D02*
X139730666Y-145548247D01*
X139730666Y-145548247D02*
X139730666Y-145786342D01*
X139730666Y-145786342D02*
X139683047Y-145881580D01*
X139683047Y-145881580D02*
X139635428Y-145929200D01*
X139635428Y-145929200D02*
X139540190Y-145976819D01*
X139540190Y-145976819D02*
X139254476Y-145976819D01*
X139254476Y-145976819D02*
X139159238Y-145929200D01*
X139159238Y-145929200D02*
X139111619Y-145881580D01*
X100004819Y-43498094D02*
X99004819Y-43498094D01*
X99004819Y-43498094D02*
X99004819Y-43259999D01*
X99004819Y-43259999D02*
X99052438Y-43117142D01*
X99052438Y-43117142D02*
X99147676Y-43021904D01*
X99147676Y-43021904D02*
X99242914Y-42974285D01*
X99242914Y-42974285D02*
X99433390Y-42926666D01*
X99433390Y-42926666D02*
X99576247Y-42926666D01*
X99576247Y-42926666D02*
X99766723Y-42974285D01*
X99766723Y-42974285D02*
X99861961Y-43021904D01*
X99861961Y-43021904D02*
X99957200Y-43117142D01*
X99957200Y-43117142D02*
X100004819Y-43259999D01*
X100004819Y-43259999D02*
X100004819Y-43498094D01*
X99004819Y-42021904D02*
X99004819Y-42498094D01*
X99004819Y-42498094D02*
X99481009Y-42545713D01*
X99481009Y-42545713D02*
X99433390Y-42498094D01*
X99433390Y-42498094D02*
X99385771Y-42402856D01*
X99385771Y-42402856D02*
X99385771Y-42164761D01*
X99385771Y-42164761D02*
X99433390Y-42069523D01*
X99433390Y-42069523D02*
X99481009Y-42021904D01*
X99481009Y-42021904D02*
X99576247Y-41974285D01*
X99576247Y-41974285D02*
X99814342Y-41974285D01*
X99814342Y-41974285D02*
X99909580Y-42021904D01*
X99909580Y-42021904D02*
X99957200Y-42069523D01*
X99957200Y-42069523D02*
X100004819Y-42164761D01*
X100004819Y-42164761D02*
X100004819Y-42402856D01*
X100004819Y-42402856D02*
X99957200Y-42498094D01*
X99957200Y-42498094D02*
X99909580Y-42545713D01*
X99844819Y-37751904D02*
X98844819Y-37751904D01*
X99844819Y-37180476D02*
X99273390Y-37609047D01*
X98844819Y-37180476D02*
X99416247Y-37751904D01*
X112574819Y-111962857D02*
X112098628Y-112296190D01*
X112574819Y-112534285D02*
X111574819Y-112534285D01*
X111574819Y-112534285D02*
X111574819Y-112153333D01*
X111574819Y-112153333D02*
X111622438Y-112058095D01*
X111622438Y-112058095D02*
X111670057Y-112010476D01*
X111670057Y-112010476D02*
X111765295Y-111962857D01*
X111765295Y-111962857D02*
X111908152Y-111962857D01*
X111908152Y-111962857D02*
X112003390Y-112010476D01*
X112003390Y-112010476D02*
X112051009Y-112058095D01*
X112051009Y-112058095D02*
X112098628Y-112153333D01*
X112098628Y-112153333D02*
X112098628Y-112534285D01*
X112574819Y-111010476D02*
X112574819Y-111581904D01*
X112574819Y-111296190D02*
X111574819Y-111296190D01*
X111574819Y-111296190D02*
X111717676Y-111391428D01*
X111717676Y-111391428D02*
X111812914Y-111486666D01*
X111812914Y-111486666D02*
X111860533Y-111581904D01*
X112003390Y-110439047D02*
X111955771Y-110534285D01*
X111955771Y-110534285D02*
X111908152Y-110581904D01*
X111908152Y-110581904D02*
X111812914Y-110629523D01*
X111812914Y-110629523D02*
X111765295Y-110629523D01*
X111765295Y-110629523D02*
X111670057Y-110581904D01*
X111670057Y-110581904D02*
X111622438Y-110534285D01*
X111622438Y-110534285D02*
X111574819Y-110439047D01*
X111574819Y-110439047D02*
X111574819Y-110248571D01*
X111574819Y-110248571D02*
X111622438Y-110153333D01*
X111622438Y-110153333D02*
X111670057Y-110105714D01*
X111670057Y-110105714D02*
X111765295Y-110058095D01*
X111765295Y-110058095D02*
X111812914Y-110058095D01*
X111812914Y-110058095D02*
X111908152Y-110105714D01*
X111908152Y-110105714D02*
X111955771Y-110153333D01*
X111955771Y-110153333D02*
X112003390Y-110248571D01*
X112003390Y-110248571D02*
X112003390Y-110439047D01*
X112003390Y-110439047D02*
X112051009Y-110534285D01*
X112051009Y-110534285D02*
X112098628Y-110581904D01*
X112098628Y-110581904D02*
X112193866Y-110629523D01*
X112193866Y-110629523D02*
X112384342Y-110629523D01*
X112384342Y-110629523D02*
X112479580Y-110581904D01*
X112479580Y-110581904D02*
X112527200Y-110534285D01*
X112527200Y-110534285D02*
X112574819Y-110439047D01*
X112574819Y-110439047D02*
X112574819Y-110248571D01*
X112574819Y-110248571D02*
X112527200Y-110153333D01*
X112527200Y-110153333D02*
X112479580Y-110105714D01*
X112479580Y-110105714D02*
X112384342Y-110058095D01*
X112384342Y-110058095D02*
X112193866Y-110058095D01*
X112193866Y-110058095D02*
X112098628Y-110105714D01*
X112098628Y-110105714D02*
X112051009Y-110153333D01*
X112051009Y-110153333D02*
X112003390Y-110248571D01*
X138730666Y-129856819D02*
X138730666Y-130571104D01*
X138730666Y-130571104D02*
X138683047Y-130713961D01*
X138683047Y-130713961D02*
X138587809Y-130809200D01*
X138587809Y-130809200D02*
X138444952Y-130856819D01*
X138444952Y-130856819D02*
X138349714Y-130856819D01*
X139683047Y-129856819D02*
X139206857Y-129856819D01*
X139206857Y-129856819D02*
X139159238Y-130333009D01*
X139159238Y-130333009D02*
X139206857Y-130285390D01*
X139206857Y-130285390D02*
X139302095Y-130237771D01*
X139302095Y-130237771D02*
X139540190Y-130237771D01*
X139540190Y-130237771D02*
X139635428Y-130285390D01*
X139635428Y-130285390D02*
X139683047Y-130333009D01*
X139683047Y-130333009D02*
X139730666Y-130428247D01*
X139730666Y-130428247D02*
X139730666Y-130666342D01*
X139730666Y-130666342D02*
X139683047Y-130761580D01*
X139683047Y-130761580D02*
X139635428Y-130809200D01*
X139635428Y-130809200D02*
X139540190Y-130856819D01*
X139540190Y-130856819D02*
X139302095Y-130856819D01*
X139302095Y-130856819D02*
X139206857Y-130809200D01*
X139206857Y-130809200D02*
X139159238Y-130761580D01*
X112864819Y-122462857D02*
X112388628Y-122796190D01*
X112864819Y-123034285D02*
X111864819Y-123034285D01*
X111864819Y-123034285D02*
X111864819Y-122653333D01*
X111864819Y-122653333D02*
X111912438Y-122558095D01*
X111912438Y-122558095D02*
X111960057Y-122510476D01*
X111960057Y-122510476D02*
X112055295Y-122462857D01*
X112055295Y-122462857D02*
X112198152Y-122462857D01*
X112198152Y-122462857D02*
X112293390Y-122510476D01*
X112293390Y-122510476D02*
X112341009Y-122558095D01*
X112341009Y-122558095D02*
X112388628Y-122653333D01*
X112388628Y-122653333D02*
X112388628Y-123034285D01*
X112864819Y-121510476D02*
X112864819Y-122081904D01*
X112864819Y-121796190D02*
X111864819Y-121796190D01*
X111864819Y-121796190D02*
X112007676Y-121891428D01*
X112007676Y-121891428D02*
X112102914Y-121986666D01*
X112102914Y-121986666D02*
X112150533Y-122081904D01*
X111864819Y-121177142D02*
X111864819Y-120558095D01*
X111864819Y-120558095D02*
X112245771Y-120891428D01*
X112245771Y-120891428D02*
X112245771Y-120748571D01*
X112245771Y-120748571D02*
X112293390Y-120653333D01*
X112293390Y-120653333D02*
X112341009Y-120605714D01*
X112341009Y-120605714D02*
X112436247Y-120558095D01*
X112436247Y-120558095D02*
X112674342Y-120558095D01*
X112674342Y-120558095D02*
X112769580Y-120605714D01*
X112769580Y-120605714D02*
X112817200Y-120653333D01*
X112817200Y-120653333D02*
X112864819Y-120748571D01*
X112864819Y-120748571D02*
X112864819Y-121034285D01*
X112864819Y-121034285D02*
X112817200Y-121129523D01*
X112817200Y-121129523D02*
X112769580Y-121177142D01*
X99574819Y-122456666D02*
X99098628Y-122789999D01*
X99574819Y-123028094D02*
X98574819Y-123028094D01*
X98574819Y-123028094D02*
X98574819Y-122647142D01*
X98574819Y-122647142D02*
X98622438Y-122551904D01*
X98622438Y-122551904D02*
X98670057Y-122504285D01*
X98670057Y-122504285D02*
X98765295Y-122456666D01*
X98765295Y-122456666D02*
X98908152Y-122456666D01*
X98908152Y-122456666D02*
X99003390Y-122504285D01*
X99003390Y-122504285D02*
X99051009Y-122551904D01*
X99051009Y-122551904D02*
X99098628Y-122647142D01*
X99098628Y-122647142D02*
X99098628Y-123028094D01*
X98574819Y-121599523D02*
X98574819Y-121789999D01*
X98574819Y-121789999D02*
X98622438Y-121885237D01*
X98622438Y-121885237D02*
X98670057Y-121932856D01*
X98670057Y-121932856D02*
X98812914Y-122028094D01*
X98812914Y-122028094D02*
X99003390Y-122075713D01*
X99003390Y-122075713D02*
X99384342Y-122075713D01*
X99384342Y-122075713D02*
X99479580Y-122028094D01*
X99479580Y-122028094D02*
X99527200Y-121980475D01*
X99527200Y-121980475D02*
X99574819Y-121885237D01*
X99574819Y-121885237D02*
X99574819Y-121694761D01*
X99574819Y-121694761D02*
X99527200Y-121599523D01*
X99527200Y-121599523D02*
X99479580Y-121551904D01*
X99479580Y-121551904D02*
X99384342Y-121504285D01*
X99384342Y-121504285D02*
X99146247Y-121504285D01*
X99146247Y-121504285D02*
X99051009Y-121551904D01*
X99051009Y-121551904D02*
X99003390Y-121599523D01*
X99003390Y-121599523D02*
X98955771Y-121694761D01*
X98955771Y-121694761D02*
X98955771Y-121885237D01*
X98955771Y-121885237D02*
X99003390Y-121980475D01*
X99003390Y-121980475D02*
X99051009Y-122028094D01*
X99051009Y-122028094D02*
X99146247Y-122075713D01*
X134670819Y-61116857D02*
X134194628Y-61450190D01*
X134670819Y-61688285D02*
X133670819Y-61688285D01*
X133670819Y-61688285D02*
X133670819Y-61307333D01*
X133670819Y-61307333D02*
X133718438Y-61212095D01*
X133718438Y-61212095D02*
X133766057Y-61164476D01*
X133766057Y-61164476D02*
X133861295Y-61116857D01*
X133861295Y-61116857D02*
X134004152Y-61116857D01*
X134004152Y-61116857D02*
X134099390Y-61164476D01*
X134099390Y-61164476D02*
X134147009Y-61212095D01*
X134147009Y-61212095D02*
X134194628Y-61307333D01*
X134194628Y-61307333D02*
X134194628Y-61688285D01*
X133766057Y-60735904D02*
X133718438Y-60688285D01*
X133718438Y-60688285D02*
X133670819Y-60593047D01*
X133670819Y-60593047D02*
X133670819Y-60354952D01*
X133670819Y-60354952D02*
X133718438Y-60259714D01*
X133718438Y-60259714D02*
X133766057Y-60212095D01*
X133766057Y-60212095D02*
X133861295Y-60164476D01*
X133861295Y-60164476D02*
X133956533Y-60164476D01*
X133956533Y-60164476D02*
X134099390Y-60212095D01*
X134099390Y-60212095D02*
X134670819Y-60783523D01*
X134670819Y-60783523D02*
X134670819Y-60164476D01*
X133670819Y-59307333D02*
X133670819Y-59497809D01*
X133670819Y-59497809D02*
X133718438Y-59593047D01*
X133718438Y-59593047D02*
X133766057Y-59640666D01*
X133766057Y-59640666D02*
X133908914Y-59735904D01*
X133908914Y-59735904D02*
X134099390Y-59783523D01*
X134099390Y-59783523D02*
X134480342Y-59783523D01*
X134480342Y-59783523D02*
X134575580Y-59735904D01*
X134575580Y-59735904D02*
X134623200Y-59688285D01*
X134623200Y-59688285D02*
X134670819Y-59593047D01*
X134670819Y-59593047D02*
X134670819Y-59402571D01*
X134670819Y-59402571D02*
X134623200Y-59307333D01*
X134623200Y-59307333D02*
X134575580Y-59259714D01*
X134575580Y-59259714D02*
X134480342Y-59212095D01*
X134480342Y-59212095D02*
X134242247Y-59212095D01*
X134242247Y-59212095D02*
X134147009Y-59259714D01*
X134147009Y-59259714D02*
X134099390Y-59307333D01*
X134099390Y-59307333D02*
X134051771Y-59402571D01*
X134051771Y-59402571D02*
X134051771Y-59593047D01*
X134051771Y-59593047D02*
X134099390Y-59688285D01*
X134099390Y-59688285D02*
X134147009Y-59735904D01*
X134147009Y-59735904D02*
X134242247Y-59783523D01*
X103214819Y-98642857D02*
X102738628Y-98976190D01*
X103214819Y-99214285D02*
X102214819Y-99214285D01*
X102214819Y-99214285D02*
X102214819Y-98833333D01*
X102214819Y-98833333D02*
X102262438Y-98738095D01*
X102262438Y-98738095D02*
X102310057Y-98690476D01*
X102310057Y-98690476D02*
X102405295Y-98642857D01*
X102405295Y-98642857D02*
X102548152Y-98642857D01*
X102548152Y-98642857D02*
X102643390Y-98690476D01*
X102643390Y-98690476D02*
X102691009Y-98738095D01*
X102691009Y-98738095D02*
X102738628Y-98833333D01*
X102738628Y-98833333D02*
X102738628Y-99214285D01*
X103214819Y-97690476D02*
X103214819Y-98261904D01*
X103214819Y-97976190D02*
X102214819Y-97976190D01*
X102214819Y-97976190D02*
X102357676Y-98071428D01*
X102357676Y-98071428D02*
X102452914Y-98166666D01*
X102452914Y-98166666D02*
X102500533Y-98261904D01*
X102214819Y-97357142D02*
X102214819Y-96690476D01*
X102214819Y-96690476D02*
X103214819Y-97119047D01*
X108307142Y-42254819D02*
X107973809Y-41778628D01*
X107735714Y-42254819D02*
X107735714Y-41254819D01*
X107735714Y-41254819D02*
X108116666Y-41254819D01*
X108116666Y-41254819D02*
X108211904Y-41302438D01*
X108211904Y-41302438D02*
X108259523Y-41350057D01*
X108259523Y-41350057D02*
X108307142Y-41445295D01*
X108307142Y-41445295D02*
X108307142Y-41588152D01*
X108307142Y-41588152D02*
X108259523Y-41683390D01*
X108259523Y-41683390D02*
X108211904Y-41731009D01*
X108211904Y-41731009D02*
X108116666Y-41778628D01*
X108116666Y-41778628D02*
X107735714Y-41778628D01*
X108688095Y-41350057D02*
X108735714Y-41302438D01*
X108735714Y-41302438D02*
X108830952Y-41254819D01*
X108830952Y-41254819D02*
X109069047Y-41254819D01*
X109069047Y-41254819D02*
X109164285Y-41302438D01*
X109164285Y-41302438D02*
X109211904Y-41350057D01*
X109211904Y-41350057D02*
X109259523Y-41445295D01*
X109259523Y-41445295D02*
X109259523Y-41540533D01*
X109259523Y-41540533D02*
X109211904Y-41683390D01*
X109211904Y-41683390D02*
X108640476Y-42254819D01*
X108640476Y-42254819D02*
X109259523Y-42254819D01*
X110116666Y-41588152D02*
X110116666Y-42254819D01*
X109878571Y-41207200D02*
X109640476Y-41921485D01*
X109640476Y-41921485D02*
X110259523Y-41921485D01*
X97094819Y-80366666D02*
X96618628Y-80699999D01*
X97094819Y-80938094D02*
X96094819Y-80938094D01*
X96094819Y-80938094D02*
X96094819Y-80557142D01*
X96094819Y-80557142D02*
X96142438Y-80461904D01*
X96142438Y-80461904D02*
X96190057Y-80414285D01*
X96190057Y-80414285D02*
X96285295Y-80366666D01*
X96285295Y-80366666D02*
X96428152Y-80366666D01*
X96428152Y-80366666D02*
X96523390Y-80414285D01*
X96523390Y-80414285D02*
X96571009Y-80461904D01*
X96571009Y-80461904D02*
X96618628Y-80557142D01*
X96618628Y-80557142D02*
X96618628Y-80938094D01*
X96094819Y-80033332D02*
X96094819Y-79414285D01*
X96094819Y-79414285D02*
X96475771Y-79747618D01*
X96475771Y-79747618D02*
X96475771Y-79604761D01*
X96475771Y-79604761D02*
X96523390Y-79509523D01*
X96523390Y-79509523D02*
X96571009Y-79461904D01*
X96571009Y-79461904D02*
X96666247Y-79414285D01*
X96666247Y-79414285D02*
X96904342Y-79414285D01*
X96904342Y-79414285D02*
X96999580Y-79461904D01*
X96999580Y-79461904D02*
X97047200Y-79509523D01*
X97047200Y-79509523D02*
X97094819Y-79604761D01*
X97094819Y-79604761D02*
X97094819Y-79890475D01*
X97094819Y-79890475D02*
X97047200Y-79985713D01*
X97047200Y-79985713D02*
X96999580Y-80033332D01*
X108147142Y-45514819D02*
X107813809Y-45038628D01*
X107575714Y-45514819D02*
X107575714Y-44514819D01*
X107575714Y-44514819D02*
X107956666Y-44514819D01*
X107956666Y-44514819D02*
X108051904Y-44562438D01*
X108051904Y-44562438D02*
X108099523Y-44610057D01*
X108099523Y-44610057D02*
X108147142Y-44705295D01*
X108147142Y-44705295D02*
X108147142Y-44848152D01*
X108147142Y-44848152D02*
X108099523Y-44943390D01*
X108099523Y-44943390D02*
X108051904Y-44991009D01*
X108051904Y-44991009D02*
X107956666Y-45038628D01*
X107956666Y-45038628D02*
X107575714Y-45038628D01*
X108528095Y-44610057D02*
X108575714Y-44562438D01*
X108575714Y-44562438D02*
X108670952Y-44514819D01*
X108670952Y-44514819D02*
X108909047Y-44514819D01*
X108909047Y-44514819D02*
X109004285Y-44562438D01*
X109004285Y-44562438D02*
X109051904Y-44610057D01*
X109051904Y-44610057D02*
X109099523Y-44705295D01*
X109099523Y-44705295D02*
X109099523Y-44800533D01*
X109099523Y-44800533D02*
X109051904Y-44943390D01*
X109051904Y-44943390D02*
X108480476Y-45514819D01*
X108480476Y-45514819D02*
X109099523Y-45514819D01*
X109575714Y-45514819D02*
X109766190Y-45514819D01*
X109766190Y-45514819D02*
X109861428Y-45467200D01*
X109861428Y-45467200D02*
X109909047Y-45419580D01*
X109909047Y-45419580D02*
X110004285Y-45276723D01*
X110004285Y-45276723D02*
X110051904Y-45086247D01*
X110051904Y-45086247D02*
X110051904Y-44705295D01*
X110051904Y-44705295D02*
X110004285Y-44610057D01*
X110004285Y-44610057D02*
X109956666Y-44562438D01*
X109956666Y-44562438D02*
X109861428Y-44514819D01*
X109861428Y-44514819D02*
X109670952Y-44514819D01*
X109670952Y-44514819D02*
X109575714Y-44562438D01*
X109575714Y-44562438D02*
X109528095Y-44610057D01*
X109528095Y-44610057D02*
X109480476Y-44705295D01*
X109480476Y-44705295D02*
X109480476Y-44943390D01*
X109480476Y-44943390D02*
X109528095Y-45038628D01*
X109528095Y-45038628D02*
X109575714Y-45086247D01*
X109575714Y-45086247D02*
X109670952Y-45133866D01*
X109670952Y-45133866D02*
X109861428Y-45133866D01*
X109861428Y-45133866D02*
X109956666Y-45086247D01*
X109956666Y-45086247D02*
X110004285Y-45038628D01*
X110004285Y-45038628D02*
X110051904Y-44943390D01*
X103374819Y-113272857D02*
X102898628Y-113606190D01*
X103374819Y-113844285D02*
X102374819Y-113844285D01*
X102374819Y-113844285D02*
X102374819Y-113463333D01*
X102374819Y-113463333D02*
X102422438Y-113368095D01*
X102422438Y-113368095D02*
X102470057Y-113320476D01*
X102470057Y-113320476D02*
X102565295Y-113272857D01*
X102565295Y-113272857D02*
X102708152Y-113272857D01*
X102708152Y-113272857D02*
X102803390Y-113320476D01*
X102803390Y-113320476D02*
X102851009Y-113368095D01*
X102851009Y-113368095D02*
X102898628Y-113463333D01*
X102898628Y-113463333D02*
X102898628Y-113844285D01*
X103374819Y-112320476D02*
X103374819Y-112891904D01*
X103374819Y-112606190D02*
X102374819Y-112606190D01*
X102374819Y-112606190D02*
X102517676Y-112701428D01*
X102517676Y-112701428D02*
X102612914Y-112796666D01*
X102612914Y-112796666D02*
X102660533Y-112891904D01*
X103374819Y-111844285D02*
X103374819Y-111653809D01*
X103374819Y-111653809D02*
X103327200Y-111558571D01*
X103327200Y-111558571D02*
X103279580Y-111510952D01*
X103279580Y-111510952D02*
X103136723Y-111415714D01*
X103136723Y-111415714D02*
X102946247Y-111368095D01*
X102946247Y-111368095D02*
X102565295Y-111368095D01*
X102565295Y-111368095D02*
X102470057Y-111415714D01*
X102470057Y-111415714D02*
X102422438Y-111463333D01*
X102422438Y-111463333D02*
X102374819Y-111558571D01*
X102374819Y-111558571D02*
X102374819Y-111749047D01*
X102374819Y-111749047D02*
X102422438Y-111844285D01*
X102422438Y-111844285D02*
X102470057Y-111891904D01*
X102470057Y-111891904D02*
X102565295Y-111939523D01*
X102565295Y-111939523D02*
X102803390Y-111939523D01*
X102803390Y-111939523D02*
X102898628Y-111891904D01*
X102898628Y-111891904D02*
X102946247Y-111844285D01*
X102946247Y-111844285D02*
X102993866Y-111749047D01*
X102993866Y-111749047D02*
X102993866Y-111558571D01*
X102993866Y-111558571D02*
X102946247Y-111463333D01*
X102946247Y-111463333D02*
X102898628Y-111415714D01*
X102898628Y-111415714D02*
X102803390Y-111368095D01*
X138913779Y-46170619D02*
X138913779Y-45170619D01*
X138913779Y-45170619D02*
X139294731Y-45170619D01*
X139294731Y-45170619D02*
X139389969Y-45218238D01*
X139389969Y-45218238D02*
X139437588Y-45265857D01*
X139437588Y-45265857D02*
X139485207Y-45361095D01*
X139485207Y-45361095D02*
X139485207Y-45503952D01*
X139485207Y-45503952D02*
X139437588Y-45599190D01*
X139437588Y-45599190D02*
X139389969Y-45646809D01*
X139389969Y-45646809D02*
X139294731Y-45694428D01*
X139294731Y-45694428D02*
X138913779Y-45694428D01*
X140104255Y-45170619D02*
X140294731Y-45170619D01*
X140294731Y-45170619D02*
X140389969Y-45218238D01*
X140389969Y-45218238D02*
X140485207Y-45313476D01*
X140485207Y-45313476D02*
X140532826Y-45503952D01*
X140532826Y-45503952D02*
X140532826Y-45837285D01*
X140532826Y-45837285D02*
X140485207Y-46027761D01*
X140485207Y-46027761D02*
X140389969Y-46123000D01*
X140389969Y-46123000D02*
X140294731Y-46170619D01*
X140294731Y-46170619D02*
X140104255Y-46170619D01*
X140104255Y-46170619D02*
X140009017Y-46123000D01*
X140009017Y-46123000D02*
X139913779Y-46027761D01*
X139913779Y-46027761D02*
X139866160Y-45837285D01*
X139866160Y-45837285D02*
X139866160Y-45503952D01*
X139866160Y-45503952D02*
X139913779Y-45313476D01*
X139913779Y-45313476D02*
X140009017Y-45218238D01*
X140009017Y-45218238D02*
X140104255Y-45170619D01*
X140818541Y-45170619D02*
X141389969Y-45170619D01*
X141104255Y-46170619D02*
X141104255Y-45170619D01*
X142247112Y-46170619D02*
X141675684Y-46170619D01*
X141961398Y-46170619D02*
X141961398Y-45170619D01*
X141961398Y-45170619D02*
X141866160Y-45313476D01*
X141866160Y-45313476D02*
X141770922Y-45408714D01*
X141770922Y-45408714D02*
X141675684Y-45456333D01*
X140160588Y-55419819D02*
X139589160Y-55419819D01*
X139874874Y-55419819D02*
X139874874Y-54419819D01*
X139874874Y-54419819D02*
X139779636Y-54562676D01*
X139779636Y-54562676D02*
X139684398Y-54657914D01*
X139684398Y-54657914D02*
X139589160Y-54705533D01*
X140589160Y-55419819D02*
X140589160Y-54419819D01*
X140589160Y-54419819D02*
X140922493Y-55134104D01*
X140922493Y-55134104D02*
X141255826Y-54419819D01*
X141255826Y-54419819D02*
X141255826Y-55419819D01*
X138191999Y-50888819D02*
X138191999Y-49888819D01*
X138191999Y-49888819D02*
X138406285Y-49888819D01*
X138406285Y-49888819D02*
X138534856Y-49936438D01*
X138534856Y-49936438D02*
X138620571Y-50031676D01*
X138620571Y-50031676D02*
X138663428Y-50126914D01*
X138663428Y-50126914D02*
X138706285Y-50317390D01*
X138706285Y-50317390D02*
X138706285Y-50460247D01*
X138706285Y-50460247D02*
X138663428Y-50650723D01*
X138663428Y-50650723D02*
X138620571Y-50745961D01*
X138620571Y-50745961D02*
X138534856Y-50841200D01*
X138534856Y-50841200D02*
X138406285Y-50888819D01*
X138406285Y-50888819D02*
X138191999Y-50888819D01*
X139049142Y-50841200D02*
X139177714Y-50888819D01*
X139177714Y-50888819D02*
X139391999Y-50888819D01*
X139391999Y-50888819D02*
X139477714Y-50841200D01*
X139477714Y-50841200D02*
X139520571Y-50793580D01*
X139520571Y-50793580D02*
X139563428Y-50698342D01*
X139563428Y-50698342D02*
X139563428Y-50603104D01*
X139563428Y-50603104D02*
X139520571Y-50507866D01*
X139520571Y-50507866D02*
X139477714Y-50460247D01*
X139477714Y-50460247D02*
X139391999Y-50412628D01*
X139391999Y-50412628D02*
X139220571Y-50365009D01*
X139220571Y-50365009D02*
X139134856Y-50317390D01*
X139134856Y-50317390D02*
X139091999Y-50269771D01*
X139091999Y-50269771D02*
X139049142Y-50174533D01*
X139049142Y-50174533D02*
X139049142Y-50079295D01*
X139049142Y-50079295D02*
X139091999Y-49984057D01*
X139091999Y-49984057D02*
X139134856Y-49936438D01*
X139134856Y-49936438D02*
X139220571Y-49888819D01*
X139220571Y-49888819D02*
X139434856Y-49888819D01*
X139434856Y-49888819D02*
X139563428Y-49936438D01*
X139949142Y-50888819D02*
X139949142Y-49888819D01*
X139949142Y-50365009D02*
X140463428Y-50365009D01*
X140463428Y-50888819D02*
X140463428Y-49888819D01*
X140849142Y-50603104D02*
X141277714Y-50603104D01*
X140763428Y-50888819D02*
X141063428Y-49888819D01*
X141063428Y-49888819D02*
X141363428Y-50888819D01*
X141963428Y-50365009D02*
X141663428Y-50365009D01*
X141663428Y-50888819D02*
X141663428Y-49888819D01*
X141663428Y-49888819D02*
X142092000Y-49888819D01*
X142306286Y-49888819D02*
X142820572Y-49888819D01*
X142563429Y-50888819D02*
X142563429Y-49888819D01*
X147024761Y-89520057D02*
X146929523Y-89472438D01*
X146929523Y-89472438D02*
X146834285Y-89377200D01*
X146834285Y-89377200D02*
X146691428Y-89234342D01*
X146691428Y-89234342D02*
X146596190Y-89186723D01*
X146596190Y-89186723D02*
X146500952Y-89186723D01*
X146548571Y-89424819D02*
X146453333Y-89377200D01*
X146453333Y-89377200D02*
X146358095Y-89281961D01*
X146358095Y-89281961D02*
X146310476Y-89091485D01*
X146310476Y-89091485D02*
X146310476Y-88758152D01*
X146310476Y-88758152D02*
X146358095Y-88567676D01*
X146358095Y-88567676D02*
X146453333Y-88472438D01*
X146453333Y-88472438D02*
X146548571Y-88424819D01*
X146548571Y-88424819D02*
X146739047Y-88424819D01*
X146739047Y-88424819D02*
X146834285Y-88472438D01*
X146834285Y-88472438D02*
X146929523Y-88567676D01*
X146929523Y-88567676D02*
X146977142Y-88758152D01*
X146977142Y-88758152D02*
X146977142Y-89091485D01*
X146977142Y-89091485D02*
X146929523Y-89281961D01*
X146929523Y-89281961D02*
X146834285Y-89377200D01*
X146834285Y-89377200D02*
X146739047Y-89424819D01*
X146739047Y-89424819D02*
X146548571Y-89424819D01*
X147834285Y-88758152D02*
X147834285Y-89424819D01*
X147596190Y-88377200D02*
X147358095Y-89091485D01*
X147358095Y-89091485D02*
X147977142Y-89091485D01*
X111544819Y-96386666D02*
X111068628Y-96719999D01*
X111544819Y-96958094D02*
X110544819Y-96958094D01*
X110544819Y-96958094D02*
X110544819Y-96577142D01*
X110544819Y-96577142D02*
X110592438Y-96481904D01*
X110592438Y-96481904D02*
X110640057Y-96434285D01*
X110640057Y-96434285D02*
X110735295Y-96386666D01*
X110735295Y-96386666D02*
X110878152Y-96386666D01*
X110878152Y-96386666D02*
X110973390Y-96434285D01*
X110973390Y-96434285D02*
X111021009Y-96481904D01*
X111021009Y-96481904D02*
X111068628Y-96577142D01*
X111068628Y-96577142D02*
X111068628Y-96958094D01*
X110878152Y-95529523D02*
X111544819Y-95529523D01*
X110497200Y-95767618D02*
X111211485Y-96005713D01*
X111211485Y-96005713D02*
X111211485Y-95386666D01*
X95820057Y-89235238D02*
X95772438Y-89330476D01*
X95772438Y-89330476D02*
X95677200Y-89425714D01*
X95677200Y-89425714D02*
X95534342Y-89568571D01*
X95534342Y-89568571D02*
X95486723Y-89663809D01*
X95486723Y-89663809D02*
X95486723Y-89759047D01*
X95724819Y-89711428D02*
X95677200Y-89806666D01*
X95677200Y-89806666D02*
X95581961Y-89901904D01*
X95581961Y-89901904D02*
X95391485Y-89949523D01*
X95391485Y-89949523D02*
X95058152Y-89949523D01*
X95058152Y-89949523D02*
X94867676Y-89901904D01*
X94867676Y-89901904D02*
X94772438Y-89806666D01*
X94772438Y-89806666D02*
X94724819Y-89711428D01*
X94724819Y-89711428D02*
X94724819Y-89520952D01*
X94724819Y-89520952D02*
X94772438Y-89425714D01*
X94772438Y-89425714D02*
X94867676Y-89330476D01*
X94867676Y-89330476D02*
X95058152Y-89282857D01*
X95058152Y-89282857D02*
X95391485Y-89282857D01*
X95391485Y-89282857D02*
X95581961Y-89330476D01*
X95581961Y-89330476D02*
X95677200Y-89425714D01*
X95677200Y-89425714D02*
X95724819Y-89520952D01*
X95724819Y-89520952D02*
X95724819Y-89711428D01*
X94820057Y-88901904D02*
X94772438Y-88854285D01*
X94772438Y-88854285D02*
X94724819Y-88759047D01*
X94724819Y-88759047D02*
X94724819Y-88520952D01*
X94724819Y-88520952D02*
X94772438Y-88425714D01*
X94772438Y-88425714D02*
X94820057Y-88378095D01*
X94820057Y-88378095D02*
X94915295Y-88330476D01*
X94915295Y-88330476D02*
X95010533Y-88330476D01*
X95010533Y-88330476D02*
X95153390Y-88378095D01*
X95153390Y-88378095D02*
X95724819Y-88949523D01*
X95724819Y-88949523D02*
X95724819Y-88330476D01*
X132054819Y-85392857D02*
X131578628Y-85726190D01*
X132054819Y-85964285D02*
X131054819Y-85964285D01*
X131054819Y-85964285D02*
X131054819Y-85583333D01*
X131054819Y-85583333D02*
X131102438Y-85488095D01*
X131102438Y-85488095D02*
X131150057Y-85440476D01*
X131150057Y-85440476D02*
X131245295Y-85392857D01*
X131245295Y-85392857D02*
X131388152Y-85392857D01*
X131388152Y-85392857D02*
X131483390Y-85440476D01*
X131483390Y-85440476D02*
X131531009Y-85488095D01*
X131531009Y-85488095D02*
X131578628Y-85583333D01*
X131578628Y-85583333D02*
X131578628Y-85964285D01*
X131054819Y-85059523D02*
X131054819Y-84440476D01*
X131054819Y-84440476D02*
X131435771Y-84773809D01*
X131435771Y-84773809D02*
X131435771Y-84630952D01*
X131435771Y-84630952D02*
X131483390Y-84535714D01*
X131483390Y-84535714D02*
X131531009Y-84488095D01*
X131531009Y-84488095D02*
X131626247Y-84440476D01*
X131626247Y-84440476D02*
X131864342Y-84440476D01*
X131864342Y-84440476D02*
X131959580Y-84488095D01*
X131959580Y-84488095D02*
X132007200Y-84535714D01*
X132007200Y-84535714D02*
X132054819Y-84630952D01*
X132054819Y-84630952D02*
X132054819Y-84916666D01*
X132054819Y-84916666D02*
X132007200Y-85011904D01*
X132007200Y-85011904D02*
X131959580Y-85059523D01*
X132054819Y-83488095D02*
X132054819Y-84059523D01*
X132054819Y-83773809D02*
X131054819Y-83773809D01*
X131054819Y-83773809D02*
X131197676Y-83869047D01*
X131197676Y-83869047D02*
X131292914Y-83964285D01*
X131292914Y-83964285D02*
X131340533Y-84059523D01*
X114790476Y-114634819D02*
X114790476Y-115349104D01*
X114790476Y-115349104D02*
X114742857Y-115491961D01*
X114742857Y-115491961D02*
X114647619Y-115587200D01*
X114647619Y-115587200D02*
X114504762Y-115634819D01*
X114504762Y-115634819D02*
X114409524Y-115634819D01*
X115790476Y-115634819D02*
X115219048Y-115634819D01*
X115504762Y-115634819D02*
X115504762Y-114634819D01*
X115504762Y-114634819D02*
X115409524Y-114777676D01*
X115409524Y-114777676D02*
X115314286Y-114872914D01*
X115314286Y-114872914D02*
X115219048Y-114920533D01*
X116742857Y-115634819D02*
X116171429Y-115634819D01*
X116457143Y-115634819D02*
X116457143Y-114634819D01*
X116457143Y-114634819D02*
X116361905Y-114777676D01*
X116361905Y-114777676D02*
X116266667Y-114872914D01*
X116266667Y-114872914D02*
X116171429Y-114920533D01*
X116074819Y-98164329D02*
X115598628Y-98497662D01*
X116074819Y-98735757D02*
X115074819Y-98735757D01*
X115074819Y-98735757D02*
X115074819Y-98354805D01*
X115074819Y-98354805D02*
X115122438Y-98259567D01*
X115122438Y-98259567D02*
X115170057Y-98211948D01*
X115170057Y-98211948D02*
X115265295Y-98164329D01*
X115265295Y-98164329D02*
X115408152Y-98164329D01*
X115408152Y-98164329D02*
X115503390Y-98211948D01*
X115503390Y-98211948D02*
X115551009Y-98259567D01*
X115551009Y-98259567D02*
X115598628Y-98354805D01*
X115598628Y-98354805D02*
X115598628Y-98735757D01*
X116074819Y-97211948D02*
X116074819Y-97783376D01*
X116074819Y-97497662D02*
X115074819Y-97497662D01*
X115074819Y-97497662D02*
X115217676Y-97592900D01*
X115217676Y-97592900D02*
X115312914Y-97688138D01*
X115312914Y-97688138D02*
X115360533Y-97783376D01*
X115408152Y-96354805D02*
X116074819Y-96354805D01*
X115027200Y-96592900D02*
X115741485Y-96830995D01*
X115741485Y-96830995D02*
X115741485Y-96211948D01*
X150504819Y-74842857D02*
X150028628Y-75176190D01*
X150504819Y-75414285D02*
X149504819Y-75414285D01*
X149504819Y-75414285D02*
X149504819Y-75033333D01*
X149504819Y-75033333D02*
X149552438Y-74938095D01*
X149552438Y-74938095D02*
X149600057Y-74890476D01*
X149600057Y-74890476D02*
X149695295Y-74842857D01*
X149695295Y-74842857D02*
X149838152Y-74842857D01*
X149838152Y-74842857D02*
X149933390Y-74890476D01*
X149933390Y-74890476D02*
X149981009Y-74938095D01*
X149981009Y-74938095D02*
X150028628Y-75033333D01*
X150028628Y-75033333D02*
X150028628Y-75414285D01*
X149600057Y-74461904D02*
X149552438Y-74414285D01*
X149552438Y-74414285D02*
X149504819Y-74319047D01*
X149504819Y-74319047D02*
X149504819Y-74080952D01*
X149504819Y-74080952D02*
X149552438Y-73985714D01*
X149552438Y-73985714D02*
X149600057Y-73938095D01*
X149600057Y-73938095D02*
X149695295Y-73890476D01*
X149695295Y-73890476D02*
X149790533Y-73890476D01*
X149790533Y-73890476D02*
X149933390Y-73938095D01*
X149933390Y-73938095D02*
X150504819Y-74509523D01*
X150504819Y-74509523D02*
X150504819Y-73890476D01*
X149504819Y-73557142D02*
X149504819Y-72890476D01*
X149504819Y-72890476D02*
X150504819Y-73319047D01*
X152184819Y-85142857D02*
X151708628Y-85476190D01*
X152184819Y-85714285D02*
X151184819Y-85714285D01*
X151184819Y-85714285D02*
X151184819Y-85333333D01*
X151184819Y-85333333D02*
X151232438Y-85238095D01*
X151232438Y-85238095D02*
X151280057Y-85190476D01*
X151280057Y-85190476D02*
X151375295Y-85142857D01*
X151375295Y-85142857D02*
X151518152Y-85142857D01*
X151518152Y-85142857D02*
X151613390Y-85190476D01*
X151613390Y-85190476D02*
X151661009Y-85238095D01*
X151661009Y-85238095D02*
X151708628Y-85333333D01*
X151708628Y-85333333D02*
X151708628Y-85714285D01*
X151184819Y-84809523D02*
X151184819Y-84190476D01*
X151184819Y-84190476D02*
X151565771Y-84523809D01*
X151565771Y-84523809D02*
X151565771Y-84380952D01*
X151565771Y-84380952D02*
X151613390Y-84285714D01*
X151613390Y-84285714D02*
X151661009Y-84238095D01*
X151661009Y-84238095D02*
X151756247Y-84190476D01*
X151756247Y-84190476D02*
X151994342Y-84190476D01*
X151994342Y-84190476D02*
X152089580Y-84238095D01*
X152089580Y-84238095D02*
X152137200Y-84285714D01*
X152137200Y-84285714D02*
X152184819Y-84380952D01*
X152184819Y-84380952D02*
X152184819Y-84666666D01*
X152184819Y-84666666D02*
X152137200Y-84761904D01*
X152137200Y-84761904D02*
X152089580Y-84809523D01*
X151184819Y-83571428D02*
X151184819Y-83476190D01*
X151184819Y-83476190D02*
X151232438Y-83380952D01*
X151232438Y-83380952D02*
X151280057Y-83333333D01*
X151280057Y-83333333D02*
X151375295Y-83285714D01*
X151375295Y-83285714D02*
X151565771Y-83238095D01*
X151565771Y-83238095D02*
X151803866Y-83238095D01*
X151803866Y-83238095D02*
X151994342Y-83285714D01*
X151994342Y-83285714D02*
X152089580Y-83333333D01*
X152089580Y-83333333D02*
X152137200Y-83380952D01*
X152137200Y-83380952D02*
X152184819Y-83476190D01*
X152184819Y-83476190D02*
X152184819Y-83571428D01*
X152184819Y-83571428D02*
X152137200Y-83666666D01*
X152137200Y-83666666D02*
X152089580Y-83714285D01*
X152089580Y-83714285D02*
X151994342Y-83761904D01*
X151994342Y-83761904D02*
X151803866Y-83809523D01*
X151803866Y-83809523D02*
X151565771Y-83809523D01*
X151565771Y-83809523D02*
X151375295Y-83761904D01*
X151375295Y-83761904D02*
X151280057Y-83714285D01*
X151280057Y-83714285D02*
X151232438Y-83666666D01*
X151232438Y-83666666D02*
X151184819Y-83571428D01*
X99774819Y-132752857D02*
X99298628Y-133086190D01*
X99774819Y-133324285D02*
X98774819Y-133324285D01*
X98774819Y-133324285D02*
X98774819Y-132943333D01*
X98774819Y-132943333D02*
X98822438Y-132848095D01*
X98822438Y-132848095D02*
X98870057Y-132800476D01*
X98870057Y-132800476D02*
X98965295Y-132752857D01*
X98965295Y-132752857D02*
X99108152Y-132752857D01*
X99108152Y-132752857D02*
X99203390Y-132800476D01*
X99203390Y-132800476D02*
X99251009Y-132848095D01*
X99251009Y-132848095D02*
X99298628Y-132943333D01*
X99298628Y-132943333D02*
X99298628Y-133324285D01*
X98870057Y-132371904D02*
X98822438Y-132324285D01*
X98822438Y-132324285D02*
X98774819Y-132229047D01*
X98774819Y-132229047D02*
X98774819Y-131990952D01*
X98774819Y-131990952D02*
X98822438Y-131895714D01*
X98822438Y-131895714D02*
X98870057Y-131848095D01*
X98870057Y-131848095D02*
X98965295Y-131800476D01*
X98965295Y-131800476D02*
X99060533Y-131800476D01*
X99060533Y-131800476D02*
X99203390Y-131848095D01*
X99203390Y-131848095D02*
X99774819Y-132419523D01*
X99774819Y-132419523D02*
X99774819Y-131800476D01*
X98870057Y-131419523D02*
X98822438Y-131371904D01*
X98822438Y-131371904D02*
X98774819Y-131276666D01*
X98774819Y-131276666D02*
X98774819Y-131038571D01*
X98774819Y-131038571D02*
X98822438Y-130943333D01*
X98822438Y-130943333D02*
X98870057Y-130895714D01*
X98870057Y-130895714D02*
X98965295Y-130848095D01*
X98965295Y-130848095D02*
X99060533Y-130848095D01*
X99060533Y-130848095D02*
X99203390Y-130895714D01*
X99203390Y-130895714D02*
X99774819Y-131467142D01*
X99774819Y-131467142D02*
X99774819Y-130848095D01*
X112624819Y-80516666D02*
X112148628Y-80849999D01*
X112624819Y-81088094D02*
X111624819Y-81088094D01*
X111624819Y-81088094D02*
X111624819Y-80707142D01*
X111624819Y-80707142D02*
X111672438Y-80611904D01*
X111672438Y-80611904D02*
X111720057Y-80564285D01*
X111720057Y-80564285D02*
X111815295Y-80516666D01*
X111815295Y-80516666D02*
X111958152Y-80516666D01*
X111958152Y-80516666D02*
X112053390Y-80564285D01*
X112053390Y-80564285D02*
X112101009Y-80611904D01*
X112101009Y-80611904D02*
X112148628Y-80707142D01*
X112148628Y-80707142D02*
X112148628Y-81088094D01*
X112053390Y-79945237D02*
X112005771Y-80040475D01*
X112005771Y-80040475D02*
X111958152Y-80088094D01*
X111958152Y-80088094D02*
X111862914Y-80135713D01*
X111862914Y-80135713D02*
X111815295Y-80135713D01*
X111815295Y-80135713D02*
X111720057Y-80088094D01*
X111720057Y-80088094D02*
X111672438Y-80040475D01*
X111672438Y-80040475D02*
X111624819Y-79945237D01*
X111624819Y-79945237D02*
X111624819Y-79754761D01*
X111624819Y-79754761D02*
X111672438Y-79659523D01*
X111672438Y-79659523D02*
X111720057Y-79611904D01*
X111720057Y-79611904D02*
X111815295Y-79564285D01*
X111815295Y-79564285D02*
X111862914Y-79564285D01*
X111862914Y-79564285D02*
X111958152Y-79611904D01*
X111958152Y-79611904D02*
X112005771Y-79659523D01*
X112005771Y-79659523D02*
X112053390Y-79754761D01*
X112053390Y-79754761D02*
X112053390Y-79945237D01*
X112053390Y-79945237D02*
X112101009Y-80040475D01*
X112101009Y-80040475D02*
X112148628Y-80088094D01*
X112148628Y-80088094D02*
X112243866Y-80135713D01*
X112243866Y-80135713D02*
X112434342Y-80135713D01*
X112434342Y-80135713D02*
X112529580Y-80088094D01*
X112529580Y-80088094D02*
X112577200Y-80040475D01*
X112577200Y-80040475D02*
X112624819Y-79945237D01*
X112624819Y-79945237D02*
X112624819Y-79754761D01*
X112624819Y-79754761D02*
X112577200Y-79659523D01*
X112577200Y-79659523D02*
X112529580Y-79611904D01*
X112529580Y-79611904D02*
X112434342Y-79564285D01*
X112434342Y-79564285D02*
X112243866Y-79564285D01*
X112243866Y-79564285D02*
X112148628Y-79611904D01*
X112148628Y-79611904D02*
X112101009Y-79659523D01*
X112101009Y-79659523D02*
X112053390Y-79754761D01*
X149630666Y-129872819D02*
X149630666Y-130587104D01*
X149630666Y-130587104D02*
X149583047Y-130729961D01*
X149583047Y-130729961D02*
X149487809Y-130825200D01*
X149487809Y-130825200D02*
X149344952Y-130872819D01*
X149344952Y-130872819D02*
X149249714Y-130872819D01*
X150535428Y-129872819D02*
X150344952Y-129872819D01*
X150344952Y-129872819D02*
X150249714Y-129920438D01*
X150249714Y-129920438D02*
X150202095Y-129968057D01*
X150202095Y-129968057D02*
X150106857Y-130110914D01*
X150106857Y-130110914D02*
X150059238Y-130301390D01*
X150059238Y-130301390D02*
X150059238Y-130682342D01*
X150059238Y-130682342D02*
X150106857Y-130777580D01*
X150106857Y-130777580D02*
X150154476Y-130825200D01*
X150154476Y-130825200D02*
X150249714Y-130872819D01*
X150249714Y-130872819D02*
X150440190Y-130872819D01*
X150440190Y-130872819D02*
X150535428Y-130825200D01*
X150535428Y-130825200D02*
X150583047Y-130777580D01*
X150583047Y-130777580D02*
X150630666Y-130682342D01*
X150630666Y-130682342D02*
X150630666Y-130444247D01*
X150630666Y-130444247D02*
X150583047Y-130349009D01*
X150583047Y-130349009D02*
X150535428Y-130301390D01*
X150535428Y-130301390D02*
X150440190Y-130253771D01*
X150440190Y-130253771D02*
X150249714Y-130253771D01*
X150249714Y-130253771D02*
X150154476Y-130301390D01*
X150154476Y-130301390D02*
X150106857Y-130349009D01*
X150106857Y-130349009D02*
X150059238Y-130444247D01*
X105024095Y-116886819D02*
X105024095Y-117696342D01*
X105024095Y-117696342D02*
X105071714Y-117791580D01*
X105071714Y-117791580D02*
X105119333Y-117839200D01*
X105119333Y-117839200D02*
X105214571Y-117886819D01*
X105214571Y-117886819D02*
X105405047Y-117886819D01*
X105405047Y-117886819D02*
X105500285Y-117839200D01*
X105500285Y-117839200D02*
X105547904Y-117791580D01*
X105547904Y-117791580D02*
X105595523Y-117696342D01*
X105595523Y-117696342D02*
X105595523Y-116886819D01*
X106024095Y-116982057D02*
X106071714Y-116934438D01*
X106071714Y-116934438D02*
X106166952Y-116886819D01*
X106166952Y-116886819D02*
X106405047Y-116886819D01*
X106405047Y-116886819D02*
X106500285Y-116934438D01*
X106500285Y-116934438D02*
X106547904Y-116982057D01*
X106547904Y-116982057D02*
X106595523Y-117077295D01*
X106595523Y-117077295D02*
X106595523Y-117172533D01*
X106595523Y-117172533D02*
X106547904Y-117315390D01*
X106547904Y-117315390D02*
X105976476Y-117886819D01*
X105976476Y-117886819D02*
X106595523Y-117886819D01*
X103666952Y-136906819D02*
X104238380Y-136906819D01*
X103952666Y-137906819D02*
X103952666Y-136906819D01*
X105047904Y-137906819D02*
X104571714Y-137906819D01*
X104571714Y-137906819D02*
X104571714Y-136906819D01*
X105571714Y-136906819D02*
X105666952Y-136906819D01*
X105666952Y-136906819D02*
X105762190Y-136954438D01*
X105762190Y-136954438D02*
X105809809Y-137002057D01*
X105809809Y-137002057D02*
X105857428Y-137097295D01*
X105857428Y-137097295D02*
X105905047Y-137287771D01*
X105905047Y-137287771D02*
X105905047Y-137525866D01*
X105905047Y-137525866D02*
X105857428Y-137716342D01*
X105857428Y-137716342D02*
X105809809Y-137811580D01*
X105809809Y-137811580D02*
X105762190Y-137859200D01*
X105762190Y-137859200D02*
X105666952Y-137906819D01*
X105666952Y-137906819D02*
X105571714Y-137906819D01*
X105571714Y-137906819D02*
X105476476Y-137859200D01*
X105476476Y-137859200D02*
X105428857Y-137811580D01*
X105428857Y-137811580D02*
X105381238Y-137716342D01*
X105381238Y-137716342D02*
X105333619Y-137525866D01*
X105333619Y-137525866D02*
X105333619Y-137287771D01*
X105333619Y-137287771D02*
X105381238Y-137097295D01*
X105381238Y-137097295D02*
X105428857Y-137002057D01*
X105428857Y-137002057D02*
X105476476Y-136954438D01*
X105476476Y-136954438D02*
X105571714Y-136906819D01*
X106238381Y-136906819D02*
X106905047Y-136906819D01*
X106905047Y-136906819D02*
X106476476Y-137906819D01*
X107714571Y-137240152D02*
X107714571Y-137906819D01*
X107476476Y-136859200D02*
X107238381Y-137573485D01*
X107238381Y-137573485D02*
X107857428Y-137573485D01*
X108801905Y-70834819D02*
X108801905Y-69834819D01*
X108801905Y-69834819D02*
X109040000Y-69834819D01*
X109040000Y-69834819D02*
X109182857Y-69882438D01*
X109182857Y-69882438D02*
X109278095Y-69977676D01*
X109278095Y-69977676D02*
X109325714Y-70072914D01*
X109325714Y-70072914D02*
X109373333Y-70263390D01*
X109373333Y-70263390D02*
X109373333Y-70406247D01*
X109373333Y-70406247D02*
X109325714Y-70596723D01*
X109325714Y-70596723D02*
X109278095Y-70691961D01*
X109278095Y-70691961D02*
X109182857Y-70787200D01*
X109182857Y-70787200D02*
X109040000Y-70834819D01*
X109040000Y-70834819D02*
X108801905Y-70834819D01*
X109706667Y-69834819D02*
X110325714Y-69834819D01*
X110325714Y-69834819D02*
X109992381Y-70215771D01*
X109992381Y-70215771D02*
X110135238Y-70215771D01*
X110135238Y-70215771D02*
X110230476Y-70263390D01*
X110230476Y-70263390D02*
X110278095Y-70311009D01*
X110278095Y-70311009D02*
X110325714Y-70406247D01*
X110325714Y-70406247D02*
X110325714Y-70644342D01*
X110325714Y-70644342D02*
X110278095Y-70739580D01*
X110278095Y-70739580D02*
X110230476Y-70787200D01*
X110230476Y-70787200D02*
X110135238Y-70834819D01*
X110135238Y-70834819D02*
X109849524Y-70834819D01*
X109849524Y-70834819D02*
X109754286Y-70787200D01*
X109754286Y-70787200D02*
X109706667Y-70739580D01*
X105078095Y-69164819D02*
X105078095Y-68164819D01*
X105649523Y-69164819D02*
X105220952Y-68593390D01*
X105649523Y-68164819D02*
X105078095Y-68736247D01*
X99914819Y-98762857D02*
X99438628Y-99096190D01*
X99914819Y-99334285D02*
X98914819Y-99334285D01*
X98914819Y-99334285D02*
X98914819Y-98953333D01*
X98914819Y-98953333D02*
X98962438Y-98858095D01*
X98962438Y-98858095D02*
X99010057Y-98810476D01*
X99010057Y-98810476D02*
X99105295Y-98762857D01*
X99105295Y-98762857D02*
X99248152Y-98762857D01*
X99248152Y-98762857D02*
X99343390Y-98810476D01*
X99343390Y-98810476D02*
X99391009Y-98858095D01*
X99391009Y-98858095D02*
X99438628Y-98953333D01*
X99438628Y-98953333D02*
X99438628Y-99334285D01*
X99010057Y-98381904D02*
X98962438Y-98334285D01*
X98962438Y-98334285D02*
X98914819Y-98239047D01*
X98914819Y-98239047D02*
X98914819Y-98000952D01*
X98914819Y-98000952D02*
X98962438Y-97905714D01*
X98962438Y-97905714D02*
X99010057Y-97858095D01*
X99010057Y-97858095D02*
X99105295Y-97810476D01*
X99105295Y-97810476D02*
X99200533Y-97810476D01*
X99200533Y-97810476D02*
X99343390Y-97858095D01*
X99343390Y-97858095D02*
X99914819Y-98429523D01*
X99914819Y-98429523D02*
X99914819Y-97810476D01*
X99914819Y-96858095D02*
X99914819Y-97429523D01*
X99914819Y-97143809D02*
X98914819Y-97143809D01*
X98914819Y-97143809D02*
X99057676Y-97239047D01*
X99057676Y-97239047D02*
X99152914Y-97334285D01*
X99152914Y-97334285D02*
X99200533Y-97429523D01*
X95896666Y-102654819D02*
X95896666Y-103369104D01*
X95896666Y-103369104D02*
X95849047Y-103511961D01*
X95849047Y-103511961D02*
X95753809Y-103607200D01*
X95753809Y-103607200D02*
X95610952Y-103654819D01*
X95610952Y-103654819D02*
X95515714Y-103654819D01*
X96325238Y-102750057D02*
X96372857Y-102702438D01*
X96372857Y-102702438D02*
X96468095Y-102654819D01*
X96468095Y-102654819D02*
X96706190Y-102654819D01*
X96706190Y-102654819D02*
X96801428Y-102702438D01*
X96801428Y-102702438D02*
X96849047Y-102750057D01*
X96849047Y-102750057D02*
X96896666Y-102845295D01*
X96896666Y-102845295D02*
X96896666Y-102940533D01*
X96896666Y-102940533D02*
X96849047Y-103083390D01*
X96849047Y-103083390D02*
X96277619Y-103654819D01*
X96277619Y-103654819D02*
X96896666Y-103654819D01*
X105398095Y-47524819D02*
X105398095Y-48334342D01*
X105398095Y-48334342D02*
X105445714Y-48429580D01*
X105445714Y-48429580D02*
X105493333Y-48477200D01*
X105493333Y-48477200D02*
X105588571Y-48524819D01*
X105588571Y-48524819D02*
X105779047Y-48524819D01*
X105779047Y-48524819D02*
X105874285Y-48477200D01*
X105874285Y-48477200D02*
X105921904Y-48429580D01*
X105921904Y-48429580D02*
X105969523Y-48334342D01*
X105969523Y-48334342D02*
X105969523Y-47524819D01*
X106969523Y-48524819D02*
X106398095Y-48524819D01*
X106683809Y-48524819D02*
X106683809Y-47524819D01*
X106683809Y-47524819D02*
X106588571Y-47667676D01*
X106588571Y-47667676D02*
X106493333Y-47762914D01*
X106493333Y-47762914D02*
X106398095Y-47810533D01*
X104340952Y-64154819D02*
X104912380Y-64154819D01*
X104626666Y-65154819D02*
X104626666Y-64154819D01*
X105721904Y-65154819D02*
X105245714Y-65154819D01*
X105245714Y-65154819D02*
X105245714Y-64154819D01*
X106245714Y-64154819D02*
X106340952Y-64154819D01*
X106340952Y-64154819D02*
X106436190Y-64202438D01*
X106436190Y-64202438D02*
X106483809Y-64250057D01*
X106483809Y-64250057D02*
X106531428Y-64345295D01*
X106531428Y-64345295D02*
X106579047Y-64535771D01*
X106579047Y-64535771D02*
X106579047Y-64773866D01*
X106579047Y-64773866D02*
X106531428Y-64964342D01*
X106531428Y-64964342D02*
X106483809Y-65059580D01*
X106483809Y-65059580D02*
X106436190Y-65107200D01*
X106436190Y-65107200D02*
X106340952Y-65154819D01*
X106340952Y-65154819D02*
X106245714Y-65154819D01*
X106245714Y-65154819D02*
X106150476Y-65107200D01*
X106150476Y-65107200D02*
X106102857Y-65059580D01*
X106102857Y-65059580D02*
X106055238Y-64964342D01*
X106055238Y-64964342D02*
X106007619Y-64773866D01*
X106007619Y-64773866D02*
X106007619Y-64535771D01*
X106007619Y-64535771D02*
X106055238Y-64345295D01*
X106055238Y-64345295D02*
X106102857Y-64250057D01*
X106102857Y-64250057D02*
X106150476Y-64202438D01*
X106150476Y-64202438D02*
X106245714Y-64154819D01*
X106912381Y-64154819D02*
X107579047Y-64154819D01*
X107579047Y-64154819D02*
X107150476Y-65154819D01*
X108388571Y-64488152D02*
X108388571Y-65154819D01*
X108150476Y-64107200D02*
X107912381Y-64821485D01*
X107912381Y-64821485D02*
X108531428Y-64821485D01*
X108187142Y-39104819D02*
X107853809Y-38628628D01*
X107615714Y-39104819D02*
X107615714Y-38104819D01*
X107615714Y-38104819D02*
X107996666Y-38104819D01*
X107996666Y-38104819D02*
X108091904Y-38152438D01*
X108091904Y-38152438D02*
X108139523Y-38200057D01*
X108139523Y-38200057D02*
X108187142Y-38295295D01*
X108187142Y-38295295D02*
X108187142Y-38438152D01*
X108187142Y-38438152D02*
X108139523Y-38533390D01*
X108139523Y-38533390D02*
X108091904Y-38581009D01*
X108091904Y-38581009D02*
X107996666Y-38628628D01*
X107996666Y-38628628D02*
X107615714Y-38628628D01*
X109139523Y-39104819D02*
X108568095Y-39104819D01*
X108853809Y-39104819D02*
X108853809Y-38104819D01*
X108853809Y-38104819D02*
X108758571Y-38247676D01*
X108758571Y-38247676D02*
X108663333Y-38342914D01*
X108663333Y-38342914D02*
X108568095Y-38390533D01*
X110044285Y-38104819D02*
X109568095Y-38104819D01*
X109568095Y-38104819D02*
X109520476Y-38581009D01*
X109520476Y-38581009D02*
X109568095Y-38533390D01*
X109568095Y-38533390D02*
X109663333Y-38485771D01*
X109663333Y-38485771D02*
X109901428Y-38485771D01*
X109901428Y-38485771D02*
X109996666Y-38533390D01*
X109996666Y-38533390D02*
X110044285Y-38581009D01*
X110044285Y-38581009D02*
X110091904Y-38676247D01*
X110091904Y-38676247D02*
X110091904Y-38914342D01*
X110091904Y-38914342D02*
X110044285Y-39009580D01*
X110044285Y-39009580D02*
X109996666Y-39057200D01*
X109996666Y-39057200D02*
X109901428Y-39104819D01*
X109901428Y-39104819D02*
X109663333Y-39104819D01*
X109663333Y-39104819D02*
X109568095Y-39057200D01*
X109568095Y-39057200D02*
X109520476Y-39009580D01*
X99594819Y-81392857D02*
X99118628Y-81726190D01*
X99594819Y-81964285D02*
X98594819Y-81964285D01*
X98594819Y-81964285D02*
X98594819Y-81583333D01*
X98594819Y-81583333D02*
X98642438Y-81488095D01*
X98642438Y-81488095D02*
X98690057Y-81440476D01*
X98690057Y-81440476D02*
X98785295Y-81392857D01*
X98785295Y-81392857D02*
X98928152Y-81392857D01*
X98928152Y-81392857D02*
X99023390Y-81440476D01*
X99023390Y-81440476D02*
X99071009Y-81488095D01*
X99071009Y-81488095D02*
X99118628Y-81583333D01*
X99118628Y-81583333D02*
X99118628Y-81964285D01*
X98594819Y-81059523D02*
X98594819Y-80440476D01*
X98594819Y-80440476D02*
X98975771Y-80773809D01*
X98975771Y-80773809D02*
X98975771Y-80630952D01*
X98975771Y-80630952D02*
X99023390Y-80535714D01*
X99023390Y-80535714D02*
X99071009Y-80488095D01*
X99071009Y-80488095D02*
X99166247Y-80440476D01*
X99166247Y-80440476D02*
X99404342Y-80440476D01*
X99404342Y-80440476D02*
X99499580Y-80488095D01*
X99499580Y-80488095D02*
X99547200Y-80535714D01*
X99547200Y-80535714D02*
X99594819Y-80630952D01*
X99594819Y-80630952D02*
X99594819Y-80916666D01*
X99594819Y-80916666D02*
X99547200Y-81011904D01*
X99547200Y-81011904D02*
X99499580Y-81059523D01*
X98690057Y-80059523D02*
X98642438Y-80011904D01*
X98642438Y-80011904D02*
X98594819Y-79916666D01*
X98594819Y-79916666D02*
X98594819Y-79678571D01*
X98594819Y-79678571D02*
X98642438Y-79583333D01*
X98642438Y-79583333D02*
X98690057Y-79535714D01*
X98690057Y-79535714D02*
X98785295Y-79488095D01*
X98785295Y-79488095D02*
X98880533Y-79488095D01*
X98880533Y-79488095D02*
X99023390Y-79535714D01*
X99023390Y-79535714D02*
X99594819Y-80107142D01*
X99594819Y-80107142D02*
X99594819Y-79488095D01*
X113624819Y-63668094D02*
X112624819Y-63668094D01*
X112624819Y-63668094D02*
X112624819Y-63429999D01*
X112624819Y-63429999D02*
X112672438Y-63287142D01*
X112672438Y-63287142D02*
X112767676Y-63191904D01*
X112767676Y-63191904D02*
X112862914Y-63144285D01*
X112862914Y-63144285D02*
X113053390Y-63096666D01*
X113053390Y-63096666D02*
X113196247Y-63096666D01*
X113196247Y-63096666D02*
X113386723Y-63144285D01*
X113386723Y-63144285D02*
X113481961Y-63191904D01*
X113481961Y-63191904D02*
X113577200Y-63287142D01*
X113577200Y-63287142D02*
X113624819Y-63429999D01*
X113624819Y-63429999D02*
X113624819Y-63668094D01*
X112720057Y-62715713D02*
X112672438Y-62668094D01*
X112672438Y-62668094D02*
X112624819Y-62572856D01*
X112624819Y-62572856D02*
X112624819Y-62334761D01*
X112624819Y-62334761D02*
X112672438Y-62239523D01*
X112672438Y-62239523D02*
X112720057Y-62191904D01*
X112720057Y-62191904D02*
X112815295Y-62144285D01*
X112815295Y-62144285D02*
X112910533Y-62144285D01*
X112910533Y-62144285D02*
X113053390Y-62191904D01*
X113053390Y-62191904D02*
X113624819Y-62763332D01*
X113624819Y-62763332D02*
X113624819Y-62144285D01*
X111684819Y-67501904D02*
X110684819Y-67501904D01*
X111684819Y-66930476D02*
X111113390Y-67359047D01*
X110684819Y-66930476D02*
X111256247Y-67501904D01*
X151324819Y-70698094D02*
X150324819Y-70698094D01*
X150324819Y-70698094D02*
X150324819Y-70459999D01*
X150324819Y-70459999D02*
X150372438Y-70317142D01*
X150372438Y-70317142D02*
X150467676Y-70221904D01*
X150467676Y-70221904D02*
X150562914Y-70174285D01*
X150562914Y-70174285D02*
X150753390Y-70126666D01*
X150753390Y-70126666D02*
X150896247Y-70126666D01*
X150896247Y-70126666D02*
X151086723Y-70174285D01*
X151086723Y-70174285D02*
X151181961Y-70221904D01*
X151181961Y-70221904D02*
X151277200Y-70317142D01*
X151277200Y-70317142D02*
X151324819Y-70459999D01*
X151324819Y-70459999D02*
X151324819Y-70698094D01*
X150324819Y-69793332D02*
X150324819Y-69126666D01*
X150324819Y-69126666D02*
X151324819Y-69555237D01*
X148048819Y-63783904D02*
X147048819Y-63783904D01*
X148048819Y-63212476D02*
X147477390Y-63641047D01*
X147048819Y-63212476D02*
X147620247Y-63783904D01*
X102610057Y-89245238D02*
X102562438Y-89340476D01*
X102562438Y-89340476D02*
X102467200Y-89435714D01*
X102467200Y-89435714D02*
X102324342Y-89578571D01*
X102324342Y-89578571D02*
X102276723Y-89673809D01*
X102276723Y-89673809D02*
X102276723Y-89769047D01*
X102514819Y-89721428D02*
X102467200Y-89816666D01*
X102467200Y-89816666D02*
X102371961Y-89911904D01*
X102371961Y-89911904D02*
X102181485Y-89959523D01*
X102181485Y-89959523D02*
X101848152Y-89959523D01*
X101848152Y-89959523D02*
X101657676Y-89911904D01*
X101657676Y-89911904D02*
X101562438Y-89816666D01*
X101562438Y-89816666D02*
X101514819Y-89721428D01*
X101514819Y-89721428D02*
X101514819Y-89530952D01*
X101514819Y-89530952D02*
X101562438Y-89435714D01*
X101562438Y-89435714D02*
X101657676Y-89340476D01*
X101657676Y-89340476D02*
X101848152Y-89292857D01*
X101848152Y-89292857D02*
X102181485Y-89292857D01*
X102181485Y-89292857D02*
X102371961Y-89340476D01*
X102371961Y-89340476D02*
X102467200Y-89435714D01*
X102467200Y-89435714D02*
X102514819Y-89530952D01*
X102514819Y-89530952D02*
X102514819Y-89721428D01*
X102514819Y-88340476D02*
X102514819Y-88911904D01*
X102514819Y-88626190D02*
X101514819Y-88626190D01*
X101514819Y-88626190D02*
X101657676Y-88721428D01*
X101657676Y-88721428D02*
X101752914Y-88816666D01*
X101752914Y-88816666D02*
X101800533Y-88911904D01*
X102824819Y-42376666D02*
X102348628Y-42709999D01*
X102824819Y-42948094D02*
X101824819Y-42948094D01*
X101824819Y-42948094D02*
X101824819Y-42567142D01*
X101824819Y-42567142D02*
X101872438Y-42471904D01*
X101872438Y-42471904D02*
X101920057Y-42424285D01*
X101920057Y-42424285D02*
X102015295Y-42376666D01*
X102015295Y-42376666D02*
X102158152Y-42376666D01*
X102158152Y-42376666D02*
X102253390Y-42424285D01*
X102253390Y-42424285D02*
X102301009Y-42471904D01*
X102301009Y-42471904D02*
X102348628Y-42567142D01*
X102348628Y-42567142D02*
X102348628Y-42948094D01*
X101824819Y-41471904D02*
X101824819Y-41948094D01*
X101824819Y-41948094D02*
X102301009Y-41995713D01*
X102301009Y-41995713D02*
X102253390Y-41948094D01*
X102253390Y-41948094D02*
X102205771Y-41852856D01*
X102205771Y-41852856D02*
X102205771Y-41614761D01*
X102205771Y-41614761D02*
X102253390Y-41519523D01*
X102253390Y-41519523D02*
X102301009Y-41471904D01*
X102301009Y-41471904D02*
X102396247Y-41424285D01*
X102396247Y-41424285D02*
X102634342Y-41424285D01*
X102634342Y-41424285D02*
X102729580Y-41471904D01*
X102729580Y-41471904D02*
X102777200Y-41519523D01*
X102777200Y-41519523D02*
X102824819Y-41614761D01*
X102824819Y-41614761D02*
X102824819Y-41852856D01*
X102824819Y-41852856D02*
X102777200Y-41948094D01*
X102777200Y-41948094D02*
X102729580Y-41995713D01*
X103094819Y-81292857D02*
X102618628Y-81626190D01*
X103094819Y-81864285D02*
X102094819Y-81864285D01*
X102094819Y-81864285D02*
X102094819Y-81483333D01*
X102094819Y-81483333D02*
X102142438Y-81388095D01*
X102142438Y-81388095D02*
X102190057Y-81340476D01*
X102190057Y-81340476D02*
X102285295Y-81292857D01*
X102285295Y-81292857D02*
X102428152Y-81292857D01*
X102428152Y-81292857D02*
X102523390Y-81340476D01*
X102523390Y-81340476D02*
X102571009Y-81388095D01*
X102571009Y-81388095D02*
X102618628Y-81483333D01*
X102618628Y-81483333D02*
X102618628Y-81864285D01*
X102094819Y-80959523D02*
X102094819Y-80340476D01*
X102094819Y-80340476D02*
X102475771Y-80673809D01*
X102475771Y-80673809D02*
X102475771Y-80530952D01*
X102475771Y-80530952D02*
X102523390Y-80435714D01*
X102523390Y-80435714D02*
X102571009Y-80388095D01*
X102571009Y-80388095D02*
X102666247Y-80340476D01*
X102666247Y-80340476D02*
X102904342Y-80340476D01*
X102904342Y-80340476D02*
X102999580Y-80388095D01*
X102999580Y-80388095D02*
X103047200Y-80435714D01*
X103047200Y-80435714D02*
X103094819Y-80530952D01*
X103094819Y-80530952D02*
X103094819Y-80816666D01*
X103094819Y-80816666D02*
X103047200Y-80911904D01*
X103047200Y-80911904D02*
X102999580Y-80959523D01*
X102094819Y-79435714D02*
X102094819Y-79911904D01*
X102094819Y-79911904D02*
X102571009Y-79959523D01*
X102571009Y-79959523D02*
X102523390Y-79911904D01*
X102523390Y-79911904D02*
X102475771Y-79816666D01*
X102475771Y-79816666D02*
X102475771Y-79578571D01*
X102475771Y-79578571D02*
X102523390Y-79483333D01*
X102523390Y-79483333D02*
X102571009Y-79435714D01*
X102571009Y-79435714D02*
X102666247Y-79388095D01*
X102666247Y-79388095D02*
X102904342Y-79388095D01*
X102904342Y-79388095D02*
X102999580Y-79435714D01*
X102999580Y-79435714D02*
X103047200Y-79483333D01*
X103047200Y-79483333D02*
X103094819Y-79578571D01*
X103094819Y-79578571D02*
X103094819Y-79816666D01*
X103094819Y-79816666D02*
X103047200Y-79911904D01*
X103047200Y-79911904D02*
X102999580Y-79959523D01*
X112924819Y-132602857D02*
X112448628Y-132936190D01*
X112924819Y-133174285D02*
X111924819Y-133174285D01*
X111924819Y-133174285D02*
X111924819Y-132793333D01*
X111924819Y-132793333D02*
X111972438Y-132698095D01*
X111972438Y-132698095D02*
X112020057Y-132650476D01*
X112020057Y-132650476D02*
X112115295Y-132602857D01*
X112115295Y-132602857D02*
X112258152Y-132602857D01*
X112258152Y-132602857D02*
X112353390Y-132650476D01*
X112353390Y-132650476D02*
X112401009Y-132698095D01*
X112401009Y-132698095D02*
X112448628Y-132793333D01*
X112448628Y-132793333D02*
X112448628Y-133174285D01*
X112924819Y-131650476D02*
X112924819Y-132221904D01*
X112924819Y-131936190D02*
X111924819Y-131936190D01*
X111924819Y-131936190D02*
X112067676Y-132031428D01*
X112067676Y-132031428D02*
X112162914Y-132126666D01*
X112162914Y-132126666D02*
X112210533Y-132221904D01*
X111924819Y-130793333D02*
X111924819Y-130983809D01*
X111924819Y-130983809D02*
X111972438Y-131079047D01*
X111972438Y-131079047D02*
X112020057Y-131126666D01*
X112020057Y-131126666D02*
X112162914Y-131221904D01*
X112162914Y-131221904D02*
X112353390Y-131269523D01*
X112353390Y-131269523D02*
X112734342Y-131269523D01*
X112734342Y-131269523D02*
X112829580Y-131221904D01*
X112829580Y-131221904D02*
X112877200Y-131174285D01*
X112877200Y-131174285D02*
X112924819Y-131079047D01*
X112924819Y-131079047D02*
X112924819Y-130888571D01*
X112924819Y-130888571D02*
X112877200Y-130793333D01*
X112877200Y-130793333D02*
X112829580Y-130745714D01*
X112829580Y-130745714D02*
X112734342Y-130698095D01*
X112734342Y-130698095D02*
X112496247Y-130698095D01*
X112496247Y-130698095D02*
X112401009Y-130745714D01*
X112401009Y-130745714D02*
X112353390Y-130793333D01*
X112353390Y-130793333D02*
X112305771Y-130888571D01*
X112305771Y-130888571D02*
X112305771Y-131079047D01*
X112305771Y-131079047D02*
X112353390Y-131174285D01*
X112353390Y-131174285D02*
X112401009Y-131221904D01*
X112401009Y-131221904D02*
X112496247Y-131269523D01*
X116224819Y-73866666D02*
X115748628Y-74199999D01*
X116224819Y-74438094D02*
X115224819Y-74438094D01*
X115224819Y-74438094D02*
X115224819Y-74057142D01*
X115224819Y-74057142D02*
X115272438Y-73961904D01*
X115272438Y-73961904D02*
X115320057Y-73914285D01*
X115320057Y-73914285D02*
X115415295Y-73866666D01*
X115415295Y-73866666D02*
X115558152Y-73866666D01*
X115558152Y-73866666D02*
X115653390Y-73914285D01*
X115653390Y-73914285D02*
X115701009Y-73961904D01*
X115701009Y-73961904D02*
X115748628Y-74057142D01*
X115748628Y-74057142D02*
X115748628Y-74438094D01*
X115320057Y-73485713D02*
X115272438Y-73438094D01*
X115272438Y-73438094D02*
X115224819Y-73342856D01*
X115224819Y-73342856D02*
X115224819Y-73104761D01*
X115224819Y-73104761D02*
X115272438Y-73009523D01*
X115272438Y-73009523D02*
X115320057Y-72961904D01*
X115320057Y-72961904D02*
X115415295Y-72914285D01*
X115415295Y-72914285D02*
X115510533Y-72914285D01*
X115510533Y-72914285D02*
X115653390Y-72961904D01*
X115653390Y-72961904D02*
X116224819Y-73533332D01*
X116224819Y-73533332D02*
X116224819Y-72914285D01*
X107804819Y-96686666D02*
X107328628Y-97019999D01*
X107804819Y-97258094D02*
X106804819Y-97258094D01*
X106804819Y-97258094D02*
X106804819Y-96877142D01*
X106804819Y-96877142D02*
X106852438Y-96781904D01*
X106852438Y-96781904D02*
X106900057Y-96734285D01*
X106900057Y-96734285D02*
X106995295Y-96686666D01*
X106995295Y-96686666D02*
X107138152Y-96686666D01*
X107138152Y-96686666D02*
X107233390Y-96734285D01*
X107233390Y-96734285D02*
X107281009Y-96781904D01*
X107281009Y-96781904D02*
X107328628Y-96877142D01*
X107328628Y-96877142D02*
X107328628Y-97258094D01*
X107804819Y-96210475D02*
X107804819Y-96019999D01*
X107804819Y-96019999D02*
X107757200Y-95924761D01*
X107757200Y-95924761D02*
X107709580Y-95877142D01*
X107709580Y-95877142D02*
X107566723Y-95781904D01*
X107566723Y-95781904D02*
X107376247Y-95734285D01*
X107376247Y-95734285D02*
X106995295Y-95734285D01*
X106995295Y-95734285D02*
X106900057Y-95781904D01*
X106900057Y-95781904D02*
X106852438Y-95829523D01*
X106852438Y-95829523D02*
X106804819Y-95924761D01*
X106804819Y-95924761D02*
X106804819Y-96115237D01*
X106804819Y-96115237D02*
X106852438Y-96210475D01*
X106852438Y-96210475D02*
X106900057Y-96258094D01*
X106900057Y-96258094D02*
X106995295Y-96305713D01*
X106995295Y-96305713D02*
X107233390Y-96305713D01*
X107233390Y-96305713D02*
X107328628Y-96258094D01*
X107328628Y-96258094D02*
X107376247Y-96210475D01*
X107376247Y-96210475D02*
X107423866Y-96115237D01*
X107423866Y-96115237D02*
X107423866Y-95924761D01*
X107423866Y-95924761D02*
X107376247Y-95829523D01*
X107376247Y-95829523D02*
X107328628Y-95781904D01*
X107328628Y-95781904D02*
X107233390Y-95734285D01*
X149730666Y-144976819D02*
X149730666Y-145691104D01*
X149730666Y-145691104D02*
X149683047Y-145833961D01*
X149683047Y-145833961D02*
X149587809Y-145929200D01*
X149587809Y-145929200D02*
X149444952Y-145976819D01*
X149444952Y-145976819D02*
X149349714Y-145976819D01*
X150635428Y-145310152D02*
X150635428Y-145976819D01*
X150397333Y-144929200D02*
X150159238Y-145643485D01*
X150159238Y-145643485D02*
X150778285Y-145643485D01*
X149022761Y-56300057D02*
X148927523Y-56252438D01*
X148927523Y-56252438D02*
X148832285Y-56157200D01*
X148832285Y-56157200D02*
X148689428Y-56014342D01*
X148689428Y-56014342D02*
X148594190Y-55966723D01*
X148594190Y-55966723D02*
X148498952Y-55966723D01*
X148546571Y-56204819D02*
X148451333Y-56157200D01*
X148451333Y-56157200D02*
X148356095Y-56061961D01*
X148356095Y-56061961D02*
X148308476Y-55871485D01*
X148308476Y-55871485D02*
X148308476Y-55538152D01*
X148308476Y-55538152D02*
X148356095Y-55347676D01*
X148356095Y-55347676D02*
X148451333Y-55252438D01*
X148451333Y-55252438D02*
X148546571Y-55204819D01*
X148546571Y-55204819D02*
X148737047Y-55204819D01*
X148737047Y-55204819D02*
X148832285Y-55252438D01*
X148832285Y-55252438D02*
X148927523Y-55347676D01*
X148927523Y-55347676D02*
X148975142Y-55538152D01*
X148975142Y-55538152D02*
X148975142Y-55871485D01*
X148975142Y-55871485D02*
X148927523Y-56061961D01*
X148927523Y-56061961D02*
X148832285Y-56157200D01*
X148832285Y-56157200D02*
X148737047Y-56204819D01*
X148737047Y-56204819D02*
X148546571Y-56204819D01*
X149308476Y-55204819D02*
X149927523Y-55204819D01*
X149927523Y-55204819D02*
X149594190Y-55585771D01*
X149594190Y-55585771D02*
X149737047Y-55585771D01*
X149737047Y-55585771D02*
X149832285Y-55633390D01*
X149832285Y-55633390D02*
X149879904Y-55681009D01*
X149879904Y-55681009D02*
X149927523Y-55776247D01*
X149927523Y-55776247D02*
X149927523Y-56014342D01*
X149927523Y-56014342D02*
X149879904Y-56109580D01*
X149879904Y-56109580D02*
X149832285Y-56157200D01*
X149832285Y-56157200D02*
X149737047Y-56204819D01*
X149737047Y-56204819D02*
X149451333Y-56204819D01*
X149451333Y-56204819D02*
X149356095Y-56157200D01*
X149356095Y-56157200D02*
X149308476Y-56109580D01*
X95480476Y-61984819D02*
X95480476Y-62699104D01*
X95480476Y-62699104D02*
X95432857Y-62841961D01*
X95432857Y-62841961D02*
X95337619Y-62937200D01*
X95337619Y-62937200D02*
X95194762Y-62984819D01*
X95194762Y-62984819D02*
X95099524Y-62984819D01*
X96480476Y-62984819D02*
X95909048Y-62984819D01*
X96194762Y-62984819D02*
X96194762Y-61984819D01*
X96194762Y-61984819D02*
X96099524Y-62127676D01*
X96099524Y-62127676D02*
X96004286Y-62222914D01*
X96004286Y-62222914D02*
X95909048Y-62270533D01*
X97385238Y-61984819D02*
X96909048Y-61984819D01*
X96909048Y-61984819D02*
X96861429Y-62461009D01*
X96861429Y-62461009D02*
X96909048Y-62413390D01*
X96909048Y-62413390D02*
X97004286Y-62365771D01*
X97004286Y-62365771D02*
X97242381Y-62365771D01*
X97242381Y-62365771D02*
X97337619Y-62413390D01*
X97337619Y-62413390D02*
X97385238Y-62461009D01*
X97385238Y-62461009D02*
X97432857Y-62556247D01*
X97432857Y-62556247D02*
X97432857Y-62794342D01*
X97432857Y-62794342D02*
X97385238Y-62889580D01*
X97385238Y-62889580D02*
X97337619Y-62937200D01*
X97337619Y-62937200D02*
X97242381Y-62984819D01*
X97242381Y-62984819D02*
X97004286Y-62984819D01*
X97004286Y-62984819D02*
X96909048Y-62937200D01*
X96909048Y-62937200D02*
X96861429Y-62889580D01*
X116304819Y-88122857D02*
X115828628Y-88456190D01*
X116304819Y-88694285D02*
X115304819Y-88694285D01*
X115304819Y-88694285D02*
X115304819Y-88313333D01*
X115304819Y-88313333D02*
X115352438Y-88218095D01*
X115352438Y-88218095D02*
X115400057Y-88170476D01*
X115400057Y-88170476D02*
X115495295Y-88122857D01*
X115495295Y-88122857D02*
X115638152Y-88122857D01*
X115638152Y-88122857D02*
X115733390Y-88170476D01*
X115733390Y-88170476D02*
X115781009Y-88218095D01*
X115781009Y-88218095D02*
X115828628Y-88313333D01*
X115828628Y-88313333D02*
X115828628Y-88694285D01*
X115400057Y-87741904D02*
X115352438Y-87694285D01*
X115352438Y-87694285D02*
X115304819Y-87599047D01*
X115304819Y-87599047D02*
X115304819Y-87360952D01*
X115304819Y-87360952D02*
X115352438Y-87265714D01*
X115352438Y-87265714D02*
X115400057Y-87218095D01*
X115400057Y-87218095D02*
X115495295Y-87170476D01*
X115495295Y-87170476D02*
X115590533Y-87170476D01*
X115590533Y-87170476D02*
X115733390Y-87218095D01*
X115733390Y-87218095D02*
X116304819Y-87789523D01*
X116304819Y-87789523D02*
X116304819Y-87170476D01*
X115304819Y-86837142D02*
X115304819Y-86218095D01*
X115304819Y-86218095D02*
X115685771Y-86551428D01*
X115685771Y-86551428D02*
X115685771Y-86408571D01*
X115685771Y-86408571D02*
X115733390Y-86313333D01*
X115733390Y-86313333D02*
X115781009Y-86265714D01*
X115781009Y-86265714D02*
X115876247Y-86218095D01*
X115876247Y-86218095D02*
X116114342Y-86218095D01*
X116114342Y-86218095D02*
X116209580Y-86265714D01*
X116209580Y-86265714D02*
X116257200Y-86313333D01*
X116257200Y-86313333D02*
X116304819Y-86408571D01*
X116304819Y-86408571D02*
X116304819Y-86694285D01*
X116304819Y-86694285D02*
X116257200Y-86789523D01*
X116257200Y-86789523D02*
X116209580Y-86837142D01*
X109524819Y-112362857D02*
X109048628Y-112696190D01*
X109524819Y-112934285D02*
X108524819Y-112934285D01*
X108524819Y-112934285D02*
X108524819Y-112553333D01*
X108524819Y-112553333D02*
X108572438Y-112458095D01*
X108572438Y-112458095D02*
X108620057Y-112410476D01*
X108620057Y-112410476D02*
X108715295Y-112362857D01*
X108715295Y-112362857D02*
X108858152Y-112362857D01*
X108858152Y-112362857D02*
X108953390Y-112410476D01*
X108953390Y-112410476D02*
X109001009Y-112458095D01*
X109001009Y-112458095D02*
X109048628Y-112553333D01*
X109048628Y-112553333D02*
X109048628Y-112934285D01*
X109524819Y-111410476D02*
X109524819Y-111981904D01*
X109524819Y-111696190D02*
X108524819Y-111696190D01*
X108524819Y-111696190D02*
X108667676Y-111791428D01*
X108667676Y-111791428D02*
X108762914Y-111886666D01*
X108762914Y-111886666D02*
X108810533Y-111981904D01*
X109524819Y-110458095D02*
X109524819Y-111029523D01*
X109524819Y-110743809D02*
X108524819Y-110743809D01*
X108524819Y-110743809D02*
X108667676Y-110839047D01*
X108667676Y-110839047D02*
X108762914Y-110934285D01*
X108762914Y-110934285D02*
X108810533Y-111029523D01*
X100164819Y-63866666D02*
X99688628Y-64199999D01*
X100164819Y-64438094D02*
X99164819Y-64438094D01*
X99164819Y-64438094D02*
X99164819Y-64057142D01*
X99164819Y-64057142D02*
X99212438Y-63961904D01*
X99212438Y-63961904D02*
X99260057Y-63914285D01*
X99260057Y-63914285D02*
X99355295Y-63866666D01*
X99355295Y-63866666D02*
X99498152Y-63866666D01*
X99498152Y-63866666D02*
X99593390Y-63914285D01*
X99593390Y-63914285D02*
X99641009Y-63961904D01*
X99641009Y-63961904D02*
X99688628Y-64057142D01*
X99688628Y-64057142D02*
X99688628Y-64438094D01*
X100164819Y-62914285D02*
X100164819Y-63485713D01*
X100164819Y-63199999D02*
X99164819Y-63199999D01*
X99164819Y-63199999D02*
X99307676Y-63295237D01*
X99307676Y-63295237D02*
X99402914Y-63390475D01*
X99402914Y-63390475D02*
X99450533Y-63485713D01*
X96864819Y-97836666D02*
X96388628Y-98169999D01*
X96864819Y-98408094D02*
X95864819Y-98408094D01*
X95864819Y-98408094D02*
X95864819Y-98027142D01*
X95864819Y-98027142D02*
X95912438Y-97931904D01*
X95912438Y-97931904D02*
X95960057Y-97884285D01*
X95960057Y-97884285D02*
X96055295Y-97836666D01*
X96055295Y-97836666D02*
X96198152Y-97836666D01*
X96198152Y-97836666D02*
X96293390Y-97884285D01*
X96293390Y-97884285D02*
X96341009Y-97931904D01*
X96341009Y-97931904D02*
X96388628Y-98027142D01*
X96388628Y-98027142D02*
X96388628Y-98408094D01*
X95864819Y-97503332D02*
X95864819Y-96836666D01*
X95864819Y-96836666D02*
X96864819Y-97265237D01*
X138913779Y-62579019D02*
X138913779Y-61579019D01*
X138913779Y-61579019D02*
X139294731Y-61579019D01*
X139294731Y-61579019D02*
X139389969Y-61626638D01*
X139389969Y-61626638D02*
X139437588Y-61674257D01*
X139437588Y-61674257D02*
X139485207Y-61769495D01*
X139485207Y-61769495D02*
X139485207Y-61912352D01*
X139485207Y-61912352D02*
X139437588Y-62007590D01*
X139437588Y-62007590D02*
X139389969Y-62055209D01*
X139389969Y-62055209D02*
X139294731Y-62102828D01*
X139294731Y-62102828D02*
X138913779Y-62102828D01*
X140104255Y-61579019D02*
X140294731Y-61579019D01*
X140294731Y-61579019D02*
X140389969Y-61626638D01*
X140389969Y-61626638D02*
X140485207Y-61721876D01*
X140485207Y-61721876D02*
X140532826Y-61912352D01*
X140532826Y-61912352D02*
X140532826Y-62245685D01*
X140532826Y-62245685D02*
X140485207Y-62436161D01*
X140485207Y-62436161D02*
X140389969Y-62531400D01*
X140389969Y-62531400D02*
X140294731Y-62579019D01*
X140294731Y-62579019D02*
X140104255Y-62579019D01*
X140104255Y-62579019D02*
X140009017Y-62531400D01*
X140009017Y-62531400D02*
X139913779Y-62436161D01*
X139913779Y-62436161D02*
X139866160Y-62245685D01*
X139866160Y-62245685D02*
X139866160Y-61912352D01*
X139866160Y-61912352D02*
X139913779Y-61721876D01*
X139913779Y-61721876D02*
X140009017Y-61626638D01*
X140009017Y-61626638D02*
X140104255Y-61579019D01*
X140818541Y-61579019D02*
X141389969Y-61579019D01*
X141104255Y-62579019D02*
X141104255Y-61579019D01*
X141675684Y-61674257D02*
X141723303Y-61626638D01*
X141723303Y-61626638D02*
X141818541Y-61579019D01*
X141818541Y-61579019D02*
X142056636Y-61579019D01*
X142056636Y-61579019D02*
X142151874Y-61626638D01*
X142151874Y-61626638D02*
X142199493Y-61674257D01*
X142199493Y-61674257D02*
X142247112Y-61769495D01*
X142247112Y-61769495D02*
X142247112Y-61864733D01*
X142247112Y-61864733D02*
X142199493Y-62007590D01*
X142199493Y-62007590D02*
X141628065Y-62579019D01*
X141628065Y-62579019D02*
X142247112Y-62579019D01*
X140200588Y-71559819D02*
X139629160Y-71559819D01*
X139914874Y-71559819D02*
X139914874Y-70559819D01*
X139914874Y-70559819D02*
X139819636Y-70702676D01*
X139819636Y-70702676D02*
X139724398Y-70797914D01*
X139724398Y-70797914D02*
X139629160Y-70845533D01*
X140629160Y-71559819D02*
X140629160Y-70559819D01*
X140629160Y-70559819D02*
X140962493Y-71274104D01*
X140962493Y-71274104D02*
X141295826Y-70559819D01*
X141295826Y-70559819D02*
X141295826Y-71559819D01*
X138191999Y-67297219D02*
X138191999Y-66297219D01*
X138191999Y-66297219D02*
X138406285Y-66297219D01*
X138406285Y-66297219D02*
X138534856Y-66344838D01*
X138534856Y-66344838D02*
X138620571Y-66440076D01*
X138620571Y-66440076D02*
X138663428Y-66535314D01*
X138663428Y-66535314D02*
X138706285Y-66725790D01*
X138706285Y-66725790D02*
X138706285Y-66868647D01*
X138706285Y-66868647D02*
X138663428Y-67059123D01*
X138663428Y-67059123D02*
X138620571Y-67154361D01*
X138620571Y-67154361D02*
X138534856Y-67249600D01*
X138534856Y-67249600D02*
X138406285Y-67297219D01*
X138406285Y-67297219D02*
X138191999Y-67297219D01*
X139049142Y-67249600D02*
X139177714Y-67297219D01*
X139177714Y-67297219D02*
X139391999Y-67297219D01*
X139391999Y-67297219D02*
X139477714Y-67249600D01*
X139477714Y-67249600D02*
X139520571Y-67201980D01*
X139520571Y-67201980D02*
X139563428Y-67106742D01*
X139563428Y-67106742D02*
X139563428Y-67011504D01*
X139563428Y-67011504D02*
X139520571Y-66916266D01*
X139520571Y-66916266D02*
X139477714Y-66868647D01*
X139477714Y-66868647D02*
X139391999Y-66821028D01*
X139391999Y-66821028D02*
X139220571Y-66773409D01*
X139220571Y-66773409D02*
X139134856Y-66725790D01*
X139134856Y-66725790D02*
X139091999Y-66678171D01*
X139091999Y-66678171D02*
X139049142Y-66582933D01*
X139049142Y-66582933D02*
X139049142Y-66487695D01*
X139049142Y-66487695D02*
X139091999Y-66392457D01*
X139091999Y-66392457D02*
X139134856Y-66344838D01*
X139134856Y-66344838D02*
X139220571Y-66297219D01*
X139220571Y-66297219D02*
X139434856Y-66297219D01*
X139434856Y-66297219D02*
X139563428Y-66344838D01*
X139949142Y-67297219D02*
X139949142Y-66297219D01*
X139949142Y-66773409D02*
X140463428Y-66773409D01*
X140463428Y-67297219D02*
X140463428Y-66297219D01*
X140849142Y-67011504D02*
X141277714Y-67011504D01*
X140763428Y-67297219D02*
X141063428Y-66297219D01*
X141063428Y-66297219D02*
X141363428Y-67297219D01*
X141963428Y-66773409D02*
X141663428Y-66773409D01*
X141663428Y-67297219D02*
X141663428Y-66297219D01*
X141663428Y-66297219D02*
X142092000Y-66297219D01*
X142306286Y-66297219D02*
X142820572Y-66297219D01*
X142563429Y-67297219D02*
X142563429Y-66297219D01*
X96374819Y-132202857D02*
X95898628Y-132536190D01*
X96374819Y-132774285D02*
X95374819Y-132774285D01*
X95374819Y-132774285D02*
X95374819Y-132393333D01*
X95374819Y-132393333D02*
X95422438Y-132298095D01*
X95422438Y-132298095D02*
X95470057Y-132250476D01*
X95470057Y-132250476D02*
X95565295Y-132202857D01*
X95565295Y-132202857D02*
X95708152Y-132202857D01*
X95708152Y-132202857D02*
X95803390Y-132250476D01*
X95803390Y-132250476D02*
X95851009Y-132298095D01*
X95851009Y-132298095D02*
X95898628Y-132393333D01*
X95898628Y-132393333D02*
X95898628Y-132774285D01*
X95470057Y-131821904D02*
X95422438Y-131774285D01*
X95422438Y-131774285D02*
X95374819Y-131679047D01*
X95374819Y-131679047D02*
X95374819Y-131440952D01*
X95374819Y-131440952D02*
X95422438Y-131345714D01*
X95422438Y-131345714D02*
X95470057Y-131298095D01*
X95470057Y-131298095D02*
X95565295Y-131250476D01*
X95565295Y-131250476D02*
X95660533Y-131250476D01*
X95660533Y-131250476D02*
X95803390Y-131298095D01*
X95803390Y-131298095D02*
X96374819Y-131869523D01*
X96374819Y-131869523D02*
X96374819Y-131250476D01*
X95374819Y-130631428D02*
X95374819Y-130536190D01*
X95374819Y-130536190D02*
X95422438Y-130440952D01*
X95422438Y-130440952D02*
X95470057Y-130393333D01*
X95470057Y-130393333D02*
X95565295Y-130345714D01*
X95565295Y-130345714D02*
X95755771Y-130298095D01*
X95755771Y-130298095D02*
X95993866Y-130298095D01*
X95993866Y-130298095D02*
X96184342Y-130345714D01*
X96184342Y-130345714D02*
X96279580Y-130393333D01*
X96279580Y-130393333D02*
X96327200Y-130440952D01*
X96327200Y-130440952D02*
X96374819Y-130536190D01*
X96374819Y-130536190D02*
X96374819Y-130631428D01*
X96374819Y-130631428D02*
X96327200Y-130726666D01*
X96327200Y-130726666D02*
X96279580Y-130774285D01*
X96279580Y-130774285D02*
X96184342Y-130821904D01*
X96184342Y-130821904D02*
X95993866Y-130869523D01*
X95993866Y-130869523D02*
X95755771Y-130869523D01*
X95755771Y-130869523D02*
X95565295Y-130821904D01*
X95565295Y-130821904D02*
X95470057Y-130774285D01*
X95470057Y-130774285D02*
X95422438Y-130726666D01*
X95422438Y-130726666D02*
X95374819Y-130631428D01*
X138913779Y-79089019D02*
X138913779Y-78089019D01*
X138913779Y-78089019D02*
X139294731Y-78089019D01*
X139294731Y-78089019D02*
X139389969Y-78136638D01*
X139389969Y-78136638D02*
X139437588Y-78184257D01*
X139437588Y-78184257D02*
X139485207Y-78279495D01*
X139485207Y-78279495D02*
X139485207Y-78422352D01*
X139485207Y-78422352D02*
X139437588Y-78517590D01*
X139437588Y-78517590D02*
X139389969Y-78565209D01*
X139389969Y-78565209D02*
X139294731Y-78612828D01*
X139294731Y-78612828D02*
X138913779Y-78612828D01*
X140104255Y-78089019D02*
X140294731Y-78089019D01*
X140294731Y-78089019D02*
X140389969Y-78136638D01*
X140389969Y-78136638D02*
X140485207Y-78231876D01*
X140485207Y-78231876D02*
X140532826Y-78422352D01*
X140532826Y-78422352D02*
X140532826Y-78755685D01*
X140532826Y-78755685D02*
X140485207Y-78946161D01*
X140485207Y-78946161D02*
X140389969Y-79041400D01*
X140389969Y-79041400D02*
X140294731Y-79089019D01*
X140294731Y-79089019D02*
X140104255Y-79089019D01*
X140104255Y-79089019D02*
X140009017Y-79041400D01*
X140009017Y-79041400D02*
X139913779Y-78946161D01*
X139913779Y-78946161D02*
X139866160Y-78755685D01*
X139866160Y-78755685D02*
X139866160Y-78422352D01*
X139866160Y-78422352D02*
X139913779Y-78231876D01*
X139913779Y-78231876D02*
X140009017Y-78136638D01*
X140009017Y-78136638D02*
X140104255Y-78089019D01*
X140818541Y-78089019D02*
X141389969Y-78089019D01*
X141104255Y-79089019D02*
X141104255Y-78089019D01*
X141628065Y-78089019D02*
X142247112Y-78089019D01*
X142247112Y-78089019D02*
X141913779Y-78469971D01*
X141913779Y-78469971D02*
X142056636Y-78469971D01*
X142056636Y-78469971D02*
X142151874Y-78517590D01*
X142151874Y-78517590D02*
X142199493Y-78565209D01*
X142199493Y-78565209D02*
X142247112Y-78660447D01*
X142247112Y-78660447D02*
X142247112Y-78898542D01*
X142247112Y-78898542D02*
X142199493Y-78993780D01*
X142199493Y-78993780D02*
X142151874Y-79041400D01*
X142151874Y-79041400D02*
X142056636Y-79089019D01*
X142056636Y-79089019D02*
X141770922Y-79089019D01*
X141770922Y-79089019D02*
X141675684Y-79041400D01*
X141675684Y-79041400D02*
X141628065Y-78993780D01*
X139285350Y-87353152D02*
X139285350Y-88019819D01*
X139047255Y-86972200D02*
X138809160Y-87686485D01*
X138809160Y-87686485D02*
X139428207Y-87686485D01*
X139713922Y-87019819D02*
X140380588Y-87019819D01*
X140380588Y-87019819D02*
X139952017Y-88019819D01*
X140761541Y-88019819D02*
X140761541Y-87019819D01*
X141332969Y-88019819D02*
X140904398Y-87448390D01*
X141332969Y-87019819D02*
X140761541Y-87591247D01*
X138191999Y-83807219D02*
X138191999Y-82807219D01*
X138191999Y-82807219D02*
X138406285Y-82807219D01*
X138406285Y-82807219D02*
X138534856Y-82854838D01*
X138534856Y-82854838D02*
X138620571Y-82950076D01*
X138620571Y-82950076D02*
X138663428Y-83045314D01*
X138663428Y-83045314D02*
X138706285Y-83235790D01*
X138706285Y-83235790D02*
X138706285Y-83378647D01*
X138706285Y-83378647D02*
X138663428Y-83569123D01*
X138663428Y-83569123D02*
X138620571Y-83664361D01*
X138620571Y-83664361D02*
X138534856Y-83759600D01*
X138534856Y-83759600D02*
X138406285Y-83807219D01*
X138406285Y-83807219D02*
X138191999Y-83807219D01*
X139049142Y-83759600D02*
X139177714Y-83807219D01*
X139177714Y-83807219D02*
X139391999Y-83807219D01*
X139391999Y-83807219D02*
X139477714Y-83759600D01*
X139477714Y-83759600D02*
X139520571Y-83711980D01*
X139520571Y-83711980D02*
X139563428Y-83616742D01*
X139563428Y-83616742D02*
X139563428Y-83521504D01*
X139563428Y-83521504D02*
X139520571Y-83426266D01*
X139520571Y-83426266D02*
X139477714Y-83378647D01*
X139477714Y-83378647D02*
X139391999Y-83331028D01*
X139391999Y-83331028D02*
X139220571Y-83283409D01*
X139220571Y-83283409D02*
X139134856Y-83235790D01*
X139134856Y-83235790D02*
X139091999Y-83188171D01*
X139091999Y-83188171D02*
X139049142Y-83092933D01*
X139049142Y-83092933D02*
X139049142Y-82997695D01*
X139049142Y-82997695D02*
X139091999Y-82902457D01*
X139091999Y-82902457D02*
X139134856Y-82854838D01*
X139134856Y-82854838D02*
X139220571Y-82807219D01*
X139220571Y-82807219D02*
X139434856Y-82807219D01*
X139434856Y-82807219D02*
X139563428Y-82854838D01*
X139949142Y-83807219D02*
X139949142Y-82807219D01*
X139949142Y-83283409D02*
X140463428Y-83283409D01*
X140463428Y-83807219D02*
X140463428Y-82807219D01*
X140849142Y-83521504D02*
X141277714Y-83521504D01*
X140763428Y-83807219D02*
X141063428Y-82807219D01*
X141063428Y-82807219D02*
X141363428Y-83807219D01*
X141963428Y-83283409D02*
X141663428Y-83283409D01*
X141663428Y-83807219D02*
X141663428Y-82807219D01*
X141663428Y-82807219D02*
X142092000Y-82807219D01*
X142306286Y-82807219D02*
X142820572Y-82807219D01*
X142563429Y-83807219D02*
X142563429Y-82807219D01*
X106349580Y-110806666D02*
X106397200Y-110854285D01*
X106397200Y-110854285D02*
X106444819Y-110997142D01*
X106444819Y-110997142D02*
X106444819Y-111092380D01*
X106444819Y-111092380D02*
X106397200Y-111235237D01*
X106397200Y-111235237D02*
X106301961Y-111330475D01*
X106301961Y-111330475D02*
X106206723Y-111378094D01*
X106206723Y-111378094D02*
X106016247Y-111425713D01*
X106016247Y-111425713D02*
X105873390Y-111425713D01*
X105873390Y-111425713D02*
X105682914Y-111378094D01*
X105682914Y-111378094D02*
X105587676Y-111330475D01*
X105587676Y-111330475D02*
X105492438Y-111235237D01*
X105492438Y-111235237D02*
X105444819Y-111092380D01*
X105444819Y-111092380D02*
X105444819Y-110997142D01*
X105444819Y-110997142D02*
X105492438Y-110854285D01*
X105492438Y-110854285D02*
X105540057Y-110806666D01*
X105444819Y-110473332D02*
X105444819Y-109854285D01*
X105444819Y-109854285D02*
X105825771Y-110187618D01*
X105825771Y-110187618D02*
X105825771Y-110044761D01*
X105825771Y-110044761D02*
X105873390Y-109949523D01*
X105873390Y-109949523D02*
X105921009Y-109901904D01*
X105921009Y-109901904D02*
X106016247Y-109854285D01*
X106016247Y-109854285D02*
X106254342Y-109854285D01*
X106254342Y-109854285D02*
X106349580Y-109901904D01*
X106349580Y-109901904D02*
X106397200Y-109949523D01*
X106397200Y-109949523D02*
X106444819Y-110044761D01*
X106444819Y-110044761D02*
X106444819Y-110330475D01*
X106444819Y-110330475D02*
X106397200Y-110425713D01*
X106397200Y-110425713D02*
X106349580Y-110473332D01*
X115844819Y-63338094D02*
X114844819Y-63338094D01*
X114844819Y-63338094D02*
X114844819Y-63099999D01*
X114844819Y-63099999D02*
X114892438Y-62957142D01*
X114892438Y-62957142D02*
X114987676Y-62861904D01*
X114987676Y-62861904D02*
X115082914Y-62814285D01*
X115082914Y-62814285D02*
X115273390Y-62766666D01*
X115273390Y-62766666D02*
X115416247Y-62766666D01*
X115416247Y-62766666D02*
X115606723Y-62814285D01*
X115606723Y-62814285D02*
X115701961Y-62861904D01*
X115701961Y-62861904D02*
X115797200Y-62957142D01*
X115797200Y-62957142D02*
X115844819Y-63099999D01*
X115844819Y-63099999D02*
X115844819Y-63338094D01*
X115844819Y-61814285D02*
X115844819Y-62385713D01*
X115844819Y-62099999D02*
X114844819Y-62099999D01*
X114844819Y-62099999D02*
X114987676Y-62195237D01*
X114987676Y-62195237D02*
X115082914Y-62290475D01*
X115082914Y-62290475D02*
X115130533Y-62385713D01*
X114324819Y-67291904D02*
X113324819Y-67291904D01*
X114324819Y-66720476D02*
X113753390Y-67149047D01*
X113324819Y-66720476D02*
X113896247Y-67291904D01*
X109274819Y-80862857D02*
X108798628Y-81196190D01*
X109274819Y-81434285D02*
X108274819Y-81434285D01*
X108274819Y-81434285D02*
X108274819Y-81053333D01*
X108274819Y-81053333D02*
X108322438Y-80958095D01*
X108322438Y-80958095D02*
X108370057Y-80910476D01*
X108370057Y-80910476D02*
X108465295Y-80862857D01*
X108465295Y-80862857D02*
X108608152Y-80862857D01*
X108608152Y-80862857D02*
X108703390Y-80910476D01*
X108703390Y-80910476D02*
X108751009Y-80958095D01*
X108751009Y-80958095D02*
X108798628Y-81053333D01*
X108798628Y-81053333D02*
X108798628Y-81434285D01*
X108274819Y-80529523D02*
X108274819Y-79910476D01*
X108274819Y-79910476D02*
X108655771Y-80243809D01*
X108655771Y-80243809D02*
X108655771Y-80100952D01*
X108655771Y-80100952D02*
X108703390Y-80005714D01*
X108703390Y-80005714D02*
X108751009Y-79958095D01*
X108751009Y-79958095D02*
X108846247Y-79910476D01*
X108846247Y-79910476D02*
X109084342Y-79910476D01*
X109084342Y-79910476D02*
X109179580Y-79958095D01*
X109179580Y-79958095D02*
X109227200Y-80005714D01*
X109227200Y-80005714D02*
X109274819Y-80100952D01*
X109274819Y-80100952D02*
X109274819Y-80386666D01*
X109274819Y-80386666D02*
X109227200Y-80481904D01*
X109227200Y-80481904D02*
X109179580Y-80529523D01*
X108608152Y-79053333D02*
X109274819Y-79053333D01*
X108227200Y-79291428D02*
X108941485Y-79529523D01*
X108941485Y-79529523D02*
X108941485Y-78910476D01*
X111084761Y-87980057D02*
X110989523Y-87932438D01*
X110989523Y-87932438D02*
X110894285Y-87837200D01*
X110894285Y-87837200D02*
X110751428Y-87694342D01*
X110751428Y-87694342D02*
X110656190Y-87646723D01*
X110656190Y-87646723D02*
X110560952Y-87646723D01*
X110608571Y-87884819D02*
X110513333Y-87837200D01*
X110513333Y-87837200D02*
X110418095Y-87741961D01*
X110418095Y-87741961D02*
X110370476Y-87551485D01*
X110370476Y-87551485D02*
X110370476Y-87218152D01*
X110370476Y-87218152D02*
X110418095Y-87027676D01*
X110418095Y-87027676D02*
X110513333Y-86932438D01*
X110513333Y-86932438D02*
X110608571Y-86884819D01*
X110608571Y-86884819D02*
X110799047Y-86884819D01*
X110799047Y-86884819D02*
X110894285Y-86932438D01*
X110894285Y-86932438D02*
X110989523Y-87027676D01*
X110989523Y-87027676D02*
X111037142Y-87218152D01*
X111037142Y-87218152D02*
X111037142Y-87551485D01*
X111037142Y-87551485D02*
X110989523Y-87741961D01*
X110989523Y-87741961D02*
X110894285Y-87837200D01*
X110894285Y-87837200D02*
X110799047Y-87884819D01*
X110799047Y-87884819D02*
X110608571Y-87884819D01*
X111941904Y-86884819D02*
X111465714Y-86884819D01*
X111465714Y-86884819D02*
X111418095Y-87361009D01*
X111418095Y-87361009D02*
X111465714Y-87313390D01*
X111465714Y-87313390D02*
X111560952Y-87265771D01*
X111560952Y-87265771D02*
X111799047Y-87265771D01*
X111799047Y-87265771D02*
X111894285Y-87313390D01*
X111894285Y-87313390D02*
X111941904Y-87361009D01*
X111941904Y-87361009D02*
X111989523Y-87456247D01*
X111989523Y-87456247D02*
X111989523Y-87694342D01*
X111989523Y-87694342D02*
X111941904Y-87789580D01*
X111941904Y-87789580D02*
X111894285Y-87837200D01*
X111894285Y-87837200D02*
X111799047Y-87884819D01*
X111799047Y-87884819D02*
X111560952Y-87884819D01*
X111560952Y-87884819D02*
X111465714Y-87837200D01*
X111465714Y-87837200D02*
X111418095Y-87789580D01*
X113204819Y-53732857D02*
X112728628Y-54066190D01*
X113204819Y-54304285D02*
X112204819Y-54304285D01*
X112204819Y-54304285D02*
X112204819Y-53923333D01*
X112204819Y-53923333D02*
X112252438Y-53828095D01*
X112252438Y-53828095D02*
X112300057Y-53780476D01*
X112300057Y-53780476D02*
X112395295Y-53732857D01*
X112395295Y-53732857D02*
X112538152Y-53732857D01*
X112538152Y-53732857D02*
X112633390Y-53780476D01*
X112633390Y-53780476D02*
X112681009Y-53828095D01*
X112681009Y-53828095D02*
X112728628Y-53923333D01*
X112728628Y-53923333D02*
X112728628Y-54304285D01*
X112300057Y-53351904D02*
X112252438Y-53304285D01*
X112252438Y-53304285D02*
X112204819Y-53209047D01*
X112204819Y-53209047D02*
X112204819Y-52970952D01*
X112204819Y-52970952D02*
X112252438Y-52875714D01*
X112252438Y-52875714D02*
X112300057Y-52828095D01*
X112300057Y-52828095D02*
X112395295Y-52780476D01*
X112395295Y-52780476D02*
X112490533Y-52780476D01*
X112490533Y-52780476D02*
X112633390Y-52828095D01*
X112633390Y-52828095D02*
X113204819Y-53399523D01*
X113204819Y-53399523D02*
X113204819Y-52780476D01*
X112633390Y-52209047D02*
X112585771Y-52304285D01*
X112585771Y-52304285D02*
X112538152Y-52351904D01*
X112538152Y-52351904D02*
X112442914Y-52399523D01*
X112442914Y-52399523D02*
X112395295Y-52399523D01*
X112395295Y-52399523D02*
X112300057Y-52351904D01*
X112300057Y-52351904D02*
X112252438Y-52304285D01*
X112252438Y-52304285D02*
X112204819Y-52209047D01*
X112204819Y-52209047D02*
X112204819Y-52018571D01*
X112204819Y-52018571D02*
X112252438Y-51923333D01*
X112252438Y-51923333D02*
X112300057Y-51875714D01*
X112300057Y-51875714D02*
X112395295Y-51828095D01*
X112395295Y-51828095D02*
X112442914Y-51828095D01*
X112442914Y-51828095D02*
X112538152Y-51875714D01*
X112538152Y-51875714D02*
X112585771Y-51923333D01*
X112585771Y-51923333D02*
X112633390Y-52018571D01*
X112633390Y-52018571D02*
X112633390Y-52209047D01*
X112633390Y-52209047D02*
X112681009Y-52304285D01*
X112681009Y-52304285D02*
X112728628Y-52351904D01*
X112728628Y-52351904D02*
X112823866Y-52399523D01*
X112823866Y-52399523D02*
X113014342Y-52399523D01*
X113014342Y-52399523D02*
X113109580Y-52351904D01*
X113109580Y-52351904D02*
X113157200Y-52304285D01*
X113157200Y-52304285D02*
X113204819Y-52209047D01*
X113204819Y-52209047D02*
X113204819Y-52018571D01*
X113204819Y-52018571D02*
X113157200Y-51923333D01*
X113157200Y-51923333D02*
X113109580Y-51875714D01*
X113109580Y-51875714D02*
X113014342Y-51828095D01*
X113014342Y-51828095D02*
X112823866Y-51828095D01*
X112823866Y-51828095D02*
X112728628Y-51875714D01*
X112728628Y-51875714D02*
X112681009Y-51923333D01*
X112681009Y-51923333D02*
X112633390Y-52018571D01*
X105944819Y-81372857D02*
X105468628Y-81706190D01*
X105944819Y-81944285D02*
X104944819Y-81944285D01*
X104944819Y-81944285D02*
X104944819Y-81563333D01*
X104944819Y-81563333D02*
X104992438Y-81468095D01*
X104992438Y-81468095D02*
X105040057Y-81420476D01*
X105040057Y-81420476D02*
X105135295Y-81372857D01*
X105135295Y-81372857D02*
X105278152Y-81372857D01*
X105278152Y-81372857D02*
X105373390Y-81420476D01*
X105373390Y-81420476D02*
X105421009Y-81468095D01*
X105421009Y-81468095D02*
X105468628Y-81563333D01*
X105468628Y-81563333D02*
X105468628Y-81944285D01*
X104944819Y-81039523D02*
X104944819Y-80420476D01*
X104944819Y-80420476D02*
X105325771Y-80753809D01*
X105325771Y-80753809D02*
X105325771Y-80610952D01*
X105325771Y-80610952D02*
X105373390Y-80515714D01*
X105373390Y-80515714D02*
X105421009Y-80468095D01*
X105421009Y-80468095D02*
X105516247Y-80420476D01*
X105516247Y-80420476D02*
X105754342Y-80420476D01*
X105754342Y-80420476D02*
X105849580Y-80468095D01*
X105849580Y-80468095D02*
X105897200Y-80515714D01*
X105897200Y-80515714D02*
X105944819Y-80610952D01*
X105944819Y-80610952D02*
X105944819Y-80896666D01*
X105944819Y-80896666D02*
X105897200Y-80991904D01*
X105897200Y-80991904D02*
X105849580Y-81039523D01*
X104944819Y-80087142D02*
X104944819Y-79468095D01*
X104944819Y-79468095D02*
X105325771Y-79801428D01*
X105325771Y-79801428D02*
X105325771Y-79658571D01*
X105325771Y-79658571D02*
X105373390Y-79563333D01*
X105373390Y-79563333D02*
X105421009Y-79515714D01*
X105421009Y-79515714D02*
X105516247Y-79468095D01*
X105516247Y-79468095D02*
X105754342Y-79468095D01*
X105754342Y-79468095D02*
X105849580Y-79515714D01*
X105849580Y-79515714D02*
X105897200Y-79563333D01*
X105897200Y-79563333D02*
X105944819Y-79658571D01*
X105944819Y-79658571D02*
X105944819Y-79944285D01*
X105944819Y-79944285D02*
X105897200Y-80039523D01*
X105897200Y-80039523D02*
X105849580Y-80087142D01*
X149414819Y-103888094D02*
X148414819Y-103888094D01*
X148414819Y-103888094D02*
X148414819Y-103649999D01*
X148414819Y-103649999D02*
X148462438Y-103507142D01*
X148462438Y-103507142D02*
X148557676Y-103411904D01*
X148557676Y-103411904D02*
X148652914Y-103364285D01*
X148652914Y-103364285D02*
X148843390Y-103316666D01*
X148843390Y-103316666D02*
X148986247Y-103316666D01*
X148986247Y-103316666D02*
X149176723Y-103364285D01*
X149176723Y-103364285D02*
X149271961Y-103411904D01*
X149271961Y-103411904D02*
X149367200Y-103507142D01*
X149367200Y-103507142D02*
X149414819Y-103649999D01*
X149414819Y-103649999D02*
X149414819Y-103888094D01*
X148414819Y-102459523D02*
X148414819Y-102649999D01*
X148414819Y-102649999D02*
X148462438Y-102745237D01*
X148462438Y-102745237D02*
X148510057Y-102792856D01*
X148510057Y-102792856D02*
X148652914Y-102888094D01*
X148652914Y-102888094D02*
X148843390Y-102935713D01*
X148843390Y-102935713D02*
X149224342Y-102935713D01*
X149224342Y-102935713D02*
X149319580Y-102888094D01*
X149319580Y-102888094D02*
X149367200Y-102840475D01*
X149367200Y-102840475D02*
X149414819Y-102745237D01*
X149414819Y-102745237D02*
X149414819Y-102554761D01*
X149414819Y-102554761D02*
X149367200Y-102459523D01*
X149367200Y-102459523D02*
X149319580Y-102411904D01*
X149319580Y-102411904D02*
X149224342Y-102364285D01*
X149224342Y-102364285D02*
X148986247Y-102364285D01*
X148986247Y-102364285D02*
X148891009Y-102411904D01*
X148891009Y-102411904D02*
X148843390Y-102459523D01*
X148843390Y-102459523D02*
X148795771Y-102554761D01*
X148795771Y-102554761D02*
X148795771Y-102745237D01*
X148795771Y-102745237D02*
X148843390Y-102840475D01*
X148843390Y-102840475D02*
X148891009Y-102888094D01*
X148891009Y-102888094D02*
X148986247Y-102935713D01*
X148048819Y-96549904D02*
X147048819Y-96549904D01*
X148048819Y-95978476D02*
X147477390Y-96407047D01*
X147048819Y-95978476D02*
X147620247Y-96549904D01*
X115634819Y-132982857D02*
X115158628Y-133316190D01*
X115634819Y-133554285D02*
X114634819Y-133554285D01*
X114634819Y-133554285D02*
X114634819Y-133173333D01*
X114634819Y-133173333D02*
X114682438Y-133078095D01*
X114682438Y-133078095D02*
X114730057Y-133030476D01*
X114730057Y-133030476D02*
X114825295Y-132982857D01*
X114825295Y-132982857D02*
X114968152Y-132982857D01*
X114968152Y-132982857D02*
X115063390Y-133030476D01*
X115063390Y-133030476D02*
X115111009Y-133078095D01*
X115111009Y-133078095D02*
X115158628Y-133173333D01*
X115158628Y-133173333D02*
X115158628Y-133554285D01*
X115634819Y-132030476D02*
X115634819Y-132601904D01*
X115634819Y-132316190D02*
X114634819Y-132316190D01*
X114634819Y-132316190D02*
X114777676Y-132411428D01*
X114777676Y-132411428D02*
X114872914Y-132506666D01*
X114872914Y-132506666D02*
X114920533Y-132601904D01*
X114634819Y-131411428D02*
X114634819Y-131316190D01*
X114634819Y-131316190D02*
X114682438Y-131220952D01*
X114682438Y-131220952D02*
X114730057Y-131173333D01*
X114730057Y-131173333D02*
X114825295Y-131125714D01*
X114825295Y-131125714D02*
X115015771Y-131078095D01*
X115015771Y-131078095D02*
X115253866Y-131078095D01*
X115253866Y-131078095D02*
X115444342Y-131125714D01*
X115444342Y-131125714D02*
X115539580Y-131173333D01*
X115539580Y-131173333D02*
X115587200Y-131220952D01*
X115587200Y-131220952D02*
X115634819Y-131316190D01*
X115634819Y-131316190D02*
X115634819Y-131411428D01*
X115634819Y-131411428D02*
X115587200Y-131506666D01*
X115587200Y-131506666D02*
X115539580Y-131554285D01*
X115539580Y-131554285D02*
X115444342Y-131601904D01*
X115444342Y-131601904D02*
X115253866Y-131649523D01*
X115253866Y-131649523D02*
X115015771Y-131649523D01*
X115015771Y-131649523D02*
X114825295Y-131601904D01*
X114825295Y-131601904D02*
X114730057Y-131554285D01*
X114730057Y-131554285D02*
X114682438Y-131506666D01*
X114682438Y-131506666D02*
X114634819Y-131411428D01*
X113036666Y-39734819D02*
X113036666Y-40449104D01*
X113036666Y-40449104D02*
X112989047Y-40591961D01*
X112989047Y-40591961D02*
X112893809Y-40687200D01*
X112893809Y-40687200D02*
X112750952Y-40734819D01*
X112750952Y-40734819D02*
X112655714Y-40734819D01*
X113417619Y-39734819D02*
X114084285Y-39734819D01*
X114084285Y-39734819D02*
X113655714Y-40734819D01*
D13*
%TO.C,C2*%
X103658000Y-70647000D02*
X103658000Y-69389000D01*
X101818000Y-70647000D02*
X101818000Y-69389000D01*
%TO.C,C1*%
X114840000Y-50181000D02*
X114840000Y-51439000D01*
X116680000Y-50181000D02*
X116680000Y-51439000D01*
%TO.C,C5*%
X95180000Y-140681472D02*
X99220000Y-140681472D01*
X99220000Y-137841472D02*
X99220000Y-138466472D01*
X99220000Y-140056472D02*
X99220000Y-140681472D01*
X95180000Y-137841472D02*
X95180000Y-138466472D01*
X95180000Y-140056472D02*
X95180000Y-140681472D01*
X95180000Y-137841472D02*
X99220000Y-137841472D01*
%TO.C,C4*%
X99120000Y-141591472D02*
X95080000Y-141591472D01*
X95080000Y-144431472D02*
X95080000Y-143806472D01*
X95080000Y-142216472D02*
X95080000Y-141591472D01*
X99120000Y-144431472D02*
X99120000Y-143806472D01*
X99120000Y-142216472D02*
X99120000Y-141591472D01*
X99120000Y-144431472D02*
X95080000Y-144431472D01*
D14*
%TO.C,POT4*%
X143981837Y-99486557D02*
G75*
G03*
X136981837Y-99486557I-3500000J0D01*
G01*
X136981837Y-99486557D02*
G75*
G03*
X143981837Y-99486557I3500000J0D01*
G01*
X144892000Y-104988400D02*
G75*
G03*
X145331887Y-104538418I0J440000D01*
G01*
X145332000Y-94428400D02*
G75*
G03*
X144882018Y-93988513I-440000J0D01*
G01*
D12*
X143199919Y-99488400D02*
G75*
G03*
X137764081Y-99488400I-2717919J0D01*
G01*
X137764081Y-99488400D02*
G75*
G03*
X143199919Y-99488400I2717919J0D01*
G01*
D14*
X135632001Y-104548400D02*
G75*
G03*
X136081982Y-104988287I439998J-2D01*
G01*
X136072000Y-93988401D02*
G75*
G03*
X135632113Y-94438382I-2J-439998D01*
G01*
X145332000Y-104548400D02*
X145332000Y-94428400D01*
X144892000Y-93988400D02*
X136072000Y-93988400D01*
X136072000Y-104988400D02*
X144892000Y-104988400D01*
X135632000Y-94428400D02*
X135632000Y-104548400D01*
D13*
%TO.C,R12*%
X98400000Y-110910000D02*
X98400000Y-104370000D01*
X98730000Y-110910000D02*
X98400000Y-110910000D01*
X100810000Y-110910000D02*
X101140000Y-110910000D01*
X101140000Y-110910000D02*
X101140000Y-104370000D01*
X98400000Y-104370000D02*
X98730000Y-104370000D01*
X101140000Y-104370000D02*
X100810000Y-104370000D01*
%TO.C,R25*%
X97600000Y-119080000D02*
X97600000Y-125620000D01*
X97270000Y-119080000D02*
X97600000Y-119080000D01*
X95190000Y-119080000D02*
X94860000Y-119080000D01*
X94860000Y-119080000D02*
X94860000Y-125620000D01*
X97600000Y-125620000D02*
X97270000Y-125620000D01*
X94860000Y-125620000D02*
X95190000Y-125620000D01*
%TO.C,D4*%
X111940000Y-73370000D02*
X111290000Y-73370000D01*
X111290000Y-74490000D02*
X111290000Y-72250000D01*
X111290000Y-72250000D02*
X107050000Y-72250000D01*
X110690000Y-74490000D02*
X110690000Y-72250000D01*
X110570000Y-74490000D02*
X110570000Y-72250000D01*
X110450000Y-74490000D02*
X110450000Y-72250000D01*
X107050000Y-74490000D02*
X111290000Y-74490000D01*
X107050000Y-72250000D02*
X107050000Y-74490000D01*
X106400000Y-73370000D02*
X107050000Y-73370000D01*
D12*
%TO.C,J3*%
X136800000Y-139934000D02*
G75*
G03*
X133200000Y-139934000I-1800000J0D01*
G01*
X133200000Y-139934000D02*
G75*
G03*
X136800000Y-139934000I1800000J0D01*
G01*
X139500000Y-133734000D02*
X139500000Y-144634000D01*
X135000000Y-138134000D02*
X135000000Y-141734000D01*
X133200000Y-139934000D02*
X136800000Y-139934000D01*
X130500000Y-144634000D02*
X139500000Y-144634000D01*
X130500000Y-133734000D02*
X139500000Y-133734000D01*
X130500000Y-133734000D02*
X130500000Y-144634000D01*
D13*
%TO.C,D5*%
X99410000Y-39830000D02*
X99410000Y-40480000D01*
X100530000Y-40480000D02*
X98290000Y-40480000D01*
X98290000Y-40480000D02*
X98290000Y-44720000D01*
X100530000Y-41080000D02*
X98290000Y-41080000D01*
X100530000Y-41200000D02*
X98290000Y-41200000D01*
X100530000Y-41320000D02*
X98290000Y-41320000D01*
X100530000Y-44720000D02*
X100530000Y-40480000D01*
X98290000Y-44720000D02*
X100530000Y-44720000D01*
X99410000Y-45370000D02*
X99410000Y-44720000D01*
%TO.C,J10*%
X94930000Y-37620000D02*
X96260000Y-37620000D01*
X94930000Y-38950000D02*
X94930000Y-37620000D01*
X94930000Y-40220000D02*
X94930000Y-47900000D01*
X94930000Y-40220000D02*
X97590000Y-40220000D01*
X94930000Y-47900000D02*
X97590000Y-47900000D01*
X97590000Y-40220000D02*
X97590000Y-47900000D01*
%TO.C,R18*%
X113506000Y-108424000D02*
X113506000Y-114964000D01*
X113176000Y-108424000D02*
X113506000Y-108424000D01*
X111096000Y-108424000D02*
X110766000Y-108424000D01*
X110766000Y-108424000D02*
X110766000Y-114964000D01*
X113506000Y-114964000D02*
X113176000Y-114964000D01*
X110766000Y-114964000D02*
X111096000Y-114964000D01*
D12*
%TO.C,J5*%
X136800000Y-124814000D02*
G75*
G03*
X133200000Y-124814000I-1800000J0D01*
G01*
X133200000Y-124814000D02*
G75*
G03*
X136800000Y-124814000I1800000J0D01*
G01*
X139500000Y-118614000D02*
X139500000Y-129514000D01*
X135000000Y-123014000D02*
X135000000Y-126614000D01*
X133200000Y-124814000D02*
X136800000Y-124814000D01*
X130500000Y-129514000D02*
X139500000Y-129514000D01*
X130500000Y-118614000D02*
X139500000Y-118614000D01*
X130500000Y-118614000D02*
X130500000Y-129514000D01*
D13*
%TO.C,R13*%
X113760000Y-118838000D02*
X113760000Y-125378000D01*
X113430000Y-118838000D02*
X113760000Y-118838000D01*
X111350000Y-118838000D02*
X111020000Y-118838000D01*
X111020000Y-118838000D02*
X111020000Y-125378000D01*
X113760000Y-125378000D02*
X113430000Y-125378000D01*
X111020000Y-125378000D02*
X111350000Y-125378000D01*
%TO.C,R6*%
X97890000Y-125640000D02*
X97890000Y-119100000D01*
X98220000Y-125640000D02*
X97890000Y-125640000D01*
X100300000Y-125640000D02*
X100630000Y-125640000D01*
X100630000Y-125640000D02*
X100630000Y-119100000D01*
X97890000Y-119100000D02*
X98220000Y-119100000D01*
X100630000Y-119100000D02*
X100300000Y-119100000D01*
%TO.C,R26*%
X130476000Y-63744000D02*
X130806000Y-63744000D01*
X133216000Y-63744000D02*
X132886000Y-63744000D01*
X130476000Y-57204000D02*
X130476000Y-63744000D01*
X130806000Y-57204000D02*
X130476000Y-57204000D01*
X132886000Y-57204000D02*
X133216000Y-57204000D01*
X133216000Y-57204000D02*
X133216000Y-63744000D01*
%TO.C,R17*%
X101400000Y-100920000D02*
X101400000Y-94380000D01*
X101730000Y-100920000D02*
X101400000Y-100920000D01*
X103810000Y-100920000D02*
X104140000Y-100920000D01*
X104140000Y-100920000D02*
X104140000Y-94380000D01*
X101400000Y-94380000D02*
X101730000Y-94380000D01*
X104140000Y-94380000D02*
X103810000Y-94380000D01*
%TO.C,R24*%
X112120000Y-43170000D02*
X105580000Y-43170000D01*
X112120000Y-42840000D02*
X112120000Y-43170000D01*
X112120000Y-40760000D02*
X112120000Y-40430000D01*
X112120000Y-40430000D02*
X105580000Y-40430000D01*
X105580000Y-43170000D02*
X105580000Y-42840000D01*
X105580000Y-40430000D02*
X105580000Y-40760000D01*
%TO.C,R3*%
X95018000Y-83976000D02*
X95018000Y-77436000D01*
X95348000Y-83976000D02*
X95018000Y-83976000D01*
X97428000Y-83976000D02*
X97758000Y-83976000D01*
X97758000Y-83976000D02*
X97758000Y-77436000D01*
X95018000Y-77436000D02*
X95348000Y-77436000D01*
X97758000Y-77436000D02*
X97428000Y-77436000D01*
%TO.C,R29*%
X112040000Y-46500000D02*
X105500000Y-46500000D01*
X112040000Y-46170000D02*
X112040000Y-46500000D01*
X112040000Y-44090000D02*
X112040000Y-43760000D01*
X112040000Y-43760000D02*
X105500000Y-43760000D01*
X105500000Y-46500000D02*
X105500000Y-46170000D01*
X105500000Y-43760000D02*
X105500000Y-44090000D01*
%TO.C,R19*%
X101540000Y-116030000D02*
X101540000Y-109490000D01*
X101870000Y-116030000D02*
X101540000Y-116030000D01*
X103950000Y-116030000D02*
X104280000Y-116030000D01*
X104280000Y-116030000D02*
X104280000Y-109490000D01*
X101540000Y-109490000D02*
X101870000Y-109490000D01*
X104280000Y-109490000D02*
X103950000Y-109490000D01*
D14*
%TO.C,POT1*%
X143981837Y-50312157D02*
G75*
G03*
X136981837Y-50312157I-3500000J0D01*
G01*
X136981837Y-50312157D02*
G75*
G03*
X143981837Y-50312157I3500000J0D01*
G01*
X144892000Y-55814000D02*
G75*
G03*
X145331887Y-55364018I0J440000D01*
G01*
X145332000Y-45254000D02*
G75*
G03*
X144882018Y-44814113I-440000J0D01*
G01*
D12*
X143199919Y-50314000D02*
G75*
G03*
X137764081Y-50314000I-2717919J0D01*
G01*
X137764081Y-50314000D02*
G75*
G03*
X143199919Y-50314000I2717919J0D01*
G01*
D14*
X135632001Y-55374000D02*
G75*
G03*
X136081982Y-55813887I439998J-2D01*
G01*
X136072000Y-44814001D02*
G75*
G03*
X135632113Y-45263982I-2J-439998D01*
G01*
X145332000Y-55374000D02*
X145332000Y-45254000D01*
X144892000Y-44814000D02*
X136072000Y-44814000D01*
X136072000Y-55814000D02*
X144892000Y-55814000D01*
X135632000Y-45254000D02*
X135632000Y-55374000D01*
D13*
%TO.C,Q4*%
X151210478Y-94062478D02*
G75*
G03*
X149372000Y-89624000I-1838478J1838478D01*
G01*
X149372000Y-89624000D02*
G75*
G03*
X147533522Y-94062478I0J-2600000D01*
G01*
X147572000Y-94074000D02*
X151172000Y-94074000D01*
%TO.C,R4*%
X112270000Y-93320000D02*
X112270000Y-99860000D01*
X111940000Y-93320000D02*
X112270000Y-93320000D01*
X109860000Y-93320000D02*
X109530000Y-93320000D01*
X109530000Y-93320000D02*
X109530000Y-99860000D01*
X112270000Y-99860000D02*
X111940000Y-99860000D01*
X109530000Y-99860000D02*
X109860000Y-99860000D01*
%TO.C,Q2*%
X100680000Y-90940000D02*
X100680000Y-87340000D01*
X96230000Y-89140000D02*
G75*
G03*
X100668478Y-90978478I2600000J0D01*
G01*
X100668478Y-87301522D02*
G75*
G03*
X96230000Y-89140000I-1838478J-1838478D01*
G01*
%TO.C,R31*%
X132962000Y-81588000D02*
X132632000Y-81588000D01*
X130222000Y-81588000D02*
X130552000Y-81588000D01*
X132962000Y-88128000D02*
X132962000Y-81588000D01*
X132632000Y-88128000D02*
X132962000Y-88128000D01*
X130552000Y-88128000D02*
X130222000Y-88128000D01*
X130222000Y-88128000D02*
X130222000Y-81588000D01*
%TO.C,J11*%
X114245000Y-103835000D02*
X115575000Y-103835000D01*
X114245000Y-105165000D02*
X114245000Y-103835000D01*
X114245000Y-106435000D02*
X114245000Y-114115000D01*
X114245000Y-106435000D02*
X116905000Y-106435000D01*
X114245000Y-114115000D02*
X116905000Y-114115000D01*
X116905000Y-106435000D02*
X116905000Y-114115000D01*
%TO.C,R14*%
X114120000Y-101281472D02*
X114120000Y-94741472D01*
X114450000Y-101281472D02*
X114120000Y-101281472D01*
X116530000Y-101281472D02*
X116860000Y-101281472D01*
X116860000Y-101281472D02*
X116860000Y-94741472D01*
X114120000Y-94741472D02*
X114450000Y-94741472D01*
X116860000Y-94741472D02*
X116530000Y-94741472D01*
%TO.C,R27*%
X146310000Y-77470000D02*
X146640000Y-77470000D01*
X149050000Y-77470000D02*
X148720000Y-77470000D01*
X146310000Y-70930000D02*
X146310000Y-77470000D01*
X146640000Y-70930000D02*
X146310000Y-70930000D01*
X148720000Y-70930000D02*
X149050000Y-70930000D01*
X149050000Y-70930000D02*
X149050000Y-77470000D01*
%TO.C,R30*%
X147990000Y-87770000D02*
X148320000Y-87770000D01*
X150730000Y-87770000D02*
X150400000Y-87770000D01*
X147990000Y-81230000D02*
X147990000Y-87770000D01*
X148320000Y-81230000D02*
X147990000Y-81230000D01*
X150400000Y-81230000D02*
X150730000Y-81230000D01*
X150730000Y-81230000D02*
X150730000Y-87770000D01*
%TO.C,R22*%
X97812000Y-135538000D02*
X97812000Y-128998000D01*
X98142000Y-135538000D02*
X97812000Y-135538000D01*
X100222000Y-135538000D02*
X100552000Y-135538000D01*
X100552000Y-135538000D02*
X100552000Y-128998000D01*
X97812000Y-128998000D02*
X98142000Y-128998000D01*
X100552000Y-128998000D02*
X100222000Y-128998000D01*
%TO.C,R8*%
X113506000Y-77436000D02*
X113506000Y-83976000D01*
X113176000Y-77436000D02*
X113506000Y-77436000D01*
X111096000Y-77436000D02*
X110766000Y-77436000D01*
X110766000Y-77436000D02*
X110766000Y-83976000D01*
X113506000Y-83976000D02*
X113176000Y-83976000D01*
X110766000Y-83976000D02*
X111096000Y-83976000D01*
D12*
%TO.C,J6*%
X147700000Y-124830000D02*
G75*
G03*
X144100000Y-124830000I-1800000J0D01*
G01*
X144100000Y-124830000D02*
G75*
G03*
X147700000Y-124830000I1800000J0D01*
G01*
X150400000Y-118630000D02*
X150400000Y-129530000D01*
X145900000Y-123030000D02*
X145900000Y-126630000D01*
X144100000Y-124830000D02*
X147700000Y-124830000D01*
X141400000Y-129530000D02*
X150400000Y-129530000D01*
X141400000Y-118630000D02*
X150400000Y-118630000D01*
X141400000Y-118630000D02*
X141400000Y-129530000D01*
D13*
%TO.C,U2*%
X103016000Y-118432000D02*
X103016000Y-136452000D01*
X103016000Y-136452000D02*
X108556000Y-136452000D01*
X104786000Y-118432000D02*
X103016000Y-118432000D01*
X108556000Y-118432000D02*
X106786000Y-118432000D01*
X108556000Y-136452000D02*
X108556000Y-118432000D01*
X104786000Y-118432000D02*
G75*
G03*
X106786000Y-118432000I1000000J0D01*
G01*
%TO.C,D3*%
X106380000Y-70510000D02*
X107030000Y-70510000D01*
X107030000Y-69390000D02*
X107030000Y-71630000D01*
X107030000Y-71630000D02*
X111270000Y-71630000D01*
X107630000Y-69390000D02*
X107630000Y-71630000D01*
X107750000Y-69390000D02*
X107750000Y-71630000D01*
X107870000Y-69390000D02*
X107870000Y-71630000D01*
X111270000Y-69390000D02*
X107030000Y-69390000D01*
X111270000Y-71630000D02*
X111270000Y-69390000D01*
X111920000Y-70510000D02*
X111270000Y-70510000D01*
%TO.C,R21*%
X98150000Y-100830000D02*
X98150000Y-94290000D01*
X98480000Y-100830000D02*
X98150000Y-100830000D01*
X100560000Y-100830000D02*
X100890000Y-100830000D01*
X100890000Y-100830000D02*
X100890000Y-94290000D01*
X98150000Y-94290000D02*
X98480000Y-94290000D01*
X100890000Y-94290000D02*
X100560000Y-94290000D01*
%TO.C,J2*%
X94960000Y-103840000D02*
X96290000Y-103840000D01*
X94960000Y-105170000D02*
X94960000Y-103840000D01*
X94960000Y-106440000D02*
X94960000Y-114120000D01*
X94960000Y-106440000D02*
X97620000Y-106440000D01*
X94960000Y-114120000D02*
X97620000Y-114120000D01*
X97620000Y-106440000D02*
X97620000Y-114120000D01*
%TO.C,U1*%
X103390000Y-49070000D02*
X103390000Y-67090000D01*
X103390000Y-67090000D02*
X108930000Y-67090000D01*
X105160000Y-49070000D02*
X103390000Y-49070000D01*
X108930000Y-49070000D02*
X107160000Y-49070000D01*
X108930000Y-67090000D02*
X108930000Y-49070000D01*
X105160000Y-49070000D02*
G75*
G03*
X107160000Y-49070000I1000000J0D01*
G01*
%TO.C,R15*%
X105550000Y-37280000D02*
X112090000Y-37280000D01*
X105550000Y-37610000D02*
X105550000Y-37280000D01*
X105550000Y-39690000D02*
X105550000Y-40020000D01*
X105550000Y-40020000D02*
X112090000Y-40020000D01*
X112090000Y-37280000D02*
X112090000Y-37610000D01*
X112090000Y-40020000D02*
X112090000Y-39690000D01*
%TO.C,R32*%
X98210000Y-83960000D02*
X98210000Y-77420000D01*
X98540000Y-83960000D02*
X98210000Y-83960000D01*
X100620000Y-83960000D02*
X100950000Y-83960000D01*
X100950000Y-83960000D02*
X100950000Y-77420000D01*
X98210000Y-77420000D02*
X98540000Y-77420000D01*
X100950000Y-77420000D02*
X100620000Y-77420000D01*
%TO.C,D2*%
X113030000Y-66200000D02*
X113030000Y-65550000D01*
X111910000Y-65550000D02*
X114150000Y-65550000D01*
X114150000Y-65550000D02*
X114150000Y-61310000D01*
X111910000Y-64950000D02*
X114150000Y-64950000D01*
X111910000Y-64830000D02*
X114150000Y-64830000D01*
X111910000Y-64710000D02*
X114150000Y-64710000D01*
X111910000Y-61310000D02*
X111910000Y-65550000D01*
X114150000Y-61310000D02*
X111910000Y-61310000D01*
X113030000Y-60660000D02*
X113030000Y-61310000D01*
D12*
%TO.C,D7*%
X147777274Y-65113780D02*
G75*
G03*
X148124000Y-68351000I1306726J-1497220D01*
G01*
X148004748Y-65587111D02*
G75*
G03*
X148024001Y-67634999I1079252J-1013889D01*
G01*
X150217067Y-67653005D02*
G75*
G03*
X150218000Y-65550000I-1133067J1052005D01*
G01*
X150087643Y-68328744D02*
G75*
G03*
X150404000Y-65101000I-1003643J1727744D01*
G01*
X147804000Y-65101000D02*
X148004000Y-65101000D01*
X150398000Y-65101000D02*
X150218000Y-65101000D01*
D13*
%TO.C,Q1*%
X105550000Y-91030000D02*
X105550000Y-87430000D01*
X101100000Y-89230000D02*
G75*
G03*
X105538478Y-91068478I2600000J0D01*
G01*
X105538478Y-87391522D02*
G75*
G03*
X101100000Y-89230000I-1838478J-1838478D01*
G01*
%TO.C,R5*%
X103740000Y-39300000D02*
X103740000Y-45840000D01*
X103410000Y-39300000D02*
X103740000Y-39300000D01*
X101330000Y-39300000D02*
X101000000Y-39300000D01*
X101000000Y-39300000D02*
X101000000Y-45840000D01*
X103740000Y-45840000D02*
X103410000Y-45840000D01*
X101000000Y-45840000D02*
X101330000Y-45840000D01*
%TO.C,R35*%
X101250000Y-83980000D02*
X101250000Y-77440000D01*
X101580000Y-83980000D02*
X101250000Y-83980000D01*
X103660000Y-83980000D02*
X103990000Y-83980000D01*
X103990000Y-83980000D02*
X103990000Y-77440000D01*
X101250000Y-77440000D02*
X101580000Y-77440000D01*
X103990000Y-77440000D02*
X103660000Y-77440000D01*
%TO.C,R16*%
X113850000Y-128730000D02*
X113850000Y-135270000D01*
X113520000Y-128730000D02*
X113850000Y-128730000D01*
X111440000Y-128730000D02*
X111110000Y-128730000D01*
X111110000Y-128730000D02*
X111110000Y-135270000D01*
X113850000Y-135270000D02*
X113520000Y-135270000D01*
X111110000Y-135270000D02*
X111440000Y-135270000D01*
%TO.C,R2*%
X114300000Y-76940000D02*
X114300000Y-70400000D01*
X114630000Y-76940000D02*
X114300000Y-76940000D01*
X116710000Y-76940000D02*
X117040000Y-76940000D01*
X117040000Y-76940000D02*
X117040000Y-70400000D01*
X114300000Y-70400000D02*
X114630000Y-70400000D01*
X117040000Y-70400000D02*
X116710000Y-70400000D01*
%TO.C,R9*%
X108660000Y-93400000D02*
X108660000Y-99940000D01*
X108330000Y-93400000D02*
X108660000Y-93400000D01*
X106250000Y-93400000D02*
X105920000Y-93400000D01*
X105920000Y-93400000D02*
X105920000Y-99940000D01*
X108660000Y-99940000D02*
X108330000Y-99940000D01*
X105920000Y-99940000D02*
X106250000Y-99940000D01*
D12*
%TO.C,J4*%
X147800000Y-139934000D02*
G75*
G03*
X144200000Y-139934000I-1800000J0D01*
G01*
X144200000Y-139934000D02*
G75*
G03*
X147800000Y-139934000I1800000J0D01*
G01*
X150500000Y-133734000D02*
X150500000Y-144634000D01*
X146000000Y-138134000D02*
X146000000Y-141734000D01*
X144200000Y-139934000D02*
X147800000Y-139934000D01*
X141500000Y-144634000D02*
X150500000Y-144634000D01*
X141500000Y-133734000D02*
X150500000Y-133734000D01*
X141500000Y-133734000D02*
X141500000Y-144634000D01*
D13*
%TO.C,Q3*%
X150956478Y-61148478D02*
G75*
G03*
X149118000Y-56710000I-1838478J1838478D01*
G01*
X149118000Y-56710000D02*
G75*
G03*
X147279522Y-61148478I0J-2600000D01*
G01*
X147318000Y-61160000D02*
X150918000Y-61160000D01*
%TO.C,J15*%
X94960000Y-63530000D02*
X96290000Y-63530000D01*
X94960000Y-64860000D02*
X94960000Y-63530000D01*
X94960000Y-66130000D02*
X94960000Y-73810000D01*
X94960000Y-66130000D02*
X97620000Y-66130000D01*
X94960000Y-73810000D02*
X97620000Y-73810000D01*
X97620000Y-66130000D02*
X97620000Y-73810000D01*
%TO.C,R23*%
X117020000Y-84760000D02*
X117020000Y-91300000D01*
X116690000Y-84760000D02*
X117020000Y-84760000D01*
X114610000Y-84760000D02*
X114280000Y-84760000D01*
X114280000Y-84760000D02*
X114280000Y-91300000D01*
X117020000Y-91300000D02*
X116690000Y-91300000D01*
X114280000Y-91300000D02*
X114610000Y-91300000D01*
%TO.C,R11*%
X110204000Y-108932000D02*
X110204000Y-115472000D01*
X109874000Y-108932000D02*
X110204000Y-108932000D01*
X107794000Y-108932000D02*
X107464000Y-108932000D01*
X107464000Y-108932000D02*
X107464000Y-115472000D01*
X110204000Y-115472000D02*
X109874000Y-115472000D01*
X107464000Y-115472000D02*
X107794000Y-115472000D01*
%TO.C,R1*%
X98270000Y-67170000D02*
X98270000Y-60630000D01*
X98600000Y-67170000D02*
X98270000Y-67170000D01*
X100680000Y-67170000D02*
X101010000Y-67170000D01*
X101010000Y-67170000D02*
X101010000Y-60630000D01*
X98270000Y-60630000D02*
X98600000Y-60630000D01*
X101010000Y-60630000D02*
X100680000Y-60630000D01*
%TO.C,R7*%
X95018000Y-100994000D02*
X95018000Y-94454000D01*
X95348000Y-100994000D02*
X95018000Y-100994000D01*
X97428000Y-100994000D02*
X97758000Y-100994000D01*
X97758000Y-100994000D02*
X97758000Y-94454000D01*
X95018000Y-94454000D02*
X95348000Y-94454000D01*
X97758000Y-94454000D02*
X97428000Y-94454000D01*
D14*
%TO.C,POT2*%
X143981837Y-66720557D02*
G75*
G03*
X136981837Y-66720557I-3500000J0D01*
G01*
X136981837Y-66720557D02*
G75*
G03*
X143981837Y-66720557I3500000J0D01*
G01*
X144892000Y-72222400D02*
G75*
G03*
X145331887Y-71772418I0J440000D01*
G01*
X145332000Y-61662400D02*
G75*
G03*
X144882018Y-61222513I-440000J0D01*
G01*
D12*
X143199919Y-66722400D02*
G75*
G03*
X137764081Y-66722400I-2717919J0D01*
G01*
X137764081Y-66722400D02*
G75*
G03*
X143199919Y-66722400I2717919J0D01*
G01*
D14*
X135632001Y-71782400D02*
G75*
G03*
X136081982Y-72222287I439998J-2D01*
G01*
X136072000Y-61222401D02*
G75*
G03*
X135632113Y-61672382I-2J-439998D01*
G01*
X145332000Y-71782400D02*
X145332000Y-61662400D01*
X144892000Y-61222400D02*
X136072000Y-61222400D01*
X136072000Y-72222400D02*
X144892000Y-72222400D01*
X135632000Y-61662400D02*
X135632000Y-71782400D01*
D13*
%TO.C,R20*%
X97504000Y-128998000D02*
X97174000Y-128998000D01*
X94764000Y-128998000D02*
X95094000Y-128998000D01*
X97504000Y-135538000D02*
X97504000Y-128998000D01*
X97174000Y-135538000D02*
X97504000Y-135538000D01*
X95094000Y-135538000D02*
X94764000Y-135538000D01*
X94764000Y-135538000D02*
X94764000Y-128998000D01*
D14*
%TO.C,POT3*%
X143981837Y-83230557D02*
G75*
G03*
X136981837Y-83230557I-3500000J0D01*
G01*
X136981837Y-83230557D02*
G75*
G03*
X143981837Y-83230557I3500000J0D01*
G01*
X144892000Y-88732400D02*
G75*
G03*
X145331887Y-88282418I0J440000D01*
G01*
X145332000Y-78172400D02*
G75*
G03*
X144882018Y-77732513I-440000J0D01*
G01*
D12*
X143199919Y-83232400D02*
G75*
G03*
X137764081Y-83232400I-2717919J0D01*
G01*
X137764081Y-83232400D02*
G75*
G03*
X143199919Y-83232400I2717919J0D01*
G01*
D14*
X135632001Y-88292400D02*
G75*
G03*
X136081982Y-88732287I439998J-2D01*
G01*
X136072000Y-77732401D02*
G75*
G03*
X135632113Y-78182382I-2J-439998D01*
G01*
X145332000Y-88292400D02*
X145332000Y-78172400D01*
X144892000Y-77732400D02*
X136072000Y-77732400D01*
X136072000Y-88732400D02*
X144892000Y-88732400D01*
X135632000Y-78172400D02*
X135632000Y-88292400D01*
D13*
%TO.C,C3*%
X106960000Y-113585000D02*
X106960000Y-114843000D01*
X105120000Y-113585000D02*
X105120000Y-114843000D01*
%TO.C,D1*%
X115670000Y-65990000D02*
X115670000Y-65340000D01*
X114550000Y-65340000D02*
X116790000Y-65340000D01*
X116790000Y-65340000D02*
X116790000Y-61100000D01*
X114550000Y-64740000D02*
X116790000Y-64740000D01*
X114550000Y-64620000D02*
X116790000Y-64620000D01*
X114550000Y-64500000D02*
X116790000Y-64500000D01*
X114550000Y-61100000D02*
X114550000Y-65340000D01*
X116790000Y-61100000D02*
X114550000Y-61100000D01*
X115670000Y-60450000D02*
X115670000Y-61100000D01*
%TO.C,R34*%
X107464000Y-83976000D02*
X107464000Y-77436000D01*
X107794000Y-83976000D02*
X107464000Y-83976000D01*
X109874000Y-83976000D02*
X110204000Y-83976000D01*
X110204000Y-83976000D02*
X110204000Y-77436000D01*
X107464000Y-77436000D02*
X107794000Y-77436000D01*
X110204000Y-77436000D02*
X109874000Y-77436000D01*
%TO.C,Q5*%
X109410000Y-90830000D02*
X113010000Y-90830000D01*
X111210000Y-86380000D02*
G75*
G03*
X109371522Y-90818478I0J-2600000D01*
G01*
X113048478Y-90818478D02*
G75*
G03*
X111210000Y-86380000I-1838478J1838478D01*
G01*
%TO.C,R28*%
X113970000Y-50020000D02*
X113970000Y-56560000D01*
X113640000Y-50020000D02*
X113970000Y-50020000D01*
X111560000Y-50020000D02*
X111230000Y-50020000D01*
X111230000Y-50020000D02*
X111230000Y-56560000D01*
X113970000Y-56560000D02*
X113640000Y-56560000D01*
X111230000Y-56560000D02*
X111560000Y-56560000D01*
%TO.C,R33*%
X107156000Y-77436000D02*
X107156000Y-83976000D01*
X106826000Y-77436000D02*
X107156000Y-77436000D01*
X104746000Y-77436000D02*
X104416000Y-77436000D01*
X104416000Y-77436000D02*
X104416000Y-83976000D01*
X107156000Y-83976000D02*
X106826000Y-83976000D01*
X104416000Y-83976000D02*
X104746000Y-83976000D01*
D12*
%TO.C,D6*%
X147777274Y-97879780D02*
G75*
G03*
X148124000Y-101117000I1306726J-1497220D01*
G01*
X148004748Y-98353111D02*
G75*
G03*
X148024001Y-100400999I1079252J-1013889D01*
G01*
X150217067Y-100419005D02*
G75*
G03*
X150218000Y-98316000I-1133067J1052005D01*
G01*
X150087643Y-101094744D02*
G75*
G03*
X150404000Y-97867000I-1003643J1727744D01*
G01*
X147804000Y-97867000D02*
X148004000Y-97867000D01*
X150398000Y-97867000D02*
X150218000Y-97867000D01*
D13*
%TO.C,R10*%
X116900000Y-129050000D02*
X116900000Y-135590000D01*
X116570000Y-129050000D02*
X116900000Y-129050000D01*
X114490000Y-129050000D02*
X114160000Y-129050000D01*
X114160000Y-129050000D02*
X114160000Y-135590000D01*
X116900000Y-135590000D02*
X116570000Y-135590000D01*
X114160000Y-135590000D02*
X114490000Y-135590000D01*
%TO.C,J7*%
X114270000Y-37640000D02*
X115600000Y-37640000D01*
X114270000Y-38970000D02*
X114270000Y-37640000D01*
X114270000Y-40240000D02*
X114270000Y-47920000D01*
X114270000Y-40240000D02*
X116930000Y-40240000D01*
X114270000Y-47920000D02*
X116930000Y-47920000D01*
X116930000Y-40240000D02*
X116930000Y-47920000D01*
%TD*%
D15*
%TO.C,J3*%
X135000000Y-135014000D03*
X135000000Y-143314000D03*
X135000000Y-146414000D03*
%TD*%
%TO.C,J5*%
X135000000Y-119894000D03*
X135000000Y-128194000D03*
X135000000Y-131294000D03*
%TD*%
%TO.C,J6*%
X145900000Y-119910000D03*
X145900000Y-128210000D03*
X145900000Y-131310000D03*
%TD*%
D16*
%TO.C,D7*%
X149118000Y-67840000D03*
D17*
X149118000Y-65300000D03*
%TD*%
D15*
%TO.C,J4*%
X146000000Y-135014000D03*
X146000000Y-143314000D03*
X146000000Y-146414000D03*
%TD*%
D16*
%TO.C,D6*%
X149118000Y-100606000D03*
D17*
X149118000Y-98066000D03*
%TD*%
M02*
