M48
; DRILL file {KiCad 7.0.11-7.0.11~ubuntu22.04.1} date Sun 22 Sep 2024 11:22:10 PM
; FORMAT={-:-/ absolute / metric / decimal}
; #@! TF.CreationDate,2024-09-22T23:22:10-04:00
; #@! TF.GenerationSoftware,Kicad,Pcbnew,7.0.11-7.0.11~ubuntu22.04.1
; #@! TF.FileFunction,Plated,1,2,PTH
FMAT,2
METRIC
; #@! TA.AperFunction,Plated,PTH,ViaDrill
T1C0.300
; #@! TA.AperFunction,Plated,PTH,ComponentDrill
T2C0.600
; #@! TA.AperFunction,Plated,PTH,ComponentDrill
T3C0.750
; #@! TA.AperFunction,Plated,PTH,ComponentDrill
T4C0.800
; #@! TA.AperFunction,Plated,PTH,ComponentDrill
T5C0.889
; #@! TA.AperFunction,Plated,PTH,ComponentDrill
T6C1.000
; #@! TA.AperFunction,Plated,PTH,ComponentDrill
T7C1.001
; #@! TA.AperFunction,Plated,PTH,ComponentDrill
T8C1.250
; #@! TA.AperFunction,Plated,PTH,ComponentDrill
T9C1.600
; #@! TA.AperFunction,Plated,PTH,ComponentDrill
T10C2.057
%
G90
G05
T1
X95.08Y-60.07
X95.262Y-63.012
X95.81Y-75.65
X95.883Y-97.08
X95.93Y-95.33
X96.8Y-96.54
X96.855Y-74.225
X96.91Y-61.55
X96.96Y-114.51
X97.654Y-62.018
X97.8Y-105.02
X97.85Y-109.35
X98.11Y-55.32
X98.13Y-124.19
X98.37Y-49.96
X98.86Y-64.33
X98.89Y-96.84
X98.96Y-66.53
X98.99Y-121.05
X99.11Y-72.76
X99.27Y-61.68
X99.55Y-55.33
X99.63Y-63.976
X99.734Y-66.33
X99.77Y-124.74
X99.81Y-51.51
X99.905Y-72.67
X100.925Y-67.925
X101.04Y-75.47
X101.15Y-51.71
X101.42Y-72.79
X101.7Y-86.49
X101.754Y-75.831
X102.23Y-91.47
X103.04Y-98.95
X103.22Y-64.42
X103.564Y-80.344
X103.571Y-104.421
X103.69Y-73.88
X103.773Y-76.3
X104.13Y-80.91
X104.25Y-58.968
X104.25Y-60.07
X104.3Y-128.441
X104.32Y-118.72
X104.561Y-104.421
X104.64Y-65.16
X104.79Y-85.64
X104.97Y-107.17
X105.17Y-130.84
X105.3Y-88.79
X105.399Y-120.469
X105.4Y-57.21
X105.62Y-102.151
X105.83Y-66.011
X105.92Y-56.59
X105.96Y-54.18
X106.307Y-88.659
X107.02Y-73.99
X107.13Y-85.86
X107.252Y-74.756
X107.606Y-89.455
X107.62Y-91.419
X107.78Y-88.455
X107.892Y-106.46
X108.125Y-85.865
X108.79Y-72.12
X108.915Y-88.32
X110.23Y-114.45
X110.286Y-117.247
X110.391Y-74.76
X113.42Y-120.23
X113.5Y-112.83
X114.3Y-116.46
X114.89Y-126.047
X131.092Y-90.33
X131.3Y-102.88
X132.046Y-95.45
X133.36Y-54.06
X133.41Y-102.88
X135.086Y-86.533
X135.92Y-72.13
X135.94Y-75.802
X136.38Y-86.35
X137.18Y-54.16
X138.45Y-95.68
X138.74Y-73.58
X142.5Y-52.31
T2
X103.95Y-125.09
X104.02Y-132.981
X105.95Y-125.09
X106.02Y-132.981
T3
X98.83Y-87.87
X98.83Y-89.14
X98.83Y-90.41
X103.7Y-87.96
X103.7Y-89.23
X103.7Y-90.5
X109.94Y-88.98
X111.21Y-88.98
X112.48Y-88.98
X147.848Y-59.31
X148.102Y-92.224
X149.118Y-59.31
X149.372Y-92.224
X150.388Y-59.31
X150.642Y-92.224
T4
X95.85Y-143.011
X95.95Y-139.261
X96.134Y-128.458
X96.134Y-136.078
X96.23Y-118.54
X96.23Y-126.16
X96.388Y-76.896
X96.388Y-84.516
X96.388Y-93.914
X96.388Y-101.534
X97.658Y-51.496
X97.658Y-54.036
X97.658Y-56.576
X98.35Y-143.011
X98.45Y-139.261
X99.182Y-128.458
X99.182Y-136.078
X99.26Y-118.56
X99.26Y-126.18
X99.41Y-38.79
X99.41Y-46.41
X99.52Y-93.75
X99.52Y-101.37
X99.58Y-76.88
X99.58Y-84.5
X99.64Y-60.09
X99.64Y-67.71
X99.77Y-103.83
X99.77Y-111.45
X101.976Y-119.822
X101.976Y-122.362
X101.976Y-124.902
X101.976Y-127.442
X101.976Y-129.982
X101.976Y-132.522
X101.976Y-135.062
X102.35Y-50.46
X102.35Y-53.0
X102.35Y-55.54
X102.35Y-58.08
X102.35Y-60.62
X102.35Y-63.16
X102.35Y-65.7
X102.37Y-38.76
X102.37Y-46.38
X102.62Y-76.9
X102.62Y-84.52
X102.738Y-68.768
X102.738Y-71.268
X102.77Y-93.84
X102.77Y-101.46
X102.91Y-108.95
X102.91Y-116.57
X104.96Y-45.13
X105.01Y-38.65
X105.04Y-41.8
X105.34Y-70.51
X105.36Y-73.37
X105.786Y-76.896
X105.786Y-84.516
X106.04Y-112.964
X106.04Y-115.464
X106.79Y-104.34
X107.29Y-92.86
X107.29Y-100.48
X108.834Y-76.896
X108.834Y-84.516
X108.834Y-108.392
X108.834Y-116.012
X109.33Y-104.34
X109.596Y-119.822
X109.596Y-122.362
X109.596Y-124.902
X109.596Y-127.442
X109.596Y-129.982
X109.596Y-132.522
X109.596Y-135.062
X109.97Y-50.46
X109.97Y-53.0
X109.97Y-55.54
X109.97Y-58.08
X109.97Y-60.62
X109.97Y-63.16
X109.97Y-65.7
X110.9Y-92.78
X110.9Y-100.4
X111.87Y-104.34
X112.136Y-76.896
X112.136Y-84.516
X112.136Y-107.884
X112.136Y-115.504
X112.39Y-118.298
X112.39Y-125.918
X112.48Y-128.19
X112.48Y-135.81
X112.58Y-45.13
X112.6Y-49.48
X112.6Y-57.1
X112.63Y-38.65
X112.66Y-41.8
X112.96Y-70.51
X112.98Y-73.37
X113.03Y-59.62
X113.03Y-67.24
X115.49Y-94.201
X115.49Y-101.821
X115.53Y-128.51
X115.53Y-136.13
X115.65Y-84.22
X115.65Y-91.84
X115.67Y-59.41
X115.67Y-67.03
X115.67Y-69.86
X115.67Y-77.48
X115.76Y-49.56
X115.76Y-52.06
X131.592Y-81.048
X131.592Y-88.668
X131.846Y-56.664
X131.846Y-64.284
X147.68Y-70.39
X147.68Y-78.01
X149.36Y-80.69
X149.36Y-88.31
T5
X137.942Y-43.302
X137.942Y-59.71
X137.942Y-76.22
X137.942Y-92.476
X140.482Y-43.302
X140.482Y-59.71
X140.482Y-76.22
X140.482Y-92.476
X143.022Y-43.302
X143.022Y-59.71
X143.022Y-76.22
X143.022Y-92.476
T6
X96.26Y-38.95
X96.26Y-41.49
X96.26Y-44.03
X96.26Y-46.57
X96.29Y-64.86
X96.29Y-67.4
X96.29Y-69.94
X96.29Y-72.48
X96.29Y-105.17
X96.29Y-107.71
X96.29Y-110.25
X96.29Y-112.79
X103.66Y-139.701
X103.66Y-142.241
X106.2Y-139.701
X106.2Y-142.241
X108.74Y-139.701
X108.74Y-142.241
X111.28Y-139.701
X111.28Y-142.241
X113.82Y-139.701
X113.82Y-142.241
X115.575Y-105.165
X115.575Y-107.705
X115.575Y-110.245
X115.575Y-112.785
X115.6Y-38.97
X115.6Y-41.51
X115.6Y-44.05
X115.6Y-46.59
X130.958Y-42.54
X130.958Y-45.08
X130.958Y-47.62
X130.958Y-50.16
X130.988Y-68.45
X130.988Y-70.99
X130.988Y-73.53
X130.988Y-76.07
X130.998Y-108.75
X130.998Y-111.29
X130.998Y-113.83
X130.998Y-116.37
X150.273Y-108.755
X150.273Y-111.295
X150.273Y-113.835
X150.273Y-116.375
X150.298Y-42.56
X150.298Y-45.1
X150.298Y-47.64
X150.298Y-50.18
T7
X149.118Y-65.3
X149.118Y-67.84
X149.118Y-98.066
X149.118Y-100.606
T9
X135.0Y-119.894
X135.0Y-128.194
X135.0Y-131.294
X135.0Y-135.014
X135.0Y-143.314
X135.0Y-146.414
X145.9Y-119.91
X145.9Y-128.21
X145.9Y-131.31
X146.0Y-135.014
X146.0Y-143.314
X146.0Y-146.414
T10
X136.088Y-50.312
X136.088Y-66.721
X136.088Y-83.231
X136.088Y-99.487
X144.876Y-50.312
X144.876Y-66.721
X144.876Y-83.231
X144.876Y-99.487
T8
G00X136.232Y-109.977
M15
G01X136.232Y-111.227
M16
G05
G00X140.482Y-109.887
M15
G01X140.482Y-111.137
M16
G05
G00X144.732Y-109.977
M15
G01X144.732Y-111.227
M16
G05
M30
