%TF.GenerationSoftware,KiCad,Pcbnew,7.0.11-7.0.11~ubuntu22.04.1*%
%TF.CreationDate,2024-09-22T23:22:13-04:00*%
%TF.ProjectId,ad-vca,61642d76-6361-42e6-9b69-6361645f7063,rev?*%
%TF.SameCoordinates,Original*%
%TF.FileFunction,Profile,NP*%
%FSLAX46Y46*%
G04 Gerber Fmt 4.6, Leading zero omitted, Abs format (unit mm)*
G04 Created by KiCad (PCBNEW 7.0.11-7.0.11~ubuntu22.04.1) date 2024-09-22 23:22:13*
%MOMM*%
%LPD*%
G01*
G04 APERTURE LIST*
%TA.AperFunction,Profile*%
%ADD10C,0.150000*%
%TD*%
%TA.AperFunction,Profile*%
%ADD11C,0.200000*%
%TD*%
G04 APERTURE END LIST*
D10*
X179243834Y-137101610D02*
X179597615Y-137161720D01*
X179942441Y-137261062D01*
X180273976Y-137398389D01*
X180588051Y-137571972D01*
X180880715Y-137779628D01*
X181148290Y-138018747D01*
X181387409Y-138286322D01*
X181595065Y-138578986D01*
X181768648Y-138893061D01*
X181905975Y-139224596D01*
X182005317Y-139569422D01*
X182065427Y-139923203D01*
X182085548Y-140281489D01*
X182065427Y-140639775D01*
X182005317Y-140993556D01*
X181905975Y-141338382D01*
X181768648Y-141669917D01*
X181595065Y-141983992D01*
X181387409Y-142276656D01*
X181148290Y-142544231D01*
X180880715Y-142783350D01*
X180588051Y-142991006D01*
X180273976Y-143164589D01*
X179942441Y-143301916D01*
X179597615Y-143401258D01*
X179243834Y-143461368D01*
X178885548Y-143481489D01*
X178527262Y-143461368D01*
X178173481Y-143401258D01*
X177828655Y-143301916D01*
X177497120Y-143164589D01*
X177183045Y-142991006D01*
X176890381Y-142783350D01*
X176622806Y-142544231D01*
X176383687Y-142276656D01*
X176176031Y-141983992D01*
X176002448Y-141669917D01*
X175865121Y-141338382D01*
X175765779Y-140993556D01*
X175705669Y-140639775D01*
X175685548Y-140281489D01*
X175705669Y-139923203D01*
X175765779Y-139569422D01*
X175865121Y-139224596D01*
X176002448Y-138893061D01*
X176176031Y-138578986D01*
X176383687Y-138286322D01*
X176622806Y-138018747D01*
X176890381Y-137779628D01*
X177183045Y-137571972D01*
X177497120Y-137398389D01*
X177828655Y-137261062D01*
X178173481Y-137161720D01*
X178527262Y-137101610D01*
X178885548Y-137081489D01*
X179243834Y-137101610D01*
%TA.AperFunction,Profile*%
G36*
X179243834Y-137101610D02*
G01*
X179597615Y-137161720D01*
X179942441Y-137261062D01*
X180273976Y-137398389D01*
X180588051Y-137571972D01*
X180880715Y-137779628D01*
X181148290Y-138018747D01*
X181387409Y-138286322D01*
X181595065Y-138578986D01*
X181768648Y-138893061D01*
X181905975Y-139224596D01*
X182005317Y-139569422D01*
X182065427Y-139923203D01*
X182085548Y-140281489D01*
X182065427Y-140639775D01*
X182005317Y-140993556D01*
X181905975Y-141338382D01*
X181768648Y-141669917D01*
X181595065Y-141983992D01*
X181387409Y-142276656D01*
X181148290Y-142544231D01*
X180880715Y-142783350D01*
X180588051Y-142991006D01*
X180273976Y-143164589D01*
X179942441Y-143301916D01*
X179597615Y-143401258D01*
X179243834Y-143461368D01*
X178885548Y-143481489D01*
X178527262Y-143461368D01*
X178173481Y-143401258D01*
X177828655Y-143301916D01*
X177497120Y-143164589D01*
X177183045Y-142991006D01*
X176890381Y-142783350D01*
X176622806Y-142544231D01*
X176383687Y-142276656D01*
X176176031Y-141983992D01*
X176002448Y-141669917D01*
X175865121Y-141338382D01*
X175765779Y-140993556D01*
X175705669Y-140639775D01*
X175685548Y-140281489D01*
X175705669Y-139923203D01*
X175765779Y-139569422D01*
X175865121Y-139224596D01*
X176002448Y-138893061D01*
X176176031Y-138578986D01*
X176383687Y-138286322D01*
X176622806Y-138018747D01*
X176890381Y-137779628D01*
X177183045Y-137571972D01*
X177497120Y-137398389D01*
X177828655Y-137261062D01*
X178173481Y-137161720D01*
X178527262Y-137101610D01*
X178885548Y-137081489D01*
X179243834Y-137101610D01*
G37*
%TD.AperFunction*%
X184930229Y-96055601D02*
X185302686Y-96132143D01*
X185665488Y-96245973D01*
X186014912Y-96395923D01*
X186347374Y-96580454D01*
X186659461Y-96797673D01*
X186947971Y-97045351D01*
X187209944Y-97320946D01*
X187442691Y-97621630D01*
X187643824Y-97944319D01*
X187811280Y-98285700D01*
X187943339Y-98642271D01*
X188038647Y-99010373D01*
X188096226Y-99386228D01*
X188115485Y-99765980D01*
X188096226Y-100145732D01*
X188038647Y-100521587D01*
X187943339Y-100889689D01*
X187811280Y-101246260D01*
X187643824Y-101587641D01*
X187442691Y-101910330D01*
X187209944Y-102211014D01*
X186947971Y-102486609D01*
X186659461Y-102734287D01*
X186347374Y-102951506D01*
X186014912Y-103136037D01*
X185665488Y-103285987D01*
X185302686Y-103399817D01*
X184930229Y-103476359D01*
X184551940Y-103514827D01*
X184171700Y-103514827D01*
X183793411Y-103476359D01*
X183420954Y-103399817D01*
X183058152Y-103285987D01*
X182708728Y-103136037D01*
X182376266Y-102951506D01*
X182064179Y-102734287D01*
X181775669Y-102486609D01*
X181513696Y-102211014D01*
X181280949Y-101910330D01*
X181079816Y-101587641D01*
X180912360Y-101246260D01*
X180780301Y-100889689D01*
X180684993Y-100521587D01*
X180627414Y-100145732D01*
X180608155Y-99765980D01*
X180627414Y-99386228D01*
X180684993Y-99010373D01*
X180780301Y-98642271D01*
X180912360Y-98285700D01*
X181079816Y-97944319D01*
X181280949Y-97621630D01*
X181513696Y-97320946D01*
X181775669Y-97045351D01*
X182064179Y-96797673D01*
X182376266Y-96580454D01*
X182708728Y-96395923D01*
X183058152Y-96245973D01*
X183420954Y-96132143D01*
X183793411Y-96055601D01*
X184171700Y-96017133D01*
X184551940Y-96017133D01*
X184930229Y-96055601D01*
%TA.AperFunction,Profile*%
G36*
X184930229Y-96055601D02*
G01*
X185302686Y-96132143D01*
X185665488Y-96245973D01*
X186014912Y-96395923D01*
X186347374Y-96580454D01*
X186659461Y-96797673D01*
X186947971Y-97045351D01*
X187209944Y-97320946D01*
X187442691Y-97621630D01*
X187643824Y-97944319D01*
X187811280Y-98285700D01*
X187943339Y-98642271D01*
X188038647Y-99010373D01*
X188096226Y-99386228D01*
X188115485Y-99765980D01*
X188096226Y-100145732D01*
X188038647Y-100521587D01*
X187943339Y-100889689D01*
X187811280Y-101246260D01*
X187643824Y-101587641D01*
X187442691Y-101910330D01*
X187209944Y-102211014D01*
X186947971Y-102486609D01*
X186659461Y-102734287D01*
X186347374Y-102951506D01*
X186014912Y-103136037D01*
X185665488Y-103285987D01*
X185302686Y-103399817D01*
X184930229Y-103476359D01*
X184551940Y-103514827D01*
X184171700Y-103514827D01*
X183793411Y-103476359D01*
X183420954Y-103399817D01*
X183058152Y-103285987D01*
X182708728Y-103136037D01*
X182376266Y-102951506D01*
X182064179Y-102734287D01*
X181775669Y-102486609D01*
X181513696Y-102211014D01*
X181280949Y-101910330D01*
X181079816Y-101587641D01*
X180912360Y-101246260D01*
X180780301Y-100889689D01*
X180684993Y-100521587D01*
X180627414Y-100145732D01*
X180608155Y-99765980D01*
X180627414Y-99386228D01*
X180684993Y-99010373D01*
X180780301Y-98642271D01*
X180912360Y-98285700D01*
X181079816Y-97944319D01*
X181280949Y-97621630D01*
X181513696Y-97320946D01*
X181775669Y-97045351D01*
X182064179Y-96797673D01*
X182376266Y-96580454D01*
X182708728Y-96395923D01*
X183058152Y-96245973D01*
X183420954Y-96132143D01*
X183793411Y-96055601D01*
X184171700Y-96017133D01*
X184551940Y-96017133D01*
X184930229Y-96055601D01*
G37*
%TD.AperFunction*%
X184959342Y-79839161D02*
X185331799Y-79915703D01*
X185694601Y-80029533D01*
X186044025Y-80179483D01*
X186376487Y-80364014D01*
X186688574Y-80581233D01*
X186977084Y-80828911D01*
X187239057Y-81104506D01*
X187471804Y-81405190D01*
X187672937Y-81727879D01*
X187840393Y-82069260D01*
X187972452Y-82425831D01*
X188067760Y-82793933D01*
X188125339Y-83169788D01*
X188144598Y-83549540D01*
X188125339Y-83929292D01*
X188067760Y-84305147D01*
X187972452Y-84673249D01*
X187840393Y-85029820D01*
X187672937Y-85371201D01*
X187471804Y-85693890D01*
X187239057Y-85994574D01*
X186977084Y-86270169D01*
X186688574Y-86517847D01*
X186376487Y-86735066D01*
X186044025Y-86919597D01*
X185694601Y-87069547D01*
X185331799Y-87183377D01*
X184959342Y-87259919D01*
X184581053Y-87298387D01*
X184200813Y-87298387D01*
X183822524Y-87259919D01*
X183450067Y-87183377D01*
X183087265Y-87069547D01*
X182737841Y-86919597D01*
X182405379Y-86735066D01*
X182093292Y-86517847D01*
X181804782Y-86270169D01*
X181542809Y-85994574D01*
X181310062Y-85693890D01*
X181108929Y-85371201D01*
X180941473Y-85029820D01*
X180809414Y-84673249D01*
X180714106Y-84305147D01*
X180656527Y-83929292D01*
X180637268Y-83549540D01*
X180656527Y-83169788D01*
X180714106Y-82793933D01*
X180809414Y-82425831D01*
X180941473Y-82069260D01*
X181108929Y-81727879D01*
X181310062Y-81405190D01*
X181542809Y-81104506D01*
X181804782Y-80828911D01*
X182093292Y-80581233D01*
X182405379Y-80364014D01*
X182737841Y-80179483D01*
X183087265Y-80029533D01*
X183450067Y-79915703D01*
X183822524Y-79839161D01*
X184200813Y-79800693D01*
X184581053Y-79800693D01*
X184959342Y-79839161D01*
%TA.AperFunction,Profile*%
G36*
X184959342Y-79839161D02*
G01*
X185331799Y-79915703D01*
X185694601Y-80029533D01*
X186044025Y-80179483D01*
X186376487Y-80364014D01*
X186688574Y-80581233D01*
X186977084Y-80828911D01*
X187239057Y-81104506D01*
X187471804Y-81405190D01*
X187672937Y-81727879D01*
X187840393Y-82069260D01*
X187972452Y-82425831D01*
X188067760Y-82793933D01*
X188125339Y-83169788D01*
X188144598Y-83549540D01*
X188125339Y-83929292D01*
X188067760Y-84305147D01*
X187972452Y-84673249D01*
X187840393Y-85029820D01*
X187672937Y-85371201D01*
X187471804Y-85693890D01*
X187239057Y-85994574D01*
X186977084Y-86270169D01*
X186688574Y-86517847D01*
X186376487Y-86735066D01*
X186044025Y-86919597D01*
X185694601Y-87069547D01*
X185331799Y-87183377D01*
X184959342Y-87259919D01*
X184581053Y-87298387D01*
X184200813Y-87298387D01*
X183822524Y-87259919D01*
X183450067Y-87183377D01*
X183087265Y-87069547D01*
X182737841Y-86919597D01*
X182405379Y-86735066D01*
X182093292Y-86517847D01*
X181804782Y-86270169D01*
X181542809Y-85994574D01*
X181310062Y-85693890D01*
X181108929Y-85371201D01*
X180941473Y-85029820D01*
X180809414Y-84673249D01*
X180714106Y-84305147D01*
X180656527Y-83929292D01*
X180637268Y-83549540D01*
X180656527Y-83169788D01*
X180714106Y-82793933D01*
X180809414Y-82425831D01*
X180941473Y-82069260D01*
X181108929Y-81727879D01*
X181310062Y-81405190D01*
X181542809Y-81104506D01*
X181804782Y-80828911D01*
X182093292Y-80581233D01*
X182405379Y-80364014D01*
X182737841Y-80179483D01*
X183087265Y-80029533D01*
X183450067Y-79915703D01*
X183822524Y-79839161D01*
X184200813Y-79800693D01*
X184581053Y-79800693D01*
X184959342Y-79839161D01*
G37*
%TD.AperFunction*%
D11*
X94280000Y-37000000D02*
X117600000Y-37000000D01*
X117600000Y-145000000D01*
X94280000Y-145000000D01*
X94280000Y-37000000D01*
D10*
X193234940Y-98092349D02*
X193479072Y-98150960D01*
X193711030Y-98247040D01*
X193925101Y-98378223D01*
X194116016Y-98541279D01*
X194279072Y-98732194D01*
X194410255Y-98946265D01*
X194506335Y-99178223D01*
X194564946Y-99422355D01*
X194584645Y-99672650D01*
X194564946Y-99922945D01*
X194506335Y-100167077D01*
X194410255Y-100399035D01*
X194279072Y-100613106D01*
X194116016Y-100804021D01*
X193925101Y-100967077D01*
X193711030Y-101098260D01*
X193479072Y-101194340D01*
X193234940Y-101252951D01*
X192984645Y-101272650D01*
X192734350Y-101252951D01*
X192490218Y-101194340D01*
X192258260Y-101098260D01*
X192044189Y-100967077D01*
X191853274Y-100804021D01*
X191690218Y-100613106D01*
X191559035Y-100399035D01*
X191462955Y-100167077D01*
X191404344Y-99922945D01*
X191384645Y-99672650D01*
X191404344Y-99422355D01*
X191462955Y-99178223D01*
X191559035Y-98946265D01*
X191690218Y-98732194D01*
X191853274Y-98541279D01*
X192044189Y-98378223D01*
X192258260Y-98247040D01*
X192490218Y-98150960D01*
X192734350Y-98092349D01*
X192984645Y-98072650D01*
X193234940Y-98092349D01*
%TA.AperFunction,Profile*%
G36*
X193234940Y-98092349D02*
G01*
X193479072Y-98150960D01*
X193711030Y-98247040D01*
X193925101Y-98378223D01*
X194116016Y-98541279D01*
X194279072Y-98732194D01*
X194410255Y-98946265D01*
X194506335Y-99178223D01*
X194564946Y-99422355D01*
X194584645Y-99672650D01*
X194564946Y-99922945D01*
X194506335Y-100167077D01*
X194410255Y-100399035D01*
X194279072Y-100613106D01*
X194116016Y-100804021D01*
X193925101Y-100967077D01*
X193711030Y-101098260D01*
X193479072Y-101194340D01*
X193234940Y-101252951D01*
X192984645Y-101272650D01*
X192734350Y-101252951D01*
X192490218Y-101194340D01*
X192258260Y-101098260D01*
X192044189Y-100967077D01*
X191853274Y-100804021D01*
X191690218Y-100613106D01*
X191559035Y-100399035D01*
X191462955Y-100167077D01*
X191404344Y-99922945D01*
X191384645Y-99672650D01*
X191404344Y-99422355D01*
X191462955Y-99178223D01*
X191559035Y-98946265D01*
X191690218Y-98732194D01*
X191853274Y-98541279D01*
X192044189Y-98378223D01*
X192258260Y-98247040D01*
X192490218Y-98150960D01*
X192734350Y-98092349D01*
X192984645Y-98072650D01*
X193234940Y-98092349D01*
G37*
%TD.AperFunction*%
D11*
X128978000Y-40590000D02*
X152298000Y-40590000D01*
X152298000Y-148590000D01*
X128978000Y-148590000D01*
X128978000Y-40590000D01*
X171704000Y-30758000D02*
X196684000Y-30758000D01*
X196684000Y-159258000D01*
X171704000Y-159258000D01*
X171704000Y-30758000D01*
D10*
X179282460Y-121928785D02*
X179636241Y-121988895D01*
X179981067Y-122088237D01*
X180312602Y-122225564D01*
X180626677Y-122399147D01*
X180919341Y-122606803D01*
X181186916Y-122845922D01*
X181426035Y-123113497D01*
X181633691Y-123406161D01*
X181807274Y-123720236D01*
X181944601Y-124051771D01*
X182043943Y-124396597D01*
X182104053Y-124750378D01*
X182124174Y-125108664D01*
X182104053Y-125466950D01*
X182043943Y-125820731D01*
X181944601Y-126165557D01*
X181807274Y-126497092D01*
X181633691Y-126811167D01*
X181426035Y-127103831D01*
X181186916Y-127371406D01*
X180919341Y-127610525D01*
X180626677Y-127818181D01*
X180312602Y-127991764D01*
X179981067Y-128129091D01*
X179636241Y-128228433D01*
X179282460Y-128288543D01*
X178924174Y-128308664D01*
X178565888Y-128288543D01*
X178212107Y-128228433D01*
X177867281Y-128129091D01*
X177535746Y-127991764D01*
X177221671Y-127818181D01*
X176929007Y-127610525D01*
X176661432Y-127371406D01*
X176422313Y-127103831D01*
X176214657Y-126811167D01*
X176041074Y-126497092D01*
X175903747Y-126165557D01*
X175804405Y-125820731D01*
X175744295Y-125466950D01*
X175724174Y-125108664D01*
X175744295Y-124750378D01*
X175804405Y-124396597D01*
X175903747Y-124051771D01*
X176041074Y-123720236D01*
X176214657Y-123406161D01*
X176422313Y-123113497D01*
X176661432Y-122845922D01*
X176929007Y-122606803D01*
X177221671Y-122399147D01*
X177535746Y-122225564D01*
X177867281Y-122088237D01*
X178212107Y-121988895D01*
X178565888Y-121928785D01*
X178924174Y-121908664D01*
X179282460Y-121928785D01*
%TA.AperFunction,Profile*%
G36*
X179282460Y-121928785D02*
G01*
X179636241Y-121988895D01*
X179981067Y-122088237D01*
X180312602Y-122225564D01*
X180626677Y-122399147D01*
X180919341Y-122606803D01*
X181186916Y-122845922D01*
X181426035Y-123113497D01*
X181633691Y-123406161D01*
X181807274Y-123720236D01*
X181944601Y-124051771D01*
X182043943Y-124396597D01*
X182104053Y-124750378D01*
X182124174Y-125108664D01*
X182104053Y-125466950D01*
X182043943Y-125820731D01*
X181944601Y-126165557D01*
X181807274Y-126497092D01*
X181633691Y-126811167D01*
X181426035Y-127103831D01*
X181186916Y-127371406D01*
X180919341Y-127610525D01*
X180626677Y-127818181D01*
X180312602Y-127991764D01*
X179981067Y-128129091D01*
X179636241Y-128228433D01*
X179282460Y-128288543D01*
X178924174Y-128308664D01*
X178565888Y-128288543D01*
X178212107Y-128228433D01*
X177867281Y-128129091D01*
X177535746Y-127991764D01*
X177221671Y-127818181D01*
X176929007Y-127610525D01*
X176661432Y-127371406D01*
X176422313Y-127103831D01*
X176214657Y-126811167D01*
X176041074Y-126497092D01*
X175903747Y-126165557D01*
X175804405Y-125820731D01*
X175744295Y-125466950D01*
X175724174Y-125108664D01*
X175744295Y-124750378D01*
X175804405Y-124396597D01*
X175903747Y-124051771D01*
X176041074Y-123720236D01*
X176214657Y-123406161D01*
X176422313Y-123113497D01*
X176661432Y-122845922D01*
X176929007Y-122606803D01*
X177221671Y-122399147D01*
X177535746Y-122225564D01*
X177867281Y-122088237D01*
X178212107Y-121988895D01*
X178565888Y-121928785D01*
X178924174Y-121908664D01*
X179282460Y-121928785D01*
G37*
%TD.AperFunction*%
X184749033Y-107828431D02*
X185098119Y-107887743D01*
X185438368Y-107985767D01*
X185765503Y-108121271D01*
X186075410Y-108292550D01*
X186364190Y-108497451D01*
X186628214Y-108733396D01*
X186864159Y-108997420D01*
X187069060Y-109286200D01*
X187240339Y-109596107D01*
X187375843Y-109923242D01*
X187473867Y-110263491D01*
X187533179Y-110612577D01*
X187553033Y-110966108D01*
X187533179Y-111319639D01*
X187473867Y-111668725D01*
X187375843Y-112008974D01*
X187240339Y-112336109D01*
X187069060Y-112646016D01*
X186864159Y-112934796D01*
X186628214Y-113198820D01*
X186364190Y-113434765D01*
X186075410Y-113639666D01*
X185765503Y-113810945D01*
X185438368Y-113946449D01*
X185098119Y-114044473D01*
X184749033Y-114103785D01*
X184395502Y-114123639D01*
X184041971Y-114103785D01*
X183692885Y-114044473D01*
X183352636Y-113946449D01*
X183025501Y-113810945D01*
X182715594Y-113639666D01*
X182426814Y-113434765D01*
X182162790Y-113198820D01*
X181926845Y-112934796D01*
X181721944Y-112646016D01*
X181550665Y-112336109D01*
X181415161Y-112008974D01*
X181317137Y-111668725D01*
X181257825Y-111319639D01*
X181237971Y-110966108D01*
X181257825Y-110612577D01*
X181317137Y-110263491D01*
X181415161Y-109923242D01*
X181550665Y-109596107D01*
X181721944Y-109286200D01*
X181926845Y-108997420D01*
X182162790Y-108733396D01*
X182426814Y-108497451D01*
X182715594Y-108292550D01*
X183025501Y-108121271D01*
X183352636Y-107985767D01*
X183692885Y-107887743D01*
X184041971Y-107828431D01*
X184395502Y-107808577D01*
X184749033Y-107828431D01*
%TA.AperFunction,Profile*%
G36*
X184749033Y-107828431D02*
G01*
X185098119Y-107887743D01*
X185438368Y-107985767D01*
X185765503Y-108121271D01*
X186075410Y-108292550D01*
X186364190Y-108497451D01*
X186628214Y-108733396D01*
X186864159Y-108997420D01*
X187069060Y-109286200D01*
X187240339Y-109596107D01*
X187375843Y-109923242D01*
X187473867Y-110263491D01*
X187533179Y-110612577D01*
X187553033Y-110966108D01*
X187533179Y-111319639D01*
X187473867Y-111668725D01*
X187375843Y-112008974D01*
X187240339Y-112336109D01*
X187069060Y-112646016D01*
X186864159Y-112934796D01*
X186628214Y-113198820D01*
X186364190Y-113434765D01*
X186075410Y-113639666D01*
X185765503Y-113810945D01*
X185438368Y-113946449D01*
X185098119Y-114044473D01*
X184749033Y-114103785D01*
X184395502Y-114123639D01*
X184041971Y-114103785D01*
X183692885Y-114044473D01*
X183352636Y-113946449D01*
X183025501Y-113810945D01*
X182715594Y-113639666D01*
X182426814Y-113434765D01*
X182162790Y-113198820D01*
X181926845Y-112934796D01*
X181721944Y-112646016D01*
X181550665Y-112336109D01*
X181415161Y-112008974D01*
X181317137Y-111668725D01*
X181257825Y-111319639D01*
X181237971Y-110966108D01*
X181257825Y-110612577D01*
X181317137Y-110263491D01*
X181415161Y-109923242D01*
X181550665Y-109596107D01*
X181721944Y-109286200D01*
X181926845Y-108997420D01*
X182162790Y-108733396D01*
X182426814Y-108497451D01*
X182715594Y-108292550D01*
X183025501Y-108121271D01*
X183352636Y-107985767D01*
X183692885Y-107887743D01*
X184041971Y-107828431D01*
X184395502Y-107808577D01*
X184749033Y-107828431D01*
G37*
%TD.AperFunction*%
D11*
X179614000Y-32140469D02*
X179614000Y-32140469D01*
G75*
G02*
X181114000Y-33640469I0J-1500031D01*
G01*
X181114000Y-33840469D01*
G75*
G02*
X179614000Y-35340469I-1500000J-31D01*
G01*
X176214000Y-35340469D01*
G75*
G02*
X174714000Y-33840469I0J1499969D01*
G01*
X174714000Y-33640469D01*
G75*
G02*
X176214000Y-32140469I1500000J-31D01*
G01*
X179614000Y-32140469D01*
%TA.AperFunction,Profile*%
G36*
X179614000Y-32140469D02*
G01*
X179614000Y-32140469D01*
G75*
G02*
X181114000Y-33640469I0J-1500031D01*
G01*
X181114000Y-33840469D01*
G75*
G02*
X179614000Y-35340469I-1500000J-31D01*
G01*
X176214000Y-35340469D01*
G75*
G02*
X174714000Y-33840469I0J1499969D01*
G01*
X174714000Y-33640469D01*
G75*
G02*
X176214000Y-32140469I1500000J-31D01*
G01*
X179614000Y-32140469D01*
G37*
%TD.AperFunction*%
D10*
X184945100Y-47045042D02*
X185317557Y-47121584D01*
X185680359Y-47235414D01*
X186029783Y-47385364D01*
X186362245Y-47569895D01*
X186674332Y-47787114D01*
X186962842Y-48034792D01*
X187224815Y-48310387D01*
X187457562Y-48611071D01*
X187658695Y-48933760D01*
X187826151Y-49275141D01*
X187958210Y-49631712D01*
X188053518Y-49999814D01*
X188111097Y-50375669D01*
X188130356Y-50755421D01*
X188111097Y-51135173D01*
X188053518Y-51511028D01*
X187958210Y-51879130D01*
X187826151Y-52235701D01*
X187658695Y-52577082D01*
X187457562Y-52899771D01*
X187224815Y-53200455D01*
X186962842Y-53476050D01*
X186674332Y-53723728D01*
X186362245Y-53940947D01*
X186029783Y-54125478D01*
X185680359Y-54275428D01*
X185317557Y-54389258D01*
X184945100Y-54465800D01*
X184566811Y-54504268D01*
X184186571Y-54504268D01*
X183808282Y-54465800D01*
X183435825Y-54389258D01*
X183073023Y-54275428D01*
X182723599Y-54125478D01*
X182391137Y-53940947D01*
X182079050Y-53723728D01*
X181790540Y-53476050D01*
X181528567Y-53200455D01*
X181295820Y-52899771D01*
X181094687Y-52577082D01*
X180927231Y-52235701D01*
X180795172Y-51879130D01*
X180699864Y-51511028D01*
X180642285Y-51135173D01*
X180623026Y-50755421D01*
X180642285Y-50375669D01*
X180699864Y-49999814D01*
X180795172Y-49631712D01*
X180927231Y-49275141D01*
X181094687Y-48933760D01*
X181295820Y-48611071D01*
X181528567Y-48310387D01*
X181790540Y-48034792D01*
X182079050Y-47787114D01*
X182391137Y-47569895D01*
X182723599Y-47385364D01*
X183073023Y-47235414D01*
X183435825Y-47121584D01*
X183808282Y-47045042D01*
X184186571Y-47006574D01*
X184566811Y-47006574D01*
X184945100Y-47045042D01*
%TA.AperFunction,Profile*%
G36*
X184945100Y-47045042D02*
G01*
X185317557Y-47121584D01*
X185680359Y-47235414D01*
X186029783Y-47385364D01*
X186362245Y-47569895D01*
X186674332Y-47787114D01*
X186962842Y-48034792D01*
X187224815Y-48310387D01*
X187457562Y-48611071D01*
X187658695Y-48933760D01*
X187826151Y-49275141D01*
X187958210Y-49631712D01*
X188053518Y-49999814D01*
X188111097Y-50375669D01*
X188130356Y-50755421D01*
X188111097Y-51135173D01*
X188053518Y-51511028D01*
X187958210Y-51879130D01*
X187826151Y-52235701D01*
X187658695Y-52577082D01*
X187457562Y-52899771D01*
X187224815Y-53200455D01*
X186962842Y-53476050D01*
X186674332Y-53723728D01*
X186362245Y-53940947D01*
X186029783Y-54125478D01*
X185680359Y-54275428D01*
X185317557Y-54389258D01*
X184945100Y-54465800D01*
X184566811Y-54504268D01*
X184186571Y-54504268D01*
X183808282Y-54465800D01*
X183435825Y-54389258D01*
X183073023Y-54275428D01*
X182723599Y-54125478D01*
X182391137Y-53940947D01*
X182079050Y-53723728D01*
X181790540Y-53476050D01*
X181528567Y-53200455D01*
X181295820Y-52899771D01*
X181094687Y-52577082D01*
X180927231Y-52235701D01*
X180795172Y-51879130D01*
X180699864Y-51511028D01*
X180642285Y-51135173D01*
X180623026Y-50755421D01*
X180642285Y-50375669D01*
X180699864Y-49999814D01*
X180795172Y-49631712D01*
X180927231Y-49275141D01*
X181094687Y-48933760D01*
X181295820Y-48611071D01*
X181528567Y-48310387D01*
X181790540Y-48034792D01*
X182079050Y-47787114D01*
X182391137Y-47569895D01*
X182723599Y-47385364D01*
X183073023Y-47235414D01*
X183435825Y-47121584D01*
X183808282Y-47045042D01*
X184186571Y-47006574D01*
X184566811Y-47006574D01*
X184945100Y-47045042D01*
G37*
%TD.AperFunction*%
X184941841Y-63500898D02*
X185314298Y-63577440D01*
X185677100Y-63691270D01*
X186026524Y-63841220D01*
X186358986Y-64025751D01*
X186671073Y-64242970D01*
X186959583Y-64490648D01*
X187221556Y-64766243D01*
X187454303Y-65066927D01*
X187655436Y-65389616D01*
X187822892Y-65730997D01*
X187954951Y-66087568D01*
X188050259Y-66455670D01*
X188107838Y-66831525D01*
X188127097Y-67211277D01*
X188107838Y-67591029D01*
X188050259Y-67966884D01*
X187954951Y-68334986D01*
X187822892Y-68691557D01*
X187655436Y-69032938D01*
X187454303Y-69355627D01*
X187221556Y-69656311D01*
X186959583Y-69931906D01*
X186671073Y-70179584D01*
X186358986Y-70396803D01*
X186026524Y-70581334D01*
X185677100Y-70731284D01*
X185314298Y-70845114D01*
X184941841Y-70921656D01*
X184563552Y-70960124D01*
X184183312Y-70960124D01*
X183805023Y-70921656D01*
X183432566Y-70845114D01*
X183069764Y-70731284D01*
X182720340Y-70581334D01*
X182387878Y-70396803D01*
X182075791Y-70179584D01*
X181787281Y-69931906D01*
X181525308Y-69656311D01*
X181292561Y-69355627D01*
X181091428Y-69032938D01*
X180923972Y-68691557D01*
X180791913Y-68334986D01*
X180696605Y-67966884D01*
X180639026Y-67591029D01*
X180619767Y-67211277D01*
X180639026Y-66831525D01*
X180696605Y-66455670D01*
X180791913Y-66087568D01*
X180923972Y-65730997D01*
X181091428Y-65389616D01*
X181292561Y-65066927D01*
X181525308Y-64766243D01*
X181787281Y-64490648D01*
X182075791Y-64242970D01*
X182387878Y-64025751D01*
X182720340Y-63841220D01*
X183069764Y-63691270D01*
X183432566Y-63577440D01*
X183805023Y-63500898D01*
X184183312Y-63462430D01*
X184563552Y-63462430D01*
X184941841Y-63500898D01*
%TA.AperFunction,Profile*%
G36*
X184941841Y-63500898D02*
G01*
X185314298Y-63577440D01*
X185677100Y-63691270D01*
X186026524Y-63841220D01*
X186358986Y-64025751D01*
X186671073Y-64242970D01*
X186959583Y-64490648D01*
X187221556Y-64766243D01*
X187454303Y-65066927D01*
X187655436Y-65389616D01*
X187822892Y-65730997D01*
X187954951Y-66087568D01*
X188050259Y-66455670D01*
X188107838Y-66831525D01*
X188127097Y-67211277D01*
X188107838Y-67591029D01*
X188050259Y-67966884D01*
X187954951Y-68334986D01*
X187822892Y-68691557D01*
X187655436Y-69032938D01*
X187454303Y-69355627D01*
X187221556Y-69656311D01*
X186959583Y-69931906D01*
X186671073Y-70179584D01*
X186358986Y-70396803D01*
X186026524Y-70581334D01*
X185677100Y-70731284D01*
X185314298Y-70845114D01*
X184941841Y-70921656D01*
X184563552Y-70960124D01*
X184183312Y-70960124D01*
X183805023Y-70921656D01*
X183432566Y-70845114D01*
X183069764Y-70731284D01*
X182720340Y-70581334D01*
X182387878Y-70396803D01*
X182075791Y-70179584D01*
X181787281Y-69931906D01*
X181525308Y-69656311D01*
X181292561Y-69355627D01*
X181091428Y-69032938D01*
X180923972Y-68691557D01*
X180791913Y-68334986D01*
X180696605Y-67966884D01*
X180639026Y-67591029D01*
X180619767Y-67211277D01*
X180639026Y-66831525D01*
X180696605Y-66455670D01*
X180791913Y-66087568D01*
X180923972Y-65730997D01*
X181091428Y-65389616D01*
X181292561Y-65066927D01*
X181525308Y-64766243D01*
X181787281Y-64490648D01*
X182075791Y-64242970D01*
X182387878Y-64025751D01*
X182720340Y-63841220D01*
X183069764Y-63691270D01*
X183432566Y-63577440D01*
X183805023Y-63500898D01*
X184183312Y-63462430D01*
X184563552Y-63462430D01*
X184941841Y-63500898D01*
G37*
%TD.AperFunction*%
X192941868Y-65662478D02*
X193186000Y-65721089D01*
X193417958Y-65817169D01*
X193632029Y-65948352D01*
X193822944Y-66111408D01*
X193986000Y-66302323D01*
X194117183Y-66516394D01*
X194213263Y-66748352D01*
X194271874Y-66992484D01*
X194291573Y-67242779D01*
X194271874Y-67493074D01*
X194213263Y-67737206D01*
X194117183Y-67969164D01*
X193986000Y-68183235D01*
X193822944Y-68374150D01*
X193632029Y-68537206D01*
X193417958Y-68668389D01*
X193186000Y-68764469D01*
X192941868Y-68823080D01*
X192691573Y-68842779D01*
X192441278Y-68823080D01*
X192197146Y-68764469D01*
X191965188Y-68668389D01*
X191751117Y-68537206D01*
X191560202Y-68374150D01*
X191397146Y-68183235D01*
X191265963Y-67969164D01*
X191169883Y-67737206D01*
X191111272Y-67493074D01*
X191091573Y-67242779D01*
X191111272Y-66992484D01*
X191169883Y-66748352D01*
X191265963Y-66516394D01*
X191397146Y-66302323D01*
X191560202Y-66111408D01*
X191751117Y-65948352D01*
X191965188Y-65817169D01*
X192197146Y-65721089D01*
X192441278Y-65662478D01*
X192691573Y-65642779D01*
X192941868Y-65662478D01*
%TA.AperFunction,Profile*%
G36*
X192941868Y-65662478D02*
G01*
X193186000Y-65721089D01*
X193417958Y-65817169D01*
X193632029Y-65948352D01*
X193822944Y-66111408D01*
X193986000Y-66302323D01*
X194117183Y-66516394D01*
X194213263Y-66748352D01*
X194271874Y-66992484D01*
X194291573Y-67242779D01*
X194271874Y-67493074D01*
X194213263Y-67737206D01*
X194117183Y-67969164D01*
X193986000Y-68183235D01*
X193822944Y-68374150D01*
X193632029Y-68537206D01*
X193417958Y-68668389D01*
X193186000Y-68764469D01*
X192941868Y-68823080D01*
X192691573Y-68842779D01*
X192441278Y-68823080D01*
X192197146Y-68764469D01*
X191965188Y-68668389D01*
X191751117Y-68537206D01*
X191560202Y-68374150D01*
X191397146Y-68183235D01*
X191265963Y-67969164D01*
X191169883Y-67737206D01*
X191111272Y-67493074D01*
X191091573Y-67242779D01*
X191111272Y-66992484D01*
X191169883Y-66748352D01*
X191265963Y-66516394D01*
X191397146Y-66302323D01*
X191560202Y-66111408D01*
X191751117Y-65948352D01*
X191965188Y-65817169D01*
X192197146Y-65721089D01*
X192441278Y-65662478D01*
X192691573Y-65642779D01*
X192941868Y-65662478D01*
G37*
%TD.AperFunction*%
D11*
X192956000Y-154640469D02*
X192956000Y-154640469D01*
G75*
G02*
X194456000Y-156140469I0J-1500031D01*
G01*
X194456000Y-156340469D01*
G75*
G02*
X192956000Y-157840469I-1500000J-31D01*
G01*
X189556000Y-157840469D01*
G75*
G02*
X188056000Y-156340469I0J1499969D01*
G01*
X188056000Y-156140469D01*
G75*
G02*
X189556000Y-154640469I1500000J-31D01*
G01*
X192956000Y-154640469D01*
%TA.AperFunction,Profile*%
G36*
X192956000Y-154640469D02*
G01*
X192956000Y-154640469D01*
G75*
G02*
X194456000Y-156140469I0J-1500031D01*
G01*
X194456000Y-156340469D01*
G75*
G02*
X192956000Y-157840469I-1500000J-31D01*
G01*
X189556000Y-157840469D01*
G75*
G02*
X188056000Y-156340469I0J1499969D01*
G01*
X188056000Y-156140469D01*
G75*
G02*
X189556000Y-154640469I1500000J-31D01*
G01*
X192956000Y-154640469D01*
G37*
%TD.AperFunction*%
D10*
X190211028Y-121852863D02*
X190564809Y-121912973D01*
X190909635Y-122012315D01*
X191241170Y-122149642D01*
X191555245Y-122323225D01*
X191847909Y-122530881D01*
X192115484Y-122770000D01*
X192354603Y-123037575D01*
X192562259Y-123330239D01*
X192735842Y-123644314D01*
X192873169Y-123975849D01*
X192972511Y-124320675D01*
X193032621Y-124674456D01*
X193052742Y-125032742D01*
X193032621Y-125391028D01*
X192972511Y-125744809D01*
X192873169Y-126089635D01*
X192735842Y-126421170D01*
X192562259Y-126735245D01*
X192354603Y-127027909D01*
X192115484Y-127295484D01*
X191847909Y-127534603D01*
X191555245Y-127742259D01*
X191241170Y-127915842D01*
X190909635Y-128053169D01*
X190564809Y-128152511D01*
X190211028Y-128212621D01*
X189852742Y-128232742D01*
X189494456Y-128212621D01*
X189140675Y-128152511D01*
X188795849Y-128053169D01*
X188464314Y-127915842D01*
X188150239Y-127742259D01*
X187857575Y-127534603D01*
X187590000Y-127295484D01*
X187350881Y-127027909D01*
X187143225Y-126735245D01*
X186969642Y-126421170D01*
X186832315Y-126089635D01*
X186732973Y-125744809D01*
X186672863Y-125391028D01*
X186652742Y-125032742D01*
X186672863Y-124674456D01*
X186732973Y-124320675D01*
X186832315Y-123975849D01*
X186969642Y-123644314D01*
X187143225Y-123330239D01*
X187350881Y-123037575D01*
X187590000Y-122770000D01*
X187857575Y-122530881D01*
X188150239Y-122323225D01*
X188464314Y-122149642D01*
X188795849Y-122012315D01*
X189140675Y-121912973D01*
X189494456Y-121852863D01*
X189852742Y-121832742D01*
X190211028Y-121852863D01*
%TA.AperFunction,Profile*%
G36*
X190211028Y-121852863D02*
G01*
X190564809Y-121912973D01*
X190909635Y-122012315D01*
X191241170Y-122149642D01*
X191555245Y-122323225D01*
X191847909Y-122530881D01*
X192115484Y-122770000D01*
X192354603Y-123037575D01*
X192562259Y-123330239D01*
X192735842Y-123644314D01*
X192873169Y-123975849D01*
X192972511Y-124320675D01*
X193032621Y-124674456D01*
X193052742Y-125032742D01*
X193032621Y-125391028D01*
X192972511Y-125744809D01*
X192873169Y-126089635D01*
X192735842Y-126421170D01*
X192562259Y-126735245D01*
X192354603Y-127027909D01*
X192115484Y-127295484D01*
X191847909Y-127534603D01*
X191555245Y-127742259D01*
X191241170Y-127915842D01*
X190909635Y-128053169D01*
X190564809Y-128152511D01*
X190211028Y-128212621D01*
X189852742Y-128232742D01*
X189494456Y-128212621D01*
X189140675Y-128152511D01*
X188795849Y-128053169D01*
X188464314Y-127915842D01*
X188150239Y-127742259D01*
X187857575Y-127534603D01*
X187590000Y-127295484D01*
X187350881Y-127027909D01*
X187143225Y-126735245D01*
X186969642Y-126421170D01*
X186832315Y-126089635D01*
X186732973Y-125744809D01*
X186672863Y-125391028D01*
X186652742Y-125032742D01*
X186672863Y-124674456D01*
X186732973Y-124320675D01*
X186832315Y-123975849D01*
X186969642Y-123644314D01*
X187143225Y-123330239D01*
X187350881Y-123037575D01*
X187590000Y-122770000D01*
X187857575Y-122530881D01*
X188150239Y-122323225D01*
X188464314Y-122149642D01*
X188795849Y-122012315D01*
X189140675Y-121912973D01*
X189494456Y-121852863D01*
X189852742Y-121832742D01*
X190211028Y-121852863D01*
G37*
%TD.AperFunction*%
X190301630Y-137001959D02*
X190655411Y-137062069D01*
X191000237Y-137161411D01*
X191331772Y-137298738D01*
X191645847Y-137472321D01*
X191938511Y-137679977D01*
X192206086Y-137919096D01*
X192445205Y-138186671D01*
X192652861Y-138479335D01*
X192826444Y-138793410D01*
X192963771Y-139124945D01*
X193063113Y-139469771D01*
X193123223Y-139823552D01*
X193143344Y-140181838D01*
X193123223Y-140540124D01*
X193063113Y-140893905D01*
X192963771Y-141238731D01*
X192826444Y-141570266D01*
X192652861Y-141884341D01*
X192445205Y-142177005D01*
X192206086Y-142444580D01*
X191938511Y-142683699D01*
X191645847Y-142891355D01*
X191331772Y-143064938D01*
X191000237Y-143202265D01*
X190655411Y-143301607D01*
X190301630Y-143361717D01*
X189943344Y-143381838D01*
X189585058Y-143361717D01*
X189231277Y-143301607D01*
X188886451Y-143202265D01*
X188554916Y-143064938D01*
X188240841Y-142891355D01*
X187948177Y-142683699D01*
X187680602Y-142444580D01*
X187441483Y-142177005D01*
X187233827Y-141884341D01*
X187060244Y-141570266D01*
X186922917Y-141238731D01*
X186823575Y-140893905D01*
X186763465Y-140540124D01*
X186743344Y-140181838D01*
X186763465Y-139823552D01*
X186823575Y-139469771D01*
X186922917Y-139124945D01*
X187060244Y-138793410D01*
X187233827Y-138479335D01*
X187441483Y-138186671D01*
X187680602Y-137919096D01*
X187948177Y-137679977D01*
X188240841Y-137472321D01*
X188554916Y-137298738D01*
X188886451Y-137161411D01*
X189231277Y-137062069D01*
X189585058Y-137001959D01*
X189943344Y-136981838D01*
X190301630Y-137001959D01*
%TA.AperFunction,Profile*%
G36*
X190301630Y-137001959D02*
G01*
X190655411Y-137062069D01*
X191000237Y-137161411D01*
X191331772Y-137298738D01*
X191645847Y-137472321D01*
X191938511Y-137679977D01*
X192206086Y-137919096D01*
X192445205Y-138186671D01*
X192652861Y-138479335D01*
X192826444Y-138793410D01*
X192963771Y-139124945D01*
X193063113Y-139469771D01*
X193123223Y-139823552D01*
X193143344Y-140181838D01*
X193123223Y-140540124D01*
X193063113Y-140893905D01*
X192963771Y-141238731D01*
X192826444Y-141570266D01*
X192652861Y-141884341D01*
X192445205Y-142177005D01*
X192206086Y-142444580D01*
X191938511Y-142683699D01*
X191645847Y-142891355D01*
X191331772Y-143064938D01*
X191000237Y-143202265D01*
X190655411Y-143301607D01*
X190301630Y-143361717D01*
X189943344Y-143381838D01*
X189585058Y-143361717D01*
X189231277Y-143301607D01*
X188886451Y-143202265D01*
X188554916Y-143064938D01*
X188240841Y-142891355D01*
X187948177Y-142683699D01*
X187680602Y-142444580D01*
X187441483Y-142177005D01*
X187233827Y-141884341D01*
X187060244Y-141570266D01*
X186922917Y-141238731D01*
X186823575Y-140893905D01*
X186763465Y-140540124D01*
X186743344Y-140181838D01*
X186763465Y-139823552D01*
X186823575Y-139469771D01*
X186922917Y-139124945D01*
X187060244Y-138793410D01*
X187233827Y-138479335D01*
X187441483Y-138186671D01*
X187680602Y-137919096D01*
X187948177Y-137679977D01*
X188240841Y-137472321D01*
X188554916Y-137298738D01*
X188886451Y-137161411D01*
X189231277Y-137062069D01*
X189585058Y-137001959D01*
X189943344Y-136981838D01*
X190301630Y-137001959D01*
G37*
%TD.AperFunction*%
M02*
