M48
; DRILL file {KiCad 7.0.11-7.0.11~ubuntu22.04.1} date Sun 22 Sep 2024 10:35:22 AM
; FORMAT={-:-/ absolute / metric / decimal}
; #@! TF.CreationDate,2024-09-22T10:35:22-04:00
; #@! TF.GenerationSoftware,Kicad,Pcbnew,7.0.11-7.0.11~ubuntu22.04.1
; #@! TF.FileFunction,Plated,1,2,PTH
FMAT,2
METRIC
; #@! TA.AperFunction,Plated,PTH,ViaDrill
T1C0.300
; #@! TA.AperFunction,Plated,PTH,ComponentDrill
T2C0.750
; #@! TA.AperFunction,Plated,PTH,ComponentDrill
T3C0.800
; #@! TA.AperFunction,Plated,PTH,ComponentDrill
T4C0.889
; #@! TA.AperFunction,Plated,PTH,ComponentDrill
T5C1.000
; #@! TA.AperFunction,Plated,PTH,ComponentDrill
T6C1.001
; #@! TA.AperFunction,Plated,PTH,ComponentDrill
T7C1.250
; #@! TA.AperFunction,Plated,PTH,ComponentDrill
T8C1.600
; #@! TA.AperFunction,Plated,PTH,ComponentDrill
T9C2.057
%
G90
G05
T1
X100.86Y-63.069
X101.042Y-66.011
X101.59Y-78.649
X101.663Y-100.079
X101.71Y-98.329
X102.58Y-99.539
X102.635Y-77.224
X102.69Y-64.549
X102.74Y-117.509
X103.434Y-65.016
X103.58Y-108.019
X103.63Y-112.349
X103.89Y-58.319
X103.91Y-127.189
X104.15Y-52.959
X104.64Y-67.329
X104.67Y-99.469
X104.67Y-99.469
X104.74Y-69.529
X104.77Y-124.049
X104.89Y-75.759
X105.05Y-64.679
X105.33Y-58.329
X105.41Y-66.974
X105.514Y-69.329
X105.55Y-127.739
X105.59Y-54.509
X105.685Y-75.668
X106.705Y-70.924
X106.82Y-78.469
X106.93Y-54.709
X107.2Y-75.789
X107.48Y-89.489
X107.534Y-78.829
X108.01Y-94.469
X108.82Y-101.949
X109.0Y-67.419
X109.344Y-83.343
X109.351Y-107.419
X109.47Y-76.879
X109.553Y-79.299
X109.91Y-83.909
X110.03Y-61.967
X110.03Y-63.069
X110.1Y-121.719
X110.341Y-107.419
X110.42Y-68.159
X110.57Y-88.639
X110.75Y-110.169
X110.95Y-133.839
X111.0Y-132.049
X111.08Y-91.789
X111.179Y-123.468
X111.18Y-60.209
X111.4Y-105.149
X111.61Y-69.01
X111.7Y-59.589
X111.74Y-57.179
X112.087Y-91.658
X112.8Y-76.989
X112.91Y-88.859
X113.032Y-77.754
X113.386Y-92.453
X113.4Y-94.417
X113.56Y-91.453
X113.672Y-109.459
X113.905Y-88.864
X114.57Y-75.119
X114.695Y-91.319
X116.01Y-117.449
X116.066Y-120.246
X116.171Y-77.758
X119.2Y-123.229
X119.28Y-115.829
X120.08Y-119.459
X120.67Y-129.046
X135.009Y-86.775
X135.217Y-99.325
X135.963Y-91.895
X137.277Y-50.505
X137.327Y-99.325
X139.003Y-82.978
X139.837Y-68.575
X139.857Y-72.247
X140.297Y-82.795
X141.097Y-50.605
X142.367Y-92.125
X142.657Y-70.025
X146.417Y-48.755
T2
X104.61Y-90.869
X104.61Y-92.139
X104.61Y-93.409
X109.48Y-90.959
X109.48Y-92.229
X109.48Y-93.499
X115.72Y-91.979
X116.99Y-91.979
X118.26Y-91.979
X151.765Y-55.755
X152.019Y-88.669
X153.035Y-55.755
X153.289Y-88.669
X154.305Y-55.755
X154.559Y-88.669
T3
X101.914Y-131.457
X101.914Y-139.077
X102.01Y-121.539
X102.01Y-129.159
X102.168Y-79.895
X102.168Y-87.515
X102.168Y-96.913
X102.168Y-104.533
X103.438Y-54.495
X103.438Y-57.035
X103.438Y-59.575
X104.962Y-131.457
X104.962Y-139.077
X105.04Y-121.559
X105.04Y-129.179
X105.19Y-41.789
X105.19Y-49.409
X105.3Y-96.749
X105.3Y-104.369
X105.36Y-79.879
X105.36Y-87.499
X105.42Y-63.089
X105.42Y-70.709
X105.55Y-106.829
X105.55Y-114.449
X107.756Y-122.821
X107.756Y-125.361
X107.756Y-127.901
X107.756Y-130.441
X107.756Y-132.981
X107.756Y-135.521
X107.756Y-138.061
X108.13Y-53.459
X108.13Y-55.999
X108.13Y-58.539
X108.13Y-61.079
X108.13Y-63.619
X108.13Y-66.159
X108.13Y-68.699
X108.15Y-41.759
X108.15Y-49.379
X108.4Y-79.899
X108.4Y-87.519
X108.518Y-71.767
X108.518Y-74.267
X108.55Y-96.839
X108.55Y-104.459
X108.69Y-111.949
X108.69Y-119.569
X110.74Y-48.129
X110.79Y-41.649
X110.82Y-44.799
X111.12Y-73.509
X111.14Y-76.369
X111.566Y-79.895
X111.566Y-87.515
X111.82Y-115.963
X111.82Y-118.463
X112.57Y-107.339
X113.07Y-95.859
X113.07Y-103.479
X114.614Y-79.895
X114.614Y-87.515
X114.614Y-111.391
X114.614Y-119.011
X115.11Y-107.339
X115.376Y-122.821
X115.376Y-125.361
X115.376Y-127.901
X115.376Y-130.441
X115.376Y-132.981
X115.376Y-135.521
X115.376Y-138.061
X115.75Y-53.459
X115.75Y-55.999
X115.75Y-58.539
X115.75Y-61.079
X115.75Y-63.619
X115.75Y-66.159
X115.75Y-68.699
X116.68Y-95.779
X116.68Y-103.399
X117.65Y-107.339
X117.916Y-79.895
X117.916Y-87.515
X117.916Y-110.883
X117.916Y-118.503
X118.17Y-121.297
X118.17Y-128.917
X118.26Y-131.189
X118.26Y-138.809
X118.36Y-48.129
X118.38Y-52.479
X118.38Y-60.099
X118.41Y-41.649
X118.44Y-44.799
X118.74Y-73.509
X118.76Y-76.369
X118.81Y-62.619
X118.81Y-70.239
X121.31Y-131.509
X121.31Y-139.129
X121.42Y-98.809
X121.42Y-106.429
X121.43Y-87.219
X121.43Y-94.839
X121.45Y-62.409
X121.45Y-70.029
X121.45Y-72.859
X121.45Y-80.479
X121.54Y-52.559
X121.54Y-60.059
X135.509Y-77.493
X135.509Y-85.113
X135.763Y-53.109
X135.763Y-60.729
X151.597Y-66.835
X151.597Y-74.455
X153.277Y-77.135
X153.277Y-84.755
T4
X141.859Y-39.747
X141.859Y-56.155
X141.859Y-72.665
X141.859Y-88.921
X144.399Y-39.747
X144.399Y-56.155
X144.399Y-72.665
X144.399Y-88.921
X146.939Y-39.747
X146.939Y-56.155
X146.939Y-72.665
X146.939Y-88.921
T5
X102.04Y-41.949
X102.04Y-44.489
X102.04Y-47.029
X102.04Y-49.569
X102.07Y-67.859
X102.07Y-70.399
X102.07Y-72.939
X102.07Y-75.479
X102.07Y-108.169
X102.07Y-110.709
X102.07Y-113.249
X102.07Y-115.789
X106.86Y-142.669
X106.86Y-145.209
X109.4Y-142.669
X109.4Y-145.209
X111.94Y-142.669
X111.94Y-145.209
X114.48Y-142.669
X114.48Y-145.209
X117.02Y-142.669
X117.02Y-145.209
X121.36Y-109.613
X121.36Y-112.153
X121.36Y-114.693
X121.36Y-117.233
X121.38Y-41.969
X121.38Y-44.509
X121.38Y-47.049
X121.38Y-49.589
X134.875Y-38.985
X134.875Y-41.525
X134.875Y-44.065
X134.875Y-46.605
X134.905Y-64.895
X134.905Y-67.435
X134.905Y-69.975
X134.905Y-72.515
X134.915Y-105.195
X134.915Y-107.735
X134.915Y-110.275
X134.915Y-112.815
X154.195Y-106.649
X154.195Y-109.189
X154.195Y-111.729
X154.195Y-114.269
X154.215Y-39.005
X154.215Y-41.545
X154.215Y-44.085
X154.215Y-46.625
T6
X153.035Y-61.745
X153.035Y-64.285
X153.035Y-94.511
X153.035Y-97.051
T8
X138.917Y-116.339
X138.917Y-124.639
X138.917Y-127.739
X138.917Y-131.459
X138.917Y-139.759
X138.917Y-142.859
X149.817Y-116.355
X149.817Y-124.655
X149.817Y-127.755
X149.917Y-131.459
X149.917Y-139.759
X149.917Y-142.859
T9
X140.005Y-46.757
X140.005Y-63.166
X140.005Y-79.676
X140.005Y-95.932
X148.793Y-46.757
X148.793Y-63.166
X148.793Y-79.676
X148.793Y-95.932
T7
G00X140.149Y-106.422
M15
G01X140.149Y-107.672
M16
G05
G00X144.399Y-106.332
M15
G01X144.399Y-107.582
M16
G05
G00X148.649Y-106.422
M15
G01X148.649Y-107.672
M16
G05
M30
