%TF.GenerationSoftware,KiCad,Pcbnew,7.0.11-7.0.11~ubuntu22.04.1*%
%TF.CreationDate,2024-09-21T00:23:00-04:00*%
%TF.ProjectId,ad-vca,61642d76-6361-42e6-9b69-6361645f7063,rev?*%
%TF.SameCoordinates,Original*%
%TF.FileFunction,Drillmap*%
%TF.FilePolarity,Positive*%
%FSLAX45Y45*%
G04 Gerber Fmt 4.5, Leading zero omitted, Abs format (unit mm)*
G04 Created by KiCad (PCBNEW 7.0.11-7.0.11~ubuntu22.04.1) date 2024-09-21 00:23:00*
%MOMM*%
%LPD*%
G01*
G04 APERTURE LIST*
%ADD10C,0.150000*%
%ADD11C,0.200000*%
%ADD12C,0.100000*%
%ADD13C,0.100076*%
%ADD14C,0.125000*%
%ADD15C,0.160000*%
%ADD16C,0.205740*%
G04 APERTURE END LIST*
D10*
X17833886Y-13718736D02*
X17869265Y-13724747D01*
X17903747Y-13734681D01*
X17936901Y-13748414D01*
X17968308Y-13765772D01*
X17997575Y-13786538D01*
X18024332Y-13810449D01*
X18048244Y-13837207D01*
X18069010Y-13866473D01*
X18086368Y-13897881D01*
X18100101Y-13931034D01*
X18110035Y-13965517D01*
X18116046Y-14000895D01*
X18118058Y-14036724D01*
X18116046Y-14072552D01*
X18110035Y-14107930D01*
X18100101Y-14142413D01*
X18086368Y-14175566D01*
X18069010Y-14206974D01*
X18048244Y-14236240D01*
X18024332Y-14262998D01*
X17997575Y-14286910D01*
X17968308Y-14307675D01*
X17936901Y-14325034D01*
X17903747Y-14338766D01*
X17869265Y-14348701D01*
X17833886Y-14354712D01*
X17798058Y-14356724D01*
X17762229Y-14354712D01*
X17726851Y-14348701D01*
X17692369Y-14338766D01*
X17659215Y-14325034D01*
X17627808Y-14307675D01*
X17598541Y-14286910D01*
X17571784Y-14262998D01*
X17547872Y-14236240D01*
X17527106Y-14206974D01*
X17509748Y-14175566D01*
X17496015Y-14142413D01*
X17486081Y-14107930D01*
X17480070Y-14072552D01*
X17478058Y-14036724D01*
X17480070Y-14000895D01*
X17486081Y-13965517D01*
X17496015Y-13931034D01*
X17509748Y-13897881D01*
X17527106Y-13866473D01*
X17547872Y-13837207D01*
X17571784Y-13810449D01*
X17598541Y-13786538D01*
X17627808Y-13765772D01*
X17659215Y-13748414D01*
X17692369Y-13734681D01*
X17726851Y-13724747D01*
X17762229Y-13718736D01*
X17798058Y-13716724D01*
X17833886Y-13718736D01*
G36*
X17833886Y-13718736D02*
G01*
X17869265Y-13724747D01*
X17903747Y-13734681D01*
X17936901Y-13748414D01*
X17968308Y-13765772D01*
X17997575Y-13786538D01*
X18024332Y-13810449D01*
X18048244Y-13837207D01*
X18069010Y-13866473D01*
X18086368Y-13897881D01*
X18100101Y-13931034D01*
X18110035Y-13965517D01*
X18116046Y-14000895D01*
X18118058Y-14036724D01*
X18116046Y-14072552D01*
X18110035Y-14107930D01*
X18100101Y-14142413D01*
X18086368Y-14175566D01*
X18069010Y-14206974D01*
X18048244Y-14236240D01*
X18024332Y-14262998D01*
X17997575Y-14286910D01*
X17968308Y-14307675D01*
X17936901Y-14325034D01*
X17903747Y-14338766D01*
X17869265Y-14348701D01*
X17833886Y-14354712D01*
X17798058Y-14356724D01*
X17762229Y-14354712D01*
X17726851Y-14348701D01*
X17692369Y-14338766D01*
X17659215Y-14325034D01*
X17627808Y-14307675D01*
X17598541Y-14286910D01*
X17571784Y-14262998D01*
X17547872Y-14236240D01*
X17527106Y-14206974D01*
X17509748Y-14175566D01*
X17496015Y-14142413D01*
X17486081Y-14107930D01*
X17480070Y-14072552D01*
X17478058Y-14036724D01*
X17480070Y-14000895D01*
X17486081Y-13965517D01*
X17496015Y-13931034D01*
X17509748Y-13897881D01*
X17527106Y-13866473D01*
X17547872Y-13837207D01*
X17571784Y-13810449D01*
X17598541Y-13786538D01*
X17627808Y-13765772D01*
X17659215Y-13748414D01*
X17692369Y-13734681D01*
X17726851Y-13724747D01*
X17762229Y-13718736D01*
X17798058Y-13716724D01*
X17833886Y-13718736D01*
G37*
X18519910Y-9606704D02*
X18557156Y-9614358D01*
X18593436Y-9625741D01*
X18628378Y-9640736D01*
X18661625Y-9659190D01*
X18692833Y-9680911D01*
X18721684Y-9705679D01*
X18747882Y-9733239D01*
X18771156Y-9763307D01*
X18791270Y-9795576D01*
X18808015Y-9829714D01*
X18821221Y-9865371D01*
X18830752Y-9902181D01*
X18836510Y-9939767D01*
X18838436Y-9977742D01*
X18836510Y-10015717D01*
X18830752Y-10053303D01*
X18821221Y-10090113D01*
X18808015Y-10125770D01*
X18791270Y-10159908D01*
X18771156Y-10192177D01*
X18747882Y-10222246D01*
X18721684Y-10249805D01*
X18692833Y-10274573D01*
X18661625Y-10296295D01*
X18628378Y-10314748D01*
X18593436Y-10329743D01*
X18557156Y-10341126D01*
X18519910Y-10348780D01*
X18482081Y-10352627D01*
X18444057Y-10352627D01*
X18406228Y-10348780D01*
X18368983Y-10341126D01*
X18332702Y-10329743D01*
X18297760Y-10314748D01*
X18264514Y-10296295D01*
X18233305Y-10274573D01*
X18204454Y-10249805D01*
X18178257Y-10222246D01*
X18154982Y-10192177D01*
X18134869Y-10159908D01*
X18118123Y-10125770D01*
X18104917Y-10090113D01*
X18095386Y-10053303D01*
X18089629Y-10015717D01*
X18087703Y-9977742D01*
X18089629Y-9939767D01*
X18095386Y-9902181D01*
X18104917Y-9865371D01*
X18118123Y-9829714D01*
X18134869Y-9795576D01*
X18154982Y-9763307D01*
X18178257Y-9733239D01*
X18204454Y-9705679D01*
X18233305Y-9680911D01*
X18264514Y-9659190D01*
X18297760Y-9640736D01*
X18332702Y-9625741D01*
X18368983Y-9614358D01*
X18406228Y-9606704D01*
X18444057Y-9602857D01*
X18482081Y-9602857D01*
X18519910Y-9606704D01*
G36*
X18519910Y-9606704D02*
G01*
X18557156Y-9614358D01*
X18593436Y-9625741D01*
X18628378Y-9640736D01*
X18661625Y-9659190D01*
X18692833Y-9680911D01*
X18721684Y-9705679D01*
X18747882Y-9733239D01*
X18771156Y-9763307D01*
X18791270Y-9795576D01*
X18808015Y-9829714D01*
X18821221Y-9865371D01*
X18830752Y-9902181D01*
X18836510Y-9939767D01*
X18838436Y-9977742D01*
X18836510Y-10015717D01*
X18830752Y-10053303D01*
X18821221Y-10090113D01*
X18808015Y-10125770D01*
X18791270Y-10159908D01*
X18771156Y-10192177D01*
X18747882Y-10222246D01*
X18721684Y-10249805D01*
X18692833Y-10274573D01*
X18661625Y-10296295D01*
X18628378Y-10314748D01*
X18593436Y-10329743D01*
X18557156Y-10341126D01*
X18519910Y-10348780D01*
X18482081Y-10352627D01*
X18444057Y-10352627D01*
X18406228Y-10348780D01*
X18368983Y-10341126D01*
X18332702Y-10329743D01*
X18297760Y-10314748D01*
X18264514Y-10296295D01*
X18233305Y-10274573D01*
X18204454Y-10249805D01*
X18178257Y-10222246D01*
X18154982Y-10192177D01*
X18134869Y-10159908D01*
X18118123Y-10125770D01*
X18104917Y-10090113D01*
X18095386Y-10053303D01*
X18089629Y-10015717D01*
X18087703Y-9977742D01*
X18089629Y-9939767D01*
X18095386Y-9902181D01*
X18104917Y-9865371D01*
X18118123Y-9829714D01*
X18134869Y-9795576D01*
X18154982Y-9763307D01*
X18178257Y-9733239D01*
X18204454Y-9705679D01*
X18233305Y-9680911D01*
X18264514Y-9659190D01*
X18297760Y-9640736D01*
X18332702Y-9625741D01*
X18368983Y-9614358D01*
X18406228Y-9606704D01*
X18444057Y-9602857D01*
X18482081Y-9602857D01*
X18519910Y-9606704D01*
G37*
X18469110Y-8003932D02*
X18506356Y-8011586D01*
X18542636Y-8022969D01*
X18577578Y-8037964D01*
X18610825Y-8056417D01*
X18642033Y-8078139D01*
X18670884Y-8102907D01*
X18697082Y-8130466D01*
X18720356Y-8160535D01*
X18740470Y-8192804D01*
X18757215Y-8226942D01*
X18770421Y-8262599D01*
X18779952Y-8299409D01*
X18785710Y-8336994D01*
X18787636Y-8374970D01*
X18785710Y-8412945D01*
X18779952Y-8450530D01*
X18770421Y-8487341D01*
X18757215Y-8522998D01*
X18740470Y-8557136D01*
X18720356Y-8589405D01*
X18697082Y-8619473D01*
X18670884Y-8647033D01*
X18642033Y-8671800D01*
X18610825Y-8693522D01*
X18577578Y-8711975D01*
X18542636Y-8726970D01*
X18506356Y-8738353D01*
X18469110Y-8746008D01*
X18431281Y-8749854D01*
X18393257Y-8749854D01*
X18355428Y-8746008D01*
X18318183Y-8738353D01*
X18281902Y-8726970D01*
X18246960Y-8711975D01*
X18213714Y-8693522D01*
X18182505Y-8671800D01*
X18153654Y-8647033D01*
X18127457Y-8619473D01*
X18104182Y-8589405D01*
X18084069Y-8557136D01*
X18067323Y-8522998D01*
X18054117Y-8487341D01*
X18044586Y-8450530D01*
X18038829Y-8412945D01*
X18036903Y-8374970D01*
X18038829Y-8336994D01*
X18044586Y-8299409D01*
X18054117Y-8262599D01*
X18067323Y-8226942D01*
X18084069Y-8192804D01*
X18104182Y-8160535D01*
X18127457Y-8130466D01*
X18153654Y-8102907D01*
X18182505Y-8078139D01*
X18213714Y-8056417D01*
X18246960Y-8037964D01*
X18281902Y-8022969D01*
X18318183Y-8011586D01*
X18355428Y-8003932D01*
X18393257Y-8000085D01*
X18431281Y-8000085D01*
X18469110Y-8003932D01*
G36*
X18469110Y-8003932D02*
G01*
X18506356Y-8011586D01*
X18542636Y-8022969D01*
X18577578Y-8037964D01*
X18610825Y-8056417D01*
X18642033Y-8078139D01*
X18670884Y-8102907D01*
X18697082Y-8130466D01*
X18720356Y-8160535D01*
X18740470Y-8192804D01*
X18757215Y-8226942D01*
X18770421Y-8262599D01*
X18779952Y-8299409D01*
X18785710Y-8336994D01*
X18787636Y-8374970D01*
X18785710Y-8412945D01*
X18779952Y-8450530D01*
X18770421Y-8487341D01*
X18757215Y-8522998D01*
X18740470Y-8557136D01*
X18720356Y-8589405D01*
X18697082Y-8619473D01*
X18670884Y-8647033D01*
X18642033Y-8671800D01*
X18610825Y-8693522D01*
X18577578Y-8711975D01*
X18542636Y-8726970D01*
X18506356Y-8738353D01*
X18469110Y-8746008D01*
X18431281Y-8749854D01*
X18393257Y-8749854D01*
X18355428Y-8746008D01*
X18318183Y-8738353D01*
X18281902Y-8726970D01*
X18246960Y-8711975D01*
X18213714Y-8693522D01*
X18182505Y-8671800D01*
X18153654Y-8647033D01*
X18127457Y-8619473D01*
X18104182Y-8589405D01*
X18084069Y-8557136D01*
X18067323Y-8522998D01*
X18054117Y-8487341D01*
X18044586Y-8450530D01*
X18038829Y-8412945D01*
X18036903Y-8374970D01*
X18038829Y-8336994D01*
X18044586Y-8299409D01*
X18054117Y-8262599D01*
X18067323Y-8226942D01*
X18084069Y-8192804D01*
X18104182Y-8160535D01*
X18127457Y-8130466D01*
X18153654Y-8102907D01*
X18182505Y-8078139D01*
X18213714Y-8056417D01*
X18246960Y-8037964D01*
X18281902Y-8022969D01*
X18318183Y-8011586D01*
X18355428Y-8003932D01*
X18393257Y-8000085D01*
X18431281Y-8000085D01*
X18469110Y-8003932D01*
G37*
D11*
X10006000Y-3999853D02*
X12338000Y-3999853D01*
X12338000Y-14799853D01*
X10006000Y-14799853D01*
X10006000Y-3999853D01*
D10*
X19344000Y-9836987D02*
X19368413Y-9842848D01*
X19391609Y-9852456D01*
X19413016Y-9865574D01*
X19432108Y-9881880D01*
X19448413Y-9900971D01*
X19461532Y-9922378D01*
X19471140Y-9945574D01*
X19477001Y-9969987D01*
X19478971Y-9995017D01*
X19477001Y-10020046D01*
X19471140Y-10044460D01*
X19461532Y-10067655D01*
X19448413Y-10089062D01*
X19432108Y-10108154D01*
X19413016Y-10124460D01*
X19391609Y-10137578D01*
X19368413Y-10147186D01*
X19344000Y-10153047D01*
X19318971Y-10155017D01*
X19293941Y-10153047D01*
X19269528Y-10147186D01*
X19246332Y-10137578D01*
X19224925Y-10124460D01*
X19205833Y-10108154D01*
X19189528Y-10089062D01*
X19176410Y-10067655D01*
X19166802Y-10044460D01*
X19160940Y-10020046D01*
X19158971Y-9995017D01*
X19160940Y-9969987D01*
X19166802Y-9945574D01*
X19176410Y-9922378D01*
X19189528Y-9900971D01*
X19205833Y-9881880D01*
X19224925Y-9865574D01*
X19246332Y-9852456D01*
X19269528Y-9842848D01*
X19293941Y-9836987D01*
X19318971Y-9835017D01*
X19344000Y-9836987D01*
G36*
X19344000Y-9836987D02*
G01*
X19368413Y-9842848D01*
X19391609Y-9852456D01*
X19413016Y-9865574D01*
X19432108Y-9881880D01*
X19448413Y-9900971D01*
X19461532Y-9922378D01*
X19471140Y-9945574D01*
X19477001Y-9969987D01*
X19478971Y-9995017D01*
X19477001Y-10020046D01*
X19471140Y-10044460D01*
X19461532Y-10067655D01*
X19448413Y-10089062D01*
X19432108Y-10108154D01*
X19413016Y-10124460D01*
X19391609Y-10137578D01*
X19368413Y-10147186D01*
X19344000Y-10153047D01*
X19318971Y-10155017D01*
X19293941Y-10153047D01*
X19269528Y-10147186D01*
X19246332Y-10137578D01*
X19224925Y-10124460D01*
X19205833Y-10108154D01*
X19189528Y-10089062D01*
X19176410Y-10067655D01*
X19166802Y-10044460D01*
X19160940Y-10020046D01*
X19158971Y-9995017D01*
X19160940Y-9969987D01*
X19166802Y-9945574D01*
X19176410Y-9922378D01*
X19189528Y-9900971D01*
X19205833Y-9881880D01*
X19224925Y-9865574D01*
X19246332Y-9852456D01*
X19269528Y-9842848D01*
X19293941Y-9836987D01*
X19318971Y-9835017D01*
X19344000Y-9836987D01*
G37*
D11*
X13815000Y-3958000D02*
X16147000Y-3958000D01*
X16147000Y-14758000D01*
X13815000Y-14758000D01*
X13815000Y-3958000D01*
X17170400Y-3075800D02*
X19668400Y-3075800D01*
X19668400Y-15925800D01*
X17170400Y-15925800D01*
X17170400Y-3075800D01*
D10*
X17825569Y-12214396D02*
X17860947Y-12220407D01*
X17895430Y-12230342D01*
X17928583Y-12244074D01*
X17959991Y-12261433D01*
X17989257Y-12282198D01*
X18016015Y-12306110D01*
X18039927Y-12332868D01*
X18060692Y-12362134D01*
X18078051Y-12393542D01*
X18091783Y-12426695D01*
X18101718Y-12461178D01*
X18107729Y-12496556D01*
X18109741Y-12532384D01*
X18107729Y-12568213D01*
X18101718Y-12603591D01*
X18091783Y-12638074D01*
X18078051Y-12671227D01*
X18060692Y-12702635D01*
X18039927Y-12731901D01*
X18016015Y-12758659D01*
X17989257Y-12782570D01*
X17959991Y-12803336D01*
X17928583Y-12820694D01*
X17895430Y-12834427D01*
X17860947Y-12844361D01*
X17825569Y-12850372D01*
X17789741Y-12852384D01*
X17753912Y-12850372D01*
X17718534Y-12844361D01*
X17684051Y-12834427D01*
X17650898Y-12820694D01*
X17619490Y-12803336D01*
X17590224Y-12782570D01*
X17563466Y-12758659D01*
X17539555Y-12731901D01*
X17518789Y-12702635D01*
X17501431Y-12671227D01*
X17487698Y-12638074D01*
X17477764Y-12603591D01*
X17471753Y-12568213D01*
X17469741Y-12532384D01*
X17471753Y-12496556D01*
X17477764Y-12461178D01*
X17487698Y-12426695D01*
X17501431Y-12393542D01*
X17518789Y-12362134D01*
X17539555Y-12332868D01*
X17563466Y-12306110D01*
X17590224Y-12282198D01*
X17619490Y-12261433D01*
X17650898Y-12244074D01*
X17684051Y-12230342D01*
X17718534Y-12220407D01*
X17753912Y-12214396D01*
X17789741Y-12212384D01*
X17825569Y-12214396D01*
G36*
X17825569Y-12214396D02*
G01*
X17860947Y-12220407D01*
X17895430Y-12230342D01*
X17928583Y-12244074D01*
X17959991Y-12261433D01*
X17989257Y-12282198D01*
X18016015Y-12306110D01*
X18039927Y-12332868D01*
X18060692Y-12362134D01*
X18078051Y-12393542D01*
X18091783Y-12426695D01*
X18101718Y-12461178D01*
X18107729Y-12496556D01*
X18109741Y-12532384D01*
X18107729Y-12568213D01*
X18101718Y-12603591D01*
X18091783Y-12638074D01*
X18078051Y-12671227D01*
X18060692Y-12702635D01*
X18039927Y-12731901D01*
X18016015Y-12758659D01*
X17989257Y-12782570D01*
X17959991Y-12803336D01*
X17928583Y-12820694D01*
X17895430Y-12834427D01*
X17860947Y-12844361D01*
X17825569Y-12850372D01*
X17789741Y-12852384D01*
X17753912Y-12850372D01*
X17718534Y-12844361D01*
X17684051Y-12834427D01*
X17650898Y-12820694D01*
X17619490Y-12803336D01*
X17590224Y-12782570D01*
X17563466Y-12758659D01*
X17539555Y-12731901D01*
X17518789Y-12702635D01*
X17501431Y-12671227D01*
X17487698Y-12638074D01*
X17477764Y-12603591D01*
X17471753Y-12568213D01*
X17469741Y-12532384D01*
X17471753Y-12496556D01*
X17477764Y-12461178D01*
X17487698Y-12426695D01*
X17501431Y-12393542D01*
X17518789Y-12362134D01*
X17539555Y-12332868D01*
X17563466Y-12306110D01*
X17590224Y-12282198D01*
X17619490Y-12261433D01*
X17650898Y-12244074D01*
X17684051Y-12230342D01*
X17718534Y-12220407D01*
X17753912Y-12214396D01*
X17789741Y-12212384D01*
X17825569Y-12214396D01*
G37*
X18472342Y-10784741D02*
X18507251Y-10790672D01*
X18541276Y-10800475D01*
X18573989Y-10814025D01*
X18604980Y-10831153D01*
X18633858Y-10851643D01*
X18660260Y-10875238D01*
X18683855Y-10901640D01*
X18704345Y-10930518D01*
X18721473Y-10961509D01*
X18735023Y-10994222D01*
X18744825Y-11028247D01*
X18750757Y-11063156D01*
X18752742Y-11098509D01*
X18750757Y-11133862D01*
X18744825Y-11168770D01*
X18735023Y-11202795D01*
X18721473Y-11235509D01*
X18704345Y-11266499D01*
X18683855Y-11295377D01*
X18660260Y-11321780D01*
X18633858Y-11345374D01*
X18604980Y-11365864D01*
X18573989Y-11382992D01*
X18541276Y-11396543D01*
X18507251Y-11406345D01*
X18472342Y-11412276D01*
X18436989Y-11414262D01*
X18401636Y-11412276D01*
X18366727Y-11406345D01*
X18332702Y-11396543D01*
X18299989Y-11382992D01*
X18268998Y-11365864D01*
X18240120Y-11345374D01*
X18213718Y-11321780D01*
X18190123Y-11295377D01*
X18169633Y-11266499D01*
X18152505Y-11235509D01*
X18138955Y-11202795D01*
X18129152Y-11168770D01*
X18123221Y-11133862D01*
X18121236Y-11098509D01*
X18123221Y-11063156D01*
X18129152Y-11028247D01*
X18138955Y-10994222D01*
X18152505Y-10961509D01*
X18169633Y-10930518D01*
X18190123Y-10901640D01*
X18213718Y-10875238D01*
X18240120Y-10851643D01*
X18268998Y-10831153D01*
X18299989Y-10814025D01*
X18332702Y-10800475D01*
X18366727Y-10790672D01*
X18401636Y-10784741D01*
X18436989Y-10782756D01*
X18472342Y-10784741D01*
G36*
X18472342Y-10784741D02*
G01*
X18507251Y-10790672D01*
X18541276Y-10800475D01*
X18573989Y-10814025D01*
X18604980Y-10831153D01*
X18633858Y-10851643D01*
X18660260Y-10875238D01*
X18683855Y-10901640D01*
X18704345Y-10930518D01*
X18721473Y-10961509D01*
X18735023Y-10994222D01*
X18744825Y-11028247D01*
X18750757Y-11063156D01*
X18752742Y-11098509D01*
X18750757Y-11133862D01*
X18744825Y-11168770D01*
X18735023Y-11202795D01*
X18721473Y-11235509D01*
X18704345Y-11266499D01*
X18683855Y-11295377D01*
X18660260Y-11321780D01*
X18633858Y-11345374D01*
X18604980Y-11365864D01*
X18573989Y-11382992D01*
X18541276Y-11396543D01*
X18507251Y-11406345D01*
X18472342Y-11412276D01*
X18436989Y-11414262D01*
X18401636Y-11412276D01*
X18366727Y-11406345D01*
X18332702Y-11396543D01*
X18299989Y-11382992D01*
X18268998Y-11365864D01*
X18240120Y-11345374D01*
X18213718Y-11321780D01*
X18190123Y-11295377D01*
X18169633Y-11266499D01*
X18152505Y-11235509D01*
X18138955Y-11202795D01*
X18129152Y-11168770D01*
X18123221Y-11133862D01*
X18121236Y-11098509D01*
X18123221Y-11063156D01*
X18129152Y-11028247D01*
X18138955Y-10994222D01*
X18152505Y-10961509D01*
X18169633Y-10930518D01*
X18190123Y-10901640D01*
X18213718Y-10875238D01*
X18240120Y-10851643D01*
X18268998Y-10831153D01*
X18299989Y-10814025D01*
X18332702Y-10800475D01*
X18366727Y-10790672D01*
X18401636Y-10784741D01*
X18436989Y-10782756D01*
X18472342Y-10784741D01*
G37*
D11*
X17961400Y-3214047D02*
X17961400Y-3214047D01*
G75*
G02*
X18111400Y-3364047I0J-150003D01*
G01*
X18111400Y-3384047D01*
G75*
G02*
X17961400Y-3534047I-150000J-3D01*
G01*
X17621400Y-3534047D01*
G75*
G02*
X17471400Y-3384047I0J149997D01*
G01*
X17471400Y-3364047D01*
G75*
G02*
X17621400Y-3214047I150000J-3D01*
G01*
X17961400Y-3214047D01*
G36*
X17961400Y-3214047D02*
G01*
X17961400Y-3214047D01*
G75*
G02*
X18111400Y-3364047I0J-150003D01*
G01*
X18111400Y-3384047D01*
G75*
G02*
X17961400Y-3534047I-150000J-3D01*
G01*
X17621400Y-3534047D01*
G75*
G02*
X17471400Y-3384047I0J149997D01*
G01*
X17471400Y-3364047D01*
G75*
G02*
X17621400Y-3214047I150000J-3D01*
G01*
X17961400Y-3214047D01*
G37*
D10*
X18494510Y-4704504D02*
X18531756Y-4712158D01*
X18568036Y-4723541D01*
X18602978Y-4738536D01*
X18636225Y-4756990D01*
X18667433Y-4778711D01*
X18696284Y-4803479D01*
X18722482Y-4831039D01*
X18745756Y-4861107D01*
X18765870Y-4893376D01*
X18782615Y-4927514D01*
X18795821Y-4963171D01*
X18805352Y-4999981D01*
X18811110Y-5037567D01*
X18813036Y-5075542D01*
X18811110Y-5113517D01*
X18805352Y-5151103D01*
X18795821Y-5187913D01*
X18782615Y-5223570D01*
X18765870Y-5257708D01*
X18745756Y-5289977D01*
X18722482Y-5320046D01*
X18696284Y-5347605D01*
X18667433Y-5372373D01*
X18636225Y-5394095D01*
X18602978Y-5412548D01*
X18568036Y-5427543D01*
X18531756Y-5438926D01*
X18494510Y-5446580D01*
X18456681Y-5450427D01*
X18418657Y-5450427D01*
X18380828Y-5446580D01*
X18343583Y-5438926D01*
X18307302Y-5427543D01*
X18272360Y-5412548D01*
X18239114Y-5394095D01*
X18207905Y-5372373D01*
X18179054Y-5347605D01*
X18152857Y-5320046D01*
X18129582Y-5289977D01*
X18109469Y-5257708D01*
X18092723Y-5223570D01*
X18079517Y-5187913D01*
X18069986Y-5151103D01*
X18064229Y-5113517D01*
X18062303Y-5075542D01*
X18064229Y-5037567D01*
X18069986Y-4999981D01*
X18079517Y-4963171D01*
X18092723Y-4927514D01*
X18109469Y-4893376D01*
X18129582Y-4861107D01*
X18152857Y-4831039D01*
X18179054Y-4803479D01*
X18207905Y-4778711D01*
X18239114Y-4756990D01*
X18272360Y-4738536D01*
X18307302Y-4723541D01*
X18343583Y-4712158D01*
X18380828Y-4704504D01*
X18418657Y-4700657D01*
X18456681Y-4700657D01*
X18494510Y-4704504D01*
G36*
X18494510Y-4704504D02*
G01*
X18531756Y-4712158D01*
X18568036Y-4723541D01*
X18602978Y-4738536D01*
X18636225Y-4756990D01*
X18667433Y-4778711D01*
X18696284Y-4803479D01*
X18722482Y-4831039D01*
X18745756Y-4861107D01*
X18765870Y-4893376D01*
X18782615Y-4927514D01*
X18795821Y-4963171D01*
X18805352Y-4999981D01*
X18811110Y-5037567D01*
X18813036Y-5075542D01*
X18811110Y-5113517D01*
X18805352Y-5151103D01*
X18795821Y-5187913D01*
X18782615Y-5223570D01*
X18765870Y-5257708D01*
X18745756Y-5289977D01*
X18722482Y-5320046D01*
X18696284Y-5347605D01*
X18667433Y-5372373D01*
X18636225Y-5394095D01*
X18602978Y-5412548D01*
X18568036Y-5427543D01*
X18531756Y-5438926D01*
X18494510Y-5446580D01*
X18456681Y-5450427D01*
X18418657Y-5450427D01*
X18380828Y-5446580D01*
X18343583Y-5438926D01*
X18307302Y-5427543D01*
X18272360Y-5412548D01*
X18239114Y-5394095D01*
X18207905Y-5372373D01*
X18179054Y-5347605D01*
X18152857Y-5320046D01*
X18129582Y-5289977D01*
X18109469Y-5257708D01*
X18092723Y-5223570D01*
X18079517Y-5187913D01*
X18069986Y-5151103D01*
X18064229Y-5113517D01*
X18062303Y-5075542D01*
X18064229Y-5037567D01*
X18069986Y-4999981D01*
X18079517Y-4963171D01*
X18092723Y-4927514D01*
X18109469Y-4893376D01*
X18129582Y-4861107D01*
X18152857Y-4831039D01*
X18179054Y-4803479D01*
X18207905Y-4778711D01*
X18239114Y-4756990D01*
X18272360Y-4738536D01*
X18307302Y-4723541D01*
X18343583Y-4712158D01*
X18380828Y-4704504D01*
X18418657Y-4700657D01*
X18456681Y-4700657D01*
X18494510Y-4704504D01*
G37*
X18494184Y-6350090D02*
X18531430Y-6357744D01*
X18567710Y-6369127D01*
X18602652Y-6384122D01*
X18635899Y-6402575D01*
X18667107Y-6424297D01*
X18695958Y-6449065D01*
X18722156Y-6476624D01*
X18745430Y-6506693D01*
X18765544Y-6538962D01*
X18782289Y-6573100D01*
X18795495Y-6608757D01*
X18805026Y-6645567D01*
X18810784Y-6683152D01*
X18812710Y-6721128D01*
X18810784Y-6759103D01*
X18805026Y-6796688D01*
X18795495Y-6833499D01*
X18782289Y-6869156D01*
X18765544Y-6903294D01*
X18745430Y-6935563D01*
X18722156Y-6965631D01*
X18695958Y-6993191D01*
X18667107Y-7017958D01*
X18635899Y-7039680D01*
X18602652Y-7058133D01*
X18567710Y-7073128D01*
X18531430Y-7084511D01*
X18494184Y-7092166D01*
X18456355Y-7096012D01*
X18418331Y-7096012D01*
X18380502Y-7092166D01*
X18343257Y-7084511D01*
X18306976Y-7073128D01*
X18272034Y-7058133D01*
X18238788Y-7039680D01*
X18207579Y-7017958D01*
X18178728Y-6993191D01*
X18152531Y-6965631D01*
X18129256Y-6935563D01*
X18109143Y-6903294D01*
X18092397Y-6869156D01*
X18079191Y-6833499D01*
X18069661Y-6796688D01*
X18063903Y-6759103D01*
X18061977Y-6721128D01*
X18063903Y-6683152D01*
X18069661Y-6645567D01*
X18079191Y-6608757D01*
X18092397Y-6573100D01*
X18109143Y-6538962D01*
X18129256Y-6506693D01*
X18152531Y-6476624D01*
X18178728Y-6449065D01*
X18207579Y-6424297D01*
X18238788Y-6402575D01*
X18272034Y-6384122D01*
X18306976Y-6369127D01*
X18343257Y-6357744D01*
X18380502Y-6350090D01*
X18418331Y-6346243D01*
X18456355Y-6346243D01*
X18494184Y-6350090D01*
G36*
X18494184Y-6350090D02*
G01*
X18531430Y-6357744D01*
X18567710Y-6369127D01*
X18602652Y-6384122D01*
X18635899Y-6402575D01*
X18667107Y-6424297D01*
X18695958Y-6449065D01*
X18722156Y-6476624D01*
X18745430Y-6506693D01*
X18765544Y-6538962D01*
X18782289Y-6573100D01*
X18795495Y-6608757D01*
X18805026Y-6645567D01*
X18810784Y-6683152D01*
X18812710Y-6721128D01*
X18810784Y-6759103D01*
X18805026Y-6796688D01*
X18795495Y-6833499D01*
X18782289Y-6869156D01*
X18765544Y-6903294D01*
X18745430Y-6935563D01*
X18722156Y-6965631D01*
X18695958Y-6993191D01*
X18667107Y-7017958D01*
X18635899Y-7039680D01*
X18602652Y-7058133D01*
X18567710Y-7073128D01*
X18531430Y-7084511D01*
X18494184Y-7092166D01*
X18456355Y-7096012D01*
X18418331Y-7096012D01*
X18380502Y-7092166D01*
X18343257Y-7084511D01*
X18306976Y-7073128D01*
X18272034Y-7058133D01*
X18238788Y-7039680D01*
X18207579Y-7017958D01*
X18178728Y-6993191D01*
X18152531Y-6965631D01*
X18129256Y-6935563D01*
X18109143Y-6903294D01*
X18092397Y-6869156D01*
X18079191Y-6833499D01*
X18069661Y-6796688D01*
X18063903Y-6759103D01*
X18061977Y-6721128D01*
X18063903Y-6683152D01*
X18069661Y-6645567D01*
X18079191Y-6608757D01*
X18092397Y-6573100D01*
X18109143Y-6538962D01*
X18129256Y-6506693D01*
X18152531Y-6476624D01*
X18178728Y-6449065D01*
X18207579Y-6424297D01*
X18238788Y-6402575D01*
X18272034Y-6384122D01*
X18306976Y-6369127D01*
X18343257Y-6357744D01*
X18380502Y-6350090D01*
X18418331Y-6346243D01*
X18456355Y-6346243D01*
X18494184Y-6350090D01*
G37*
X19294187Y-6566248D02*
X19318600Y-6572109D01*
X19341796Y-6581717D01*
X19363203Y-6594835D01*
X19382294Y-6611141D01*
X19398600Y-6630232D01*
X19411718Y-6651639D01*
X19421326Y-6674835D01*
X19427187Y-6699248D01*
X19429157Y-6724278D01*
X19427187Y-6749307D01*
X19421326Y-6773721D01*
X19411718Y-6796916D01*
X19398600Y-6818323D01*
X19382294Y-6837415D01*
X19363203Y-6853721D01*
X19341796Y-6866839D01*
X19318600Y-6876447D01*
X19294187Y-6882308D01*
X19269157Y-6884278D01*
X19244128Y-6882308D01*
X19219715Y-6876447D01*
X19196519Y-6866839D01*
X19175112Y-6853721D01*
X19156020Y-6837415D01*
X19139715Y-6818323D01*
X19126596Y-6796916D01*
X19116988Y-6773721D01*
X19111127Y-6749307D01*
X19109157Y-6724278D01*
X19111127Y-6699248D01*
X19116988Y-6674835D01*
X19126596Y-6651639D01*
X19139715Y-6630232D01*
X19156020Y-6611141D01*
X19175112Y-6594835D01*
X19196519Y-6581717D01*
X19219715Y-6572109D01*
X19244128Y-6566248D01*
X19269157Y-6564278D01*
X19294187Y-6566248D01*
G36*
X19294187Y-6566248D02*
G01*
X19318600Y-6572109D01*
X19341796Y-6581717D01*
X19363203Y-6594835D01*
X19382294Y-6611141D01*
X19398600Y-6630232D01*
X19411718Y-6651639D01*
X19421326Y-6674835D01*
X19427187Y-6699248D01*
X19429157Y-6724278D01*
X19427187Y-6749307D01*
X19421326Y-6773721D01*
X19411718Y-6796916D01*
X19398600Y-6818323D01*
X19382294Y-6837415D01*
X19363203Y-6853721D01*
X19341796Y-6866839D01*
X19318600Y-6876447D01*
X19294187Y-6882308D01*
X19269157Y-6884278D01*
X19244128Y-6882308D01*
X19219715Y-6876447D01*
X19196519Y-6866839D01*
X19175112Y-6853721D01*
X19156020Y-6837415D01*
X19139715Y-6818323D01*
X19126596Y-6796916D01*
X19116988Y-6773721D01*
X19111127Y-6749307D01*
X19109157Y-6724278D01*
X19111127Y-6699248D01*
X19116988Y-6674835D01*
X19126596Y-6651639D01*
X19139715Y-6630232D01*
X19156020Y-6611141D01*
X19175112Y-6594835D01*
X19196519Y-6581717D01*
X19219715Y-6572109D01*
X19244128Y-6566248D01*
X19269157Y-6564278D01*
X19294187Y-6566248D01*
G37*
D11*
X19295600Y-15464047D02*
X19295600Y-15464047D01*
G75*
G02*
X19445600Y-15614047I0J-150003D01*
G01*
X19445600Y-15634047D01*
G75*
G02*
X19295600Y-15784047I-150000J-3D01*
G01*
X18955600Y-15784047D01*
G75*
G02*
X18805600Y-15634047I0J149997D01*
G01*
X18805600Y-15614047D01*
G75*
G02*
X18955600Y-15464047I150000J-3D01*
G01*
X19295600Y-15464047D01*
G36*
X19295600Y-15464047D02*
G01*
X19295600Y-15464047D01*
G75*
G02*
X19445600Y-15614047I0J-150003D01*
G01*
X19445600Y-15634047D01*
G75*
G02*
X19295600Y-15784047I-150000J-3D01*
G01*
X18955600Y-15784047D01*
G75*
G02*
X18805600Y-15634047I0J149997D01*
G01*
X18805600Y-15614047D01*
G75*
G02*
X18955600Y-15464047I150000J-3D01*
G01*
X19295600Y-15464047D01*
G37*
D10*
X19108945Y-12214396D02*
X19144323Y-12220407D01*
X19178806Y-12230342D01*
X19211959Y-12244074D01*
X19243367Y-12261433D01*
X19272633Y-12282198D01*
X19299390Y-12306110D01*
X19323302Y-12332868D01*
X19344068Y-12362134D01*
X19361426Y-12393542D01*
X19375159Y-12426695D01*
X19385093Y-12461178D01*
X19391104Y-12496556D01*
X19393116Y-12532384D01*
X19391104Y-12568213D01*
X19385093Y-12603591D01*
X19375159Y-12638074D01*
X19361426Y-12671227D01*
X19344068Y-12702635D01*
X19323302Y-12731901D01*
X19299390Y-12758659D01*
X19272633Y-12782570D01*
X19243367Y-12803336D01*
X19211959Y-12820694D01*
X19178806Y-12834427D01*
X19144323Y-12844361D01*
X19108945Y-12850372D01*
X19073116Y-12852384D01*
X19037288Y-12850372D01*
X19001910Y-12844361D01*
X18967427Y-12834427D01*
X18934273Y-12820694D01*
X18902866Y-12803336D01*
X18873600Y-12782570D01*
X18846842Y-12758659D01*
X18822930Y-12731901D01*
X18802165Y-12702635D01*
X18784806Y-12671227D01*
X18771074Y-12638074D01*
X18761139Y-12603591D01*
X18755128Y-12568213D01*
X18753116Y-12532384D01*
X18755128Y-12496556D01*
X18761139Y-12461178D01*
X18771074Y-12426695D01*
X18784806Y-12393542D01*
X18802165Y-12362134D01*
X18822930Y-12332868D01*
X18846842Y-12306110D01*
X18873600Y-12282198D01*
X18902866Y-12261433D01*
X18934273Y-12244074D01*
X18967427Y-12230342D01*
X19001910Y-12220407D01*
X19037288Y-12214396D01*
X19073116Y-12212384D01*
X19108945Y-12214396D01*
G36*
X19108945Y-12214396D02*
G01*
X19144323Y-12220407D01*
X19178806Y-12230342D01*
X19211959Y-12244074D01*
X19243367Y-12261433D01*
X19272633Y-12282198D01*
X19299390Y-12306110D01*
X19323302Y-12332868D01*
X19344068Y-12362134D01*
X19361426Y-12393542D01*
X19375159Y-12426695D01*
X19385093Y-12461178D01*
X19391104Y-12496556D01*
X19393116Y-12532384D01*
X19391104Y-12568213D01*
X19385093Y-12603591D01*
X19375159Y-12638074D01*
X19361426Y-12671227D01*
X19344068Y-12702635D01*
X19323302Y-12731901D01*
X19299390Y-12758659D01*
X19272633Y-12782570D01*
X19243367Y-12803336D01*
X19211959Y-12820694D01*
X19178806Y-12834427D01*
X19144323Y-12844361D01*
X19108945Y-12850372D01*
X19073116Y-12852384D01*
X19037288Y-12850372D01*
X19001910Y-12844361D01*
X18967427Y-12834427D01*
X18934273Y-12820694D01*
X18902866Y-12803336D01*
X18873600Y-12782570D01*
X18846842Y-12758659D01*
X18822930Y-12731901D01*
X18802165Y-12702635D01*
X18784806Y-12671227D01*
X18771074Y-12638074D01*
X18761139Y-12603591D01*
X18755128Y-12568213D01*
X18753116Y-12532384D01*
X18755128Y-12496556D01*
X18761139Y-12461178D01*
X18771074Y-12426695D01*
X18784806Y-12393542D01*
X18802165Y-12362134D01*
X18822930Y-12332868D01*
X18846842Y-12306110D01*
X18873600Y-12282198D01*
X18902866Y-12261433D01*
X18934273Y-12244074D01*
X18967427Y-12230342D01*
X19001910Y-12220407D01*
X19037288Y-12214396D01*
X19073116Y-12212384D01*
X19108945Y-12214396D01*
G37*
X19112870Y-13718736D02*
X19148248Y-13724747D01*
X19182731Y-13734681D01*
X19215884Y-13748414D01*
X19247292Y-13765772D01*
X19276558Y-13786538D01*
X19303316Y-13810449D01*
X19327228Y-13837207D01*
X19347993Y-13866473D01*
X19365352Y-13897881D01*
X19379084Y-13931034D01*
X19389018Y-13965517D01*
X19395029Y-14000895D01*
X19397042Y-14036724D01*
X19395029Y-14072552D01*
X19389018Y-14107930D01*
X19379084Y-14142413D01*
X19365352Y-14175566D01*
X19347993Y-14206974D01*
X19327228Y-14236240D01*
X19303316Y-14262998D01*
X19276558Y-14286910D01*
X19247292Y-14307675D01*
X19215884Y-14325034D01*
X19182731Y-14338766D01*
X19148248Y-14348701D01*
X19112870Y-14354712D01*
X19077042Y-14356724D01*
X19041213Y-14354712D01*
X19005835Y-14348701D01*
X18971352Y-14338766D01*
X18938199Y-14325034D01*
X18906791Y-14307675D01*
X18877525Y-14286910D01*
X18850767Y-14262998D01*
X18826855Y-14236240D01*
X18806090Y-14206974D01*
X18788732Y-14175566D01*
X18774999Y-14142413D01*
X18765065Y-14107930D01*
X18759054Y-14072552D01*
X18757042Y-14036724D01*
X18759054Y-14000895D01*
X18765065Y-13965517D01*
X18774999Y-13931034D01*
X18788732Y-13897881D01*
X18806090Y-13866473D01*
X18826855Y-13837207D01*
X18850767Y-13810449D01*
X18877525Y-13786538D01*
X18906791Y-13765772D01*
X18938199Y-13748414D01*
X18971352Y-13734681D01*
X19005835Y-13724747D01*
X19041213Y-13718736D01*
X19077042Y-13716724D01*
X19112870Y-13718736D01*
G36*
X19112870Y-13718736D02*
G01*
X19148248Y-13724747D01*
X19182731Y-13734681D01*
X19215884Y-13748414D01*
X19247292Y-13765772D01*
X19276558Y-13786538D01*
X19303316Y-13810449D01*
X19327228Y-13837207D01*
X19347993Y-13866473D01*
X19365352Y-13897881D01*
X19379084Y-13931034D01*
X19389018Y-13965517D01*
X19395029Y-14000895D01*
X19397042Y-14036724D01*
X19395029Y-14072552D01*
X19389018Y-14107930D01*
X19379084Y-14142413D01*
X19365352Y-14175566D01*
X19347993Y-14206974D01*
X19327228Y-14236240D01*
X19303316Y-14262998D01*
X19276558Y-14286910D01*
X19247292Y-14307675D01*
X19215884Y-14325034D01*
X19182731Y-14338766D01*
X19148248Y-14348701D01*
X19112870Y-14354712D01*
X19077042Y-14356724D01*
X19041213Y-14354712D01*
X19005835Y-14348701D01*
X18971352Y-14338766D01*
X18938199Y-14325034D01*
X18906791Y-14307675D01*
X18877525Y-14286910D01*
X18850767Y-14262998D01*
X18826855Y-14236240D01*
X18806090Y-14206974D01*
X18788732Y-14175566D01*
X18774999Y-14142413D01*
X18765065Y-14107930D01*
X18759054Y-14072552D01*
X18757042Y-14036724D01*
X18759054Y-14000895D01*
X18765065Y-13965517D01*
X18774999Y-13931034D01*
X18788732Y-13897881D01*
X18806090Y-13866473D01*
X18826855Y-13837207D01*
X18850767Y-13810449D01*
X18877525Y-13786538D01*
X18906791Y-13765772D01*
X18938199Y-13748414D01*
X18971352Y-13734681D01*
X19005835Y-13724747D01*
X19041213Y-13718736D01*
X19077042Y-13716724D01*
X19112870Y-13718736D01*
G37*
D11*
D12*
X10071000Y-6291853D02*
X10101000Y-6321853D01*
X10101000Y-6291853D02*
X10071000Y-6321853D01*
X10089200Y-6586053D02*
X10119200Y-6616053D01*
X10119200Y-6586053D02*
X10089200Y-6616053D01*
X10144000Y-7849853D02*
X10174000Y-7879853D01*
X10174000Y-7849853D02*
X10144000Y-7879853D01*
X10151287Y-9992853D02*
X10181287Y-10022853D01*
X10181287Y-9992853D02*
X10151287Y-10022853D01*
X10156000Y-9817853D02*
X10186000Y-9847853D01*
X10186000Y-9817853D02*
X10156000Y-9847853D01*
X10243000Y-9938853D02*
X10273000Y-9968853D01*
X10273000Y-9938853D02*
X10243000Y-9968853D01*
X10248474Y-7707384D02*
X10278474Y-7737384D01*
X10278474Y-7707384D02*
X10248474Y-7737384D01*
X10254000Y-6439853D02*
X10284000Y-6469853D01*
X10284000Y-6439853D02*
X10254000Y-6469853D01*
X10259000Y-11735853D02*
X10289000Y-11765853D01*
X10289000Y-11735853D02*
X10259000Y-11765853D01*
X10328448Y-6486639D02*
X10358448Y-6516639D01*
X10358448Y-6486639D02*
X10328448Y-6516639D01*
X10343000Y-10786853D02*
X10373000Y-10816853D01*
X10373000Y-10786853D02*
X10343000Y-10816853D01*
X10348000Y-11219853D02*
X10378000Y-11249853D01*
X10378000Y-11219853D02*
X10348000Y-11249853D01*
X10374000Y-5816853D02*
X10404000Y-5846853D01*
X10404000Y-5816853D02*
X10374000Y-5846853D01*
X10376000Y-12703853D02*
X10406000Y-12733853D01*
X10406000Y-12703853D02*
X10376000Y-12733853D01*
X10400000Y-5280853D02*
X10430000Y-5310853D01*
X10430000Y-5280853D02*
X10400000Y-5310853D01*
X10449000Y-6717853D02*
X10479000Y-6747853D01*
X10479000Y-6717853D02*
X10449000Y-6747853D01*
X10452000Y-9931853D02*
X10482000Y-9961853D01*
X10482000Y-9931853D02*
X10452000Y-9961853D01*
X10452000Y-9931853D02*
X10482000Y-9961853D01*
X10482000Y-9931853D02*
X10452000Y-9961853D01*
X10459000Y-6937853D02*
X10489000Y-6967853D01*
X10489000Y-6937853D02*
X10459000Y-6967853D01*
X10462000Y-12389853D02*
X10492000Y-12419853D01*
X10492000Y-12389853D02*
X10462000Y-12419853D01*
X10474000Y-7560853D02*
X10504000Y-7590853D01*
X10504000Y-7560853D02*
X10474000Y-7590853D01*
X10490000Y-6452853D02*
X10520000Y-6482853D01*
X10520000Y-6452853D02*
X10490000Y-6482853D01*
X10518003Y-5817850D02*
X10548003Y-5847850D01*
X10548003Y-5817850D02*
X10518003Y-5847850D01*
X10526021Y-6682427D02*
X10556021Y-6712427D01*
X10556021Y-6682427D02*
X10526021Y-6712427D01*
X10536409Y-6917853D02*
X10566409Y-6947853D01*
X10566409Y-6917853D02*
X10536409Y-6947853D01*
X10540000Y-12758853D02*
X10570000Y-12788853D01*
X10570000Y-12758853D02*
X10540000Y-12788853D01*
X10544000Y-5435853D02*
X10574000Y-5465853D01*
X10574000Y-5435853D02*
X10544000Y-5465853D01*
X10553490Y-7551835D02*
X10583490Y-7581835D01*
X10583490Y-7551835D02*
X10553490Y-7581835D01*
X10655503Y-7077350D02*
X10685503Y-7107350D01*
X10685503Y-7077350D02*
X10655503Y-7107350D01*
X10667000Y-7831853D02*
X10697000Y-7861853D01*
X10697000Y-7831853D02*
X10667000Y-7861853D01*
X10678000Y-5455853D02*
X10708000Y-5485853D01*
X10708000Y-5455853D02*
X10678000Y-5485853D01*
X10705000Y-7563853D02*
X10735000Y-7593853D01*
X10735000Y-7563853D02*
X10705000Y-7593853D01*
X10733000Y-8933853D02*
X10763000Y-8963853D01*
X10763000Y-8933853D02*
X10733000Y-8963853D01*
X10738404Y-7867929D02*
X10768404Y-7897929D01*
X10768404Y-7867929D02*
X10738404Y-7897929D01*
X10786000Y-9431853D02*
X10816000Y-9461853D01*
X10816000Y-9431853D02*
X10786000Y-9461853D01*
X10867000Y-10179853D02*
X10897000Y-10209853D01*
X10897000Y-10179853D02*
X10867000Y-10209853D01*
X10885000Y-6726853D02*
X10915000Y-6756853D01*
X10915000Y-6726853D02*
X10885000Y-6756853D01*
X10919429Y-8319287D02*
X10949429Y-8349287D01*
X10949429Y-8319287D02*
X10919429Y-8349287D01*
X10920085Y-10726938D02*
X10950085Y-10756938D01*
X10950085Y-10726938D02*
X10920085Y-10756938D01*
X10932000Y-7672853D02*
X10962000Y-7702853D01*
X10962000Y-7672853D02*
X10932000Y-7702853D01*
X10940344Y-7914887D02*
X10970344Y-7944887D01*
X10970344Y-7914887D02*
X10940344Y-7944887D01*
X10975998Y-8375855D02*
X11005998Y-8405855D01*
X11005998Y-8375855D02*
X10975998Y-8405855D01*
X10988000Y-6181666D02*
X11018000Y-6211666D01*
X11018000Y-6181666D02*
X10988000Y-6211666D01*
X10988000Y-6291853D02*
X11018000Y-6321853D01*
X11018000Y-6291853D02*
X10988000Y-6321853D01*
X10995000Y-12156853D02*
X11025000Y-12186853D01*
X11025000Y-12156853D02*
X10995000Y-12186853D01*
X11019080Y-10726938D02*
X11049080Y-10756938D01*
X11049080Y-10726938D02*
X11019080Y-10756938D01*
X11027000Y-6800853D02*
X11057000Y-6830853D01*
X11057000Y-6800853D02*
X11027000Y-6830853D01*
X11042000Y-8848853D02*
X11072000Y-8878853D01*
X11072000Y-8848853D02*
X11042000Y-8878853D01*
X11060000Y-11001853D02*
X11090000Y-11031853D01*
X11090000Y-11001853D02*
X11060000Y-11031853D01*
X11080000Y-13368853D02*
X11110000Y-13398853D01*
X11110000Y-13368853D02*
X11080000Y-13398853D01*
X11085000Y-13189853D02*
X11115000Y-13219853D01*
X11115000Y-13189853D02*
X11085000Y-13219853D01*
X11093000Y-9163853D02*
X11123000Y-9193853D01*
X11123000Y-9163853D02*
X11093000Y-9193853D01*
X11102914Y-12331781D02*
X11132914Y-12361781D01*
X11132914Y-12331781D02*
X11102914Y-12361781D01*
X11103000Y-6005853D02*
X11133000Y-6035853D01*
X11133000Y-6005853D02*
X11103000Y-6035853D01*
X11125000Y-10499905D02*
X11155000Y-10529905D01*
X11155000Y-10499905D02*
X11125000Y-10529905D01*
X11146000Y-6885971D02*
X11176000Y-6915971D01*
X11176000Y-6885971D02*
X11146000Y-6915971D01*
X11155000Y-5943853D02*
X11185000Y-5973853D01*
X11185000Y-5943853D02*
X11155000Y-5973853D01*
X11159000Y-5702853D02*
X11189000Y-5732853D01*
X11189000Y-5702853D02*
X11159000Y-5732853D01*
X11193737Y-9150779D02*
X11223737Y-9180779D01*
X11223737Y-9150779D02*
X11193737Y-9180779D01*
X11265000Y-7683853D02*
X11295000Y-7713853D01*
X11295000Y-7683853D02*
X11265000Y-7713853D01*
X11276000Y-8870853D02*
X11306000Y-8900853D01*
X11306000Y-8870853D02*
X11276000Y-8900853D01*
X11288171Y-7760424D02*
X11318171Y-7790424D01*
X11318171Y-7760424D02*
X11288171Y-7790424D01*
X11323552Y-9230329D02*
X11353552Y-9260329D01*
X11353552Y-9230329D02*
X11323552Y-9260329D01*
X11325000Y-9426739D02*
X11355000Y-9456739D01*
X11355000Y-9426739D02*
X11325000Y-9456739D01*
X11341000Y-9130311D02*
X11371000Y-9160311D01*
X11371000Y-9130311D02*
X11341000Y-9160311D01*
X11352195Y-10930853D02*
X11382195Y-10960853D01*
X11382195Y-10930853D02*
X11352195Y-10960853D01*
X11375497Y-8871355D02*
X11405497Y-8901355D01*
X11405497Y-8871355D02*
X11375497Y-8901355D01*
X11442000Y-7496853D02*
X11472000Y-7526853D01*
X11472000Y-7496853D02*
X11442000Y-7526853D01*
X11454500Y-9116853D02*
X11484500Y-9146853D01*
X11484500Y-9116853D02*
X11454500Y-9146853D01*
X11586000Y-11729853D02*
X11616000Y-11759853D01*
X11616000Y-11729853D02*
X11586000Y-11759853D01*
X11591574Y-12009579D02*
X11621574Y-12039579D01*
X11621574Y-12009579D02*
X11591574Y-12039579D01*
X11602118Y-7760818D02*
X11632118Y-7790818D01*
X11632118Y-7760818D02*
X11602118Y-7790818D01*
X11905000Y-12307853D02*
X11935000Y-12337853D01*
X11935000Y-12307853D02*
X11905000Y-12337853D01*
X11913000Y-11567853D02*
X11943000Y-11597853D01*
X11943000Y-11567853D02*
X11913000Y-11597853D01*
X11993000Y-11930853D02*
X12023000Y-11960853D01*
X12023000Y-11930853D02*
X11993000Y-11960853D01*
X12052000Y-12889592D02*
X12082000Y-12919592D01*
X12082000Y-12889592D02*
X12052000Y-12919592D01*
X14011400Y-8917000D02*
X14041400Y-8947000D01*
X14041400Y-8917000D02*
X14011400Y-8947000D01*
X14032200Y-10172000D02*
X14062200Y-10202000D01*
X14062200Y-10172000D02*
X14032200Y-10202000D01*
X14106800Y-9429000D02*
X14136800Y-9459000D01*
X14136800Y-9429000D02*
X14106800Y-9459000D01*
X14238200Y-5290000D02*
X14268200Y-5320000D01*
X14268200Y-5290000D02*
X14238200Y-5320000D01*
X14243200Y-10172000D02*
X14273200Y-10202000D01*
X14273200Y-10172000D02*
X14243200Y-10202000D01*
X14410836Y-8537341D02*
X14440836Y-8567341D01*
X14440836Y-8537341D02*
X14410836Y-8567341D01*
X14494200Y-7097000D02*
X14524200Y-7127000D01*
X14524200Y-7097000D02*
X14494200Y-7127000D01*
X14496214Y-7464164D02*
X14526214Y-7494164D01*
X14526214Y-7464164D02*
X14496214Y-7494164D01*
X14540200Y-8519000D02*
X14570200Y-8549000D01*
X14570200Y-8519000D02*
X14540200Y-8549000D01*
X14620200Y-5300000D02*
X14650200Y-5330000D01*
X14650200Y-5300000D02*
X14620200Y-5330000D01*
X14747200Y-9452000D02*
X14777200Y-9482000D01*
X14777200Y-9452000D02*
X14747200Y-9482000D01*
X14776200Y-7242000D02*
X14806200Y-7272000D01*
X14806200Y-7242000D02*
X14776200Y-7272000D01*
X15152200Y-5115000D02*
X15182200Y-5145000D01*
X15182200Y-5115000D02*
X15152200Y-5145000D01*
X10498500Y-9086853D02*
G75*
G03*
X10423500Y-9086853I-37500J0D01*
G01*
X10423500Y-9086853D02*
G75*
G03*
X10498500Y-9086853I37500J0D01*
G01*
X10498500Y-9213853D02*
G75*
G03*
X10423500Y-9213853I-37500J0D01*
G01*
X10423500Y-9213853D02*
G75*
G03*
X10498500Y-9213853I37500J0D01*
G01*
X10498500Y-9340853D02*
G75*
G03*
X10423500Y-9340853I-37500J0D01*
G01*
X10423500Y-9340853D02*
G75*
G03*
X10498500Y-9340853I37500J0D01*
G01*
X10985500Y-9095853D02*
G75*
G03*
X10910500Y-9095853I-37500J0D01*
G01*
X10910500Y-9095853D02*
G75*
G03*
X10985500Y-9095853I37500J0D01*
G01*
X10985500Y-9222853D02*
G75*
G03*
X10910500Y-9222853I-37500J0D01*
G01*
X10910500Y-9222853D02*
G75*
G03*
X10985500Y-9222853I37500J0D01*
G01*
X10985500Y-9349853D02*
G75*
G03*
X10910500Y-9349853I-37500J0D01*
G01*
X10910500Y-9349853D02*
G75*
G03*
X10985500Y-9349853I37500J0D01*
G01*
X11609500Y-9197853D02*
G75*
G03*
X11534500Y-9197853I-37500J0D01*
G01*
X11534500Y-9197853D02*
G75*
G03*
X11609500Y-9197853I37500J0D01*
G01*
X11736500Y-9197853D02*
G75*
G03*
X11661500Y-9197853I-37500J0D01*
G01*
X11661500Y-9197853D02*
G75*
G03*
X11736500Y-9197853I37500J0D01*
G01*
X11863500Y-9197853D02*
G75*
G03*
X11788500Y-9197853I-37500J0D01*
G01*
X11788500Y-9197853D02*
G75*
G03*
X11863500Y-9197853I37500J0D01*
G01*
X15739500Y-5830000D02*
G75*
G03*
X15664500Y-5830000I-37500J0D01*
G01*
X15664500Y-5830000D02*
G75*
G03*
X15739500Y-5830000I37500J0D01*
G01*
X15764900Y-9121400D02*
G75*
G03*
X15689900Y-9121400I-37500J0D01*
G01*
X15689900Y-9121400D02*
G75*
G03*
X15764900Y-9121400I37500J0D01*
G01*
X15866500Y-5830000D02*
G75*
G03*
X15791500Y-5830000I-37500J0D01*
G01*
X15791500Y-5830000D02*
G75*
G03*
X15866500Y-5830000I37500J0D01*
G01*
X15891900Y-9121400D02*
G75*
G03*
X15816900Y-9121400I-37500J0D01*
G01*
X15816900Y-9121400D02*
G75*
G03*
X15891900Y-9121400I37500J0D01*
G01*
X15993500Y-5830000D02*
G75*
G03*
X15918500Y-5830000I-37500J0D01*
G01*
X15918500Y-5830000D02*
G75*
G03*
X15993500Y-5830000I37500J0D01*
G01*
X16018900Y-9121400D02*
G75*
G03*
X15943900Y-9121400I-37500J0D01*
G01*
X15943900Y-9121400D02*
G75*
G03*
X16018900Y-9121400I37500J0D01*
G01*
X10191400Y-13105653D02*
X10191400Y-13185653D01*
X10151400Y-13145653D02*
X10231400Y-13145653D01*
X10191400Y-13867653D02*
X10191400Y-13947653D01*
X10151400Y-13907653D02*
X10231400Y-13907653D01*
X10201000Y-12113853D02*
X10201000Y-12193853D01*
X10161000Y-12153853D02*
X10241000Y-12153853D01*
X10201000Y-12875853D02*
X10201000Y-12955853D01*
X10161000Y-12915853D02*
X10241000Y-12915853D01*
X10216800Y-7949453D02*
X10216800Y-8029453D01*
X10176800Y-7989453D02*
X10256800Y-7989453D01*
X10216800Y-8711453D02*
X10216800Y-8791453D01*
X10176800Y-8751453D02*
X10256800Y-8751453D01*
X10216800Y-9651253D02*
X10216800Y-9731253D01*
X10176800Y-9691253D02*
X10256800Y-9691253D01*
X10216800Y-10413253D02*
X10216800Y-10493253D01*
X10176800Y-10453253D02*
X10256800Y-10453253D01*
X10343800Y-5409453D02*
X10343800Y-5489453D01*
X10303800Y-5449453D02*
X10383800Y-5449453D01*
X10343800Y-5663453D02*
X10343800Y-5743453D01*
X10303800Y-5703453D02*
X10383800Y-5703453D01*
X10343800Y-5917453D02*
X10343800Y-5997453D01*
X10303800Y-5957453D02*
X10383800Y-5957453D01*
X10496200Y-13105653D02*
X10496200Y-13185653D01*
X10456200Y-13145653D02*
X10536200Y-13145653D01*
X10496200Y-13867653D02*
X10496200Y-13947653D01*
X10456200Y-13907653D02*
X10536200Y-13907653D01*
X10504000Y-12115853D02*
X10504000Y-12195853D01*
X10464000Y-12155853D02*
X10544000Y-12155853D01*
X10504000Y-12877853D02*
X10504000Y-12957853D01*
X10464000Y-12917853D02*
X10544000Y-12917853D01*
X10519000Y-4138853D02*
X10519000Y-4218853D01*
X10479000Y-4178853D02*
X10559000Y-4178853D01*
X10519000Y-4900853D02*
X10519000Y-4980853D01*
X10479000Y-4940853D02*
X10559000Y-4940853D01*
X10530000Y-9634853D02*
X10530000Y-9714853D01*
X10490000Y-9674853D02*
X10570000Y-9674853D01*
X10530000Y-10396853D02*
X10530000Y-10476853D01*
X10490000Y-10436853D02*
X10570000Y-10436853D01*
X10536000Y-7947853D02*
X10536000Y-8027853D01*
X10496000Y-7987853D02*
X10576000Y-7987853D01*
X10536000Y-8709853D02*
X10536000Y-8789853D01*
X10496000Y-8749853D02*
X10576000Y-8749853D01*
X10542000Y-6268853D02*
X10542000Y-6348853D01*
X10502000Y-6308853D02*
X10582000Y-6308853D01*
X10542000Y-7030853D02*
X10542000Y-7110853D01*
X10502000Y-7070853D02*
X10582000Y-7070853D01*
X10555000Y-10642853D02*
X10555000Y-10722853D01*
X10515000Y-10682853D02*
X10595000Y-10682853D01*
X10555000Y-11404853D02*
X10555000Y-11484853D01*
X10515000Y-11444853D02*
X10595000Y-11444853D01*
X10775600Y-12242053D02*
X10775600Y-12322053D01*
X10735600Y-12282053D02*
X10815600Y-12282053D01*
X10775600Y-12496053D02*
X10775600Y-12576053D01*
X10735600Y-12536053D02*
X10815600Y-12536053D01*
X10775600Y-12750053D02*
X10775600Y-12830053D01*
X10735600Y-12790053D02*
X10815600Y-12790053D01*
X10775600Y-13004053D02*
X10775600Y-13084053D01*
X10735600Y-13044053D02*
X10815600Y-13044053D01*
X10775600Y-13258053D02*
X10775600Y-13338053D01*
X10735600Y-13298053D02*
X10815600Y-13298053D01*
X10775600Y-13512053D02*
X10775600Y-13592053D01*
X10735600Y-13552053D02*
X10815600Y-13552053D01*
X10775600Y-13766053D02*
X10775600Y-13846053D01*
X10735600Y-13806053D02*
X10815600Y-13806053D01*
X10813000Y-5305853D02*
X10813000Y-5385853D01*
X10773000Y-5345853D02*
X10853000Y-5345853D01*
X10813000Y-5559853D02*
X10813000Y-5639853D01*
X10773000Y-5599853D02*
X10853000Y-5599853D01*
X10813000Y-5813853D02*
X10813000Y-5893853D01*
X10773000Y-5853853D02*
X10853000Y-5853853D01*
X10813000Y-6067853D02*
X10813000Y-6147853D01*
X10773000Y-6107853D02*
X10853000Y-6107853D01*
X10813000Y-6321853D02*
X10813000Y-6401853D01*
X10773000Y-6361853D02*
X10853000Y-6361853D01*
X10813000Y-6575853D02*
X10813000Y-6655853D01*
X10773000Y-6615853D02*
X10853000Y-6615853D01*
X10813000Y-6829853D02*
X10813000Y-6909853D01*
X10773000Y-6869853D02*
X10853000Y-6869853D01*
X10815000Y-4135853D02*
X10815000Y-4215853D01*
X10775000Y-4175853D02*
X10855000Y-4175853D01*
X10815000Y-4897853D02*
X10815000Y-4977853D01*
X10775000Y-4937853D02*
X10855000Y-4937853D01*
X10840000Y-7949853D02*
X10840000Y-8029853D01*
X10800000Y-7989853D02*
X10880000Y-7989853D01*
X10840000Y-8711853D02*
X10840000Y-8791853D01*
X10800000Y-8751853D02*
X10880000Y-8751853D01*
X10851800Y-7136653D02*
X10851800Y-7216653D01*
X10811800Y-7176653D02*
X10891800Y-7176653D01*
X10851800Y-7386653D02*
X10851800Y-7466653D01*
X10811800Y-7426653D02*
X10891800Y-7426653D01*
X10855000Y-9643853D02*
X10855000Y-9723853D01*
X10815000Y-9683853D02*
X10895000Y-9683853D01*
X10855000Y-10405853D02*
X10855000Y-10485853D01*
X10815000Y-10445853D02*
X10895000Y-10445853D01*
X10869000Y-11154853D02*
X10869000Y-11234853D01*
X10829000Y-11194853D02*
X10909000Y-11194853D01*
X10869000Y-11916853D02*
X10869000Y-11996853D01*
X10829000Y-11956853D02*
X10909000Y-11956853D01*
X11074000Y-4772853D02*
X11074000Y-4852853D01*
X11034000Y-4812853D02*
X11114000Y-4812853D01*
X11079000Y-4124853D02*
X11079000Y-4204853D01*
X11039000Y-4164853D02*
X11119000Y-4164853D01*
X11082000Y-4439853D02*
X11082000Y-4519853D01*
X11042000Y-4479853D02*
X11122000Y-4479853D01*
X11112000Y-7310853D02*
X11112000Y-7390853D01*
X11072000Y-7350853D02*
X11152000Y-7350853D01*
X11114000Y-7596853D02*
X11114000Y-7676853D01*
X11074000Y-7636853D02*
X11154000Y-7636853D01*
X11156600Y-7949453D02*
X11156600Y-8029453D01*
X11116600Y-7989453D02*
X11196600Y-7989453D01*
X11156600Y-8711453D02*
X11156600Y-8791453D01*
X11116600Y-8751453D02*
X11196600Y-8751453D01*
X11182000Y-11556253D02*
X11182000Y-11636253D01*
X11142000Y-11596253D02*
X11222000Y-11596253D01*
X11182000Y-11806253D02*
X11182000Y-11886253D01*
X11142000Y-11846253D02*
X11222000Y-11846253D01*
X11257000Y-10693853D02*
X11257000Y-10773853D01*
X11217000Y-10733853D02*
X11297000Y-10733853D01*
X11307000Y-9545853D02*
X11307000Y-9625853D01*
X11267000Y-9585853D02*
X11347000Y-9585853D01*
X11307000Y-10307853D02*
X11307000Y-10387853D01*
X11267000Y-10347853D02*
X11347000Y-10347853D01*
X11461400Y-7949453D02*
X11461400Y-8029453D01*
X11421400Y-7989453D02*
X11501400Y-7989453D01*
X11461400Y-8711453D02*
X11461400Y-8791453D01*
X11421400Y-8751453D02*
X11501400Y-8751453D01*
X11461400Y-11099053D02*
X11461400Y-11179053D01*
X11421400Y-11139053D02*
X11501400Y-11139053D01*
X11461400Y-11861053D02*
X11461400Y-11941053D01*
X11421400Y-11901053D02*
X11501400Y-11901053D01*
X11511000Y-10693853D02*
X11511000Y-10773853D01*
X11471000Y-10733853D02*
X11551000Y-10733853D01*
X11537600Y-12242053D02*
X11537600Y-12322053D01*
X11497600Y-12282053D02*
X11577600Y-12282053D01*
X11537600Y-12496053D02*
X11537600Y-12576053D01*
X11497600Y-12536053D02*
X11577600Y-12536053D01*
X11537600Y-12750053D02*
X11537600Y-12830053D01*
X11497600Y-12790053D02*
X11577600Y-12790053D01*
X11537600Y-13004053D02*
X11537600Y-13084053D01*
X11497600Y-13044053D02*
X11577600Y-13044053D01*
X11537600Y-13258053D02*
X11537600Y-13338053D01*
X11497600Y-13298053D02*
X11577600Y-13298053D01*
X11537600Y-13512053D02*
X11537600Y-13592053D01*
X11497600Y-13552053D02*
X11577600Y-13552053D01*
X11537600Y-13766053D02*
X11537600Y-13846053D01*
X11497600Y-13806053D02*
X11577600Y-13806053D01*
X11575000Y-5305853D02*
X11575000Y-5385853D01*
X11535000Y-5345853D02*
X11615000Y-5345853D01*
X11575000Y-5559853D02*
X11575000Y-5639853D01*
X11535000Y-5599853D02*
X11615000Y-5599853D01*
X11575000Y-5813853D02*
X11575000Y-5893853D01*
X11535000Y-5853853D02*
X11615000Y-5853853D01*
X11575000Y-6067853D02*
X11575000Y-6147853D01*
X11535000Y-6107853D02*
X11615000Y-6107853D01*
X11575000Y-6321853D02*
X11575000Y-6401853D01*
X11535000Y-6361853D02*
X11615000Y-6361853D01*
X11575000Y-6575853D02*
X11575000Y-6655853D01*
X11535000Y-6615853D02*
X11615000Y-6615853D01*
X11575000Y-6829853D02*
X11575000Y-6909853D01*
X11535000Y-6869853D02*
X11615000Y-6869853D01*
X11668000Y-9537853D02*
X11668000Y-9617853D01*
X11628000Y-9577853D02*
X11708000Y-9577853D01*
X11668000Y-10299853D02*
X11668000Y-10379853D01*
X11628000Y-10339853D02*
X11708000Y-10339853D01*
X11765000Y-10693853D02*
X11765000Y-10773853D01*
X11725000Y-10733853D02*
X11805000Y-10733853D01*
X11791600Y-7949453D02*
X11791600Y-8029453D01*
X11751600Y-7989453D02*
X11831600Y-7989453D01*
X11791600Y-8711453D02*
X11791600Y-8791453D01*
X11751600Y-8751453D02*
X11831600Y-8751453D01*
X11791600Y-11048253D02*
X11791600Y-11128253D01*
X11751600Y-11088253D02*
X11831600Y-11088253D01*
X11791600Y-11810253D02*
X11791600Y-11890253D01*
X11751600Y-11850253D02*
X11831600Y-11850253D01*
X11817000Y-12089653D02*
X11817000Y-12169653D01*
X11777000Y-12129653D02*
X11857000Y-12129653D01*
X11817000Y-12851653D02*
X11817000Y-12931653D01*
X11777000Y-12891653D02*
X11857000Y-12891653D01*
X11826000Y-13078853D02*
X11826000Y-13158853D01*
X11786000Y-13118853D02*
X11866000Y-13118853D01*
X11826000Y-13840853D02*
X11826000Y-13920853D01*
X11786000Y-13880853D02*
X11866000Y-13880853D01*
X11836000Y-4772853D02*
X11836000Y-4852853D01*
X11796000Y-4812853D02*
X11876000Y-4812853D01*
X11838000Y-5207853D02*
X11838000Y-5287853D01*
X11798000Y-5247853D02*
X11878000Y-5247853D01*
X11838000Y-5969853D02*
X11838000Y-6049853D01*
X11798000Y-6009853D02*
X11878000Y-6009853D01*
X11841000Y-4124853D02*
X11841000Y-4204853D01*
X11801000Y-4164853D02*
X11881000Y-4164853D01*
X11844000Y-4439853D02*
X11844000Y-4519853D01*
X11804000Y-4479853D02*
X11884000Y-4479853D01*
X11874000Y-7310853D02*
X11874000Y-7390853D01*
X11834000Y-7350853D02*
X11914000Y-7350853D01*
X11876000Y-7596853D02*
X11876000Y-7676853D01*
X11836000Y-7636853D02*
X11916000Y-7636853D01*
X11881000Y-6221853D02*
X11881000Y-6301853D01*
X11841000Y-6261853D02*
X11921000Y-6261853D01*
X11881000Y-6983853D02*
X11881000Y-7063853D01*
X11841000Y-7023853D02*
X11921000Y-7023853D01*
X12131000Y-13110853D02*
X12131000Y-13190853D01*
X12091000Y-13150853D02*
X12171000Y-13150853D01*
X12131000Y-13872853D02*
X12131000Y-13952853D01*
X12091000Y-13912853D02*
X12171000Y-13912853D01*
X12142000Y-9840853D02*
X12142000Y-9920853D01*
X12102000Y-9880853D02*
X12182000Y-9880853D01*
X12142000Y-10602853D02*
X12142000Y-10682853D01*
X12102000Y-10642853D02*
X12182000Y-10642853D01*
X12143000Y-8681853D02*
X12143000Y-8761853D01*
X12103000Y-8721853D02*
X12183000Y-8721853D01*
X12143000Y-9443853D02*
X12143000Y-9523853D01*
X12103000Y-9483853D02*
X12183000Y-9483853D01*
X12145000Y-6200853D02*
X12145000Y-6280853D01*
X12105000Y-6240853D02*
X12185000Y-6240853D01*
X12145000Y-6962853D02*
X12145000Y-7042853D01*
X12105000Y-7002853D02*
X12185000Y-7002853D01*
X12145000Y-7245853D02*
X12145000Y-7325853D01*
X12105000Y-7285853D02*
X12185000Y-7285853D01*
X12145000Y-8007853D02*
X12145000Y-8087853D01*
X12105000Y-8047853D02*
X12185000Y-8047853D01*
X12154000Y-5215853D02*
X12154000Y-5295853D01*
X12114000Y-5255853D02*
X12194000Y-5255853D01*
X12154000Y-5965853D02*
X12154000Y-6045853D01*
X12114000Y-6005853D02*
X12194000Y-6005853D01*
X14076400Y-7963800D02*
X14076400Y-8043800D01*
X14036400Y-8003800D02*
X14116400Y-8003800D01*
X14076400Y-8725800D02*
X14076400Y-8805800D01*
X14036400Y-8765800D02*
X14116400Y-8765800D01*
X14101800Y-5525400D02*
X14101800Y-5605400D01*
X14061800Y-5565400D02*
X14141800Y-5565400D01*
X14101800Y-6287400D02*
X14101800Y-6367400D01*
X14061800Y-6327400D02*
X14141800Y-6327400D01*
X15685200Y-6898000D02*
X15685200Y-6978000D01*
X15645200Y-6938000D02*
X15725200Y-6938000D01*
X15685200Y-7660000D02*
X15685200Y-7740000D01*
X15645200Y-7700000D02*
X15725200Y-7700000D01*
X15853200Y-7928000D02*
X15853200Y-8008000D01*
X15813200Y-7968000D02*
X15893200Y-7968000D01*
X15853200Y-8690000D02*
X15853200Y-8770000D01*
X15813200Y-8730000D02*
X15893200Y-8730000D01*
X14742815Y-4260607D02*
X14742815Y-4197745D01*
X14679952Y-4197745D01*
X14679952Y-4260607D01*
X14742815Y-4260607D01*
X14742815Y-5901447D02*
X14742815Y-5838584D01*
X14679952Y-5838584D01*
X14679952Y-5901447D01*
X14742815Y-5901447D01*
X14742815Y-7552447D02*
X14742815Y-7489584D01*
X14679952Y-7489584D01*
X14679952Y-7552447D01*
X14742815Y-7552447D01*
X14742815Y-9178047D02*
X14742815Y-9115185D01*
X14679952Y-9115185D01*
X14679952Y-9178047D01*
X14742815Y-9178047D01*
X14996815Y-4260607D02*
X14996815Y-4197745D01*
X14933952Y-4197745D01*
X14933952Y-4260607D01*
X14996815Y-4260607D01*
X14996815Y-5901447D02*
X14996815Y-5838584D01*
X14933952Y-5838584D01*
X14933952Y-5901447D01*
X14996815Y-5901447D01*
X14996815Y-7552447D02*
X14996815Y-7489584D01*
X14933952Y-7489584D01*
X14933952Y-7552447D01*
X14996815Y-7552447D01*
X14996815Y-9178047D02*
X14996815Y-9115185D01*
X14933952Y-9115185D01*
X14933952Y-9178047D01*
X14996815Y-9178047D01*
X15250815Y-4260607D02*
X15250815Y-4197745D01*
X15187952Y-4197745D01*
X15187952Y-4260607D01*
X15250815Y-4260607D01*
X15250815Y-5901447D02*
X15250815Y-5838584D01*
X15187952Y-5838584D01*
X15187952Y-5901447D01*
X15250815Y-5901447D01*
X15250815Y-7552447D02*
X15250815Y-7489584D01*
X15187952Y-7489584D01*
X15187952Y-7552447D01*
X15250815Y-7552447D01*
X15250815Y-9178047D02*
X15250815Y-9115185D01*
X15187952Y-9115185D01*
X15187952Y-9178047D01*
X15250815Y-9178047D01*
X10204000Y-4244853D02*
X10254000Y-4194853D01*
X10204000Y-4144853D01*
X10154000Y-4194853D01*
X10204000Y-4244853D01*
X10204000Y-4498853D02*
X10254000Y-4448853D01*
X10204000Y-4398853D01*
X10154000Y-4448853D01*
X10204000Y-4498853D01*
X10204000Y-4752853D02*
X10254000Y-4702853D01*
X10204000Y-4652853D01*
X10154000Y-4702853D01*
X10204000Y-4752853D01*
X10204000Y-5006853D02*
X10254000Y-4956853D01*
X10204000Y-4906853D01*
X10154000Y-4956853D01*
X10204000Y-5006853D01*
X10207000Y-6835853D02*
X10257000Y-6785853D01*
X10207000Y-6735853D01*
X10157000Y-6785853D01*
X10207000Y-6835853D01*
X10207000Y-7089853D02*
X10257000Y-7039853D01*
X10207000Y-6989853D01*
X10157000Y-7039853D01*
X10207000Y-7089853D01*
X10207000Y-7343853D02*
X10257000Y-7293853D01*
X10207000Y-7243853D01*
X10157000Y-7293853D01*
X10207000Y-7343853D01*
X10207000Y-7597853D02*
X10257000Y-7547853D01*
X10207000Y-7497853D01*
X10157000Y-7547853D01*
X10207000Y-7597853D01*
X10207000Y-10866853D02*
X10257000Y-10816853D01*
X10207000Y-10766853D01*
X10157000Y-10816853D01*
X10207000Y-10866853D01*
X10207000Y-11120853D02*
X10257000Y-11070853D01*
X10207000Y-11020853D01*
X10157000Y-11070853D01*
X10207000Y-11120853D01*
X10207000Y-11374853D02*
X10257000Y-11324853D01*
X10207000Y-11274853D01*
X10157000Y-11324853D01*
X10207000Y-11374853D01*
X10207000Y-11628853D02*
X10257000Y-11578853D01*
X10207000Y-11528853D01*
X10157000Y-11578853D01*
X10207000Y-11628853D01*
X10686000Y-14316853D02*
X10736000Y-14266853D01*
X10686000Y-14216853D01*
X10636000Y-14266853D01*
X10686000Y-14316853D01*
X10686000Y-14570853D02*
X10736000Y-14520853D01*
X10686000Y-14470853D01*
X10636000Y-14520853D01*
X10686000Y-14570853D01*
X10940000Y-14316853D02*
X10990000Y-14266853D01*
X10940000Y-14216853D01*
X10890000Y-14266853D01*
X10940000Y-14316853D01*
X10940000Y-14570853D02*
X10990000Y-14520853D01*
X10940000Y-14470853D01*
X10890000Y-14520853D01*
X10940000Y-14570853D01*
X11194000Y-14316853D02*
X11244000Y-14266853D01*
X11194000Y-14216853D01*
X11144000Y-14266853D01*
X11194000Y-14316853D01*
X11194000Y-14570853D02*
X11244000Y-14520853D01*
X11194000Y-14470853D01*
X11144000Y-14520853D01*
X11194000Y-14570853D01*
X11448000Y-14316853D02*
X11498000Y-14266853D01*
X11448000Y-14216853D01*
X11398000Y-14266853D01*
X11448000Y-14316853D01*
X11448000Y-14570853D02*
X11498000Y-14520853D01*
X11448000Y-14470853D01*
X11398000Y-14520853D01*
X11448000Y-14570853D01*
X11702000Y-14316853D02*
X11752000Y-14266853D01*
X11702000Y-14216853D01*
X11652000Y-14266853D01*
X11702000Y-14316853D01*
X11702000Y-14570853D02*
X11752000Y-14520853D01*
X11702000Y-14470853D01*
X11652000Y-14520853D01*
X11702000Y-14570853D01*
X12136000Y-11011253D02*
X12186000Y-10961253D01*
X12136000Y-10911253D01*
X12086000Y-10961253D01*
X12136000Y-11011253D01*
X12136000Y-11265253D02*
X12186000Y-11215253D01*
X12136000Y-11165253D01*
X12086000Y-11215253D01*
X12136000Y-11265253D01*
X12136000Y-11519253D02*
X12186000Y-11469253D01*
X12136000Y-11419253D01*
X12086000Y-11469253D01*
X12136000Y-11519253D01*
X12136000Y-11773253D02*
X12186000Y-11723253D01*
X12136000Y-11673253D01*
X12086000Y-11723253D01*
X12136000Y-11773253D01*
X12138000Y-4246853D02*
X12188000Y-4196853D01*
X12138000Y-4146853D01*
X12088000Y-4196853D01*
X12138000Y-4246853D01*
X12138000Y-4500853D02*
X12188000Y-4450853D01*
X12138000Y-4400853D01*
X12088000Y-4450853D01*
X12138000Y-4500853D01*
X12138000Y-4754853D02*
X12188000Y-4704853D01*
X12138000Y-4654853D01*
X12088000Y-4704853D01*
X12138000Y-4754853D01*
X12138000Y-5008853D02*
X12188000Y-4958853D01*
X12138000Y-4908853D01*
X12088000Y-4958853D01*
X12138000Y-5008853D01*
X14013000Y-4203000D02*
X14063000Y-4153000D01*
X14013000Y-4103000D01*
X13963000Y-4153000D01*
X14013000Y-4203000D01*
X14013000Y-4457000D02*
X14063000Y-4407000D01*
X14013000Y-4357000D01*
X13963000Y-4407000D01*
X14013000Y-4457000D01*
X14013000Y-4711000D02*
X14063000Y-4661000D01*
X14013000Y-4611000D01*
X13963000Y-4661000D01*
X14013000Y-4711000D01*
X14013000Y-4965000D02*
X14063000Y-4915000D01*
X14013000Y-4865000D01*
X13963000Y-4915000D01*
X14013000Y-4965000D01*
X14016000Y-6794000D02*
X14066000Y-6744000D01*
X14016000Y-6694000D01*
X13966000Y-6744000D01*
X14016000Y-6794000D01*
X14016000Y-7048000D02*
X14066000Y-6998000D01*
X14016000Y-6948000D01*
X13966000Y-6998000D01*
X14016000Y-7048000D01*
X14016000Y-7302000D02*
X14066000Y-7252000D01*
X14016000Y-7202000D01*
X13966000Y-7252000D01*
X14016000Y-7302000D01*
X14016000Y-7556000D02*
X14066000Y-7506000D01*
X14016000Y-7456000D01*
X13966000Y-7506000D01*
X14016000Y-7556000D01*
X14017000Y-10824000D02*
X14067000Y-10774000D01*
X14017000Y-10724000D01*
X13967000Y-10774000D01*
X14017000Y-10824000D01*
X14017000Y-11078000D02*
X14067000Y-11028000D01*
X14017000Y-10978000D01*
X13967000Y-11028000D01*
X14017000Y-11078000D01*
X14017000Y-11332000D02*
X14067000Y-11282000D01*
X14017000Y-11232000D01*
X13967000Y-11282000D01*
X14017000Y-11332000D01*
X14017000Y-11586000D02*
X14067000Y-11536000D01*
X14017000Y-11486000D01*
X13967000Y-11536000D01*
X14017000Y-11586000D01*
X15945000Y-10969400D02*
X15995000Y-10919400D01*
X15945000Y-10869400D01*
X15895000Y-10919400D01*
X15945000Y-10969400D01*
X15945000Y-11223400D02*
X15995000Y-11173400D01*
X15945000Y-11123400D01*
X15895000Y-11173400D01*
X15945000Y-11223400D01*
X15945000Y-11477400D02*
X15995000Y-11427400D01*
X15945000Y-11377400D01*
X15895000Y-11427400D01*
X15945000Y-11477400D01*
X15945000Y-11731400D02*
X15995000Y-11681400D01*
X15945000Y-11631400D01*
X15895000Y-11681400D01*
X15945000Y-11731400D01*
X15947000Y-4205000D02*
X15997000Y-4155000D01*
X15947000Y-4105000D01*
X15897000Y-4155000D01*
X15947000Y-4205000D01*
X15947000Y-4459000D02*
X15997000Y-4409000D01*
X15947000Y-4359000D01*
X15897000Y-4409000D01*
X15947000Y-4459000D01*
X15947000Y-4713000D02*
X15997000Y-4663000D01*
X15947000Y-4613000D01*
X15897000Y-4663000D01*
X15947000Y-4713000D01*
X15947000Y-4967000D02*
X15997000Y-4917000D01*
X15947000Y-4867000D01*
X15897000Y-4917000D01*
X15947000Y-4967000D01*
D13*
X15778962Y-6378962D02*
X15879038Y-6479038D01*
X15879038Y-6378962D02*
X15778962Y-6479038D01*
X15879038Y-6429000D02*
G75*
G03*
X15778962Y-6429000I-50038J0D01*
G01*
X15778962Y-6429000D02*
G75*
G03*
X15879038Y-6429000I50038J0D01*
G01*
X15778962Y-6632962D02*
X15879038Y-6733038D01*
X15879038Y-6632962D02*
X15778962Y-6733038D01*
X15879038Y-6683000D02*
G75*
G03*
X15778962Y-6683000I-50038J0D01*
G01*
X15778962Y-6683000D02*
G75*
G03*
X15879038Y-6683000I50038J0D01*
G01*
X15778962Y-9655562D02*
X15879038Y-9755638D01*
X15879038Y-9655562D02*
X15778962Y-9755638D01*
X15879038Y-9705600D02*
G75*
G03*
X15778962Y-9705600I-50038J0D01*
G01*
X15778962Y-9705600D02*
G75*
G03*
X15879038Y-9705600I50038J0D01*
G01*
X15778962Y-9909562D02*
X15879038Y-10009638D01*
X15879038Y-9909562D02*
X15778962Y-10009638D01*
X15879038Y-9959600D02*
G75*
G03*
X15778962Y-9959600I-50038J0D01*
G01*
X15778962Y-9959600D02*
G75*
G03*
X15879038Y-9959600I50038J0D01*
G01*
D14*
X14477900Y-10896700D02*
X14602900Y-11021700D01*
X14602900Y-10896700D02*
X14477900Y-11021700D01*
X14540400Y-10896700D02*
X14540400Y-11021700D01*
X14477900Y-10959200D02*
X14602900Y-10959200D01*
D12*
X14477900Y-10896700D02*
X14477900Y-11021700D01*
X14477900Y-11021700D02*
G75*
G03*
X14602900Y-11021700I62500J0D01*
G01*
X14602900Y-11021700D02*
X14602900Y-10896700D01*
X14602900Y-10896700D02*
G75*
G03*
X14477900Y-10896700I-62500J0D01*
G01*
D14*
X14902900Y-10887700D02*
X15027900Y-11012700D01*
X15027900Y-10887700D02*
X14902900Y-11012700D01*
X14965400Y-10887700D02*
X14965400Y-11012700D01*
X14902900Y-10950200D02*
X15027900Y-10950200D01*
D12*
X14902900Y-10887700D02*
X14902900Y-11012700D01*
X14902900Y-11012700D02*
G75*
G03*
X15027900Y-11012700I62500J0D01*
G01*
X15027900Y-11012700D02*
X15027900Y-10887700D01*
X15027900Y-10887700D02*
G75*
G03*
X14902900Y-10887700I-62500J0D01*
G01*
D14*
X15327900Y-10896700D02*
X15452900Y-11021700D01*
X15452900Y-10896700D02*
X15327900Y-11021700D01*
X15390400Y-10896700D02*
X15390400Y-11021700D01*
X15327900Y-10959200D02*
X15452900Y-10959200D01*
D12*
X15327900Y-10896700D02*
X15327900Y-11021700D01*
X15327900Y-11021700D02*
G75*
G03*
X15452900Y-11021700I62500J0D01*
G01*
X15452900Y-11021700D02*
X15452900Y-10896700D01*
X15452900Y-10896700D02*
G75*
G03*
X15327900Y-10896700I-62500J0D01*
G01*
D15*
X14337200Y-11808400D02*
X14497200Y-11968400D01*
X14497200Y-11808400D02*
X14337200Y-11968400D01*
X14473769Y-11944969D02*
X14473769Y-11831831D01*
X14360631Y-11831831D01*
X14360631Y-11944969D01*
X14473769Y-11944969D01*
X14337200Y-12638400D02*
X14497200Y-12798400D01*
X14497200Y-12638400D02*
X14337200Y-12798400D01*
X14473769Y-12774969D02*
X14473769Y-12661831D01*
X14360631Y-12661831D01*
X14360631Y-12774969D01*
X14473769Y-12774969D01*
X14337200Y-12948400D02*
X14497200Y-13108400D01*
X14497200Y-12948400D02*
X14337200Y-13108400D01*
X14473769Y-13084969D02*
X14473769Y-12971831D01*
X14360631Y-12971831D01*
X14360631Y-13084969D01*
X14473769Y-13084969D01*
X14337200Y-13320400D02*
X14497200Y-13480400D01*
X14497200Y-13320400D02*
X14337200Y-13480400D01*
X14473769Y-13456969D02*
X14473769Y-13343831D01*
X14360631Y-13343831D01*
X14360631Y-13456969D01*
X14473769Y-13456969D01*
X14337200Y-14150400D02*
X14497200Y-14310400D01*
X14497200Y-14150400D02*
X14337200Y-14310400D01*
X14473769Y-14286969D02*
X14473769Y-14173831D01*
X14360631Y-14173831D01*
X14360631Y-14286969D01*
X14473769Y-14286969D01*
X14337200Y-14460400D02*
X14497200Y-14620400D01*
X14497200Y-14460400D02*
X14337200Y-14620400D01*
X14473769Y-14596969D02*
X14473769Y-14483831D01*
X14360631Y-14483831D01*
X14360631Y-14596969D01*
X14473769Y-14596969D01*
X15427200Y-11810000D02*
X15587200Y-11970000D01*
X15587200Y-11810000D02*
X15427200Y-11970000D01*
X15563769Y-11946569D02*
X15563769Y-11833431D01*
X15450631Y-11833431D01*
X15450631Y-11946569D01*
X15563769Y-11946569D01*
X15427200Y-12640000D02*
X15587200Y-12800000D01*
X15587200Y-12640000D02*
X15427200Y-12800000D01*
X15563769Y-12776569D02*
X15563769Y-12663431D01*
X15450631Y-12663431D01*
X15450631Y-12776569D01*
X15563769Y-12776569D01*
X15427200Y-12950000D02*
X15587200Y-13110000D01*
X15587200Y-12950000D02*
X15427200Y-13110000D01*
X15563769Y-13086569D02*
X15563769Y-12973431D01*
X15450631Y-12973431D01*
X15450631Y-13086569D01*
X15563769Y-13086569D01*
X15437200Y-13320400D02*
X15597200Y-13480400D01*
X15597200Y-13320400D02*
X15437200Y-13480400D01*
X15573769Y-13456969D02*
X15573769Y-13343831D01*
X15460631Y-13343831D01*
X15460631Y-13456969D01*
X15573769Y-13456969D01*
X15437200Y-14150400D02*
X15597200Y-14310400D01*
X15597200Y-14150400D02*
X15437200Y-14310400D01*
X15573769Y-14286969D02*
X15573769Y-14173831D01*
X15460631Y-14173831D01*
X15460631Y-14286969D01*
X15573769Y-14286969D01*
X15437200Y-14460400D02*
X15597200Y-14620400D01*
X15597200Y-14460400D02*
X15437200Y-14620400D01*
X15573769Y-14596969D02*
X15573769Y-14483831D01*
X15460631Y-14483831D01*
X15460631Y-14596969D01*
X15573769Y-14596969D01*
D16*
X14423094Y-4827346D02*
X14628834Y-5033086D01*
X14628834Y-4827346D02*
X14423094Y-5033086D01*
X14525964Y-5033086D02*
X14628834Y-4930216D01*
X14525964Y-4827346D01*
X14423094Y-4930216D01*
X14525964Y-5033086D01*
X14423094Y-6468186D02*
X14628834Y-6673926D01*
X14628834Y-6468186D02*
X14423094Y-6673926D01*
X14525964Y-6673926D02*
X14628834Y-6571056D01*
X14525964Y-6468186D01*
X14423094Y-6571056D01*
X14525964Y-6673926D01*
X14423094Y-8119186D02*
X14628834Y-8324926D01*
X14628834Y-8119186D02*
X14423094Y-8324926D01*
X14525964Y-8324926D02*
X14628834Y-8222056D01*
X14525964Y-8119186D01*
X14423094Y-8222056D01*
X14525964Y-8324926D01*
X14423094Y-9744786D02*
X14628834Y-9950526D01*
X14628834Y-9744786D02*
X14423094Y-9950526D01*
X14525964Y-9950526D02*
X14628834Y-9847656D01*
X14525964Y-9744786D01*
X14423094Y-9847656D01*
X14525964Y-9950526D01*
X15301934Y-4827346D02*
X15507674Y-5033086D01*
X15507674Y-4827346D02*
X15301934Y-5033086D01*
X15404804Y-5033086D02*
X15507674Y-4930216D01*
X15404804Y-4827346D01*
X15301934Y-4930216D01*
X15404804Y-5033086D01*
X15301934Y-6468186D02*
X15507674Y-6673926D01*
X15507674Y-6468186D02*
X15301934Y-6673926D01*
X15404804Y-6673926D02*
X15507674Y-6571056D01*
X15404804Y-6468186D01*
X15301934Y-6571056D01*
X15404804Y-6673926D01*
X15301934Y-8119186D02*
X15507674Y-8324926D01*
X15507674Y-8119186D02*
X15301934Y-8324926D01*
X15404804Y-8324926D02*
X15507674Y-8222056D01*
X15404804Y-8119186D01*
X15301934Y-8222056D01*
X15404804Y-8324926D01*
X15301934Y-9744786D02*
X15507674Y-9950526D01*
X15507674Y-9744786D02*
X15301934Y-9950526D01*
X15404804Y-9950526D02*
X15507674Y-9847656D01*
X15404804Y-9744786D01*
X15301934Y-9847656D01*
X15404804Y-9950526D01*
D11*
X10256777Y-16247284D02*
X10256777Y-16047284D01*
X10256777Y-16047284D02*
X10304396Y-16047284D01*
X10304396Y-16047284D02*
X10332967Y-16056808D01*
X10332967Y-16056808D02*
X10352015Y-16075855D01*
X10352015Y-16075855D02*
X10361539Y-16094903D01*
X10361539Y-16094903D02*
X10371063Y-16132998D01*
X10371063Y-16132998D02*
X10371063Y-16161569D01*
X10371063Y-16161569D02*
X10361539Y-16199665D01*
X10361539Y-16199665D02*
X10352015Y-16218712D01*
X10352015Y-16218712D02*
X10332967Y-16237760D01*
X10332967Y-16237760D02*
X10304396Y-16247284D01*
X10304396Y-16247284D02*
X10256777Y-16247284D01*
X10456777Y-16247284D02*
X10456777Y-16113950D01*
X10456777Y-16152046D02*
X10466301Y-16132998D01*
X10466301Y-16132998D02*
X10475824Y-16123474D01*
X10475824Y-16123474D02*
X10494872Y-16113950D01*
X10494872Y-16113950D02*
X10513920Y-16113950D01*
X10580586Y-16247284D02*
X10580586Y-16113950D01*
X10580586Y-16047284D02*
X10571063Y-16056808D01*
X10571063Y-16056808D02*
X10580586Y-16066331D01*
X10580586Y-16066331D02*
X10590110Y-16056808D01*
X10590110Y-16056808D02*
X10580586Y-16047284D01*
X10580586Y-16047284D02*
X10580586Y-16066331D01*
X10704396Y-16247284D02*
X10685348Y-16237760D01*
X10685348Y-16237760D02*
X10675824Y-16218712D01*
X10675824Y-16218712D02*
X10675824Y-16047284D01*
X10809158Y-16247284D02*
X10790110Y-16237760D01*
X10790110Y-16237760D02*
X10780586Y-16218712D01*
X10780586Y-16218712D02*
X10780586Y-16047284D01*
X11037729Y-16247284D02*
X11037729Y-16047284D01*
X11037729Y-16047284D02*
X11104396Y-16190141D01*
X11104396Y-16190141D02*
X11171063Y-16047284D01*
X11171063Y-16047284D02*
X11171063Y-16247284D01*
X11352015Y-16247284D02*
X11352015Y-16142522D01*
X11352015Y-16142522D02*
X11342491Y-16123474D01*
X11342491Y-16123474D02*
X11323443Y-16113950D01*
X11323443Y-16113950D02*
X11285348Y-16113950D01*
X11285348Y-16113950D02*
X11266301Y-16123474D01*
X11352015Y-16237760D02*
X11332967Y-16247284D01*
X11332967Y-16247284D02*
X11285348Y-16247284D01*
X11285348Y-16247284D02*
X11266301Y-16237760D01*
X11266301Y-16237760D02*
X11256777Y-16218712D01*
X11256777Y-16218712D02*
X11256777Y-16199665D01*
X11256777Y-16199665D02*
X11266301Y-16180617D01*
X11266301Y-16180617D02*
X11285348Y-16171093D01*
X11285348Y-16171093D02*
X11332967Y-16171093D01*
X11332967Y-16171093D02*
X11352015Y-16161569D01*
X11447253Y-16113950D02*
X11447253Y-16313950D01*
X11447253Y-16123474D02*
X11466301Y-16113950D01*
X11466301Y-16113950D02*
X11504396Y-16113950D01*
X11504396Y-16113950D02*
X11523443Y-16123474D01*
X11523443Y-16123474D02*
X11532967Y-16132998D01*
X11532967Y-16132998D02*
X11542491Y-16152046D01*
X11542491Y-16152046D02*
X11542491Y-16209188D01*
X11542491Y-16209188D02*
X11532967Y-16228236D01*
X11532967Y-16228236D02*
X11523443Y-16237760D01*
X11523443Y-16237760D02*
X11504396Y-16247284D01*
X11504396Y-16247284D02*
X11466301Y-16247284D01*
X11466301Y-16247284D02*
X11447253Y-16237760D01*
X11628205Y-16228236D02*
X11637729Y-16237760D01*
X11637729Y-16237760D02*
X11628205Y-16247284D01*
X11628205Y-16247284D02*
X11618682Y-16237760D01*
X11618682Y-16237760D02*
X11628205Y-16228236D01*
X11628205Y-16228236D02*
X11628205Y-16247284D01*
X11628205Y-16123474D02*
X11637729Y-16132998D01*
X11637729Y-16132998D02*
X11628205Y-16142522D01*
X11628205Y-16142522D02*
X11618682Y-16132998D01*
X11618682Y-16132998D02*
X11628205Y-16123474D01*
X11628205Y-16123474D02*
X11628205Y-16142522D01*
D12*
X9966000Y-16560800D02*
X9996000Y-16590800D01*
X9996000Y-16560800D02*
X9966000Y-16590800D01*
D11*
X10294872Y-16467284D02*
X10313920Y-16467284D01*
X10313920Y-16467284D02*
X10332967Y-16476808D01*
X10332967Y-16476808D02*
X10342491Y-16486331D01*
X10342491Y-16486331D02*
X10352015Y-16505379D01*
X10352015Y-16505379D02*
X10361539Y-16543474D01*
X10361539Y-16543474D02*
X10361539Y-16591093D01*
X10361539Y-16591093D02*
X10352015Y-16629188D01*
X10352015Y-16629188D02*
X10342491Y-16648236D01*
X10342491Y-16648236D02*
X10332967Y-16657760D01*
X10332967Y-16657760D02*
X10313920Y-16667284D01*
X10313920Y-16667284D02*
X10294872Y-16667284D01*
X10294872Y-16667284D02*
X10275824Y-16657760D01*
X10275824Y-16657760D02*
X10266301Y-16648236D01*
X10266301Y-16648236D02*
X10256777Y-16629188D01*
X10256777Y-16629188D02*
X10247253Y-16591093D01*
X10247253Y-16591093D02*
X10247253Y-16543474D01*
X10247253Y-16543474D02*
X10256777Y-16505379D01*
X10256777Y-16505379D02*
X10266301Y-16486331D01*
X10266301Y-16486331D02*
X10275824Y-16476808D01*
X10275824Y-16476808D02*
X10294872Y-16467284D01*
X10447253Y-16648236D02*
X10456777Y-16657760D01*
X10456777Y-16657760D02*
X10447253Y-16667284D01*
X10447253Y-16667284D02*
X10437729Y-16657760D01*
X10437729Y-16657760D02*
X10447253Y-16648236D01*
X10447253Y-16648236D02*
X10447253Y-16667284D01*
X10523444Y-16467284D02*
X10647253Y-16467284D01*
X10647253Y-16467284D02*
X10580586Y-16543474D01*
X10580586Y-16543474D02*
X10609158Y-16543474D01*
X10609158Y-16543474D02*
X10628205Y-16552998D01*
X10628205Y-16552998D02*
X10637729Y-16562522D01*
X10637729Y-16562522D02*
X10647253Y-16581569D01*
X10647253Y-16581569D02*
X10647253Y-16629188D01*
X10647253Y-16629188D02*
X10637729Y-16648236D01*
X10637729Y-16648236D02*
X10628205Y-16657760D01*
X10628205Y-16657760D02*
X10609158Y-16667284D01*
X10609158Y-16667284D02*
X10552015Y-16667284D01*
X10552015Y-16667284D02*
X10532967Y-16657760D01*
X10532967Y-16657760D02*
X10523444Y-16648236D01*
X10771063Y-16467284D02*
X10790110Y-16467284D01*
X10790110Y-16467284D02*
X10809158Y-16476808D01*
X10809158Y-16476808D02*
X10818682Y-16486331D01*
X10818682Y-16486331D02*
X10828205Y-16505379D01*
X10828205Y-16505379D02*
X10837729Y-16543474D01*
X10837729Y-16543474D02*
X10837729Y-16591093D01*
X10837729Y-16591093D02*
X10828205Y-16629188D01*
X10828205Y-16629188D02*
X10818682Y-16648236D01*
X10818682Y-16648236D02*
X10809158Y-16657760D01*
X10809158Y-16657760D02*
X10790110Y-16667284D01*
X10790110Y-16667284D02*
X10771063Y-16667284D01*
X10771063Y-16667284D02*
X10752015Y-16657760D01*
X10752015Y-16657760D02*
X10742491Y-16648236D01*
X10742491Y-16648236D02*
X10732967Y-16629188D01*
X10732967Y-16629188D02*
X10723444Y-16591093D01*
X10723444Y-16591093D02*
X10723444Y-16543474D01*
X10723444Y-16543474D02*
X10732967Y-16505379D01*
X10732967Y-16505379D02*
X10742491Y-16486331D01*
X10742491Y-16486331D02*
X10752015Y-16476808D01*
X10752015Y-16476808D02*
X10771063Y-16467284D01*
X10961539Y-16467284D02*
X10980586Y-16467284D01*
X10980586Y-16467284D02*
X10999634Y-16476808D01*
X10999634Y-16476808D02*
X11009158Y-16486331D01*
X11009158Y-16486331D02*
X11018682Y-16505379D01*
X11018682Y-16505379D02*
X11028205Y-16543474D01*
X11028205Y-16543474D02*
X11028205Y-16591093D01*
X11028205Y-16591093D02*
X11018682Y-16629188D01*
X11018682Y-16629188D02*
X11009158Y-16648236D01*
X11009158Y-16648236D02*
X10999634Y-16657760D01*
X10999634Y-16657760D02*
X10980586Y-16667284D01*
X10980586Y-16667284D02*
X10961539Y-16667284D01*
X10961539Y-16667284D02*
X10942491Y-16657760D01*
X10942491Y-16657760D02*
X10932967Y-16648236D01*
X10932967Y-16648236D02*
X10923444Y-16629188D01*
X10923444Y-16629188D02*
X10913920Y-16591093D01*
X10913920Y-16591093D02*
X10913920Y-16543474D01*
X10913920Y-16543474D02*
X10923444Y-16505379D01*
X10923444Y-16505379D02*
X10932967Y-16486331D01*
X10932967Y-16486331D02*
X10942491Y-16476808D01*
X10942491Y-16476808D02*
X10961539Y-16467284D01*
X11113920Y-16667284D02*
X11113920Y-16533950D01*
X11113920Y-16552998D02*
X11123444Y-16543474D01*
X11123444Y-16543474D02*
X11142491Y-16533950D01*
X11142491Y-16533950D02*
X11171063Y-16533950D01*
X11171063Y-16533950D02*
X11190110Y-16543474D01*
X11190110Y-16543474D02*
X11199634Y-16562522D01*
X11199634Y-16562522D02*
X11199634Y-16667284D01*
X11199634Y-16562522D02*
X11209158Y-16543474D01*
X11209158Y-16543474D02*
X11228205Y-16533950D01*
X11228205Y-16533950D02*
X11256777Y-16533950D01*
X11256777Y-16533950D02*
X11275824Y-16543474D01*
X11275824Y-16543474D02*
X11285348Y-16562522D01*
X11285348Y-16562522D02*
X11285348Y-16667284D01*
X11380586Y-16667284D02*
X11380586Y-16533950D01*
X11380586Y-16552998D02*
X11390110Y-16543474D01*
X11390110Y-16543474D02*
X11409158Y-16533950D01*
X11409158Y-16533950D02*
X11437729Y-16533950D01*
X11437729Y-16533950D02*
X11456777Y-16543474D01*
X11456777Y-16543474D02*
X11466301Y-16562522D01*
X11466301Y-16562522D02*
X11466301Y-16667284D01*
X11466301Y-16562522D02*
X11475824Y-16543474D01*
X11475824Y-16543474D02*
X11494872Y-16533950D01*
X11494872Y-16533950D02*
X11523443Y-16533950D01*
X11523443Y-16533950D02*
X11542491Y-16543474D01*
X11542491Y-16543474D02*
X11552015Y-16562522D01*
X11552015Y-16562522D02*
X11552015Y-16667284D01*
X11942491Y-16457760D02*
X11771063Y-16714903D01*
X12199634Y-16467284D02*
X12218682Y-16467284D01*
X12218682Y-16467284D02*
X12237729Y-16476808D01*
X12237729Y-16476808D02*
X12247253Y-16486331D01*
X12247253Y-16486331D02*
X12256777Y-16505379D01*
X12256777Y-16505379D02*
X12266301Y-16543474D01*
X12266301Y-16543474D02*
X12266301Y-16591093D01*
X12266301Y-16591093D02*
X12256777Y-16629188D01*
X12256777Y-16629188D02*
X12247253Y-16648236D01*
X12247253Y-16648236D02*
X12237729Y-16657760D01*
X12237729Y-16657760D02*
X12218682Y-16667284D01*
X12218682Y-16667284D02*
X12199634Y-16667284D01*
X12199634Y-16667284D02*
X12180586Y-16657760D01*
X12180586Y-16657760D02*
X12171063Y-16648236D01*
X12171063Y-16648236D02*
X12161539Y-16629188D01*
X12161539Y-16629188D02*
X12152015Y-16591093D01*
X12152015Y-16591093D02*
X12152015Y-16543474D01*
X12152015Y-16543474D02*
X12161539Y-16505379D01*
X12161539Y-16505379D02*
X12171063Y-16486331D01*
X12171063Y-16486331D02*
X12180586Y-16476808D01*
X12180586Y-16476808D02*
X12199634Y-16467284D01*
X12352015Y-16648236D02*
X12361539Y-16657760D01*
X12361539Y-16657760D02*
X12352015Y-16667284D01*
X12352015Y-16667284D02*
X12342491Y-16657760D01*
X12342491Y-16657760D02*
X12352015Y-16648236D01*
X12352015Y-16648236D02*
X12352015Y-16667284D01*
X12485348Y-16467284D02*
X12504396Y-16467284D01*
X12504396Y-16467284D02*
X12523444Y-16476808D01*
X12523444Y-16476808D02*
X12532967Y-16486331D01*
X12532967Y-16486331D02*
X12542491Y-16505379D01*
X12542491Y-16505379D02*
X12552015Y-16543474D01*
X12552015Y-16543474D02*
X12552015Y-16591093D01*
X12552015Y-16591093D02*
X12542491Y-16629188D01*
X12542491Y-16629188D02*
X12532967Y-16648236D01*
X12532967Y-16648236D02*
X12523444Y-16657760D01*
X12523444Y-16657760D02*
X12504396Y-16667284D01*
X12504396Y-16667284D02*
X12485348Y-16667284D01*
X12485348Y-16667284D02*
X12466301Y-16657760D01*
X12466301Y-16657760D02*
X12456777Y-16648236D01*
X12456777Y-16648236D02*
X12447253Y-16629188D01*
X12447253Y-16629188D02*
X12437729Y-16591093D01*
X12437729Y-16591093D02*
X12437729Y-16543474D01*
X12437729Y-16543474D02*
X12447253Y-16505379D01*
X12447253Y-16505379D02*
X12456777Y-16486331D01*
X12456777Y-16486331D02*
X12466301Y-16476808D01*
X12466301Y-16476808D02*
X12485348Y-16467284D01*
X12742491Y-16667284D02*
X12628206Y-16667284D01*
X12685348Y-16667284D02*
X12685348Y-16467284D01*
X12685348Y-16467284D02*
X12666301Y-16495855D01*
X12666301Y-16495855D02*
X12647253Y-16514903D01*
X12647253Y-16514903D02*
X12628206Y-16524427D01*
X12932967Y-16667284D02*
X12818682Y-16667284D01*
X12875825Y-16667284D02*
X12875825Y-16467284D01*
X12875825Y-16467284D02*
X12856777Y-16495855D01*
X12856777Y-16495855D02*
X12837729Y-16514903D01*
X12837729Y-16514903D02*
X12818682Y-16524427D01*
X13047253Y-16552998D02*
X13028206Y-16543474D01*
X13028206Y-16543474D02*
X13018682Y-16533950D01*
X13018682Y-16533950D02*
X13009158Y-16514903D01*
X13009158Y-16514903D02*
X13009158Y-16505379D01*
X13009158Y-16505379D02*
X13018682Y-16486331D01*
X13018682Y-16486331D02*
X13028206Y-16476808D01*
X13028206Y-16476808D02*
X13047253Y-16467284D01*
X13047253Y-16467284D02*
X13085348Y-16467284D01*
X13085348Y-16467284D02*
X13104396Y-16476808D01*
X13104396Y-16476808D02*
X13113920Y-16486331D01*
X13113920Y-16486331D02*
X13123444Y-16505379D01*
X13123444Y-16505379D02*
X13123444Y-16514903D01*
X13123444Y-16514903D02*
X13113920Y-16533950D01*
X13113920Y-16533950D02*
X13104396Y-16543474D01*
X13104396Y-16543474D02*
X13085348Y-16552998D01*
X13085348Y-16552998D02*
X13047253Y-16552998D01*
X13047253Y-16552998D02*
X13028206Y-16562522D01*
X13028206Y-16562522D02*
X13018682Y-16572046D01*
X13018682Y-16572046D02*
X13009158Y-16591093D01*
X13009158Y-16591093D02*
X13009158Y-16629188D01*
X13009158Y-16629188D02*
X13018682Y-16648236D01*
X13018682Y-16648236D02*
X13028206Y-16657760D01*
X13028206Y-16657760D02*
X13047253Y-16667284D01*
X13047253Y-16667284D02*
X13085348Y-16667284D01*
X13085348Y-16667284D02*
X13104396Y-16657760D01*
X13104396Y-16657760D02*
X13113920Y-16648236D01*
X13113920Y-16648236D02*
X13123444Y-16629188D01*
X13123444Y-16629188D02*
X13123444Y-16591093D01*
X13123444Y-16591093D02*
X13113920Y-16572046D01*
X13113920Y-16572046D02*
X13104396Y-16562522D01*
X13104396Y-16562522D02*
X13085348Y-16552998D01*
X13199634Y-16467284D02*
X13199634Y-16505379D01*
X13275825Y-16467284D02*
X13275825Y-16505379D01*
X13571063Y-16743474D02*
X13561539Y-16733950D01*
X13561539Y-16733950D02*
X13542491Y-16705379D01*
X13542491Y-16705379D02*
X13532968Y-16686331D01*
X13532968Y-16686331D02*
X13523444Y-16657760D01*
X13523444Y-16657760D02*
X13513920Y-16610141D01*
X13513920Y-16610141D02*
X13513920Y-16572046D01*
X13513920Y-16572046D02*
X13523444Y-16524427D01*
X13523444Y-16524427D02*
X13532968Y-16495855D01*
X13532968Y-16495855D02*
X13542491Y-16476808D01*
X13542491Y-16476808D02*
X13561539Y-16448236D01*
X13561539Y-16448236D02*
X13571063Y-16438712D01*
X13675825Y-16552998D02*
X13656777Y-16543474D01*
X13656777Y-16543474D02*
X13647253Y-16533950D01*
X13647253Y-16533950D02*
X13637729Y-16514903D01*
X13637729Y-16514903D02*
X13637729Y-16505379D01*
X13637729Y-16505379D02*
X13647253Y-16486331D01*
X13647253Y-16486331D02*
X13656777Y-16476808D01*
X13656777Y-16476808D02*
X13675825Y-16467284D01*
X13675825Y-16467284D02*
X13713920Y-16467284D01*
X13713920Y-16467284D02*
X13732968Y-16476808D01*
X13732968Y-16476808D02*
X13742491Y-16486331D01*
X13742491Y-16486331D02*
X13752015Y-16505379D01*
X13752015Y-16505379D02*
X13752015Y-16514903D01*
X13752015Y-16514903D02*
X13742491Y-16533950D01*
X13742491Y-16533950D02*
X13732968Y-16543474D01*
X13732968Y-16543474D02*
X13713920Y-16552998D01*
X13713920Y-16552998D02*
X13675825Y-16552998D01*
X13675825Y-16552998D02*
X13656777Y-16562522D01*
X13656777Y-16562522D02*
X13647253Y-16572046D01*
X13647253Y-16572046D02*
X13637729Y-16591093D01*
X13637729Y-16591093D02*
X13637729Y-16629188D01*
X13637729Y-16629188D02*
X13647253Y-16648236D01*
X13647253Y-16648236D02*
X13656777Y-16657760D01*
X13656777Y-16657760D02*
X13675825Y-16667284D01*
X13675825Y-16667284D02*
X13713920Y-16667284D01*
X13713920Y-16667284D02*
X13732968Y-16657760D01*
X13732968Y-16657760D02*
X13742491Y-16648236D01*
X13742491Y-16648236D02*
X13752015Y-16629188D01*
X13752015Y-16629188D02*
X13752015Y-16591093D01*
X13752015Y-16591093D02*
X13742491Y-16572046D01*
X13742491Y-16572046D02*
X13732968Y-16562522D01*
X13732968Y-16562522D02*
X13713920Y-16552998D01*
X13847253Y-16667284D02*
X13885348Y-16667284D01*
X13885348Y-16667284D02*
X13904396Y-16657760D01*
X13904396Y-16657760D02*
X13913920Y-16648236D01*
X13913920Y-16648236D02*
X13932968Y-16619665D01*
X13932968Y-16619665D02*
X13942491Y-16581569D01*
X13942491Y-16581569D02*
X13942491Y-16505379D01*
X13942491Y-16505379D02*
X13932968Y-16486331D01*
X13932968Y-16486331D02*
X13923444Y-16476808D01*
X13923444Y-16476808D02*
X13904396Y-16467284D01*
X13904396Y-16467284D02*
X13866301Y-16467284D01*
X13866301Y-16467284D02*
X13847253Y-16476808D01*
X13847253Y-16476808D02*
X13837729Y-16486331D01*
X13837729Y-16486331D02*
X13828206Y-16505379D01*
X13828206Y-16505379D02*
X13828206Y-16552998D01*
X13828206Y-16552998D02*
X13837729Y-16572046D01*
X13837729Y-16572046D02*
X13847253Y-16581569D01*
X13847253Y-16581569D02*
X13866301Y-16591093D01*
X13866301Y-16591093D02*
X13904396Y-16591093D01*
X13904396Y-16591093D02*
X13923444Y-16581569D01*
X13923444Y-16581569D02*
X13932968Y-16572046D01*
X13932968Y-16572046D02*
X13942491Y-16552998D01*
X14180587Y-16667284D02*
X14180587Y-16467284D01*
X14266301Y-16667284D02*
X14266301Y-16562522D01*
X14266301Y-16562522D02*
X14256777Y-16543474D01*
X14256777Y-16543474D02*
X14237730Y-16533950D01*
X14237730Y-16533950D02*
X14209158Y-16533950D01*
X14209158Y-16533950D02*
X14190110Y-16543474D01*
X14190110Y-16543474D02*
X14180587Y-16552998D01*
X14390110Y-16667284D02*
X14371063Y-16657760D01*
X14371063Y-16657760D02*
X14361539Y-16648236D01*
X14361539Y-16648236D02*
X14352015Y-16629188D01*
X14352015Y-16629188D02*
X14352015Y-16572046D01*
X14352015Y-16572046D02*
X14361539Y-16552998D01*
X14361539Y-16552998D02*
X14371063Y-16543474D01*
X14371063Y-16543474D02*
X14390110Y-16533950D01*
X14390110Y-16533950D02*
X14418682Y-16533950D01*
X14418682Y-16533950D02*
X14437730Y-16543474D01*
X14437730Y-16543474D02*
X14447253Y-16552998D01*
X14447253Y-16552998D02*
X14456777Y-16572046D01*
X14456777Y-16572046D02*
X14456777Y-16629188D01*
X14456777Y-16629188D02*
X14447253Y-16648236D01*
X14447253Y-16648236D02*
X14437730Y-16657760D01*
X14437730Y-16657760D02*
X14418682Y-16667284D01*
X14418682Y-16667284D02*
X14390110Y-16667284D01*
X14571063Y-16667284D02*
X14552015Y-16657760D01*
X14552015Y-16657760D02*
X14542491Y-16638712D01*
X14542491Y-16638712D02*
X14542491Y-16467284D01*
X14723444Y-16657760D02*
X14704396Y-16667284D01*
X14704396Y-16667284D02*
X14666301Y-16667284D01*
X14666301Y-16667284D02*
X14647253Y-16657760D01*
X14647253Y-16657760D02*
X14637730Y-16638712D01*
X14637730Y-16638712D02*
X14637730Y-16562522D01*
X14637730Y-16562522D02*
X14647253Y-16543474D01*
X14647253Y-16543474D02*
X14666301Y-16533950D01*
X14666301Y-16533950D02*
X14704396Y-16533950D01*
X14704396Y-16533950D02*
X14723444Y-16543474D01*
X14723444Y-16543474D02*
X14732968Y-16562522D01*
X14732968Y-16562522D02*
X14732968Y-16581569D01*
X14732968Y-16581569D02*
X14637730Y-16600617D01*
X14809158Y-16657760D02*
X14828206Y-16667284D01*
X14828206Y-16667284D02*
X14866301Y-16667284D01*
X14866301Y-16667284D02*
X14885349Y-16657760D01*
X14885349Y-16657760D02*
X14894872Y-16638712D01*
X14894872Y-16638712D02*
X14894872Y-16629188D01*
X14894872Y-16629188D02*
X14885349Y-16610141D01*
X14885349Y-16610141D02*
X14866301Y-16600617D01*
X14866301Y-16600617D02*
X14837730Y-16600617D01*
X14837730Y-16600617D02*
X14818682Y-16591093D01*
X14818682Y-16591093D02*
X14809158Y-16572046D01*
X14809158Y-16572046D02*
X14809158Y-16562522D01*
X14809158Y-16562522D02*
X14818682Y-16543474D01*
X14818682Y-16543474D02*
X14837730Y-16533950D01*
X14837730Y-16533950D02*
X14866301Y-16533950D01*
X14866301Y-16533950D02*
X14885349Y-16543474D01*
X14961539Y-16743474D02*
X14971063Y-16733950D01*
X14971063Y-16733950D02*
X14990111Y-16705379D01*
X14990111Y-16705379D02*
X14999634Y-16686331D01*
X14999634Y-16686331D02*
X15009158Y-16657760D01*
X15009158Y-16657760D02*
X15018682Y-16610141D01*
X15018682Y-16610141D02*
X15018682Y-16572046D01*
X15018682Y-16572046D02*
X15009158Y-16524427D01*
X15009158Y-16524427D02*
X14999634Y-16495855D01*
X14999634Y-16495855D02*
X14990111Y-16476808D01*
X14990111Y-16476808D02*
X14971063Y-16448236D01*
X14971063Y-16448236D02*
X14961539Y-16438712D01*
D12*
X9996000Y-16839800D02*
G75*
G03*
X9921000Y-16839800I-37500J0D01*
G01*
X9921000Y-16839800D02*
G75*
G03*
X9996000Y-16839800I37500J0D01*
G01*
D11*
X10294872Y-16731284D02*
X10313920Y-16731284D01*
X10313920Y-16731284D02*
X10332967Y-16740808D01*
X10332967Y-16740808D02*
X10342491Y-16750331D01*
X10342491Y-16750331D02*
X10352015Y-16769379D01*
X10352015Y-16769379D02*
X10361539Y-16807474D01*
X10361539Y-16807474D02*
X10361539Y-16855093D01*
X10361539Y-16855093D02*
X10352015Y-16893189D01*
X10352015Y-16893189D02*
X10342491Y-16912236D01*
X10342491Y-16912236D02*
X10332967Y-16921760D01*
X10332967Y-16921760D02*
X10313920Y-16931284D01*
X10313920Y-16931284D02*
X10294872Y-16931284D01*
X10294872Y-16931284D02*
X10275824Y-16921760D01*
X10275824Y-16921760D02*
X10266301Y-16912236D01*
X10266301Y-16912236D02*
X10256777Y-16893189D01*
X10256777Y-16893189D02*
X10247253Y-16855093D01*
X10247253Y-16855093D02*
X10247253Y-16807474D01*
X10247253Y-16807474D02*
X10256777Y-16769379D01*
X10256777Y-16769379D02*
X10266301Y-16750331D01*
X10266301Y-16750331D02*
X10275824Y-16740808D01*
X10275824Y-16740808D02*
X10294872Y-16731284D01*
X10447253Y-16912236D02*
X10456777Y-16921760D01*
X10456777Y-16921760D02*
X10447253Y-16931284D01*
X10447253Y-16931284D02*
X10437729Y-16921760D01*
X10437729Y-16921760D02*
X10447253Y-16912236D01*
X10447253Y-16912236D02*
X10447253Y-16931284D01*
X10523444Y-16731284D02*
X10656777Y-16731284D01*
X10656777Y-16731284D02*
X10571063Y-16931284D01*
X10828205Y-16731284D02*
X10732967Y-16731284D01*
X10732967Y-16731284D02*
X10723444Y-16826522D01*
X10723444Y-16826522D02*
X10732967Y-16816998D01*
X10732967Y-16816998D02*
X10752015Y-16807474D01*
X10752015Y-16807474D02*
X10799634Y-16807474D01*
X10799634Y-16807474D02*
X10818682Y-16816998D01*
X10818682Y-16816998D02*
X10828205Y-16826522D01*
X10828205Y-16826522D02*
X10837729Y-16845570D01*
X10837729Y-16845570D02*
X10837729Y-16893189D01*
X10837729Y-16893189D02*
X10828205Y-16912236D01*
X10828205Y-16912236D02*
X10818682Y-16921760D01*
X10818682Y-16921760D02*
X10799634Y-16931284D01*
X10799634Y-16931284D02*
X10752015Y-16931284D01*
X10752015Y-16931284D02*
X10732967Y-16921760D01*
X10732967Y-16921760D02*
X10723444Y-16912236D01*
X10961539Y-16731284D02*
X10980586Y-16731284D01*
X10980586Y-16731284D02*
X10999634Y-16740808D01*
X10999634Y-16740808D02*
X11009158Y-16750331D01*
X11009158Y-16750331D02*
X11018682Y-16769379D01*
X11018682Y-16769379D02*
X11028205Y-16807474D01*
X11028205Y-16807474D02*
X11028205Y-16855093D01*
X11028205Y-16855093D02*
X11018682Y-16893189D01*
X11018682Y-16893189D02*
X11009158Y-16912236D01*
X11009158Y-16912236D02*
X10999634Y-16921760D01*
X10999634Y-16921760D02*
X10980586Y-16931284D01*
X10980586Y-16931284D02*
X10961539Y-16931284D01*
X10961539Y-16931284D02*
X10942491Y-16921760D01*
X10942491Y-16921760D02*
X10932967Y-16912236D01*
X10932967Y-16912236D02*
X10923444Y-16893189D01*
X10923444Y-16893189D02*
X10913920Y-16855093D01*
X10913920Y-16855093D02*
X10913920Y-16807474D01*
X10913920Y-16807474D02*
X10923444Y-16769379D01*
X10923444Y-16769379D02*
X10932967Y-16750331D01*
X10932967Y-16750331D02*
X10942491Y-16740808D01*
X10942491Y-16740808D02*
X10961539Y-16731284D01*
X11113920Y-16931284D02*
X11113920Y-16797950D01*
X11113920Y-16816998D02*
X11123444Y-16807474D01*
X11123444Y-16807474D02*
X11142491Y-16797950D01*
X11142491Y-16797950D02*
X11171063Y-16797950D01*
X11171063Y-16797950D02*
X11190110Y-16807474D01*
X11190110Y-16807474D02*
X11199634Y-16826522D01*
X11199634Y-16826522D02*
X11199634Y-16931284D01*
X11199634Y-16826522D02*
X11209158Y-16807474D01*
X11209158Y-16807474D02*
X11228205Y-16797950D01*
X11228205Y-16797950D02*
X11256777Y-16797950D01*
X11256777Y-16797950D02*
X11275824Y-16807474D01*
X11275824Y-16807474D02*
X11285348Y-16826522D01*
X11285348Y-16826522D02*
X11285348Y-16931284D01*
X11380586Y-16931284D02*
X11380586Y-16797950D01*
X11380586Y-16816998D02*
X11390110Y-16807474D01*
X11390110Y-16807474D02*
X11409158Y-16797950D01*
X11409158Y-16797950D02*
X11437729Y-16797950D01*
X11437729Y-16797950D02*
X11456777Y-16807474D01*
X11456777Y-16807474D02*
X11466301Y-16826522D01*
X11466301Y-16826522D02*
X11466301Y-16931284D01*
X11466301Y-16826522D02*
X11475824Y-16807474D01*
X11475824Y-16807474D02*
X11494872Y-16797950D01*
X11494872Y-16797950D02*
X11523443Y-16797950D01*
X11523443Y-16797950D02*
X11542491Y-16807474D01*
X11542491Y-16807474D02*
X11552015Y-16826522D01*
X11552015Y-16826522D02*
X11552015Y-16931284D01*
X11942491Y-16721760D02*
X11771063Y-16978903D01*
X12199634Y-16731284D02*
X12218682Y-16731284D01*
X12218682Y-16731284D02*
X12237729Y-16740808D01*
X12237729Y-16740808D02*
X12247253Y-16750331D01*
X12247253Y-16750331D02*
X12256777Y-16769379D01*
X12256777Y-16769379D02*
X12266301Y-16807474D01*
X12266301Y-16807474D02*
X12266301Y-16855093D01*
X12266301Y-16855093D02*
X12256777Y-16893189D01*
X12256777Y-16893189D02*
X12247253Y-16912236D01*
X12247253Y-16912236D02*
X12237729Y-16921760D01*
X12237729Y-16921760D02*
X12218682Y-16931284D01*
X12218682Y-16931284D02*
X12199634Y-16931284D01*
X12199634Y-16931284D02*
X12180586Y-16921760D01*
X12180586Y-16921760D02*
X12171063Y-16912236D01*
X12171063Y-16912236D02*
X12161539Y-16893189D01*
X12161539Y-16893189D02*
X12152015Y-16855093D01*
X12152015Y-16855093D02*
X12152015Y-16807474D01*
X12152015Y-16807474D02*
X12161539Y-16769379D01*
X12161539Y-16769379D02*
X12171063Y-16750331D01*
X12171063Y-16750331D02*
X12180586Y-16740808D01*
X12180586Y-16740808D02*
X12199634Y-16731284D01*
X12352015Y-16912236D02*
X12361539Y-16921760D01*
X12361539Y-16921760D02*
X12352015Y-16931284D01*
X12352015Y-16931284D02*
X12342491Y-16921760D01*
X12342491Y-16921760D02*
X12352015Y-16912236D01*
X12352015Y-16912236D02*
X12352015Y-16931284D01*
X12485348Y-16731284D02*
X12504396Y-16731284D01*
X12504396Y-16731284D02*
X12523444Y-16740808D01*
X12523444Y-16740808D02*
X12532967Y-16750331D01*
X12532967Y-16750331D02*
X12542491Y-16769379D01*
X12542491Y-16769379D02*
X12552015Y-16807474D01*
X12552015Y-16807474D02*
X12552015Y-16855093D01*
X12552015Y-16855093D02*
X12542491Y-16893189D01*
X12542491Y-16893189D02*
X12532967Y-16912236D01*
X12532967Y-16912236D02*
X12523444Y-16921760D01*
X12523444Y-16921760D02*
X12504396Y-16931284D01*
X12504396Y-16931284D02*
X12485348Y-16931284D01*
X12485348Y-16931284D02*
X12466301Y-16921760D01*
X12466301Y-16921760D02*
X12456777Y-16912236D01*
X12456777Y-16912236D02*
X12447253Y-16893189D01*
X12447253Y-16893189D02*
X12437729Y-16855093D01*
X12437729Y-16855093D02*
X12437729Y-16807474D01*
X12437729Y-16807474D02*
X12447253Y-16769379D01*
X12447253Y-16769379D02*
X12456777Y-16750331D01*
X12456777Y-16750331D02*
X12466301Y-16740808D01*
X12466301Y-16740808D02*
X12485348Y-16731284D01*
X12628206Y-16750331D02*
X12637729Y-16740808D01*
X12637729Y-16740808D02*
X12656777Y-16731284D01*
X12656777Y-16731284D02*
X12704396Y-16731284D01*
X12704396Y-16731284D02*
X12723444Y-16740808D01*
X12723444Y-16740808D02*
X12732967Y-16750331D01*
X12732967Y-16750331D02*
X12742491Y-16769379D01*
X12742491Y-16769379D02*
X12742491Y-16788427D01*
X12742491Y-16788427D02*
X12732967Y-16816998D01*
X12732967Y-16816998D02*
X12618682Y-16931284D01*
X12618682Y-16931284D02*
X12742491Y-16931284D01*
X12837729Y-16931284D02*
X12875825Y-16931284D01*
X12875825Y-16931284D02*
X12894872Y-16921760D01*
X12894872Y-16921760D02*
X12904396Y-16912236D01*
X12904396Y-16912236D02*
X12923444Y-16883665D01*
X12923444Y-16883665D02*
X12932967Y-16845570D01*
X12932967Y-16845570D02*
X12932967Y-16769379D01*
X12932967Y-16769379D02*
X12923444Y-16750331D01*
X12923444Y-16750331D02*
X12913920Y-16740808D01*
X12913920Y-16740808D02*
X12894872Y-16731284D01*
X12894872Y-16731284D02*
X12856777Y-16731284D01*
X12856777Y-16731284D02*
X12837729Y-16740808D01*
X12837729Y-16740808D02*
X12828206Y-16750331D01*
X12828206Y-16750331D02*
X12818682Y-16769379D01*
X12818682Y-16769379D02*
X12818682Y-16816998D01*
X12818682Y-16816998D02*
X12828206Y-16836046D01*
X12828206Y-16836046D02*
X12837729Y-16845570D01*
X12837729Y-16845570D02*
X12856777Y-16855093D01*
X12856777Y-16855093D02*
X12894872Y-16855093D01*
X12894872Y-16855093D02*
X12913920Y-16845570D01*
X12913920Y-16845570D02*
X12923444Y-16836046D01*
X12923444Y-16836046D02*
X12932967Y-16816998D01*
X13113920Y-16731284D02*
X13018682Y-16731284D01*
X13018682Y-16731284D02*
X13009158Y-16826522D01*
X13009158Y-16826522D02*
X13018682Y-16816998D01*
X13018682Y-16816998D02*
X13037729Y-16807474D01*
X13037729Y-16807474D02*
X13085348Y-16807474D01*
X13085348Y-16807474D02*
X13104396Y-16816998D01*
X13104396Y-16816998D02*
X13113920Y-16826522D01*
X13113920Y-16826522D02*
X13123444Y-16845570D01*
X13123444Y-16845570D02*
X13123444Y-16893189D01*
X13123444Y-16893189D02*
X13113920Y-16912236D01*
X13113920Y-16912236D02*
X13104396Y-16921760D01*
X13104396Y-16921760D02*
X13085348Y-16931284D01*
X13085348Y-16931284D02*
X13037729Y-16931284D01*
X13037729Y-16931284D02*
X13018682Y-16921760D01*
X13018682Y-16921760D02*
X13009158Y-16912236D01*
X13199634Y-16731284D02*
X13199634Y-16769379D01*
X13275825Y-16731284D02*
X13275825Y-16769379D01*
X13571063Y-17007474D02*
X13561539Y-16997950D01*
X13561539Y-16997950D02*
X13542491Y-16969379D01*
X13542491Y-16969379D02*
X13532968Y-16950331D01*
X13532968Y-16950331D02*
X13523444Y-16921760D01*
X13523444Y-16921760D02*
X13513920Y-16874141D01*
X13513920Y-16874141D02*
X13513920Y-16836046D01*
X13513920Y-16836046D02*
X13523444Y-16788427D01*
X13523444Y-16788427D02*
X13532968Y-16759855D01*
X13532968Y-16759855D02*
X13542491Y-16740808D01*
X13542491Y-16740808D02*
X13561539Y-16712236D01*
X13561539Y-16712236D02*
X13571063Y-16702712D01*
X13752015Y-16931284D02*
X13637729Y-16931284D01*
X13694872Y-16931284D02*
X13694872Y-16731284D01*
X13694872Y-16731284D02*
X13675825Y-16759855D01*
X13675825Y-16759855D02*
X13656777Y-16778903D01*
X13656777Y-16778903D02*
X13637729Y-16788427D01*
X13932968Y-16731284D02*
X13837729Y-16731284D01*
X13837729Y-16731284D02*
X13828206Y-16826522D01*
X13828206Y-16826522D02*
X13837729Y-16816998D01*
X13837729Y-16816998D02*
X13856777Y-16807474D01*
X13856777Y-16807474D02*
X13904396Y-16807474D01*
X13904396Y-16807474D02*
X13923444Y-16816998D01*
X13923444Y-16816998D02*
X13932968Y-16826522D01*
X13932968Y-16826522D02*
X13942491Y-16845570D01*
X13942491Y-16845570D02*
X13942491Y-16893189D01*
X13942491Y-16893189D02*
X13932968Y-16912236D01*
X13932968Y-16912236D02*
X13923444Y-16921760D01*
X13923444Y-16921760D02*
X13904396Y-16931284D01*
X13904396Y-16931284D02*
X13856777Y-16931284D01*
X13856777Y-16931284D02*
X13837729Y-16921760D01*
X13837729Y-16921760D02*
X13828206Y-16912236D01*
X14180587Y-16931284D02*
X14180587Y-16731284D01*
X14266301Y-16931284D02*
X14266301Y-16826522D01*
X14266301Y-16826522D02*
X14256777Y-16807474D01*
X14256777Y-16807474D02*
X14237730Y-16797950D01*
X14237730Y-16797950D02*
X14209158Y-16797950D01*
X14209158Y-16797950D02*
X14190110Y-16807474D01*
X14190110Y-16807474D02*
X14180587Y-16816998D01*
X14390110Y-16931284D02*
X14371063Y-16921760D01*
X14371063Y-16921760D02*
X14361539Y-16912236D01*
X14361539Y-16912236D02*
X14352015Y-16893189D01*
X14352015Y-16893189D02*
X14352015Y-16836046D01*
X14352015Y-16836046D02*
X14361539Y-16816998D01*
X14361539Y-16816998D02*
X14371063Y-16807474D01*
X14371063Y-16807474D02*
X14390110Y-16797950D01*
X14390110Y-16797950D02*
X14418682Y-16797950D01*
X14418682Y-16797950D02*
X14437730Y-16807474D01*
X14437730Y-16807474D02*
X14447253Y-16816998D01*
X14447253Y-16816998D02*
X14456777Y-16836046D01*
X14456777Y-16836046D02*
X14456777Y-16893189D01*
X14456777Y-16893189D02*
X14447253Y-16912236D01*
X14447253Y-16912236D02*
X14437730Y-16921760D01*
X14437730Y-16921760D02*
X14418682Y-16931284D01*
X14418682Y-16931284D02*
X14390110Y-16931284D01*
X14571063Y-16931284D02*
X14552015Y-16921760D01*
X14552015Y-16921760D02*
X14542491Y-16902712D01*
X14542491Y-16902712D02*
X14542491Y-16731284D01*
X14723444Y-16921760D02*
X14704396Y-16931284D01*
X14704396Y-16931284D02*
X14666301Y-16931284D01*
X14666301Y-16931284D02*
X14647253Y-16921760D01*
X14647253Y-16921760D02*
X14637730Y-16902712D01*
X14637730Y-16902712D02*
X14637730Y-16826522D01*
X14637730Y-16826522D02*
X14647253Y-16807474D01*
X14647253Y-16807474D02*
X14666301Y-16797950D01*
X14666301Y-16797950D02*
X14704396Y-16797950D01*
X14704396Y-16797950D02*
X14723444Y-16807474D01*
X14723444Y-16807474D02*
X14732968Y-16826522D01*
X14732968Y-16826522D02*
X14732968Y-16845570D01*
X14732968Y-16845570D02*
X14637730Y-16864617D01*
X14809158Y-16921760D02*
X14828206Y-16931284D01*
X14828206Y-16931284D02*
X14866301Y-16931284D01*
X14866301Y-16931284D02*
X14885349Y-16921760D01*
X14885349Y-16921760D02*
X14894872Y-16902712D01*
X14894872Y-16902712D02*
X14894872Y-16893189D01*
X14894872Y-16893189D02*
X14885349Y-16874141D01*
X14885349Y-16874141D02*
X14866301Y-16864617D01*
X14866301Y-16864617D02*
X14837730Y-16864617D01*
X14837730Y-16864617D02*
X14818682Y-16855093D01*
X14818682Y-16855093D02*
X14809158Y-16836046D01*
X14809158Y-16836046D02*
X14809158Y-16826522D01*
X14809158Y-16826522D02*
X14818682Y-16807474D01*
X14818682Y-16807474D02*
X14837730Y-16797950D01*
X14837730Y-16797950D02*
X14866301Y-16797950D01*
X14866301Y-16797950D02*
X14885349Y-16807474D01*
X14961539Y-17007474D02*
X14971063Y-16997950D01*
X14971063Y-16997950D02*
X14990111Y-16969379D01*
X14990111Y-16969379D02*
X14999634Y-16950331D01*
X14999634Y-16950331D02*
X15009158Y-16921760D01*
X15009158Y-16921760D02*
X15018682Y-16874141D01*
X15018682Y-16874141D02*
X15018682Y-16836046D01*
X15018682Y-16836046D02*
X15009158Y-16788427D01*
X15009158Y-16788427D02*
X14999634Y-16759855D01*
X14999634Y-16759855D02*
X14990111Y-16740808D01*
X14990111Y-16740808D02*
X14971063Y-16712236D01*
X14971063Y-16712236D02*
X14961539Y-16702712D01*
D12*
X9956000Y-17063800D02*
X9956000Y-17143800D01*
X9916000Y-17103800D02*
X9996000Y-17103800D01*
D11*
X10294872Y-16995284D02*
X10313920Y-16995284D01*
X10313920Y-16995284D02*
X10332967Y-17004808D01*
X10332967Y-17004808D02*
X10342491Y-17014331D01*
X10342491Y-17014331D02*
X10352015Y-17033379D01*
X10352015Y-17033379D02*
X10361539Y-17071474D01*
X10361539Y-17071474D02*
X10361539Y-17119093D01*
X10361539Y-17119093D02*
X10352015Y-17157189D01*
X10352015Y-17157189D02*
X10342491Y-17176236D01*
X10342491Y-17176236D02*
X10332967Y-17185760D01*
X10332967Y-17185760D02*
X10313920Y-17195284D01*
X10313920Y-17195284D02*
X10294872Y-17195284D01*
X10294872Y-17195284D02*
X10275824Y-17185760D01*
X10275824Y-17185760D02*
X10266301Y-17176236D01*
X10266301Y-17176236D02*
X10256777Y-17157189D01*
X10256777Y-17157189D02*
X10247253Y-17119093D01*
X10247253Y-17119093D02*
X10247253Y-17071474D01*
X10247253Y-17071474D02*
X10256777Y-17033379D01*
X10256777Y-17033379D02*
X10266301Y-17014331D01*
X10266301Y-17014331D02*
X10275824Y-17004808D01*
X10275824Y-17004808D02*
X10294872Y-16995284D01*
X10447253Y-17176236D02*
X10456777Y-17185760D01*
X10456777Y-17185760D02*
X10447253Y-17195284D01*
X10447253Y-17195284D02*
X10437729Y-17185760D01*
X10437729Y-17185760D02*
X10447253Y-17176236D01*
X10447253Y-17176236D02*
X10447253Y-17195284D01*
X10571063Y-17080998D02*
X10552015Y-17071474D01*
X10552015Y-17071474D02*
X10542491Y-17061950D01*
X10542491Y-17061950D02*
X10532967Y-17042903D01*
X10532967Y-17042903D02*
X10532967Y-17033379D01*
X10532967Y-17033379D02*
X10542491Y-17014331D01*
X10542491Y-17014331D02*
X10552015Y-17004808D01*
X10552015Y-17004808D02*
X10571063Y-16995284D01*
X10571063Y-16995284D02*
X10609158Y-16995284D01*
X10609158Y-16995284D02*
X10628205Y-17004808D01*
X10628205Y-17004808D02*
X10637729Y-17014331D01*
X10637729Y-17014331D02*
X10647253Y-17033379D01*
X10647253Y-17033379D02*
X10647253Y-17042903D01*
X10647253Y-17042903D02*
X10637729Y-17061950D01*
X10637729Y-17061950D02*
X10628205Y-17071474D01*
X10628205Y-17071474D02*
X10609158Y-17080998D01*
X10609158Y-17080998D02*
X10571063Y-17080998D01*
X10571063Y-17080998D02*
X10552015Y-17090522D01*
X10552015Y-17090522D02*
X10542491Y-17100046D01*
X10542491Y-17100046D02*
X10532967Y-17119093D01*
X10532967Y-17119093D02*
X10532967Y-17157189D01*
X10532967Y-17157189D02*
X10542491Y-17176236D01*
X10542491Y-17176236D02*
X10552015Y-17185760D01*
X10552015Y-17185760D02*
X10571063Y-17195284D01*
X10571063Y-17195284D02*
X10609158Y-17195284D01*
X10609158Y-17195284D02*
X10628205Y-17185760D01*
X10628205Y-17185760D02*
X10637729Y-17176236D01*
X10637729Y-17176236D02*
X10647253Y-17157189D01*
X10647253Y-17157189D02*
X10647253Y-17119093D01*
X10647253Y-17119093D02*
X10637729Y-17100046D01*
X10637729Y-17100046D02*
X10628205Y-17090522D01*
X10628205Y-17090522D02*
X10609158Y-17080998D01*
X10771063Y-16995284D02*
X10790110Y-16995284D01*
X10790110Y-16995284D02*
X10809158Y-17004808D01*
X10809158Y-17004808D02*
X10818682Y-17014331D01*
X10818682Y-17014331D02*
X10828205Y-17033379D01*
X10828205Y-17033379D02*
X10837729Y-17071474D01*
X10837729Y-17071474D02*
X10837729Y-17119093D01*
X10837729Y-17119093D02*
X10828205Y-17157189D01*
X10828205Y-17157189D02*
X10818682Y-17176236D01*
X10818682Y-17176236D02*
X10809158Y-17185760D01*
X10809158Y-17185760D02*
X10790110Y-17195284D01*
X10790110Y-17195284D02*
X10771063Y-17195284D01*
X10771063Y-17195284D02*
X10752015Y-17185760D01*
X10752015Y-17185760D02*
X10742491Y-17176236D01*
X10742491Y-17176236D02*
X10732967Y-17157189D01*
X10732967Y-17157189D02*
X10723444Y-17119093D01*
X10723444Y-17119093D02*
X10723444Y-17071474D01*
X10723444Y-17071474D02*
X10732967Y-17033379D01*
X10732967Y-17033379D02*
X10742491Y-17014331D01*
X10742491Y-17014331D02*
X10752015Y-17004808D01*
X10752015Y-17004808D02*
X10771063Y-16995284D01*
X10961539Y-16995284D02*
X10980586Y-16995284D01*
X10980586Y-16995284D02*
X10999634Y-17004808D01*
X10999634Y-17004808D02*
X11009158Y-17014331D01*
X11009158Y-17014331D02*
X11018682Y-17033379D01*
X11018682Y-17033379D02*
X11028205Y-17071474D01*
X11028205Y-17071474D02*
X11028205Y-17119093D01*
X11028205Y-17119093D02*
X11018682Y-17157189D01*
X11018682Y-17157189D02*
X11009158Y-17176236D01*
X11009158Y-17176236D02*
X10999634Y-17185760D01*
X10999634Y-17185760D02*
X10980586Y-17195284D01*
X10980586Y-17195284D02*
X10961539Y-17195284D01*
X10961539Y-17195284D02*
X10942491Y-17185760D01*
X10942491Y-17185760D02*
X10932967Y-17176236D01*
X10932967Y-17176236D02*
X10923444Y-17157189D01*
X10923444Y-17157189D02*
X10913920Y-17119093D01*
X10913920Y-17119093D02*
X10913920Y-17071474D01*
X10913920Y-17071474D02*
X10923444Y-17033379D01*
X10923444Y-17033379D02*
X10932967Y-17014331D01*
X10932967Y-17014331D02*
X10942491Y-17004808D01*
X10942491Y-17004808D02*
X10961539Y-16995284D01*
X11113920Y-17195284D02*
X11113920Y-17061950D01*
X11113920Y-17080998D02*
X11123444Y-17071474D01*
X11123444Y-17071474D02*
X11142491Y-17061950D01*
X11142491Y-17061950D02*
X11171063Y-17061950D01*
X11171063Y-17061950D02*
X11190110Y-17071474D01*
X11190110Y-17071474D02*
X11199634Y-17090522D01*
X11199634Y-17090522D02*
X11199634Y-17195284D01*
X11199634Y-17090522D02*
X11209158Y-17071474D01*
X11209158Y-17071474D02*
X11228205Y-17061950D01*
X11228205Y-17061950D02*
X11256777Y-17061950D01*
X11256777Y-17061950D02*
X11275824Y-17071474D01*
X11275824Y-17071474D02*
X11285348Y-17090522D01*
X11285348Y-17090522D02*
X11285348Y-17195284D01*
X11380586Y-17195284D02*
X11380586Y-17061950D01*
X11380586Y-17080998D02*
X11390110Y-17071474D01*
X11390110Y-17071474D02*
X11409158Y-17061950D01*
X11409158Y-17061950D02*
X11437729Y-17061950D01*
X11437729Y-17061950D02*
X11456777Y-17071474D01*
X11456777Y-17071474D02*
X11466301Y-17090522D01*
X11466301Y-17090522D02*
X11466301Y-17195284D01*
X11466301Y-17090522D02*
X11475824Y-17071474D01*
X11475824Y-17071474D02*
X11494872Y-17061950D01*
X11494872Y-17061950D02*
X11523443Y-17061950D01*
X11523443Y-17061950D02*
X11542491Y-17071474D01*
X11542491Y-17071474D02*
X11552015Y-17090522D01*
X11552015Y-17090522D02*
X11552015Y-17195284D01*
X11942491Y-16985760D02*
X11771063Y-17242903D01*
X12199634Y-16995284D02*
X12218682Y-16995284D01*
X12218682Y-16995284D02*
X12237729Y-17004808D01*
X12237729Y-17004808D02*
X12247253Y-17014331D01*
X12247253Y-17014331D02*
X12256777Y-17033379D01*
X12256777Y-17033379D02*
X12266301Y-17071474D01*
X12266301Y-17071474D02*
X12266301Y-17119093D01*
X12266301Y-17119093D02*
X12256777Y-17157189D01*
X12256777Y-17157189D02*
X12247253Y-17176236D01*
X12247253Y-17176236D02*
X12237729Y-17185760D01*
X12237729Y-17185760D02*
X12218682Y-17195284D01*
X12218682Y-17195284D02*
X12199634Y-17195284D01*
X12199634Y-17195284D02*
X12180586Y-17185760D01*
X12180586Y-17185760D02*
X12171063Y-17176236D01*
X12171063Y-17176236D02*
X12161539Y-17157189D01*
X12161539Y-17157189D02*
X12152015Y-17119093D01*
X12152015Y-17119093D02*
X12152015Y-17071474D01*
X12152015Y-17071474D02*
X12161539Y-17033379D01*
X12161539Y-17033379D02*
X12171063Y-17014331D01*
X12171063Y-17014331D02*
X12180586Y-17004808D01*
X12180586Y-17004808D02*
X12199634Y-16995284D01*
X12352015Y-17176236D02*
X12361539Y-17185760D01*
X12361539Y-17185760D02*
X12352015Y-17195284D01*
X12352015Y-17195284D02*
X12342491Y-17185760D01*
X12342491Y-17185760D02*
X12352015Y-17176236D01*
X12352015Y-17176236D02*
X12352015Y-17195284D01*
X12485348Y-16995284D02*
X12504396Y-16995284D01*
X12504396Y-16995284D02*
X12523444Y-17004808D01*
X12523444Y-17004808D02*
X12532967Y-17014331D01*
X12532967Y-17014331D02*
X12542491Y-17033379D01*
X12542491Y-17033379D02*
X12552015Y-17071474D01*
X12552015Y-17071474D02*
X12552015Y-17119093D01*
X12552015Y-17119093D02*
X12542491Y-17157189D01*
X12542491Y-17157189D02*
X12532967Y-17176236D01*
X12532967Y-17176236D02*
X12523444Y-17185760D01*
X12523444Y-17185760D02*
X12504396Y-17195284D01*
X12504396Y-17195284D02*
X12485348Y-17195284D01*
X12485348Y-17195284D02*
X12466301Y-17185760D01*
X12466301Y-17185760D02*
X12456777Y-17176236D01*
X12456777Y-17176236D02*
X12447253Y-17157189D01*
X12447253Y-17157189D02*
X12437729Y-17119093D01*
X12437729Y-17119093D02*
X12437729Y-17071474D01*
X12437729Y-17071474D02*
X12447253Y-17033379D01*
X12447253Y-17033379D02*
X12456777Y-17014331D01*
X12456777Y-17014331D02*
X12466301Y-17004808D01*
X12466301Y-17004808D02*
X12485348Y-16995284D01*
X12618682Y-16995284D02*
X12742491Y-16995284D01*
X12742491Y-16995284D02*
X12675825Y-17071474D01*
X12675825Y-17071474D02*
X12704396Y-17071474D01*
X12704396Y-17071474D02*
X12723444Y-17080998D01*
X12723444Y-17080998D02*
X12732967Y-17090522D01*
X12732967Y-17090522D02*
X12742491Y-17109570D01*
X12742491Y-17109570D02*
X12742491Y-17157189D01*
X12742491Y-17157189D02*
X12732967Y-17176236D01*
X12732967Y-17176236D02*
X12723444Y-17185760D01*
X12723444Y-17185760D02*
X12704396Y-17195284D01*
X12704396Y-17195284D02*
X12647253Y-17195284D01*
X12647253Y-17195284D02*
X12628206Y-17185760D01*
X12628206Y-17185760D02*
X12618682Y-17176236D01*
X12932967Y-17195284D02*
X12818682Y-17195284D01*
X12875825Y-17195284D02*
X12875825Y-16995284D01*
X12875825Y-16995284D02*
X12856777Y-17023855D01*
X12856777Y-17023855D02*
X12837729Y-17042903D01*
X12837729Y-17042903D02*
X12818682Y-17052427D01*
X13113920Y-16995284D02*
X13018682Y-16995284D01*
X13018682Y-16995284D02*
X13009158Y-17090522D01*
X13009158Y-17090522D02*
X13018682Y-17080998D01*
X13018682Y-17080998D02*
X13037729Y-17071474D01*
X13037729Y-17071474D02*
X13085348Y-17071474D01*
X13085348Y-17071474D02*
X13104396Y-17080998D01*
X13104396Y-17080998D02*
X13113920Y-17090522D01*
X13113920Y-17090522D02*
X13123444Y-17109570D01*
X13123444Y-17109570D02*
X13123444Y-17157189D01*
X13123444Y-17157189D02*
X13113920Y-17176236D01*
X13113920Y-17176236D02*
X13104396Y-17185760D01*
X13104396Y-17185760D02*
X13085348Y-17195284D01*
X13085348Y-17195284D02*
X13037729Y-17195284D01*
X13037729Y-17195284D02*
X13018682Y-17185760D01*
X13018682Y-17185760D02*
X13009158Y-17176236D01*
X13199634Y-16995284D02*
X13199634Y-17033379D01*
X13275825Y-16995284D02*
X13275825Y-17033379D01*
X13571063Y-17271474D02*
X13561539Y-17261950D01*
X13561539Y-17261950D02*
X13542491Y-17233379D01*
X13542491Y-17233379D02*
X13532968Y-17214331D01*
X13532968Y-17214331D02*
X13523444Y-17185760D01*
X13523444Y-17185760D02*
X13513920Y-17138141D01*
X13513920Y-17138141D02*
X13513920Y-17100046D01*
X13513920Y-17100046D02*
X13523444Y-17052427D01*
X13523444Y-17052427D02*
X13532968Y-17023855D01*
X13532968Y-17023855D02*
X13542491Y-17004808D01*
X13542491Y-17004808D02*
X13561539Y-16976236D01*
X13561539Y-16976236D02*
X13571063Y-16966712D01*
X13752015Y-17195284D02*
X13637729Y-17195284D01*
X13694872Y-17195284D02*
X13694872Y-16995284D01*
X13694872Y-16995284D02*
X13675825Y-17023855D01*
X13675825Y-17023855D02*
X13656777Y-17042903D01*
X13656777Y-17042903D02*
X13637729Y-17052427D01*
X13828206Y-17014331D02*
X13837729Y-17004808D01*
X13837729Y-17004808D02*
X13856777Y-16995284D01*
X13856777Y-16995284D02*
X13904396Y-16995284D01*
X13904396Y-16995284D02*
X13923444Y-17004808D01*
X13923444Y-17004808D02*
X13932968Y-17014331D01*
X13932968Y-17014331D02*
X13942491Y-17033379D01*
X13942491Y-17033379D02*
X13942491Y-17052427D01*
X13942491Y-17052427D02*
X13932968Y-17080998D01*
X13932968Y-17080998D02*
X13818682Y-17195284D01*
X13818682Y-17195284D02*
X13942491Y-17195284D01*
X14066301Y-16995284D02*
X14085349Y-16995284D01*
X14085349Y-16995284D02*
X14104396Y-17004808D01*
X14104396Y-17004808D02*
X14113920Y-17014331D01*
X14113920Y-17014331D02*
X14123444Y-17033379D01*
X14123444Y-17033379D02*
X14132968Y-17071474D01*
X14132968Y-17071474D02*
X14132968Y-17119093D01*
X14132968Y-17119093D02*
X14123444Y-17157189D01*
X14123444Y-17157189D02*
X14113920Y-17176236D01*
X14113920Y-17176236D02*
X14104396Y-17185760D01*
X14104396Y-17185760D02*
X14085349Y-17195284D01*
X14085349Y-17195284D02*
X14066301Y-17195284D01*
X14066301Y-17195284D02*
X14047253Y-17185760D01*
X14047253Y-17185760D02*
X14037729Y-17176236D01*
X14037729Y-17176236D02*
X14028206Y-17157189D01*
X14028206Y-17157189D02*
X14018682Y-17119093D01*
X14018682Y-17119093D02*
X14018682Y-17071474D01*
X14018682Y-17071474D02*
X14028206Y-17033379D01*
X14028206Y-17033379D02*
X14037729Y-17014331D01*
X14037729Y-17014331D02*
X14047253Y-17004808D01*
X14047253Y-17004808D02*
X14066301Y-16995284D01*
X14371063Y-17195284D02*
X14371063Y-16995284D01*
X14456777Y-17195284D02*
X14456777Y-17090522D01*
X14456777Y-17090522D02*
X14447253Y-17071474D01*
X14447253Y-17071474D02*
X14428206Y-17061950D01*
X14428206Y-17061950D02*
X14399634Y-17061950D01*
X14399634Y-17061950D02*
X14380587Y-17071474D01*
X14380587Y-17071474D02*
X14371063Y-17080998D01*
X14580587Y-17195284D02*
X14561539Y-17185760D01*
X14561539Y-17185760D02*
X14552015Y-17176236D01*
X14552015Y-17176236D02*
X14542491Y-17157189D01*
X14542491Y-17157189D02*
X14542491Y-17100046D01*
X14542491Y-17100046D02*
X14552015Y-17080998D01*
X14552015Y-17080998D02*
X14561539Y-17071474D01*
X14561539Y-17071474D02*
X14580587Y-17061950D01*
X14580587Y-17061950D02*
X14609158Y-17061950D01*
X14609158Y-17061950D02*
X14628206Y-17071474D01*
X14628206Y-17071474D02*
X14637730Y-17080998D01*
X14637730Y-17080998D02*
X14647253Y-17100046D01*
X14647253Y-17100046D02*
X14647253Y-17157189D01*
X14647253Y-17157189D02*
X14637730Y-17176236D01*
X14637730Y-17176236D02*
X14628206Y-17185760D01*
X14628206Y-17185760D02*
X14609158Y-17195284D01*
X14609158Y-17195284D02*
X14580587Y-17195284D01*
X14761539Y-17195284D02*
X14742491Y-17185760D01*
X14742491Y-17185760D02*
X14732968Y-17166712D01*
X14732968Y-17166712D02*
X14732968Y-16995284D01*
X14913920Y-17185760D02*
X14894872Y-17195284D01*
X14894872Y-17195284D02*
X14856777Y-17195284D01*
X14856777Y-17195284D02*
X14837730Y-17185760D01*
X14837730Y-17185760D02*
X14828206Y-17166712D01*
X14828206Y-17166712D02*
X14828206Y-17090522D01*
X14828206Y-17090522D02*
X14837730Y-17071474D01*
X14837730Y-17071474D02*
X14856777Y-17061950D01*
X14856777Y-17061950D02*
X14894872Y-17061950D01*
X14894872Y-17061950D02*
X14913920Y-17071474D01*
X14913920Y-17071474D02*
X14923444Y-17090522D01*
X14923444Y-17090522D02*
X14923444Y-17109570D01*
X14923444Y-17109570D02*
X14828206Y-17128617D01*
X14999634Y-17185760D02*
X15018682Y-17195284D01*
X15018682Y-17195284D02*
X15056777Y-17195284D01*
X15056777Y-17195284D02*
X15075825Y-17185760D01*
X15075825Y-17185760D02*
X15085349Y-17166712D01*
X15085349Y-17166712D02*
X15085349Y-17157189D01*
X15085349Y-17157189D02*
X15075825Y-17138141D01*
X15075825Y-17138141D02*
X15056777Y-17128617D01*
X15056777Y-17128617D02*
X15028206Y-17128617D01*
X15028206Y-17128617D02*
X15009158Y-17119093D01*
X15009158Y-17119093D02*
X14999634Y-17100046D01*
X14999634Y-17100046D02*
X14999634Y-17090522D01*
X14999634Y-17090522D02*
X15009158Y-17071474D01*
X15009158Y-17071474D02*
X15028206Y-17061950D01*
X15028206Y-17061950D02*
X15056777Y-17061950D01*
X15056777Y-17061950D02*
X15075825Y-17071474D01*
X15152015Y-17271474D02*
X15161539Y-17261950D01*
X15161539Y-17261950D02*
X15180587Y-17233379D01*
X15180587Y-17233379D02*
X15190111Y-17214331D01*
X15190111Y-17214331D02*
X15199634Y-17185760D01*
X15199634Y-17185760D02*
X15209158Y-17138141D01*
X15209158Y-17138141D02*
X15209158Y-17100046D01*
X15209158Y-17100046D02*
X15199634Y-17052427D01*
X15199634Y-17052427D02*
X15190111Y-17023855D01*
X15190111Y-17023855D02*
X15180587Y-17004808D01*
X15180587Y-17004808D02*
X15161539Y-16976236D01*
X15161539Y-16976236D02*
X15152015Y-16966712D01*
D12*
X9982981Y-17399231D02*
X9982981Y-17336369D01*
X9920119Y-17336369D01*
X9920119Y-17399231D01*
X9982981Y-17399231D01*
D11*
X10294872Y-17259284D02*
X10313920Y-17259284D01*
X10313920Y-17259284D02*
X10332967Y-17268808D01*
X10332967Y-17268808D02*
X10342491Y-17278331D01*
X10342491Y-17278331D02*
X10352015Y-17297379D01*
X10352015Y-17297379D02*
X10361539Y-17335474D01*
X10361539Y-17335474D02*
X10361539Y-17383093D01*
X10361539Y-17383093D02*
X10352015Y-17421189D01*
X10352015Y-17421189D02*
X10342491Y-17440236D01*
X10342491Y-17440236D02*
X10332967Y-17449760D01*
X10332967Y-17449760D02*
X10313920Y-17459284D01*
X10313920Y-17459284D02*
X10294872Y-17459284D01*
X10294872Y-17459284D02*
X10275824Y-17449760D01*
X10275824Y-17449760D02*
X10266301Y-17440236D01*
X10266301Y-17440236D02*
X10256777Y-17421189D01*
X10256777Y-17421189D02*
X10247253Y-17383093D01*
X10247253Y-17383093D02*
X10247253Y-17335474D01*
X10247253Y-17335474D02*
X10256777Y-17297379D01*
X10256777Y-17297379D02*
X10266301Y-17278331D01*
X10266301Y-17278331D02*
X10275824Y-17268808D01*
X10275824Y-17268808D02*
X10294872Y-17259284D01*
X10447253Y-17440236D02*
X10456777Y-17449760D01*
X10456777Y-17449760D02*
X10447253Y-17459284D01*
X10447253Y-17459284D02*
X10437729Y-17449760D01*
X10437729Y-17449760D02*
X10447253Y-17440236D01*
X10447253Y-17440236D02*
X10447253Y-17459284D01*
X10571063Y-17344998D02*
X10552015Y-17335474D01*
X10552015Y-17335474D02*
X10542491Y-17325950D01*
X10542491Y-17325950D02*
X10532967Y-17306903D01*
X10532967Y-17306903D02*
X10532967Y-17297379D01*
X10532967Y-17297379D02*
X10542491Y-17278331D01*
X10542491Y-17278331D02*
X10552015Y-17268808D01*
X10552015Y-17268808D02*
X10571063Y-17259284D01*
X10571063Y-17259284D02*
X10609158Y-17259284D01*
X10609158Y-17259284D02*
X10628205Y-17268808D01*
X10628205Y-17268808D02*
X10637729Y-17278331D01*
X10637729Y-17278331D02*
X10647253Y-17297379D01*
X10647253Y-17297379D02*
X10647253Y-17306903D01*
X10647253Y-17306903D02*
X10637729Y-17325950D01*
X10637729Y-17325950D02*
X10628205Y-17335474D01*
X10628205Y-17335474D02*
X10609158Y-17344998D01*
X10609158Y-17344998D02*
X10571063Y-17344998D01*
X10571063Y-17344998D02*
X10552015Y-17354522D01*
X10552015Y-17354522D02*
X10542491Y-17364046D01*
X10542491Y-17364046D02*
X10532967Y-17383093D01*
X10532967Y-17383093D02*
X10532967Y-17421189D01*
X10532967Y-17421189D02*
X10542491Y-17440236D01*
X10542491Y-17440236D02*
X10552015Y-17449760D01*
X10552015Y-17449760D02*
X10571063Y-17459284D01*
X10571063Y-17459284D02*
X10609158Y-17459284D01*
X10609158Y-17459284D02*
X10628205Y-17449760D01*
X10628205Y-17449760D02*
X10637729Y-17440236D01*
X10637729Y-17440236D02*
X10647253Y-17421189D01*
X10647253Y-17421189D02*
X10647253Y-17383093D01*
X10647253Y-17383093D02*
X10637729Y-17364046D01*
X10637729Y-17364046D02*
X10628205Y-17354522D01*
X10628205Y-17354522D02*
X10609158Y-17344998D01*
X10761539Y-17344998D02*
X10742491Y-17335474D01*
X10742491Y-17335474D02*
X10732967Y-17325950D01*
X10732967Y-17325950D02*
X10723444Y-17306903D01*
X10723444Y-17306903D02*
X10723444Y-17297379D01*
X10723444Y-17297379D02*
X10732967Y-17278331D01*
X10732967Y-17278331D02*
X10742491Y-17268808D01*
X10742491Y-17268808D02*
X10761539Y-17259284D01*
X10761539Y-17259284D02*
X10799634Y-17259284D01*
X10799634Y-17259284D02*
X10818682Y-17268808D01*
X10818682Y-17268808D02*
X10828205Y-17278331D01*
X10828205Y-17278331D02*
X10837729Y-17297379D01*
X10837729Y-17297379D02*
X10837729Y-17306903D01*
X10837729Y-17306903D02*
X10828205Y-17325950D01*
X10828205Y-17325950D02*
X10818682Y-17335474D01*
X10818682Y-17335474D02*
X10799634Y-17344998D01*
X10799634Y-17344998D02*
X10761539Y-17344998D01*
X10761539Y-17344998D02*
X10742491Y-17354522D01*
X10742491Y-17354522D02*
X10732967Y-17364046D01*
X10732967Y-17364046D02*
X10723444Y-17383093D01*
X10723444Y-17383093D02*
X10723444Y-17421189D01*
X10723444Y-17421189D02*
X10732967Y-17440236D01*
X10732967Y-17440236D02*
X10742491Y-17449760D01*
X10742491Y-17449760D02*
X10761539Y-17459284D01*
X10761539Y-17459284D02*
X10799634Y-17459284D01*
X10799634Y-17459284D02*
X10818682Y-17449760D01*
X10818682Y-17449760D02*
X10828205Y-17440236D01*
X10828205Y-17440236D02*
X10837729Y-17421189D01*
X10837729Y-17421189D02*
X10837729Y-17383093D01*
X10837729Y-17383093D02*
X10828205Y-17364046D01*
X10828205Y-17364046D02*
X10818682Y-17354522D01*
X10818682Y-17354522D02*
X10799634Y-17344998D01*
X10932967Y-17459284D02*
X10971063Y-17459284D01*
X10971063Y-17459284D02*
X10990110Y-17449760D01*
X10990110Y-17449760D02*
X10999634Y-17440236D01*
X10999634Y-17440236D02*
X11018682Y-17411665D01*
X11018682Y-17411665D02*
X11028205Y-17373570D01*
X11028205Y-17373570D02*
X11028205Y-17297379D01*
X11028205Y-17297379D02*
X11018682Y-17278331D01*
X11018682Y-17278331D02*
X11009158Y-17268808D01*
X11009158Y-17268808D02*
X10990110Y-17259284D01*
X10990110Y-17259284D02*
X10952015Y-17259284D01*
X10952015Y-17259284D02*
X10932967Y-17268808D01*
X10932967Y-17268808D02*
X10923444Y-17278331D01*
X10923444Y-17278331D02*
X10913920Y-17297379D01*
X10913920Y-17297379D02*
X10913920Y-17344998D01*
X10913920Y-17344998D02*
X10923444Y-17364046D01*
X10923444Y-17364046D02*
X10932967Y-17373570D01*
X10932967Y-17373570D02*
X10952015Y-17383093D01*
X10952015Y-17383093D02*
X10990110Y-17383093D01*
X10990110Y-17383093D02*
X11009158Y-17373570D01*
X11009158Y-17373570D02*
X11018682Y-17364046D01*
X11018682Y-17364046D02*
X11028205Y-17344998D01*
X11113920Y-17459284D02*
X11113920Y-17325950D01*
X11113920Y-17344998D02*
X11123444Y-17335474D01*
X11123444Y-17335474D02*
X11142491Y-17325950D01*
X11142491Y-17325950D02*
X11171063Y-17325950D01*
X11171063Y-17325950D02*
X11190110Y-17335474D01*
X11190110Y-17335474D02*
X11199634Y-17354522D01*
X11199634Y-17354522D02*
X11199634Y-17459284D01*
X11199634Y-17354522D02*
X11209158Y-17335474D01*
X11209158Y-17335474D02*
X11228205Y-17325950D01*
X11228205Y-17325950D02*
X11256777Y-17325950D01*
X11256777Y-17325950D02*
X11275824Y-17335474D01*
X11275824Y-17335474D02*
X11285348Y-17354522D01*
X11285348Y-17354522D02*
X11285348Y-17459284D01*
X11380586Y-17459284D02*
X11380586Y-17325950D01*
X11380586Y-17344998D02*
X11390110Y-17335474D01*
X11390110Y-17335474D02*
X11409158Y-17325950D01*
X11409158Y-17325950D02*
X11437729Y-17325950D01*
X11437729Y-17325950D02*
X11456777Y-17335474D01*
X11456777Y-17335474D02*
X11466301Y-17354522D01*
X11466301Y-17354522D02*
X11466301Y-17459284D01*
X11466301Y-17354522D02*
X11475824Y-17335474D01*
X11475824Y-17335474D02*
X11494872Y-17325950D01*
X11494872Y-17325950D02*
X11523443Y-17325950D01*
X11523443Y-17325950D02*
X11542491Y-17335474D01*
X11542491Y-17335474D02*
X11552015Y-17354522D01*
X11552015Y-17354522D02*
X11552015Y-17459284D01*
X11942491Y-17249760D02*
X11771063Y-17506903D01*
X12199634Y-17259284D02*
X12218682Y-17259284D01*
X12218682Y-17259284D02*
X12237729Y-17268808D01*
X12237729Y-17268808D02*
X12247253Y-17278331D01*
X12247253Y-17278331D02*
X12256777Y-17297379D01*
X12256777Y-17297379D02*
X12266301Y-17335474D01*
X12266301Y-17335474D02*
X12266301Y-17383093D01*
X12266301Y-17383093D02*
X12256777Y-17421189D01*
X12256777Y-17421189D02*
X12247253Y-17440236D01*
X12247253Y-17440236D02*
X12237729Y-17449760D01*
X12237729Y-17449760D02*
X12218682Y-17459284D01*
X12218682Y-17459284D02*
X12199634Y-17459284D01*
X12199634Y-17459284D02*
X12180586Y-17449760D01*
X12180586Y-17449760D02*
X12171063Y-17440236D01*
X12171063Y-17440236D02*
X12161539Y-17421189D01*
X12161539Y-17421189D02*
X12152015Y-17383093D01*
X12152015Y-17383093D02*
X12152015Y-17335474D01*
X12152015Y-17335474D02*
X12161539Y-17297379D01*
X12161539Y-17297379D02*
X12171063Y-17278331D01*
X12171063Y-17278331D02*
X12180586Y-17268808D01*
X12180586Y-17268808D02*
X12199634Y-17259284D01*
X12352015Y-17440236D02*
X12361539Y-17449760D01*
X12361539Y-17449760D02*
X12352015Y-17459284D01*
X12352015Y-17459284D02*
X12342491Y-17449760D01*
X12342491Y-17449760D02*
X12352015Y-17440236D01*
X12352015Y-17440236D02*
X12352015Y-17459284D01*
X12485348Y-17259284D02*
X12504396Y-17259284D01*
X12504396Y-17259284D02*
X12523444Y-17268808D01*
X12523444Y-17268808D02*
X12532967Y-17278331D01*
X12532967Y-17278331D02*
X12542491Y-17297379D01*
X12542491Y-17297379D02*
X12552015Y-17335474D01*
X12552015Y-17335474D02*
X12552015Y-17383093D01*
X12552015Y-17383093D02*
X12542491Y-17421189D01*
X12542491Y-17421189D02*
X12532967Y-17440236D01*
X12532967Y-17440236D02*
X12523444Y-17449760D01*
X12523444Y-17449760D02*
X12504396Y-17459284D01*
X12504396Y-17459284D02*
X12485348Y-17459284D01*
X12485348Y-17459284D02*
X12466301Y-17449760D01*
X12466301Y-17449760D02*
X12456777Y-17440236D01*
X12456777Y-17440236D02*
X12447253Y-17421189D01*
X12447253Y-17421189D02*
X12437729Y-17383093D01*
X12437729Y-17383093D02*
X12437729Y-17335474D01*
X12437729Y-17335474D02*
X12447253Y-17297379D01*
X12447253Y-17297379D02*
X12456777Y-17278331D01*
X12456777Y-17278331D02*
X12466301Y-17268808D01*
X12466301Y-17268808D02*
X12485348Y-17259284D01*
X12618682Y-17259284D02*
X12742491Y-17259284D01*
X12742491Y-17259284D02*
X12675825Y-17335474D01*
X12675825Y-17335474D02*
X12704396Y-17335474D01*
X12704396Y-17335474D02*
X12723444Y-17344998D01*
X12723444Y-17344998D02*
X12732967Y-17354522D01*
X12732967Y-17354522D02*
X12742491Y-17373570D01*
X12742491Y-17373570D02*
X12742491Y-17421189D01*
X12742491Y-17421189D02*
X12732967Y-17440236D01*
X12732967Y-17440236D02*
X12723444Y-17449760D01*
X12723444Y-17449760D02*
X12704396Y-17459284D01*
X12704396Y-17459284D02*
X12647253Y-17459284D01*
X12647253Y-17459284D02*
X12628206Y-17449760D01*
X12628206Y-17449760D02*
X12618682Y-17440236D01*
X12923444Y-17259284D02*
X12828206Y-17259284D01*
X12828206Y-17259284D02*
X12818682Y-17354522D01*
X12818682Y-17354522D02*
X12828206Y-17344998D01*
X12828206Y-17344998D02*
X12847253Y-17335474D01*
X12847253Y-17335474D02*
X12894872Y-17335474D01*
X12894872Y-17335474D02*
X12913920Y-17344998D01*
X12913920Y-17344998D02*
X12923444Y-17354522D01*
X12923444Y-17354522D02*
X12932967Y-17373570D01*
X12932967Y-17373570D02*
X12932967Y-17421189D01*
X12932967Y-17421189D02*
X12923444Y-17440236D01*
X12923444Y-17440236D02*
X12913920Y-17449760D01*
X12913920Y-17449760D02*
X12894872Y-17459284D01*
X12894872Y-17459284D02*
X12847253Y-17459284D01*
X12847253Y-17459284D02*
X12828206Y-17449760D01*
X12828206Y-17449760D02*
X12818682Y-17440236D01*
X13056777Y-17259284D02*
X13075825Y-17259284D01*
X13075825Y-17259284D02*
X13094872Y-17268808D01*
X13094872Y-17268808D02*
X13104396Y-17278331D01*
X13104396Y-17278331D02*
X13113920Y-17297379D01*
X13113920Y-17297379D02*
X13123444Y-17335474D01*
X13123444Y-17335474D02*
X13123444Y-17383093D01*
X13123444Y-17383093D02*
X13113920Y-17421189D01*
X13113920Y-17421189D02*
X13104396Y-17440236D01*
X13104396Y-17440236D02*
X13094872Y-17449760D01*
X13094872Y-17449760D02*
X13075825Y-17459284D01*
X13075825Y-17459284D02*
X13056777Y-17459284D01*
X13056777Y-17459284D02*
X13037729Y-17449760D01*
X13037729Y-17449760D02*
X13028206Y-17440236D01*
X13028206Y-17440236D02*
X13018682Y-17421189D01*
X13018682Y-17421189D02*
X13009158Y-17383093D01*
X13009158Y-17383093D02*
X13009158Y-17335474D01*
X13009158Y-17335474D02*
X13018682Y-17297379D01*
X13018682Y-17297379D02*
X13028206Y-17278331D01*
X13028206Y-17278331D02*
X13037729Y-17268808D01*
X13037729Y-17268808D02*
X13056777Y-17259284D01*
X13199634Y-17259284D02*
X13199634Y-17297379D01*
X13275825Y-17259284D02*
X13275825Y-17297379D01*
X13571063Y-17535474D02*
X13561539Y-17525950D01*
X13561539Y-17525950D02*
X13542491Y-17497379D01*
X13542491Y-17497379D02*
X13532968Y-17478331D01*
X13532968Y-17478331D02*
X13523444Y-17449760D01*
X13523444Y-17449760D02*
X13513920Y-17402141D01*
X13513920Y-17402141D02*
X13513920Y-17364046D01*
X13513920Y-17364046D02*
X13523444Y-17316427D01*
X13523444Y-17316427D02*
X13532968Y-17287855D01*
X13532968Y-17287855D02*
X13542491Y-17268808D01*
X13542491Y-17268808D02*
X13561539Y-17240236D01*
X13561539Y-17240236D02*
X13571063Y-17230712D01*
X13752015Y-17459284D02*
X13637729Y-17459284D01*
X13694872Y-17459284D02*
X13694872Y-17259284D01*
X13694872Y-17259284D02*
X13675825Y-17287855D01*
X13675825Y-17287855D02*
X13656777Y-17306903D01*
X13656777Y-17306903D02*
X13637729Y-17316427D01*
X13828206Y-17278331D02*
X13837729Y-17268808D01*
X13837729Y-17268808D02*
X13856777Y-17259284D01*
X13856777Y-17259284D02*
X13904396Y-17259284D01*
X13904396Y-17259284D02*
X13923444Y-17268808D01*
X13923444Y-17268808D02*
X13932968Y-17278331D01*
X13932968Y-17278331D02*
X13942491Y-17297379D01*
X13942491Y-17297379D02*
X13942491Y-17316427D01*
X13942491Y-17316427D02*
X13932968Y-17344998D01*
X13932968Y-17344998D02*
X13818682Y-17459284D01*
X13818682Y-17459284D02*
X13942491Y-17459284D01*
X14180587Y-17459284D02*
X14180587Y-17259284D01*
X14266301Y-17459284D02*
X14266301Y-17354522D01*
X14266301Y-17354522D02*
X14256777Y-17335474D01*
X14256777Y-17335474D02*
X14237730Y-17325950D01*
X14237730Y-17325950D02*
X14209158Y-17325950D01*
X14209158Y-17325950D02*
X14190110Y-17335474D01*
X14190110Y-17335474D02*
X14180587Y-17344998D01*
X14390110Y-17459284D02*
X14371063Y-17449760D01*
X14371063Y-17449760D02*
X14361539Y-17440236D01*
X14361539Y-17440236D02*
X14352015Y-17421189D01*
X14352015Y-17421189D02*
X14352015Y-17364046D01*
X14352015Y-17364046D02*
X14361539Y-17344998D01*
X14361539Y-17344998D02*
X14371063Y-17335474D01*
X14371063Y-17335474D02*
X14390110Y-17325950D01*
X14390110Y-17325950D02*
X14418682Y-17325950D01*
X14418682Y-17325950D02*
X14437730Y-17335474D01*
X14437730Y-17335474D02*
X14447253Y-17344998D01*
X14447253Y-17344998D02*
X14456777Y-17364046D01*
X14456777Y-17364046D02*
X14456777Y-17421189D01*
X14456777Y-17421189D02*
X14447253Y-17440236D01*
X14447253Y-17440236D02*
X14437730Y-17449760D01*
X14437730Y-17449760D02*
X14418682Y-17459284D01*
X14418682Y-17459284D02*
X14390110Y-17459284D01*
X14571063Y-17459284D02*
X14552015Y-17449760D01*
X14552015Y-17449760D02*
X14542491Y-17430712D01*
X14542491Y-17430712D02*
X14542491Y-17259284D01*
X14723444Y-17449760D02*
X14704396Y-17459284D01*
X14704396Y-17459284D02*
X14666301Y-17459284D01*
X14666301Y-17459284D02*
X14647253Y-17449760D01*
X14647253Y-17449760D02*
X14637730Y-17430712D01*
X14637730Y-17430712D02*
X14637730Y-17354522D01*
X14637730Y-17354522D02*
X14647253Y-17335474D01*
X14647253Y-17335474D02*
X14666301Y-17325950D01*
X14666301Y-17325950D02*
X14704396Y-17325950D01*
X14704396Y-17325950D02*
X14723444Y-17335474D01*
X14723444Y-17335474D02*
X14732968Y-17354522D01*
X14732968Y-17354522D02*
X14732968Y-17373570D01*
X14732968Y-17373570D02*
X14637730Y-17392617D01*
X14809158Y-17449760D02*
X14828206Y-17459284D01*
X14828206Y-17459284D02*
X14866301Y-17459284D01*
X14866301Y-17459284D02*
X14885349Y-17449760D01*
X14885349Y-17449760D02*
X14894872Y-17430712D01*
X14894872Y-17430712D02*
X14894872Y-17421189D01*
X14894872Y-17421189D02*
X14885349Y-17402141D01*
X14885349Y-17402141D02*
X14866301Y-17392617D01*
X14866301Y-17392617D02*
X14837730Y-17392617D01*
X14837730Y-17392617D02*
X14818682Y-17383093D01*
X14818682Y-17383093D02*
X14809158Y-17364046D01*
X14809158Y-17364046D02*
X14809158Y-17354522D01*
X14809158Y-17354522D02*
X14818682Y-17335474D01*
X14818682Y-17335474D02*
X14837730Y-17325950D01*
X14837730Y-17325950D02*
X14866301Y-17325950D01*
X14866301Y-17325950D02*
X14885349Y-17335474D01*
X14961539Y-17535474D02*
X14971063Y-17525950D01*
X14971063Y-17525950D02*
X14990111Y-17497379D01*
X14990111Y-17497379D02*
X14999634Y-17478331D01*
X14999634Y-17478331D02*
X15009158Y-17449760D01*
X15009158Y-17449760D02*
X15018682Y-17402141D01*
X15018682Y-17402141D02*
X15018682Y-17364046D01*
X15018682Y-17364046D02*
X15009158Y-17316427D01*
X15009158Y-17316427D02*
X14999634Y-17287855D01*
X14999634Y-17287855D02*
X14990111Y-17268808D01*
X14990111Y-17268808D02*
X14971063Y-17240236D01*
X14971063Y-17240236D02*
X14961539Y-17230712D01*
D12*
X9946000Y-17681800D02*
X9996000Y-17631800D01*
X9946000Y-17581800D01*
X9896000Y-17631800D01*
X9946000Y-17681800D01*
D11*
X10361539Y-17723284D02*
X10247253Y-17723284D01*
X10304396Y-17723284D02*
X10304396Y-17523284D01*
X10304396Y-17523284D02*
X10285348Y-17551855D01*
X10285348Y-17551855D02*
X10266301Y-17570903D01*
X10266301Y-17570903D02*
X10247253Y-17580427D01*
X10447253Y-17704236D02*
X10456777Y-17713760D01*
X10456777Y-17713760D02*
X10447253Y-17723284D01*
X10447253Y-17723284D02*
X10437729Y-17713760D01*
X10437729Y-17713760D02*
X10447253Y-17704236D01*
X10447253Y-17704236D02*
X10447253Y-17723284D01*
X10580586Y-17523284D02*
X10599634Y-17523284D01*
X10599634Y-17523284D02*
X10618682Y-17532808D01*
X10618682Y-17532808D02*
X10628205Y-17542331D01*
X10628205Y-17542331D02*
X10637729Y-17561379D01*
X10637729Y-17561379D02*
X10647253Y-17599474D01*
X10647253Y-17599474D02*
X10647253Y-17647093D01*
X10647253Y-17647093D02*
X10637729Y-17685189D01*
X10637729Y-17685189D02*
X10628205Y-17704236D01*
X10628205Y-17704236D02*
X10618682Y-17713760D01*
X10618682Y-17713760D02*
X10599634Y-17723284D01*
X10599634Y-17723284D02*
X10580586Y-17723284D01*
X10580586Y-17723284D02*
X10561539Y-17713760D01*
X10561539Y-17713760D02*
X10552015Y-17704236D01*
X10552015Y-17704236D02*
X10542491Y-17685189D01*
X10542491Y-17685189D02*
X10532967Y-17647093D01*
X10532967Y-17647093D02*
X10532967Y-17599474D01*
X10532967Y-17599474D02*
X10542491Y-17561379D01*
X10542491Y-17561379D02*
X10552015Y-17542331D01*
X10552015Y-17542331D02*
X10561539Y-17532808D01*
X10561539Y-17532808D02*
X10580586Y-17523284D01*
X10771063Y-17523284D02*
X10790110Y-17523284D01*
X10790110Y-17523284D02*
X10809158Y-17532808D01*
X10809158Y-17532808D02*
X10818682Y-17542331D01*
X10818682Y-17542331D02*
X10828205Y-17561379D01*
X10828205Y-17561379D02*
X10837729Y-17599474D01*
X10837729Y-17599474D02*
X10837729Y-17647093D01*
X10837729Y-17647093D02*
X10828205Y-17685189D01*
X10828205Y-17685189D02*
X10818682Y-17704236D01*
X10818682Y-17704236D02*
X10809158Y-17713760D01*
X10809158Y-17713760D02*
X10790110Y-17723284D01*
X10790110Y-17723284D02*
X10771063Y-17723284D01*
X10771063Y-17723284D02*
X10752015Y-17713760D01*
X10752015Y-17713760D02*
X10742491Y-17704236D01*
X10742491Y-17704236D02*
X10732967Y-17685189D01*
X10732967Y-17685189D02*
X10723444Y-17647093D01*
X10723444Y-17647093D02*
X10723444Y-17599474D01*
X10723444Y-17599474D02*
X10732967Y-17561379D01*
X10732967Y-17561379D02*
X10742491Y-17542331D01*
X10742491Y-17542331D02*
X10752015Y-17532808D01*
X10752015Y-17532808D02*
X10771063Y-17523284D01*
X10961539Y-17523284D02*
X10980586Y-17523284D01*
X10980586Y-17523284D02*
X10999634Y-17532808D01*
X10999634Y-17532808D02*
X11009158Y-17542331D01*
X11009158Y-17542331D02*
X11018682Y-17561379D01*
X11018682Y-17561379D02*
X11028205Y-17599474D01*
X11028205Y-17599474D02*
X11028205Y-17647093D01*
X11028205Y-17647093D02*
X11018682Y-17685189D01*
X11018682Y-17685189D02*
X11009158Y-17704236D01*
X11009158Y-17704236D02*
X10999634Y-17713760D01*
X10999634Y-17713760D02*
X10980586Y-17723284D01*
X10980586Y-17723284D02*
X10961539Y-17723284D01*
X10961539Y-17723284D02*
X10942491Y-17713760D01*
X10942491Y-17713760D02*
X10932967Y-17704236D01*
X10932967Y-17704236D02*
X10923444Y-17685189D01*
X10923444Y-17685189D02*
X10913920Y-17647093D01*
X10913920Y-17647093D02*
X10913920Y-17599474D01*
X10913920Y-17599474D02*
X10923444Y-17561379D01*
X10923444Y-17561379D02*
X10932967Y-17542331D01*
X10932967Y-17542331D02*
X10942491Y-17532808D01*
X10942491Y-17532808D02*
X10961539Y-17523284D01*
X11113920Y-17723284D02*
X11113920Y-17589950D01*
X11113920Y-17608998D02*
X11123444Y-17599474D01*
X11123444Y-17599474D02*
X11142491Y-17589950D01*
X11142491Y-17589950D02*
X11171063Y-17589950D01*
X11171063Y-17589950D02*
X11190110Y-17599474D01*
X11190110Y-17599474D02*
X11199634Y-17618522D01*
X11199634Y-17618522D02*
X11199634Y-17723284D01*
X11199634Y-17618522D02*
X11209158Y-17599474D01*
X11209158Y-17599474D02*
X11228205Y-17589950D01*
X11228205Y-17589950D02*
X11256777Y-17589950D01*
X11256777Y-17589950D02*
X11275824Y-17599474D01*
X11275824Y-17599474D02*
X11285348Y-17618522D01*
X11285348Y-17618522D02*
X11285348Y-17723284D01*
X11380586Y-17723284D02*
X11380586Y-17589950D01*
X11380586Y-17608998D02*
X11390110Y-17599474D01*
X11390110Y-17599474D02*
X11409158Y-17589950D01*
X11409158Y-17589950D02*
X11437729Y-17589950D01*
X11437729Y-17589950D02*
X11456777Y-17599474D01*
X11456777Y-17599474D02*
X11466301Y-17618522D01*
X11466301Y-17618522D02*
X11466301Y-17723284D01*
X11466301Y-17618522D02*
X11475824Y-17599474D01*
X11475824Y-17599474D02*
X11494872Y-17589950D01*
X11494872Y-17589950D02*
X11523443Y-17589950D01*
X11523443Y-17589950D02*
X11542491Y-17599474D01*
X11542491Y-17599474D02*
X11552015Y-17618522D01*
X11552015Y-17618522D02*
X11552015Y-17723284D01*
X11942491Y-17513760D02*
X11771063Y-17770903D01*
X12199634Y-17523284D02*
X12218682Y-17523284D01*
X12218682Y-17523284D02*
X12237729Y-17532808D01*
X12237729Y-17532808D02*
X12247253Y-17542331D01*
X12247253Y-17542331D02*
X12256777Y-17561379D01*
X12256777Y-17561379D02*
X12266301Y-17599474D01*
X12266301Y-17599474D02*
X12266301Y-17647093D01*
X12266301Y-17647093D02*
X12256777Y-17685189D01*
X12256777Y-17685189D02*
X12247253Y-17704236D01*
X12247253Y-17704236D02*
X12237729Y-17713760D01*
X12237729Y-17713760D02*
X12218682Y-17723284D01*
X12218682Y-17723284D02*
X12199634Y-17723284D01*
X12199634Y-17723284D02*
X12180586Y-17713760D01*
X12180586Y-17713760D02*
X12171063Y-17704236D01*
X12171063Y-17704236D02*
X12161539Y-17685189D01*
X12161539Y-17685189D02*
X12152015Y-17647093D01*
X12152015Y-17647093D02*
X12152015Y-17599474D01*
X12152015Y-17599474D02*
X12161539Y-17561379D01*
X12161539Y-17561379D02*
X12171063Y-17542331D01*
X12171063Y-17542331D02*
X12180586Y-17532808D01*
X12180586Y-17532808D02*
X12199634Y-17523284D01*
X12352015Y-17704236D02*
X12361539Y-17713760D01*
X12361539Y-17713760D02*
X12352015Y-17723284D01*
X12352015Y-17723284D02*
X12342491Y-17713760D01*
X12342491Y-17713760D02*
X12352015Y-17704236D01*
X12352015Y-17704236D02*
X12352015Y-17723284D01*
X12485348Y-17523284D02*
X12504396Y-17523284D01*
X12504396Y-17523284D02*
X12523444Y-17532808D01*
X12523444Y-17532808D02*
X12532967Y-17542331D01*
X12532967Y-17542331D02*
X12542491Y-17561379D01*
X12542491Y-17561379D02*
X12552015Y-17599474D01*
X12552015Y-17599474D02*
X12552015Y-17647093D01*
X12552015Y-17647093D02*
X12542491Y-17685189D01*
X12542491Y-17685189D02*
X12532967Y-17704236D01*
X12532967Y-17704236D02*
X12523444Y-17713760D01*
X12523444Y-17713760D02*
X12504396Y-17723284D01*
X12504396Y-17723284D02*
X12485348Y-17723284D01*
X12485348Y-17723284D02*
X12466301Y-17713760D01*
X12466301Y-17713760D02*
X12456777Y-17704236D01*
X12456777Y-17704236D02*
X12447253Y-17685189D01*
X12447253Y-17685189D02*
X12437729Y-17647093D01*
X12437729Y-17647093D02*
X12437729Y-17599474D01*
X12437729Y-17599474D02*
X12447253Y-17561379D01*
X12447253Y-17561379D02*
X12456777Y-17542331D01*
X12456777Y-17542331D02*
X12466301Y-17532808D01*
X12466301Y-17532808D02*
X12485348Y-17523284D01*
X12618682Y-17523284D02*
X12742491Y-17523284D01*
X12742491Y-17523284D02*
X12675825Y-17599474D01*
X12675825Y-17599474D02*
X12704396Y-17599474D01*
X12704396Y-17599474D02*
X12723444Y-17608998D01*
X12723444Y-17608998D02*
X12732967Y-17618522D01*
X12732967Y-17618522D02*
X12742491Y-17637570D01*
X12742491Y-17637570D02*
X12742491Y-17685189D01*
X12742491Y-17685189D02*
X12732967Y-17704236D01*
X12732967Y-17704236D02*
X12723444Y-17713760D01*
X12723444Y-17713760D02*
X12704396Y-17723284D01*
X12704396Y-17723284D02*
X12647253Y-17723284D01*
X12647253Y-17723284D02*
X12628206Y-17713760D01*
X12628206Y-17713760D02*
X12618682Y-17704236D01*
X12837729Y-17723284D02*
X12875825Y-17723284D01*
X12875825Y-17723284D02*
X12894872Y-17713760D01*
X12894872Y-17713760D02*
X12904396Y-17704236D01*
X12904396Y-17704236D02*
X12923444Y-17675665D01*
X12923444Y-17675665D02*
X12932967Y-17637570D01*
X12932967Y-17637570D02*
X12932967Y-17561379D01*
X12932967Y-17561379D02*
X12923444Y-17542331D01*
X12923444Y-17542331D02*
X12913920Y-17532808D01*
X12913920Y-17532808D02*
X12894872Y-17523284D01*
X12894872Y-17523284D02*
X12856777Y-17523284D01*
X12856777Y-17523284D02*
X12837729Y-17532808D01*
X12837729Y-17532808D02*
X12828206Y-17542331D01*
X12828206Y-17542331D02*
X12818682Y-17561379D01*
X12818682Y-17561379D02*
X12818682Y-17608998D01*
X12818682Y-17608998D02*
X12828206Y-17628046D01*
X12828206Y-17628046D02*
X12837729Y-17637570D01*
X12837729Y-17637570D02*
X12856777Y-17647093D01*
X12856777Y-17647093D02*
X12894872Y-17647093D01*
X12894872Y-17647093D02*
X12913920Y-17637570D01*
X12913920Y-17637570D02*
X12923444Y-17628046D01*
X12923444Y-17628046D02*
X12932967Y-17608998D01*
X13104396Y-17589950D02*
X13104396Y-17723284D01*
X13056777Y-17513760D02*
X13009158Y-17656617D01*
X13009158Y-17656617D02*
X13132967Y-17656617D01*
X13199634Y-17523284D02*
X13199634Y-17561379D01*
X13275825Y-17523284D02*
X13275825Y-17561379D01*
X13571063Y-17799474D02*
X13561539Y-17789950D01*
X13561539Y-17789950D02*
X13542491Y-17761379D01*
X13542491Y-17761379D02*
X13532968Y-17742331D01*
X13532968Y-17742331D02*
X13523444Y-17713760D01*
X13523444Y-17713760D02*
X13513920Y-17666141D01*
X13513920Y-17666141D02*
X13513920Y-17628046D01*
X13513920Y-17628046D02*
X13523444Y-17580427D01*
X13523444Y-17580427D02*
X13532968Y-17551855D01*
X13532968Y-17551855D02*
X13542491Y-17532808D01*
X13542491Y-17532808D02*
X13561539Y-17504236D01*
X13561539Y-17504236D02*
X13571063Y-17494712D01*
X13742491Y-17523284D02*
X13647253Y-17523284D01*
X13647253Y-17523284D02*
X13637729Y-17618522D01*
X13637729Y-17618522D02*
X13647253Y-17608998D01*
X13647253Y-17608998D02*
X13666301Y-17599474D01*
X13666301Y-17599474D02*
X13713920Y-17599474D01*
X13713920Y-17599474D02*
X13732968Y-17608998D01*
X13732968Y-17608998D02*
X13742491Y-17618522D01*
X13742491Y-17618522D02*
X13752015Y-17637570D01*
X13752015Y-17637570D02*
X13752015Y-17685189D01*
X13752015Y-17685189D02*
X13742491Y-17704236D01*
X13742491Y-17704236D02*
X13732968Y-17713760D01*
X13732968Y-17713760D02*
X13713920Y-17723284D01*
X13713920Y-17723284D02*
X13666301Y-17723284D01*
X13666301Y-17723284D02*
X13647253Y-17713760D01*
X13647253Y-17713760D02*
X13637729Y-17704236D01*
X13875825Y-17523284D02*
X13894872Y-17523284D01*
X13894872Y-17523284D02*
X13913920Y-17532808D01*
X13913920Y-17532808D02*
X13923444Y-17542331D01*
X13923444Y-17542331D02*
X13932968Y-17561379D01*
X13932968Y-17561379D02*
X13942491Y-17599474D01*
X13942491Y-17599474D02*
X13942491Y-17647093D01*
X13942491Y-17647093D02*
X13932968Y-17685189D01*
X13932968Y-17685189D02*
X13923444Y-17704236D01*
X13923444Y-17704236D02*
X13913920Y-17713760D01*
X13913920Y-17713760D02*
X13894872Y-17723284D01*
X13894872Y-17723284D02*
X13875825Y-17723284D01*
X13875825Y-17723284D02*
X13856777Y-17713760D01*
X13856777Y-17713760D02*
X13847253Y-17704236D01*
X13847253Y-17704236D02*
X13837729Y-17685189D01*
X13837729Y-17685189D02*
X13828206Y-17647093D01*
X13828206Y-17647093D02*
X13828206Y-17599474D01*
X13828206Y-17599474D02*
X13837729Y-17561379D01*
X13837729Y-17561379D02*
X13847253Y-17542331D01*
X13847253Y-17542331D02*
X13856777Y-17532808D01*
X13856777Y-17532808D02*
X13875825Y-17523284D01*
X14180587Y-17723284D02*
X14180587Y-17523284D01*
X14266301Y-17723284D02*
X14266301Y-17618522D01*
X14266301Y-17618522D02*
X14256777Y-17599474D01*
X14256777Y-17599474D02*
X14237730Y-17589950D01*
X14237730Y-17589950D02*
X14209158Y-17589950D01*
X14209158Y-17589950D02*
X14190110Y-17599474D01*
X14190110Y-17599474D02*
X14180587Y-17608998D01*
X14390110Y-17723284D02*
X14371063Y-17713760D01*
X14371063Y-17713760D02*
X14361539Y-17704236D01*
X14361539Y-17704236D02*
X14352015Y-17685189D01*
X14352015Y-17685189D02*
X14352015Y-17628046D01*
X14352015Y-17628046D02*
X14361539Y-17608998D01*
X14361539Y-17608998D02*
X14371063Y-17599474D01*
X14371063Y-17599474D02*
X14390110Y-17589950D01*
X14390110Y-17589950D02*
X14418682Y-17589950D01*
X14418682Y-17589950D02*
X14437730Y-17599474D01*
X14437730Y-17599474D02*
X14447253Y-17608998D01*
X14447253Y-17608998D02*
X14456777Y-17628046D01*
X14456777Y-17628046D02*
X14456777Y-17685189D01*
X14456777Y-17685189D02*
X14447253Y-17704236D01*
X14447253Y-17704236D02*
X14437730Y-17713760D01*
X14437730Y-17713760D02*
X14418682Y-17723284D01*
X14418682Y-17723284D02*
X14390110Y-17723284D01*
X14571063Y-17723284D02*
X14552015Y-17713760D01*
X14552015Y-17713760D02*
X14542491Y-17694712D01*
X14542491Y-17694712D02*
X14542491Y-17523284D01*
X14723444Y-17713760D02*
X14704396Y-17723284D01*
X14704396Y-17723284D02*
X14666301Y-17723284D01*
X14666301Y-17723284D02*
X14647253Y-17713760D01*
X14647253Y-17713760D02*
X14637730Y-17694712D01*
X14637730Y-17694712D02*
X14637730Y-17618522D01*
X14637730Y-17618522D02*
X14647253Y-17599474D01*
X14647253Y-17599474D02*
X14666301Y-17589950D01*
X14666301Y-17589950D02*
X14704396Y-17589950D01*
X14704396Y-17589950D02*
X14723444Y-17599474D01*
X14723444Y-17599474D02*
X14732968Y-17618522D01*
X14732968Y-17618522D02*
X14732968Y-17637570D01*
X14732968Y-17637570D02*
X14637730Y-17656617D01*
X14809158Y-17713760D02*
X14828206Y-17723284D01*
X14828206Y-17723284D02*
X14866301Y-17723284D01*
X14866301Y-17723284D02*
X14885349Y-17713760D01*
X14885349Y-17713760D02*
X14894872Y-17694712D01*
X14894872Y-17694712D02*
X14894872Y-17685189D01*
X14894872Y-17685189D02*
X14885349Y-17666141D01*
X14885349Y-17666141D02*
X14866301Y-17656617D01*
X14866301Y-17656617D02*
X14837730Y-17656617D01*
X14837730Y-17656617D02*
X14818682Y-17647093D01*
X14818682Y-17647093D02*
X14809158Y-17628046D01*
X14809158Y-17628046D02*
X14809158Y-17618522D01*
X14809158Y-17618522D02*
X14818682Y-17599474D01*
X14818682Y-17599474D02*
X14837730Y-17589950D01*
X14837730Y-17589950D02*
X14866301Y-17589950D01*
X14866301Y-17589950D02*
X14885349Y-17599474D01*
X14961539Y-17799474D02*
X14971063Y-17789950D01*
X14971063Y-17789950D02*
X14990111Y-17761379D01*
X14990111Y-17761379D02*
X14999634Y-17742331D01*
X14999634Y-17742331D02*
X15009158Y-17713760D01*
X15009158Y-17713760D02*
X15018682Y-17666141D01*
X15018682Y-17666141D02*
X15018682Y-17628046D01*
X15018682Y-17628046D02*
X15009158Y-17580427D01*
X15009158Y-17580427D02*
X14999634Y-17551855D01*
X14999634Y-17551855D02*
X14990111Y-17532808D01*
X14990111Y-17532808D02*
X14971063Y-17504236D01*
X14971063Y-17504236D02*
X14961539Y-17494712D01*
D13*
X9895924Y-17845762D02*
X9996000Y-17945838D01*
X9996000Y-17845762D02*
X9895924Y-17945838D01*
X9996000Y-17895800D02*
G75*
G03*
X9895924Y-17895800I-50038J0D01*
G01*
X9895924Y-17895800D02*
G75*
G03*
X9996000Y-17895800I50038J0D01*
G01*
D11*
X10361539Y-17987284D02*
X10247253Y-17987284D01*
X10304396Y-17987284D02*
X10304396Y-17787284D01*
X10304396Y-17787284D02*
X10285348Y-17815855D01*
X10285348Y-17815855D02*
X10266301Y-17834903D01*
X10266301Y-17834903D02*
X10247253Y-17844427D01*
X10447253Y-17968236D02*
X10456777Y-17977760D01*
X10456777Y-17977760D02*
X10447253Y-17987284D01*
X10447253Y-17987284D02*
X10437729Y-17977760D01*
X10437729Y-17977760D02*
X10447253Y-17968236D01*
X10447253Y-17968236D02*
X10447253Y-17987284D01*
X10580586Y-17787284D02*
X10599634Y-17787284D01*
X10599634Y-17787284D02*
X10618682Y-17796808D01*
X10618682Y-17796808D02*
X10628205Y-17806331D01*
X10628205Y-17806331D02*
X10637729Y-17825379D01*
X10637729Y-17825379D02*
X10647253Y-17863474D01*
X10647253Y-17863474D02*
X10647253Y-17911093D01*
X10647253Y-17911093D02*
X10637729Y-17949189D01*
X10637729Y-17949189D02*
X10628205Y-17968236D01*
X10628205Y-17968236D02*
X10618682Y-17977760D01*
X10618682Y-17977760D02*
X10599634Y-17987284D01*
X10599634Y-17987284D02*
X10580586Y-17987284D01*
X10580586Y-17987284D02*
X10561539Y-17977760D01*
X10561539Y-17977760D02*
X10552015Y-17968236D01*
X10552015Y-17968236D02*
X10542491Y-17949189D01*
X10542491Y-17949189D02*
X10532967Y-17911093D01*
X10532967Y-17911093D02*
X10532967Y-17863474D01*
X10532967Y-17863474D02*
X10542491Y-17825379D01*
X10542491Y-17825379D02*
X10552015Y-17806331D01*
X10552015Y-17806331D02*
X10561539Y-17796808D01*
X10561539Y-17796808D02*
X10580586Y-17787284D01*
X10771063Y-17787284D02*
X10790110Y-17787284D01*
X10790110Y-17787284D02*
X10809158Y-17796808D01*
X10809158Y-17796808D02*
X10818682Y-17806331D01*
X10818682Y-17806331D02*
X10828205Y-17825379D01*
X10828205Y-17825379D02*
X10837729Y-17863474D01*
X10837729Y-17863474D02*
X10837729Y-17911093D01*
X10837729Y-17911093D02*
X10828205Y-17949189D01*
X10828205Y-17949189D02*
X10818682Y-17968236D01*
X10818682Y-17968236D02*
X10809158Y-17977760D01*
X10809158Y-17977760D02*
X10790110Y-17987284D01*
X10790110Y-17987284D02*
X10771063Y-17987284D01*
X10771063Y-17987284D02*
X10752015Y-17977760D01*
X10752015Y-17977760D02*
X10742491Y-17968236D01*
X10742491Y-17968236D02*
X10732967Y-17949189D01*
X10732967Y-17949189D02*
X10723444Y-17911093D01*
X10723444Y-17911093D02*
X10723444Y-17863474D01*
X10723444Y-17863474D02*
X10732967Y-17825379D01*
X10732967Y-17825379D02*
X10742491Y-17806331D01*
X10742491Y-17806331D02*
X10752015Y-17796808D01*
X10752015Y-17796808D02*
X10771063Y-17787284D01*
X11028205Y-17987284D02*
X10913920Y-17987284D01*
X10971063Y-17987284D02*
X10971063Y-17787284D01*
X10971063Y-17787284D02*
X10952015Y-17815855D01*
X10952015Y-17815855D02*
X10932967Y-17834903D01*
X10932967Y-17834903D02*
X10913920Y-17844427D01*
X11113920Y-17987284D02*
X11113920Y-17853950D01*
X11113920Y-17872998D02*
X11123444Y-17863474D01*
X11123444Y-17863474D02*
X11142491Y-17853950D01*
X11142491Y-17853950D02*
X11171063Y-17853950D01*
X11171063Y-17853950D02*
X11190110Y-17863474D01*
X11190110Y-17863474D02*
X11199634Y-17882522D01*
X11199634Y-17882522D02*
X11199634Y-17987284D01*
X11199634Y-17882522D02*
X11209158Y-17863474D01*
X11209158Y-17863474D02*
X11228205Y-17853950D01*
X11228205Y-17853950D02*
X11256777Y-17853950D01*
X11256777Y-17853950D02*
X11275824Y-17863474D01*
X11275824Y-17863474D02*
X11285348Y-17882522D01*
X11285348Y-17882522D02*
X11285348Y-17987284D01*
X11380586Y-17987284D02*
X11380586Y-17853950D01*
X11380586Y-17872998D02*
X11390110Y-17863474D01*
X11390110Y-17863474D02*
X11409158Y-17853950D01*
X11409158Y-17853950D02*
X11437729Y-17853950D01*
X11437729Y-17853950D02*
X11456777Y-17863474D01*
X11456777Y-17863474D02*
X11466301Y-17882522D01*
X11466301Y-17882522D02*
X11466301Y-17987284D01*
X11466301Y-17882522D02*
X11475824Y-17863474D01*
X11475824Y-17863474D02*
X11494872Y-17853950D01*
X11494872Y-17853950D02*
X11523443Y-17853950D01*
X11523443Y-17853950D02*
X11542491Y-17863474D01*
X11542491Y-17863474D02*
X11552015Y-17882522D01*
X11552015Y-17882522D02*
X11552015Y-17987284D01*
X11942491Y-17777760D02*
X11771063Y-18034903D01*
X12199634Y-17787284D02*
X12218682Y-17787284D01*
X12218682Y-17787284D02*
X12237729Y-17796808D01*
X12237729Y-17796808D02*
X12247253Y-17806331D01*
X12247253Y-17806331D02*
X12256777Y-17825379D01*
X12256777Y-17825379D02*
X12266301Y-17863474D01*
X12266301Y-17863474D02*
X12266301Y-17911093D01*
X12266301Y-17911093D02*
X12256777Y-17949189D01*
X12256777Y-17949189D02*
X12247253Y-17968236D01*
X12247253Y-17968236D02*
X12237729Y-17977760D01*
X12237729Y-17977760D02*
X12218682Y-17987284D01*
X12218682Y-17987284D02*
X12199634Y-17987284D01*
X12199634Y-17987284D02*
X12180586Y-17977760D01*
X12180586Y-17977760D02*
X12171063Y-17968236D01*
X12171063Y-17968236D02*
X12161539Y-17949189D01*
X12161539Y-17949189D02*
X12152015Y-17911093D01*
X12152015Y-17911093D02*
X12152015Y-17863474D01*
X12152015Y-17863474D02*
X12161539Y-17825379D01*
X12161539Y-17825379D02*
X12171063Y-17806331D01*
X12171063Y-17806331D02*
X12180586Y-17796808D01*
X12180586Y-17796808D02*
X12199634Y-17787284D01*
X12352015Y-17968236D02*
X12361539Y-17977760D01*
X12361539Y-17977760D02*
X12352015Y-17987284D01*
X12352015Y-17987284D02*
X12342491Y-17977760D01*
X12342491Y-17977760D02*
X12352015Y-17968236D01*
X12352015Y-17968236D02*
X12352015Y-17987284D01*
X12485348Y-17787284D02*
X12504396Y-17787284D01*
X12504396Y-17787284D02*
X12523444Y-17796808D01*
X12523444Y-17796808D02*
X12532967Y-17806331D01*
X12532967Y-17806331D02*
X12542491Y-17825379D01*
X12542491Y-17825379D02*
X12552015Y-17863474D01*
X12552015Y-17863474D02*
X12552015Y-17911093D01*
X12552015Y-17911093D02*
X12542491Y-17949189D01*
X12542491Y-17949189D02*
X12532967Y-17968236D01*
X12532967Y-17968236D02*
X12523444Y-17977760D01*
X12523444Y-17977760D02*
X12504396Y-17987284D01*
X12504396Y-17987284D02*
X12485348Y-17987284D01*
X12485348Y-17987284D02*
X12466301Y-17977760D01*
X12466301Y-17977760D02*
X12456777Y-17968236D01*
X12456777Y-17968236D02*
X12447253Y-17949189D01*
X12447253Y-17949189D02*
X12437729Y-17911093D01*
X12437729Y-17911093D02*
X12437729Y-17863474D01*
X12437729Y-17863474D02*
X12447253Y-17825379D01*
X12447253Y-17825379D02*
X12456777Y-17806331D01*
X12456777Y-17806331D02*
X12466301Y-17796808D01*
X12466301Y-17796808D02*
X12485348Y-17787284D01*
X12618682Y-17787284D02*
X12742491Y-17787284D01*
X12742491Y-17787284D02*
X12675825Y-17863474D01*
X12675825Y-17863474D02*
X12704396Y-17863474D01*
X12704396Y-17863474D02*
X12723444Y-17872998D01*
X12723444Y-17872998D02*
X12732967Y-17882522D01*
X12732967Y-17882522D02*
X12742491Y-17901570D01*
X12742491Y-17901570D02*
X12742491Y-17949189D01*
X12742491Y-17949189D02*
X12732967Y-17968236D01*
X12732967Y-17968236D02*
X12723444Y-17977760D01*
X12723444Y-17977760D02*
X12704396Y-17987284D01*
X12704396Y-17987284D02*
X12647253Y-17987284D01*
X12647253Y-17987284D02*
X12628206Y-17977760D01*
X12628206Y-17977760D02*
X12618682Y-17968236D01*
X12837729Y-17987284D02*
X12875825Y-17987284D01*
X12875825Y-17987284D02*
X12894872Y-17977760D01*
X12894872Y-17977760D02*
X12904396Y-17968236D01*
X12904396Y-17968236D02*
X12923444Y-17939665D01*
X12923444Y-17939665D02*
X12932967Y-17901570D01*
X12932967Y-17901570D02*
X12932967Y-17825379D01*
X12932967Y-17825379D02*
X12923444Y-17806331D01*
X12923444Y-17806331D02*
X12913920Y-17796808D01*
X12913920Y-17796808D02*
X12894872Y-17787284D01*
X12894872Y-17787284D02*
X12856777Y-17787284D01*
X12856777Y-17787284D02*
X12837729Y-17796808D01*
X12837729Y-17796808D02*
X12828206Y-17806331D01*
X12828206Y-17806331D02*
X12818682Y-17825379D01*
X12818682Y-17825379D02*
X12818682Y-17872998D01*
X12818682Y-17872998D02*
X12828206Y-17892046D01*
X12828206Y-17892046D02*
X12837729Y-17901570D01*
X12837729Y-17901570D02*
X12856777Y-17911093D01*
X12856777Y-17911093D02*
X12894872Y-17911093D01*
X12894872Y-17911093D02*
X12913920Y-17901570D01*
X12913920Y-17901570D02*
X12923444Y-17892046D01*
X12923444Y-17892046D02*
X12932967Y-17872998D01*
X13104396Y-17853950D02*
X13104396Y-17987284D01*
X13056777Y-17777760D02*
X13009158Y-17920617D01*
X13009158Y-17920617D02*
X13132967Y-17920617D01*
X13199634Y-17787284D02*
X13199634Y-17825379D01*
X13275825Y-17787284D02*
X13275825Y-17825379D01*
X13571063Y-18063474D02*
X13561539Y-18053950D01*
X13561539Y-18053950D02*
X13542491Y-18025379D01*
X13542491Y-18025379D02*
X13532968Y-18006331D01*
X13532968Y-18006331D02*
X13523444Y-17977760D01*
X13523444Y-17977760D02*
X13513920Y-17930141D01*
X13513920Y-17930141D02*
X13513920Y-17892046D01*
X13513920Y-17892046D02*
X13523444Y-17844427D01*
X13523444Y-17844427D02*
X13532968Y-17815855D01*
X13532968Y-17815855D02*
X13542491Y-17796808D01*
X13542491Y-17796808D02*
X13561539Y-17768236D01*
X13561539Y-17768236D02*
X13571063Y-17758712D01*
X13732968Y-17853950D02*
X13732968Y-17987284D01*
X13685348Y-17777760D02*
X13637729Y-17920617D01*
X13637729Y-17920617D02*
X13761539Y-17920617D01*
X13990110Y-17987284D02*
X13990110Y-17787284D01*
X14075825Y-17987284D02*
X14075825Y-17882522D01*
X14075825Y-17882522D02*
X14066301Y-17863474D01*
X14066301Y-17863474D02*
X14047253Y-17853950D01*
X14047253Y-17853950D02*
X14018682Y-17853950D01*
X14018682Y-17853950D02*
X13999634Y-17863474D01*
X13999634Y-17863474D02*
X13990110Y-17872998D01*
X14199634Y-17987284D02*
X14180587Y-17977760D01*
X14180587Y-17977760D02*
X14171063Y-17968236D01*
X14171063Y-17968236D02*
X14161539Y-17949189D01*
X14161539Y-17949189D02*
X14161539Y-17892046D01*
X14161539Y-17892046D02*
X14171063Y-17872998D01*
X14171063Y-17872998D02*
X14180587Y-17863474D01*
X14180587Y-17863474D02*
X14199634Y-17853950D01*
X14199634Y-17853950D02*
X14228206Y-17853950D01*
X14228206Y-17853950D02*
X14247253Y-17863474D01*
X14247253Y-17863474D02*
X14256777Y-17872998D01*
X14256777Y-17872998D02*
X14266301Y-17892046D01*
X14266301Y-17892046D02*
X14266301Y-17949189D01*
X14266301Y-17949189D02*
X14256777Y-17968236D01*
X14256777Y-17968236D02*
X14247253Y-17977760D01*
X14247253Y-17977760D02*
X14228206Y-17987284D01*
X14228206Y-17987284D02*
X14199634Y-17987284D01*
X14380587Y-17987284D02*
X14361539Y-17977760D01*
X14361539Y-17977760D02*
X14352015Y-17958712D01*
X14352015Y-17958712D02*
X14352015Y-17787284D01*
X14532968Y-17977760D02*
X14513920Y-17987284D01*
X14513920Y-17987284D02*
X14475825Y-17987284D01*
X14475825Y-17987284D02*
X14456777Y-17977760D01*
X14456777Y-17977760D02*
X14447253Y-17958712D01*
X14447253Y-17958712D02*
X14447253Y-17882522D01*
X14447253Y-17882522D02*
X14456777Y-17863474D01*
X14456777Y-17863474D02*
X14475825Y-17853950D01*
X14475825Y-17853950D02*
X14513920Y-17853950D01*
X14513920Y-17853950D02*
X14532968Y-17863474D01*
X14532968Y-17863474D02*
X14542491Y-17882522D01*
X14542491Y-17882522D02*
X14542491Y-17901570D01*
X14542491Y-17901570D02*
X14447253Y-17920617D01*
X14618682Y-17977760D02*
X14637730Y-17987284D01*
X14637730Y-17987284D02*
X14675825Y-17987284D01*
X14675825Y-17987284D02*
X14694872Y-17977760D01*
X14694872Y-17977760D02*
X14704396Y-17958712D01*
X14704396Y-17958712D02*
X14704396Y-17949189D01*
X14704396Y-17949189D02*
X14694872Y-17930141D01*
X14694872Y-17930141D02*
X14675825Y-17920617D01*
X14675825Y-17920617D02*
X14647253Y-17920617D01*
X14647253Y-17920617D02*
X14628206Y-17911093D01*
X14628206Y-17911093D02*
X14618682Y-17892046D01*
X14618682Y-17892046D02*
X14618682Y-17882522D01*
X14618682Y-17882522D02*
X14628206Y-17863474D01*
X14628206Y-17863474D02*
X14647253Y-17853950D01*
X14647253Y-17853950D02*
X14675825Y-17853950D01*
X14675825Y-17853950D02*
X14694872Y-17863474D01*
X14771063Y-18063474D02*
X14780587Y-18053950D01*
X14780587Y-18053950D02*
X14799634Y-18025379D01*
X14799634Y-18025379D02*
X14809158Y-18006331D01*
X14809158Y-18006331D02*
X14818682Y-17977760D01*
X14818682Y-17977760D02*
X14828206Y-17930141D01*
X14828206Y-17930141D02*
X14828206Y-17892046D01*
X14828206Y-17892046D02*
X14818682Y-17844427D01*
X14818682Y-17844427D02*
X14809158Y-17815855D01*
X14809158Y-17815855D02*
X14799634Y-17796808D01*
X14799634Y-17796808D02*
X14780587Y-17768236D01*
X14780587Y-17768236D02*
X14771063Y-17758712D01*
D14*
X9871000Y-18097300D02*
X9996000Y-18222300D01*
X9996000Y-18097300D02*
X9871000Y-18222300D01*
X9933500Y-18097300D02*
X9933500Y-18222300D01*
X9871000Y-18159800D02*
X9996000Y-18159800D01*
D11*
X10361539Y-18251284D02*
X10247253Y-18251284D01*
X10304396Y-18251284D02*
X10304396Y-18051284D01*
X10304396Y-18051284D02*
X10285348Y-18079855D01*
X10285348Y-18079855D02*
X10266301Y-18098903D01*
X10266301Y-18098903D02*
X10247253Y-18108427D01*
X10447253Y-18232236D02*
X10456777Y-18241760D01*
X10456777Y-18241760D02*
X10447253Y-18251284D01*
X10447253Y-18251284D02*
X10437729Y-18241760D01*
X10437729Y-18241760D02*
X10447253Y-18232236D01*
X10447253Y-18232236D02*
X10447253Y-18251284D01*
X10532967Y-18070331D02*
X10542491Y-18060808D01*
X10542491Y-18060808D02*
X10561539Y-18051284D01*
X10561539Y-18051284D02*
X10609158Y-18051284D01*
X10609158Y-18051284D02*
X10628205Y-18060808D01*
X10628205Y-18060808D02*
X10637729Y-18070331D01*
X10637729Y-18070331D02*
X10647253Y-18089379D01*
X10647253Y-18089379D02*
X10647253Y-18108427D01*
X10647253Y-18108427D02*
X10637729Y-18136998D01*
X10637729Y-18136998D02*
X10523444Y-18251284D01*
X10523444Y-18251284D02*
X10647253Y-18251284D01*
X10828205Y-18051284D02*
X10732967Y-18051284D01*
X10732967Y-18051284D02*
X10723444Y-18146522D01*
X10723444Y-18146522D02*
X10732967Y-18136998D01*
X10732967Y-18136998D02*
X10752015Y-18127474D01*
X10752015Y-18127474D02*
X10799634Y-18127474D01*
X10799634Y-18127474D02*
X10818682Y-18136998D01*
X10818682Y-18136998D02*
X10828205Y-18146522D01*
X10828205Y-18146522D02*
X10837729Y-18165570D01*
X10837729Y-18165570D02*
X10837729Y-18213189D01*
X10837729Y-18213189D02*
X10828205Y-18232236D01*
X10828205Y-18232236D02*
X10818682Y-18241760D01*
X10818682Y-18241760D02*
X10799634Y-18251284D01*
X10799634Y-18251284D02*
X10752015Y-18251284D01*
X10752015Y-18251284D02*
X10732967Y-18241760D01*
X10732967Y-18241760D02*
X10723444Y-18232236D01*
X10961539Y-18051284D02*
X10980586Y-18051284D01*
X10980586Y-18051284D02*
X10999634Y-18060808D01*
X10999634Y-18060808D02*
X11009158Y-18070331D01*
X11009158Y-18070331D02*
X11018682Y-18089379D01*
X11018682Y-18089379D02*
X11028205Y-18127474D01*
X11028205Y-18127474D02*
X11028205Y-18175093D01*
X11028205Y-18175093D02*
X11018682Y-18213189D01*
X11018682Y-18213189D02*
X11009158Y-18232236D01*
X11009158Y-18232236D02*
X10999634Y-18241760D01*
X10999634Y-18241760D02*
X10980586Y-18251284D01*
X10980586Y-18251284D02*
X10961539Y-18251284D01*
X10961539Y-18251284D02*
X10942491Y-18241760D01*
X10942491Y-18241760D02*
X10932967Y-18232236D01*
X10932967Y-18232236D02*
X10923444Y-18213189D01*
X10923444Y-18213189D02*
X10913920Y-18175093D01*
X10913920Y-18175093D02*
X10913920Y-18127474D01*
X10913920Y-18127474D02*
X10923444Y-18089379D01*
X10923444Y-18089379D02*
X10932967Y-18070331D01*
X10932967Y-18070331D02*
X10942491Y-18060808D01*
X10942491Y-18060808D02*
X10961539Y-18051284D01*
X11113920Y-18251284D02*
X11113920Y-18117950D01*
X11113920Y-18136998D02*
X11123444Y-18127474D01*
X11123444Y-18127474D02*
X11142491Y-18117950D01*
X11142491Y-18117950D02*
X11171063Y-18117950D01*
X11171063Y-18117950D02*
X11190110Y-18127474D01*
X11190110Y-18127474D02*
X11199634Y-18146522D01*
X11199634Y-18146522D02*
X11199634Y-18251284D01*
X11199634Y-18146522D02*
X11209158Y-18127474D01*
X11209158Y-18127474D02*
X11228205Y-18117950D01*
X11228205Y-18117950D02*
X11256777Y-18117950D01*
X11256777Y-18117950D02*
X11275824Y-18127474D01*
X11275824Y-18127474D02*
X11285348Y-18146522D01*
X11285348Y-18146522D02*
X11285348Y-18251284D01*
X11380586Y-18251284D02*
X11380586Y-18117950D01*
X11380586Y-18136998D02*
X11390110Y-18127474D01*
X11390110Y-18127474D02*
X11409158Y-18117950D01*
X11409158Y-18117950D02*
X11437729Y-18117950D01*
X11437729Y-18117950D02*
X11456777Y-18127474D01*
X11456777Y-18127474D02*
X11466301Y-18146522D01*
X11466301Y-18146522D02*
X11466301Y-18251284D01*
X11466301Y-18146522D02*
X11475824Y-18127474D01*
X11475824Y-18127474D02*
X11494872Y-18117950D01*
X11494872Y-18117950D02*
X11523443Y-18117950D01*
X11523443Y-18117950D02*
X11542491Y-18127474D01*
X11542491Y-18127474D02*
X11552015Y-18146522D01*
X11552015Y-18146522D02*
X11552015Y-18251284D01*
X11942491Y-18041760D02*
X11771063Y-18298903D01*
X12199634Y-18051284D02*
X12218682Y-18051284D01*
X12218682Y-18051284D02*
X12237729Y-18060808D01*
X12237729Y-18060808D02*
X12247253Y-18070331D01*
X12247253Y-18070331D02*
X12256777Y-18089379D01*
X12256777Y-18089379D02*
X12266301Y-18127474D01*
X12266301Y-18127474D02*
X12266301Y-18175093D01*
X12266301Y-18175093D02*
X12256777Y-18213189D01*
X12256777Y-18213189D02*
X12247253Y-18232236D01*
X12247253Y-18232236D02*
X12237729Y-18241760D01*
X12237729Y-18241760D02*
X12218682Y-18251284D01*
X12218682Y-18251284D02*
X12199634Y-18251284D01*
X12199634Y-18251284D02*
X12180586Y-18241760D01*
X12180586Y-18241760D02*
X12171063Y-18232236D01*
X12171063Y-18232236D02*
X12161539Y-18213189D01*
X12161539Y-18213189D02*
X12152015Y-18175093D01*
X12152015Y-18175093D02*
X12152015Y-18127474D01*
X12152015Y-18127474D02*
X12161539Y-18089379D01*
X12161539Y-18089379D02*
X12171063Y-18070331D01*
X12171063Y-18070331D02*
X12180586Y-18060808D01*
X12180586Y-18060808D02*
X12199634Y-18051284D01*
X12352015Y-18232236D02*
X12361539Y-18241760D01*
X12361539Y-18241760D02*
X12352015Y-18251284D01*
X12352015Y-18251284D02*
X12342491Y-18241760D01*
X12342491Y-18241760D02*
X12352015Y-18232236D01*
X12352015Y-18232236D02*
X12352015Y-18251284D01*
X12485348Y-18051284D02*
X12504396Y-18051284D01*
X12504396Y-18051284D02*
X12523444Y-18060808D01*
X12523444Y-18060808D02*
X12532967Y-18070331D01*
X12532967Y-18070331D02*
X12542491Y-18089379D01*
X12542491Y-18089379D02*
X12552015Y-18127474D01*
X12552015Y-18127474D02*
X12552015Y-18175093D01*
X12552015Y-18175093D02*
X12542491Y-18213189D01*
X12542491Y-18213189D02*
X12532967Y-18232236D01*
X12532967Y-18232236D02*
X12523444Y-18241760D01*
X12523444Y-18241760D02*
X12504396Y-18251284D01*
X12504396Y-18251284D02*
X12485348Y-18251284D01*
X12485348Y-18251284D02*
X12466301Y-18241760D01*
X12466301Y-18241760D02*
X12456777Y-18232236D01*
X12456777Y-18232236D02*
X12447253Y-18213189D01*
X12447253Y-18213189D02*
X12437729Y-18175093D01*
X12437729Y-18175093D02*
X12437729Y-18127474D01*
X12437729Y-18127474D02*
X12447253Y-18089379D01*
X12447253Y-18089379D02*
X12456777Y-18070331D01*
X12456777Y-18070331D02*
X12466301Y-18060808D01*
X12466301Y-18060808D02*
X12485348Y-18051284D01*
X12723444Y-18117950D02*
X12723444Y-18251284D01*
X12675825Y-18041760D02*
X12628206Y-18184617D01*
X12628206Y-18184617D02*
X12752015Y-18184617D01*
X12837729Y-18251284D02*
X12875825Y-18251284D01*
X12875825Y-18251284D02*
X12894872Y-18241760D01*
X12894872Y-18241760D02*
X12904396Y-18232236D01*
X12904396Y-18232236D02*
X12923444Y-18203665D01*
X12923444Y-18203665D02*
X12932967Y-18165570D01*
X12932967Y-18165570D02*
X12932967Y-18089379D01*
X12932967Y-18089379D02*
X12923444Y-18070331D01*
X12923444Y-18070331D02*
X12913920Y-18060808D01*
X12913920Y-18060808D02*
X12894872Y-18051284D01*
X12894872Y-18051284D02*
X12856777Y-18051284D01*
X12856777Y-18051284D02*
X12837729Y-18060808D01*
X12837729Y-18060808D02*
X12828206Y-18070331D01*
X12828206Y-18070331D02*
X12818682Y-18089379D01*
X12818682Y-18089379D02*
X12818682Y-18136998D01*
X12818682Y-18136998D02*
X12828206Y-18156046D01*
X12828206Y-18156046D02*
X12837729Y-18165570D01*
X12837729Y-18165570D02*
X12856777Y-18175093D01*
X12856777Y-18175093D02*
X12894872Y-18175093D01*
X12894872Y-18175093D02*
X12913920Y-18165570D01*
X12913920Y-18165570D02*
X12923444Y-18156046D01*
X12923444Y-18156046D02*
X12932967Y-18136998D01*
X13009158Y-18070331D02*
X13018682Y-18060808D01*
X13018682Y-18060808D02*
X13037729Y-18051284D01*
X13037729Y-18051284D02*
X13085348Y-18051284D01*
X13085348Y-18051284D02*
X13104396Y-18060808D01*
X13104396Y-18060808D02*
X13113920Y-18070331D01*
X13113920Y-18070331D02*
X13123444Y-18089379D01*
X13123444Y-18089379D02*
X13123444Y-18108427D01*
X13123444Y-18108427D02*
X13113920Y-18136998D01*
X13113920Y-18136998D02*
X12999634Y-18251284D01*
X12999634Y-18251284D02*
X13123444Y-18251284D01*
X13199634Y-18051284D02*
X13199634Y-18089379D01*
X13275825Y-18051284D02*
X13275825Y-18089379D01*
X13571063Y-18327474D02*
X13561539Y-18317950D01*
X13561539Y-18317950D02*
X13542491Y-18289379D01*
X13542491Y-18289379D02*
X13532968Y-18270331D01*
X13532968Y-18270331D02*
X13523444Y-18241760D01*
X13523444Y-18241760D02*
X13513920Y-18194141D01*
X13513920Y-18194141D02*
X13513920Y-18156046D01*
X13513920Y-18156046D02*
X13523444Y-18108427D01*
X13523444Y-18108427D02*
X13532968Y-18079855D01*
X13532968Y-18079855D02*
X13542491Y-18060808D01*
X13542491Y-18060808D02*
X13561539Y-18032236D01*
X13561539Y-18032236D02*
X13571063Y-18022712D01*
X13685348Y-18051284D02*
X13704396Y-18051284D01*
X13704396Y-18051284D02*
X13723444Y-18060808D01*
X13723444Y-18060808D02*
X13732968Y-18070331D01*
X13732968Y-18070331D02*
X13742491Y-18089379D01*
X13742491Y-18089379D02*
X13752015Y-18127474D01*
X13752015Y-18127474D02*
X13752015Y-18175093D01*
X13752015Y-18175093D02*
X13742491Y-18213189D01*
X13742491Y-18213189D02*
X13732968Y-18232236D01*
X13732968Y-18232236D02*
X13723444Y-18241760D01*
X13723444Y-18241760D02*
X13704396Y-18251284D01*
X13704396Y-18251284D02*
X13685348Y-18251284D01*
X13685348Y-18251284D02*
X13666301Y-18241760D01*
X13666301Y-18241760D02*
X13656777Y-18232236D01*
X13656777Y-18232236D02*
X13647253Y-18213189D01*
X13647253Y-18213189D02*
X13637729Y-18175093D01*
X13637729Y-18175093D02*
X13637729Y-18127474D01*
X13637729Y-18127474D02*
X13647253Y-18089379D01*
X13647253Y-18089379D02*
X13656777Y-18070331D01*
X13656777Y-18070331D02*
X13666301Y-18060808D01*
X13666301Y-18060808D02*
X13685348Y-18051284D01*
X13990110Y-18251284D02*
X13990110Y-18051284D01*
X14075825Y-18251284D02*
X14075825Y-18146522D01*
X14075825Y-18146522D02*
X14066301Y-18127474D01*
X14066301Y-18127474D02*
X14047253Y-18117950D01*
X14047253Y-18117950D02*
X14018682Y-18117950D01*
X14018682Y-18117950D02*
X13999634Y-18127474D01*
X13999634Y-18127474D02*
X13990110Y-18136998D01*
X14199634Y-18251284D02*
X14180587Y-18241760D01*
X14180587Y-18241760D02*
X14171063Y-18232236D01*
X14171063Y-18232236D02*
X14161539Y-18213189D01*
X14161539Y-18213189D02*
X14161539Y-18156046D01*
X14161539Y-18156046D02*
X14171063Y-18136998D01*
X14171063Y-18136998D02*
X14180587Y-18127474D01*
X14180587Y-18127474D02*
X14199634Y-18117950D01*
X14199634Y-18117950D02*
X14228206Y-18117950D01*
X14228206Y-18117950D02*
X14247253Y-18127474D01*
X14247253Y-18127474D02*
X14256777Y-18136998D01*
X14256777Y-18136998D02*
X14266301Y-18156046D01*
X14266301Y-18156046D02*
X14266301Y-18213189D01*
X14266301Y-18213189D02*
X14256777Y-18232236D01*
X14256777Y-18232236D02*
X14247253Y-18241760D01*
X14247253Y-18241760D02*
X14228206Y-18251284D01*
X14228206Y-18251284D02*
X14199634Y-18251284D01*
X14380587Y-18251284D02*
X14361539Y-18241760D01*
X14361539Y-18241760D02*
X14352015Y-18222712D01*
X14352015Y-18222712D02*
X14352015Y-18051284D01*
X14532968Y-18241760D02*
X14513920Y-18251284D01*
X14513920Y-18251284D02*
X14475825Y-18251284D01*
X14475825Y-18251284D02*
X14456777Y-18241760D01*
X14456777Y-18241760D02*
X14447253Y-18222712D01*
X14447253Y-18222712D02*
X14447253Y-18146522D01*
X14447253Y-18146522D02*
X14456777Y-18127474D01*
X14456777Y-18127474D02*
X14475825Y-18117950D01*
X14475825Y-18117950D02*
X14513920Y-18117950D01*
X14513920Y-18117950D02*
X14532968Y-18127474D01*
X14532968Y-18127474D02*
X14542491Y-18146522D01*
X14542491Y-18146522D02*
X14542491Y-18165570D01*
X14542491Y-18165570D02*
X14447253Y-18184617D01*
X14618682Y-18241760D02*
X14637730Y-18251284D01*
X14637730Y-18251284D02*
X14675825Y-18251284D01*
X14675825Y-18251284D02*
X14694872Y-18241760D01*
X14694872Y-18241760D02*
X14704396Y-18222712D01*
X14704396Y-18222712D02*
X14704396Y-18213189D01*
X14704396Y-18213189D02*
X14694872Y-18194141D01*
X14694872Y-18194141D02*
X14675825Y-18184617D01*
X14675825Y-18184617D02*
X14647253Y-18184617D01*
X14647253Y-18184617D02*
X14628206Y-18175093D01*
X14628206Y-18175093D02*
X14618682Y-18156046D01*
X14618682Y-18156046D02*
X14618682Y-18146522D01*
X14618682Y-18146522D02*
X14628206Y-18127474D01*
X14628206Y-18127474D02*
X14647253Y-18117950D01*
X14647253Y-18117950D02*
X14675825Y-18117950D01*
X14675825Y-18117950D02*
X14694872Y-18127474D01*
X14942492Y-18175093D02*
X15094873Y-18175093D01*
X15018682Y-18251284D02*
X15018682Y-18098903D01*
X15323444Y-18051284D02*
X15447253Y-18051284D01*
X15447253Y-18051284D02*
X15380587Y-18127474D01*
X15380587Y-18127474D02*
X15409158Y-18127474D01*
X15409158Y-18127474D02*
X15428206Y-18136998D01*
X15428206Y-18136998D02*
X15437730Y-18146522D01*
X15437730Y-18146522D02*
X15447253Y-18165570D01*
X15447253Y-18165570D02*
X15447253Y-18213189D01*
X15447253Y-18213189D02*
X15437730Y-18232236D01*
X15437730Y-18232236D02*
X15428206Y-18241760D01*
X15428206Y-18241760D02*
X15409158Y-18251284D01*
X15409158Y-18251284D02*
X15352015Y-18251284D01*
X15352015Y-18251284D02*
X15332968Y-18241760D01*
X15332968Y-18241760D02*
X15323444Y-18232236D01*
X15675825Y-18241760D02*
X15694873Y-18251284D01*
X15694873Y-18251284D02*
X15732968Y-18251284D01*
X15732968Y-18251284D02*
X15752015Y-18241760D01*
X15752015Y-18241760D02*
X15761539Y-18222712D01*
X15761539Y-18222712D02*
X15761539Y-18213189D01*
X15761539Y-18213189D02*
X15752015Y-18194141D01*
X15752015Y-18194141D02*
X15732968Y-18184617D01*
X15732968Y-18184617D02*
X15704396Y-18184617D01*
X15704396Y-18184617D02*
X15685349Y-18175093D01*
X15685349Y-18175093D02*
X15675825Y-18156046D01*
X15675825Y-18156046D02*
X15675825Y-18146522D01*
X15675825Y-18146522D02*
X15685349Y-18127474D01*
X15685349Y-18127474D02*
X15704396Y-18117950D01*
X15704396Y-18117950D02*
X15732968Y-18117950D01*
X15732968Y-18117950D02*
X15752015Y-18127474D01*
X15875825Y-18251284D02*
X15856777Y-18241760D01*
X15856777Y-18241760D02*
X15847254Y-18222712D01*
X15847254Y-18222712D02*
X15847254Y-18051284D01*
X15980587Y-18251284D02*
X15961539Y-18241760D01*
X15961539Y-18241760D02*
X15952015Y-18232236D01*
X15952015Y-18232236D02*
X15942492Y-18213189D01*
X15942492Y-18213189D02*
X15942492Y-18156046D01*
X15942492Y-18156046D02*
X15952015Y-18136998D01*
X15952015Y-18136998D02*
X15961539Y-18127474D01*
X15961539Y-18127474D02*
X15980587Y-18117950D01*
X15980587Y-18117950D02*
X16009158Y-18117950D01*
X16009158Y-18117950D02*
X16028206Y-18127474D01*
X16028206Y-18127474D02*
X16037730Y-18136998D01*
X16037730Y-18136998D02*
X16047254Y-18156046D01*
X16047254Y-18156046D02*
X16047254Y-18213189D01*
X16047254Y-18213189D02*
X16037730Y-18232236D01*
X16037730Y-18232236D02*
X16028206Y-18241760D01*
X16028206Y-18241760D02*
X16009158Y-18251284D01*
X16009158Y-18251284D02*
X15980587Y-18251284D01*
X16104396Y-18117950D02*
X16180587Y-18117950D01*
X16132968Y-18051284D02*
X16132968Y-18222712D01*
X16132968Y-18222712D02*
X16142492Y-18241760D01*
X16142492Y-18241760D02*
X16161539Y-18251284D01*
X16161539Y-18251284D02*
X16180587Y-18251284D01*
X16237730Y-18241760D02*
X16256777Y-18251284D01*
X16256777Y-18251284D02*
X16294873Y-18251284D01*
X16294873Y-18251284D02*
X16313920Y-18241760D01*
X16313920Y-18241760D02*
X16323444Y-18222712D01*
X16323444Y-18222712D02*
X16323444Y-18213189D01*
X16323444Y-18213189D02*
X16313920Y-18194141D01*
X16313920Y-18194141D02*
X16294873Y-18184617D01*
X16294873Y-18184617D02*
X16266301Y-18184617D01*
X16266301Y-18184617D02*
X16247254Y-18175093D01*
X16247254Y-18175093D02*
X16237730Y-18156046D01*
X16237730Y-18156046D02*
X16237730Y-18146522D01*
X16237730Y-18146522D02*
X16247254Y-18127474D01*
X16247254Y-18127474D02*
X16266301Y-18117950D01*
X16266301Y-18117950D02*
X16294873Y-18117950D01*
X16294873Y-18117950D02*
X16313920Y-18127474D01*
X16390111Y-18327474D02*
X16399635Y-18317950D01*
X16399635Y-18317950D02*
X16418682Y-18289379D01*
X16418682Y-18289379D02*
X16428206Y-18270331D01*
X16428206Y-18270331D02*
X16437730Y-18241760D01*
X16437730Y-18241760D02*
X16447254Y-18194141D01*
X16447254Y-18194141D02*
X16447254Y-18156046D01*
X16447254Y-18156046D02*
X16437730Y-18108427D01*
X16437730Y-18108427D02*
X16428206Y-18079855D01*
X16428206Y-18079855D02*
X16418682Y-18060808D01*
X16418682Y-18060808D02*
X16399635Y-18032236D01*
X16399635Y-18032236D02*
X16390111Y-18022712D01*
D15*
X9836000Y-18343800D02*
X9996000Y-18503800D01*
X9996000Y-18343800D02*
X9836000Y-18503800D01*
X9972569Y-18480369D02*
X9972569Y-18367231D01*
X9859431Y-18367231D01*
X9859431Y-18480369D01*
X9972569Y-18480369D01*
D11*
X10361539Y-18515284D02*
X10247253Y-18515284D01*
X10304396Y-18515284D02*
X10304396Y-18315284D01*
X10304396Y-18315284D02*
X10285348Y-18343855D01*
X10285348Y-18343855D02*
X10266301Y-18362903D01*
X10266301Y-18362903D02*
X10247253Y-18372427D01*
X10447253Y-18496236D02*
X10456777Y-18505760D01*
X10456777Y-18505760D02*
X10447253Y-18515284D01*
X10447253Y-18515284D02*
X10437729Y-18505760D01*
X10437729Y-18505760D02*
X10447253Y-18496236D01*
X10447253Y-18496236D02*
X10447253Y-18515284D01*
X10628205Y-18315284D02*
X10590110Y-18315284D01*
X10590110Y-18315284D02*
X10571063Y-18324808D01*
X10571063Y-18324808D02*
X10561539Y-18334331D01*
X10561539Y-18334331D02*
X10542491Y-18362903D01*
X10542491Y-18362903D02*
X10532967Y-18400998D01*
X10532967Y-18400998D02*
X10532967Y-18477189D01*
X10532967Y-18477189D02*
X10542491Y-18496236D01*
X10542491Y-18496236D02*
X10552015Y-18505760D01*
X10552015Y-18505760D02*
X10571063Y-18515284D01*
X10571063Y-18515284D02*
X10609158Y-18515284D01*
X10609158Y-18515284D02*
X10628205Y-18505760D01*
X10628205Y-18505760D02*
X10637729Y-18496236D01*
X10637729Y-18496236D02*
X10647253Y-18477189D01*
X10647253Y-18477189D02*
X10647253Y-18429570D01*
X10647253Y-18429570D02*
X10637729Y-18410522D01*
X10637729Y-18410522D02*
X10628205Y-18400998D01*
X10628205Y-18400998D02*
X10609158Y-18391474D01*
X10609158Y-18391474D02*
X10571063Y-18391474D01*
X10571063Y-18391474D02*
X10552015Y-18400998D01*
X10552015Y-18400998D02*
X10542491Y-18410522D01*
X10542491Y-18410522D02*
X10532967Y-18429570D01*
X10771063Y-18315284D02*
X10790110Y-18315284D01*
X10790110Y-18315284D02*
X10809158Y-18324808D01*
X10809158Y-18324808D02*
X10818682Y-18334331D01*
X10818682Y-18334331D02*
X10828205Y-18353379D01*
X10828205Y-18353379D02*
X10837729Y-18391474D01*
X10837729Y-18391474D02*
X10837729Y-18439093D01*
X10837729Y-18439093D02*
X10828205Y-18477189D01*
X10828205Y-18477189D02*
X10818682Y-18496236D01*
X10818682Y-18496236D02*
X10809158Y-18505760D01*
X10809158Y-18505760D02*
X10790110Y-18515284D01*
X10790110Y-18515284D02*
X10771063Y-18515284D01*
X10771063Y-18515284D02*
X10752015Y-18505760D01*
X10752015Y-18505760D02*
X10742491Y-18496236D01*
X10742491Y-18496236D02*
X10732967Y-18477189D01*
X10732967Y-18477189D02*
X10723444Y-18439093D01*
X10723444Y-18439093D02*
X10723444Y-18391474D01*
X10723444Y-18391474D02*
X10732967Y-18353379D01*
X10732967Y-18353379D02*
X10742491Y-18334331D01*
X10742491Y-18334331D02*
X10752015Y-18324808D01*
X10752015Y-18324808D02*
X10771063Y-18315284D01*
X10961539Y-18315284D02*
X10980586Y-18315284D01*
X10980586Y-18315284D02*
X10999634Y-18324808D01*
X10999634Y-18324808D02*
X11009158Y-18334331D01*
X11009158Y-18334331D02*
X11018682Y-18353379D01*
X11018682Y-18353379D02*
X11028205Y-18391474D01*
X11028205Y-18391474D02*
X11028205Y-18439093D01*
X11028205Y-18439093D02*
X11018682Y-18477189D01*
X11018682Y-18477189D02*
X11009158Y-18496236D01*
X11009158Y-18496236D02*
X10999634Y-18505760D01*
X10999634Y-18505760D02*
X10980586Y-18515284D01*
X10980586Y-18515284D02*
X10961539Y-18515284D01*
X10961539Y-18515284D02*
X10942491Y-18505760D01*
X10942491Y-18505760D02*
X10932967Y-18496236D01*
X10932967Y-18496236D02*
X10923444Y-18477189D01*
X10923444Y-18477189D02*
X10913920Y-18439093D01*
X10913920Y-18439093D02*
X10913920Y-18391474D01*
X10913920Y-18391474D02*
X10923444Y-18353379D01*
X10923444Y-18353379D02*
X10932967Y-18334331D01*
X10932967Y-18334331D02*
X10942491Y-18324808D01*
X10942491Y-18324808D02*
X10961539Y-18315284D01*
X11113920Y-18515284D02*
X11113920Y-18381950D01*
X11113920Y-18400998D02*
X11123444Y-18391474D01*
X11123444Y-18391474D02*
X11142491Y-18381950D01*
X11142491Y-18381950D02*
X11171063Y-18381950D01*
X11171063Y-18381950D02*
X11190110Y-18391474D01*
X11190110Y-18391474D02*
X11199634Y-18410522D01*
X11199634Y-18410522D02*
X11199634Y-18515284D01*
X11199634Y-18410522D02*
X11209158Y-18391474D01*
X11209158Y-18391474D02*
X11228205Y-18381950D01*
X11228205Y-18381950D02*
X11256777Y-18381950D01*
X11256777Y-18381950D02*
X11275824Y-18391474D01*
X11275824Y-18391474D02*
X11285348Y-18410522D01*
X11285348Y-18410522D02*
X11285348Y-18515284D01*
X11380586Y-18515284D02*
X11380586Y-18381950D01*
X11380586Y-18400998D02*
X11390110Y-18391474D01*
X11390110Y-18391474D02*
X11409158Y-18381950D01*
X11409158Y-18381950D02*
X11437729Y-18381950D01*
X11437729Y-18381950D02*
X11456777Y-18391474D01*
X11456777Y-18391474D02*
X11466301Y-18410522D01*
X11466301Y-18410522D02*
X11466301Y-18515284D01*
X11466301Y-18410522D02*
X11475824Y-18391474D01*
X11475824Y-18391474D02*
X11494872Y-18381950D01*
X11494872Y-18381950D02*
X11523443Y-18381950D01*
X11523443Y-18381950D02*
X11542491Y-18391474D01*
X11542491Y-18391474D02*
X11552015Y-18410522D01*
X11552015Y-18410522D02*
X11552015Y-18515284D01*
X11942491Y-18305760D02*
X11771063Y-18562903D01*
X12199634Y-18315284D02*
X12218682Y-18315284D01*
X12218682Y-18315284D02*
X12237729Y-18324808D01*
X12237729Y-18324808D02*
X12247253Y-18334331D01*
X12247253Y-18334331D02*
X12256777Y-18353379D01*
X12256777Y-18353379D02*
X12266301Y-18391474D01*
X12266301Y-18391474D02*
X12266301Y-18439093D01*
X12266301Y-18439093D02*
X12256777Y-18477189D01*
X12256777Y-18477189D02*
X12247253Y-18496236D01*
X12247253Y-18496236D02*
X12237729Y-18505760D01*
X12237729Y-18505760D02*
X12218682Y-18515284D01*
X12218682Y-18515284D02*
X12199634Y-18515284D01*
X12199634Y-18515284D02*
X12180586Y-18505760D01*
X12180586Y-18505760D02*
X12171063Y-18496236D01*
X12171063Y-18496236D02*
X12161539Y-18477189D01*
X12161539Y-18477189D02*
X12152015Y-18439093D01*
X12152015Y-18439093D02*
X12152015Y-18391474D01*
X12152015Y-18391474D02*
X12161539Y-18353379D01*
X12161539Y-18353379D02*
X12171063Y-18334331D01*
X12171063Y-18334331D02*
X12180586Y-18324808D01*
X12180586Y-18324808D02*
X12199634Y-18315284D01*
X12352015Y-18496236D02*
X12361539Y-18505760D01*
X12361539Y-18505760D02*
X12352015Y-18515284D01*
X12352015Y-18515284D02*
X12342491Y-18505760D01*
X12342491Y-18505760D02*
X12352015Y-18496236D01*
X12352015Y-18496236D02*
X12352015Y-18515284D01*
X12485348Y-18315284D02*
X12504396Y-18315284D01*
X12504396Y-18315284D02*
X12523444Y-18324808D01*
X12523444Y-18324808D02*
X12532967Y-18334331D01*
X12532967Y-18334331D02*
X12542491Y-18353379D01*
X12542491Y-18353379D02*
X12552015Y-18391474D01*
X12552015Y-18391474D02*
X12552015Y-18439093D01*
X12552015Y-18439093D02*
X12542491Y-18477189D01*
X12542491Y-18477189D02*
X12532967Y-18496236D01*
X12532967Y-18496236D02*
X12523444Y-18505760D01*
X12523444Y-18505760D02*
X12504396Y-18515284D01*
X12504396Y-18515284D02*
X12485348Y-18515284D01*
X12485348Y-18515284D02*
X12466301Y-18505760D01*
X12466301Y-18505760D02*
X12456777Y-18496236D01*
X12456777Y-18496236D02*
X12447253Y-18477189D01*
X12447253Y-18477189D02*
X12437729Y-18439093D01*
X12437729Y-18439093D02*
X12437729Y-18391474D01*
X12437729Y-18391474D02*
X12447253Y-18353379D01*
X12447253Y-18353379D02*
X12456777Y-18334331D01*
X12456777Y-18334331D02*
X12466301Y-18324808D01*
X12466301Y-18324808D02*
X12485348Y-18315284D01*
X12723444Y-18315284D02*
X12685348Y-18315284D01*
X12685348Y-18315284D02*
X12666301Y-18324808D01*
X12666301Y-18324808D02*
X12656777Y-18334331D01*
X12656777Y-18334331D02*
X12637729Y-18362903D01*
X12637729Y-18362903D02*
X12628206Y-18400998D01*
X12628206Y-18400998D02*
X12628206Y-18477189D01*
X12628206Y-18477189D02*
X12637729Y-18496236D01*
X12637729Y-18496236D02*
X12647253Y-18505760D01*
X12647253Y-18505760D02*
X12666301Y-18515284D01*
X12666301Y-18515284D02*
X12704396Y-18515284D01*
X12704396Y-18515284D02*
X12723444Y-18505760D01*
X12723444Y-18505760D02*
X12732967Y-18496236D01*
X12732967Y-18496236D02*
X12742491Y-18477189D01*
X12742491Y-18477189D02*
X12742491Y-18429570D01*
X12742491Y-18429570D02*
X12732967Y-18410522D01*
X12732967Y-18410522D02*
X12723444Y-18400998D01*
X12723444Y-18400998D02*
X12704396Y-18391474D01*
X12704396Y-18391474D02*
X12666301Y-18391474D01*
X12666301Y-18391474D02*
X12647253Y-18400998D01*
X12647253Y-18400998D02*
X12637729Y-18410522D01*
X12637729Y-18410522D02*
X12628206Y-18429570D01*
X12809158Y-18315284D02*
X12932967Y-18315284D01*
X12932967Y-18315284D02*
X12866301Y-18391474D01*
X12866301Y-18391474D02*
X12894872Y-18391474D01*
X12894872Y-18391474D02*
X12913920Y-18400998D01*
X12913920Y-18400998D02*
X12923444Y-18410522D01*
X12923444Y-18410522D02*
X12932967Y-18429570D01*
X12932967Y-18429570D02*
X12932967Y-18477189D01*
X12932967Y-18477189D02*
X12923444Y-18496236D01*
X12923444Y-18496236D02*
X12913920Y-18505760D01*
X12913920Y-18505760D02*
X12894872Y-18515284D01*
X12894872Y-18515284D02*
X12837729Y-18515284D01*
X12837729Y-18515284D02*
X12818682Y-18505760D01*
X12818682Y-18505760D02*
X12809158Y-18496236D01*
X13056777Y-18315284D02*
X13075825Y-18315284D01*
X13075825Y-18315284D02*
X13094872Y-18324808D01*
X13094872Y-18324808D02*
X13104396Y-18334331D01*
X13104396Y-18334331D02*
X13113920Y-18353379D01*
X13113920Y-18353379D02*
X13123444Y-18391474D01*
X13123444Y-18391474D02*
X13123444Y-18439093D01*
X13123444Y-18439093D02*
X13113920Y-18477189D01*
X13113920Y-18477189D02*
X13104396Y-18496236D01*
X13104396Y-18496236D02*
X13094872Y-18505760D01*
X13094872Y-18505760D02*
X13075825Y-18515284D01*
X13075825Y-18515284D02*
X13056777Y-18515284D01*
X13056777Y-18515284D02*
X13037729Y-18505760D01*
X13037729Y-18505760D02*
X13028206Y-18496236D01*
X13028206Y-18496236D02*
X13018682Y-18477189D01*
X13018682Y-18477189D02*
X13009158Y-18439093D01*
X13009158Y-18439093D02*
X13009158Y-18391474D01*
X13009158Y-18391474D02*
X13018682Y-18353379D01*
X13018682Y-18353379D02*
X13028206Y-18334331D01*
X13028206Y-18334331D02*
X13037729Y-18324808D01*
X13037729Y-18324808D02*
X13056777Y-18315284D01*
X13199634Y-18315284D02*
X13199634Y-18353379D01*
X13275825Y-18315284D02*
X13275825Y-18353379D01*
X13571063Y-18591474D02*
X13561539Y-18581950D01*
X13561539Y-18581950D02*
X13542491Y-18553379D01*
X13542491Y-18553379D02*
X13532968Y-18534331D01*
X13532968Y-18534331D02*
X13523444Y-18505760D01*
X13523444Y-18505760D02*
X13513920Y-18458141D01*
X13513920Y-18458141D02*
X13513920Y-18420046D01*
X13513920Y-18420046D02*
X13523444Y-18372427D01*
X13523444Y-18372427D02*
X13532968Y-18343855D01*
X13532968Y-18343855D02*
X13542491Y-18324808D01*
X13542491Y-18324808D02*
X13561539Y-18296236D01*
X13561539Y-18296236D02*
X13571063Y-18286712D01*
X13752015Y-18515284D02*
X13637729Y-18515284D01*
X13694872Y-18515284D02*
X13694872Y-18315284D01*
X13694872Y-18315284D02*
X13675825Y-18343855D01*
X13675825Y-18343855D02*
X13656777Y-18362903D01*
X13656777Y-18362903D02*
X13637729Y-18372427D01*
X13828206Y-18334331D02*
X13837729Y-18324808D01*
X13837729Y-18324808D02*
X13856777Y-18315284D01*
X13856777Y-18315284D02*
X13904396Y-18315284D01*
X13904396Y-18315284D02*
X13923444Y-18324808D01*
X13923444Y-18324808D02*
X13932968Y-18334331D01*
X13932968Y-18334331D02*
X13942491Y-18353379D01*
X13942491Y-18353379D02*
X13942491Y-18372427D01*
X13942491Y-18372427D02*
X13932968Y-18400998D01*
X13932968Y-18400998D02*
X13818682Y-18515284D01*
X13818682Y-18515284D02*
X13942491Y-18515284D01*
X14180587Y-18515284D02*
X14180587Y-18315284D01*
X14266301Y-18515284D02*
X14266301Y-18410522D01*
X14266301Y-18410522D02*
X14256777Y-18391474D01*
X14256777Y-18391474D02*
X14237730Y-18381950D01*
X14237730Y-18381950D02*
X14209158Y-18381950D01*
X14209158Y-18381950D02*
X14190110Y-18391474D01*
X14190110Y-18391474D02*
X14180587Y-18400998D01*
X14390110Y-18515284D02*
X14371063Y-18505760D01*
X14371063Y-18505760D02*
X14361539Y-18496236D01*
X14361539Y-18496236D02*
X14352015Y-18477189D01*
X14352015Y-18477189D02*
X14352015Y-18420046D01*
X14352015Y-18420046D02*
X14361539Y-18400998D01*
X14361539Y-18400998D02*
X14371063Y-18391474D01*
X14371063Y-18391474D02*
X14390110Y-18381950D01*
X14390110Y-18381950D02*
X14418682Y-18381950D01*
X14418682Y-18381950D02*
X14437730Y-18391474D01*
X14437730Y-18391474D02*
X14447253Y-18400998D01*
X14447253Y-18400998D02*
X14456777Y-18420046D01*
X14456777Y-18420046D02*
X14456777Y-18477189D01*
X14456777Y-18477189D02*
X14447253Y-18496236D01*
X14447253Y-18496236D02*
X14437730Y-18505760D01*
X14437730Y-18505760D02*
X14418682Y-18515284D01*
X14418682Y-18515284D02*
X14390110Y-18515284D01*
X14571063Y-18515284D02*
X14552015Y-18505760D01*
X14552015Y-18505760D02*
X14542491Y-18486712D01*
X14542491Y-18486712D02*
X14542491Y-18315284D01*
X14723444Y-18505760D02*
X14704396Y-18515284D01*
X14704396Y-18515284D02*
X14666301Y-18515284D01*
X14666301Y-18515284D02*
X14647253Y-18505760D01*
X14647253Y-18505760D02*
X14637730Y-18486712D01*
X14637730Y-18486712D02*
X14637730Y-18410522D01*
X14637730Y-18410522D02*
X14647253Y-18391474D01*
X14647253Y-18391474D02*
X14666301Y-18381950D01*
X14666301Y-18381950D02*
X14704396Y-18381950D01*
X14704396Y-18381950D02*
X14723444Y-18391474D01*
X14723444Y-18391474D02*
X14732968Y-18410522D01*
X14732968Y-18410522D02*
X14732968Y-18429570D01*
X14732968Y-18429570D02*
X14637730Y-18448617D01*
X14809158Y-18505760D02*
X14828206Y-18515284D01*
X14828206Y-18515284D02*
X14866301Y-18515284D01*
X14866301Y-18515284D02*
X14885349Y-18505760D01*
X14885349Y-18505760D02*
X14894872Y-18486712D01*
X14894872Y-18486712D02*
X14894872Y-18477189D01*
X14894872Y-18477189D02*
X14885349Y-18458141D01*
X14885349Y-18458141D02*
X14866301Y-18448617D01*
X14866301Y-18448617D02*
X14837730Y-18448617D01*
X14837730Y-18448617D02*
X14818682Y-18439093D01*
X14818682Y-18439093D02*
X14809158Y-18420046D01*
X14809158Y-18420046D02*
X14809158Y-18410522D01*
X14809158Y-18410522D02*
X14818682Y-18391474D01*
X14818682Y-18391474D02*
X14837730Y-18381950D01*
X14837730Y-18381950D02*
X14866301Y-18381950D01*
X14866301Y-18381950D02*
X14885349Y-18391474D01*
X14961539Y-18591474D02*
X14971063Y-18581950D01*
X14971063Y-18581950D02*
X14990111Y-18553379D01*
X14990111Y-18553379D02*
X14999634Y-18534331D01*
X14999634Y-18534331D02*
X15009158Y-18505760D01*
X15009158Y-18505760D02*
X15018682Y-18458141D01*
X15018682Y-18458141D02*
X15018682Y-18420046D01*
X15018682Y-18420046D02*
X15009158Y-18372427D01*
X15009158Y-18372427D02*
X14999634Y-18343855D01*
X14999634Y-18343855D02*
X14990111Y-18324808D01*
X14990111Y-18324808D02*
X14971063Y-18296236D01*
X14971063Y-18296236D02*
X14961539Y-18286712D01*
X9796000Y-18603800D02*
X9996000Y-18803800D01*
X9996000Y-18603800D02*
X9796000Y-18803800D01*
X9896000Y-18803800D02*
X9996000Y-18703800D01*
X9896000Y-18603800D01*
X9796000Y-18703800D01*
X9896000Y-18803800D01*
X10247253Y-18614331D02*
X10256777Y-18604808D01*
X10256777Y-18604808D02*
X10275824Y-18595284D01*
X10275824Y-18595284D02*
X10323444Y-18595284D01*
X10323444Y-18595284D02*
X10342491Y-18604808D01*
X10342491Y-18604808D02*
X10352015Y-18614331D01*
X10352015Y-18614331D02*
X10361539Y-18633379D01*
X10361539Y-18633379D02*
X10361539Y-18652427D01*
X10361539Y-18652427D02*
X10352015Y-18680998D01*
X10352015Y-18680998D02*
X10237729Y-18795284D01*
X10237729Y-18795284D02*
X10361539Y-18795284D01*
X10447253Y-18776236D02*
X10456777Y-18785760D01*
X10456777Y-18785760D02*
X10447253Y-18795284D01*
X10447253Y-18795284D02*
X10437729Y-18785760D01*
X10437729Y-18785760D02*
X10447253Y-18776236D01*
X10447253Y-18776236D02*
X10447253Y-18795284D01*
X10580586Y-18595284D02*
X10599634Y-18595284D01*
X10599634Y-18595284D02*
X10618682Y-18604808D01*
X10618682Y-18604808D02*
X10628205Y-18614331D01*
X10628205Y-18614331D02*
X10637729Y-18633379D01*
X10637729Y-18633379D02*
X10647253Y-18671474D01*
X10647253Y-18671474D02*
X10647253Y-18719093D01*
X10647253Y-18719093D02*
X10637729Y-18757189D01*
X10637729Y-18757189D02*
X10628205Y-18776236D01*
X10628205Y-18776236D02*
X10618682Y-18785760D01*
X10618682Y-18785760D02*
X10599634Y-18795284D01*
X10599634Y-18795284D02*
X10580586Y-18795284D01*
X10580586Y-18795284D02*
X10561539Y-18785760D01*
X10561539Y-18785760D02*
X10552015Y-18776236D01*
X10552015Y-18776236D02*
X10542491Y-18757189D01*
X10542491Y-18757189D02*
X10532967Y-18719093D01*
X10532967Y-18719093D02*
X10532967Y-18671474D01*
X10532967Y-18671474D02*
X10542491Y-18633379D01*
X10542491Y-18633379D02*
X10552015Y-18614331D01*
X10552015Y-18614331D02*
X10561539Y-18604808D01*
X10561539Y-18604808D02*
X10580586Y-18595284D01*
X10828205Y-18595284D02*
X10732967Y-18595284D01*
X10732967Y-18595284D02*
X10723444Y-18690522D01*
X10723444Y-18690522D02*
X10732967Y-18680998D01*
X10732967Y-18680998D02*
X10752015Y-18671474D01*
X10752015Y-18671474D02*
X10799634Y-18671474D01*
X10799634Y-18671474D02*
X10818682Y-18680998D01*
X10818682Y-18680998D02*
X10828205Y-18690522D01*
X10828205Y-18690522D02*
X10837729Y-18709570D01*
X10837729Y-18709570D02*
X10837729Y-18757189D01*
X10837729Y-18757189D02*
X10828205Y-18776236D01*
X10828205Y-18776236D02*
X10818682Y-18785760D01*
X10818682Y-18785760D02*
X10799634Y-18795284D01*
X10799634Y-18795284D02*
X10752015Y-18795284D01*
X10752015Y-18795284D02*
X10732967Y-18785760D01*
X10732967Y-18785760D02*
X10723444Y-18776236D01*
X10904396Y-18595284D02*
X11037729Y-18595284D01*
X11037729Y-18595284D02*
X10952015Y-18795284D01*
X11113920Y-18795284D02*
X11113920Y-18661950D01*
X11113920Y-18680998D02*
X11123444Y-18671474D01*
X11123444Y-18671474D02*
X11142491Y-18661950D01*
X11142491Y-18661950D02*
X11171063Y-18661950D01*
X11171063Y-18661950D02*
X11190110Y-18671474D01*
X11190110Y-18671474D02*
X11199634Y-18690522D01*
X11199634Y-18690522D02*
X11199634Y-18795284D01*
X11199634Y-18690522D02*
X11209158Y-18671474D01*
X11209158Y-18671474D02*
X11228205Y-18661950D01*
X11228205Y-18661950D02*
X11256777Y-18661950D01*
X11256777Y-18661950D02*
X11275824Y-18671474D01*
X11275824Y-18671474D02*
X11285348Y-18690522D01*
X11285348Y-18690522D02*
X11285348Y-18795284D01*
X11380586Y-18795284D02*
X11380586Y-18661950D01*
X11380586Y-18680998D02*
X11390110Y-18671474D01*
X11390110Y-18671474D02*
X11409158Y-18661950D01*
X11409158Y-18661950D02*
X11437729Y-18661950D01*
X11437729Y-18661950D02*
X11456777Y-18671474D01*
X11456777Y-18671474D02*
X11466301Y-18690522D01*
X11466301Y-18690522D02*
X11466301Y-18795284D01*
X11466301Y-18690522D02*
X11475824Y-18671474D01*
X11475824Y-18671474D02*
X11494872Y-18661950D01*
X11494872Y-18661950D02*
X11523443Y-18661950D01*
X11523443Y-18661950D02*
X11542491Y-18671474D01*
X11542491Y-18671474D02*
X11552015Y-18690522D01*
X11552015Y-18690522D02*
X11552015Y-18795284D01*
X11942491Y-18585760D02*
X11771063Y-18842903D01*
X12199634Y-18595284D02*
X12218682Y-18595284D01*
X12218682Y-18595284D02*
X12237729Y-18604808D01*
X12237729Y-18604808D02*
X12247253Y-18614331D01*
X12247253Y-18614331D02*
X12256777Y-18633379D01*
X12256777Y-18633379D02*
X12266301Y-18671474D01*
X12266301Y-18671474D02*
X12266301Y-18719093D01*
X12266301Y-18719093D02*
X12256777Y-18757189D01*
X12256777Y-18757189D02*
X12247253Y-18776236D01*
X12247253Y-18776236D02*
X12237729Y-18785760D01*
X12237729Y-18785760D02*
X12218682Y-18795284D01*
X12218682Y-18795284D02*
X12199634Y-18795284D01*
X12199634Y-18795284D02*
X12180586Y-18785760D01*
X12180586Y-18785760D02*
X12171063Y-18776236D01*
X12171063Y-18776236D02*
X12161539Y-18757189D01*
X12161539Y-18757189D02*
X12152015Y-18719093D01*
X12152015Y-18719093D02*
X12152015Y-18671474D01*
X12152015Y-18671474D02*
X12161539Y-18633379D01*
X12161539Y-18633379D02*
X12171063Y-18614331D01*
X12171063Y-18614331D02*
X12180586Y-18604808D01*
X12180586Y-18604808D02*
X12199634Y-18595284D01*
X12352015Y-18776236D02*
X12361539Y-18785760D01*
X12361539Y-18785760D02*
X12352015Y-18795284D01*
X12352015Y-18795284D02*
X12342491Y-18785760D01*
X12342491Y-18785760D02*
X12352015Y-18776236D01*
X12352015Y-18776236D02*
X12352015Y-18795284D01*
X12485348Y-18595284D02*
X12504396Y-18595284D01*
X12504396Y-18595284D02*
X12523444Y-18604808D01*
X12523444Y-18604808D02*
X12532967Y-18614331D01*
X12532967Y-18614331D02*
X12542491Y-18633379D01*
X12542491Y-18633379D02*
X12552015Y-18671474D01*
X12552015Y-18671474D02*
X12552015Y-18719093D01*
X12552015Y-18719093D02*
X12542491Y-18757189D01*
X12542491Y-18757189D02*
X12532967Y-18776236D01*
X12532967Y-18776236D02*
X12523444Y-18785760D01*
X12523444Y-18785760D02*
X12504396Y-18795284D01*
X12504396Y-18795284D02*
X12485348Y-18795284D01*
X12485348Y-18795284D02*
X12466301Y-18785760D01*
X12466301Y-18785760D02*
X12456777Y-18776236D01*
X12456777Y-18776236D02*
X12447253Y-18757189D01*
X12447253Y-18757189D02*
X12437729Y-18719093D01*
X12437729Y-18719093D02*
X12437729Y-18671474D01*
X12437729Y-18671474D02*
X12447253Y-18633379D01*
X12447253Y-18633379D02*
X12456777Y-18614331D01*
X12456777Y-18614331D02*
X12466301Y-18604808D01*
X12466301Y-18604808D02*
X12485348Y-18595284D01*
X12666301Y-18680998D02*
X12647253Y-18671474D01*
X12647253Y-18671474D02*
X12637729Y-18661950D01*
X12637729Y-18661950D02*
X12628206Y-18642903D01*
X12628206Y-18642903D02*
X12628206Y-18633379D01*
X12628206Y-18633379D02*
X12637729Y-18614331D01*
X12637729Y-18614331D02*
X12647253Y-18604808D01*
X12647253Y-18604808D02*
X12666301Y-18595284D01*
X12666301Y-18595284D02*
X12704396Y-18595284D01*
X12704396Y-18595284D02*
X12723444Y-18604808D01*
X12723444Y-18604808D02*
X12732967Y-18614331D01*
X12732967Y-18614331D02*
X12742491Y-18633379D01*
X12742491Y-18633379D02*
X12742491Y-18642903D01*
X12742491Y-18642903D02*
X12732967Y-18661950D01*
X12732967Y-18661950D02*
X12723444Y-18671474D01*
X12723444Y-18671474D02*
X12704396Y-18680998D01*
X12704396Y-18680998D02*
X12666301Y-18680998D01*
X12666301Y-18680998D02*
X12647253Y-18690522D01*
X12647253Y-18690522D02*
X12637729Y-18700046D01*
X12637729Y-18700046D02*
X12628206Y-18719093D01*
X12628206Y-18719093D02*
X12628206Y-18757189D01*
X12628206Y-18757189D02*
X12637729Y-18776236D01*
X12637729Y-18776236D02*
X12647253Y-18785760D01*
X12647253Y-18785760D02*
X12666301Y-18795284D01*
X12666301Y-18795284D02*
X12704396Y-18795284D01*
X12704396Y-18795284D02*
X12723444Y-18785760D01*
X12723444Y-18785760D02*
X12732967Y-18776236D01*
X12732967Y-18776236D02*
X12742491Y-18757189D01*
X12742491Y-18757189D02*
X12742491Y-18719093D01*
X12742491Y-18719093D02*
X12732967Y-18700046D01*
X12732967Y-18700046D02*
X12723444Y-18690522D01*
X12723444Y-18690522D02*
X12704396Y-18680998D01*
X12932967Y-18795284D02*
X12818682Y-18795284D01*
X12875825Y-18795284D02*
X12875825Y-18595284D01*
X12875825Y-18595284D02*
X12856777Y-18623855D01*
X12856777Y-18623855D02*
X12837729Y-18642903D01*
X12837729Y-18642903D02*
X12818682Y-18652427D01*
X13056777Y-18595284D02*
X13075825Y-18595284D01*
X13075825Y-18595284D02*
X13094872Y-18604808D01*
X13094872Y-18604808D02*
X13104396Y-18614331D01*
X13104396Y-18614331D02*
X13113920Y-18633379D01*
X13113920Y-18633379D02*
X13123444Y-18671474D01*
X13123444Y-18671474D02*
X13123444Y-18719093D01*
X13123444Y-18719093D02*
X13113920Y-18757189D01*
X13113920Y-18757189D02*
X13104396Y-18776236D01*
X13104396Y-18776236D02*
X13094872Y-18785760D01*
X13094872Y-18785760D02*
X13075825Y-18795284D01*
X13075825Y-18795284D02*
X13056777Y-18795284D01*
X13056777Y-18795284D02*
X13037729Y-18785760D01*
X13037729Y-18785760D02*
X13028206Y-18776236D01*
X13028206Y-18776236D02*
X13018682Y-18757189D01*
X13018682Y-18757189D02*
X13009158Y-18719093D01*
X13009158Y-18719093D02*
X13009158Y-18671474D01*
X13009158Y-18671474D02*
X13018682Y-18633379D01*
X13018682Y-18633379D02*
X13028206Y-18614331D01*
X13028206Y-18614331D02*
X13037729Y-18604808D01*
X13037729Y-18604808D02*
X13056777Y-18595284D01*
X13199634Y-18595284D02*
X13199634Y-18633379D01*
X13275825Y-18595284D02*
X13275825Y-18633379D01*
X13571063Y-18871474D02*
X13561539Y-18861950D01*
X13561539Y-18861950D02*
X13542491Y-18833379D01*
X13542491Y-18833379D02*
X13532968Y-18814331D01*
X13532968Y-18814331D02*
X13523444Y-18785760D01*
X13523444Y-18785760D02*
X13513920Y-18738141D01*
X13513920Y-18738141D02*
X13513920Y-18700046D01*
X13513920Y-18700046D02*
X13523444Y-18652427D01*
X13523444Y-18652427D02*
X13532968Y-18623855D01*
X13532968Y-18623855D02*
X13542491Y-18604808D01*
X13542491Y-18604808D02*
X13561539Y-18576236D01*
X13561539Y-18576236D02*
X13571063Y-18566712D01*
X13675825Y-18680998D02*
X13656777Y-18671474D01*
X13656777Y-18671474D02*
X13647253Y-18661950D01*
X13647253Y-18661950D02*
X13637729Y-18642903D01*
X13637729Y-18642903D02*
X13637729Y-18633379D01*
X13637729Y-18633379D02*
X13647253Y-18614331D01*
X13647253Y-18614331D02*
X13656777Y-18604808D01*
X13656777Y-18604808D02*
X13675825Y-18595284D01*
X13675825Y-18595284D02*
X13713920Y-18595284D01*
X13713920Y-18595284D02*
X13732968Y-18604808D01*
X13732968Y-18604808D02*
X13742491Y-18614331D01*
X13742491Y-18614331D02*
X13752015Y-18633379D01*
X13752015Y-18633379D02*
X13752015Y-18642903D01*
X13752015Y-18642903D02*
X13742491Y-18661950D01*
X13742491Y-18661950D02*
X13732968Y-18671474D01*
X13732968Y-18671474D02*
X13713920Y-18680998D01*
X13713920Y-18680998D02*
X13675825Y-18680998D01*
X13675825Y-18680998D02*
X13656777Y-18690522D01*
X13656777Y-18690522D02*
X13647253Y-18700046D01*
X13647253Y-18700046D02*
X13637729Y-18719093D01*
X13637729Y-18719093D02*
X13637729Y-18757189D01*
X13637729Y-18757189D02*
X13647253Y-18776236D01*
X13647253Y-18776236D02*
X13656777Y-18785760D01*
X13656777Y-18785760D02*
X13675825Y-18795284D01*
X13675825Y-18795284D02*
X13713920Y-18795284D01*
X13713920Y-18795284D02*
X13732968Y-18785760D01*
X13732968Y-18785760D02*
X13742491Y-18776236D01*
X13742491Y-18776236D02*
X13752015Y-18757189D01*
X13752015Y-18757189D02*
X13752015Y-18719093D01*
X13752015Y-18719093D02*
X13742491Y-18700046D01*
X13742491Y-18700046D02*
X13732968Y-18690522D01*
X13732968Y-18690522D02*
X13713920Y-18680998D01*
X13990110Y-18795284D02*
X13990110Y-18595284D01*
X14075825Y-18795284D02*
X14075825Y-18690522D01*
X14075825Y-18690522D02*
X14066301Y-18671474D01*
X14066301Y-18671474D02*
X14047253Y-18661950D01*
X14047253Y-18661950D02*
X14018682Y-18661950D01*
X14018682Y-18661950D02*
X13999634Y-18671474D01*
X13999634Y-18671474D02*
X13990110Y-18680998D01*
X14199634Y-18795284D02*
X14180587Y-18785760D01*
X14180587Y-18785760D02*
X14171063Y-18776236D01*
X14171063Y-18776236D02*
X14161539Y-18757189D01*
X14161539Y-18757189D02*
X14161539Y-18700046D01*
X14161539Y-18700046D02*
X14171063Y-18680998D01*
X14171063Y-18680998D02*
X14180587Y-18671474D01*
X14180587Y-18671474D02*
X14199634Y-18661950D01*
X14199634Y-18661950D02*
X14228206Y-18661950D01*
X14228206Y-18661950D02*
X14247253Y-18671474D01*
X14247253Y-18671474D02*
X14256777Y-18680998D01*
X14256777Y-18680998D02*
X14266301Y-18700046D01*
X14266301Y-18700046D02*
X14266301Y-18757189D01*
X14266301Y-18757189D02*
X14256777Y-18776236D01*
X14256777Y-18776236D02*
X14247253Y-18785760D01*
X14247253Y-18785760D02*
X14228206Y-18795284D01*
X14228206Y-18795284D02*
X14199634Y-18795284D01*
X14380587Y-18795284D02*
X14361539Y-18785760D01*
X14361539Y-18785760D02*
X14352015Y-18766712D01*
X14352015Y-18766712D02*
X14352015Y-18595284D01*
X14532968Y-18785760D02*
X14513920Y-18795284D01*
X14513920Y-18795284D02*
X14475825Y-18795284D01*
X14475825Y-18795284D02*
X14456777Y-18785760D01*
X14456777Y-18785760D02*
X14447253Y-18766712D01*
X14447253Y-18766712D02*
X14447253Y-18690522D01*
X14447253Y-18690522D02*
X14456777Y-18671474D01*
X14456777Y-18671474D02*
X14475825Y-18661950D01*
X14475825Y-18661950D02*
X14513920Y-18661950D01*
X14513920Y-18661950D02*
X14532968Y-18671474D01*
X14532968Y-18671474D02*
X14542491Y-18690522D01*
X14542491Y-18690522D02*
X14542491Y-18709570D01*
X14542491Y-18709570D02*
X14447253Y-18728617D01*
X14618682Y-18785760D02*
X14637730Y-18795284D01*
X14637730Y-18795284D02*
X14675825Y-18795284D01*
X14675825Y-18795284D02*
X14694872Y-18785760D01*
X14694872Y-18785760D02*
X14704396Y-18766712D01*
X14704396Y-18766712D02*
X14704396Y-18757189D01*
X14704396Y-18757189D02*
X14694872Y-18738141D01*
X14694872Y-18738141D02*
X14675825Y-18728617D01*
X14675825Y-18728617D02*
X14647253Y-18728617D01*
X14647253Y-18728617D02*
X14628206Y-18719093D01*
X14628206Y-18719093D02*
X14618682Y-18700046D01*
X14618682Y-18700046D02*
X14618682Y-18690522D01*
X14618682Y-18690522D02*
X14628206Y-18671474D01*
X14628206Y-18671474D02*
X14647253Y-18661950D01*
X14647253Y-18661950D02*
X14675825Y-18661950D01*
X14675825Y-18661950D02*
X14694872Y-18671474D01*
X14771063Y-18871474D02*
X14780587Y-18861950D01*
X14780587Y-18861950D02*
X14799634Y-18833379D01*
X14799634Y-18833379D02*
X14809158Y-18814331D01*
X14809158Y-18814331D02*
X14818682Y-18785760D01*
X14818682Y-18785760D02*
X14828206Y-18738141D01*
X14828206Y-18738141D02*
X14828206Y-18700046D01*
X14828206Y-18700046D02*
X14818682Y-18652427D01*
X14818682Y-18652427D02*
X14809158Y-18623855D01*
X14809158Y-18623855D02*
X14799634Y-18604808D01*
X14799634Y-18604808D02*
X14780587Y-18576236D01*
X14780587Y-18576236D02*
X14771063Y-18566712D01*
M02*
