%TF.GenerationSoftware,KiCad,Pcbnew,7.0.11-7.0.11~ubuntu22.04.1*%
%TF.CreationDate,2024-09-22T23:22:13-04:00*%
%TF.ProjectId,ad-vca,61642d76-6361-42e6-9b69-6361645f7063,rev?*%
%TF.SameCoordinates,Original*%
%TF.FileFunction,Copper,L2,Bot*%
%TF.FilePolarity,Positive*%
%FSLAX46Y46*%
G04 Gerber Fmt 4.6, Leading zero omitted, Abs format (unit mm)*
G04 Created by KiCad (PCBNEW 7.0.11-7.0.11~ubuntu22.04.1) date 2024-09-22 23:22:13*
%MOMM*%
%LPD*%
G01*
G04 APERTURE LIST*
%TA.AperFunction,ComponentPad*%
%ADD10C,1.600000*%
%TD*%
%TA.AperFunction,ComponentPad*%
%ADD11C,1.200000*%
%TD*%
%TA.AperFunction,ComponentPad*%
%ADD12R,1.200000X1.200000*%
%TD*%
%TA.AperFunction,ComponentPad*%
%ADD13C,2.667000*%
%TD*%
%TA.AperFunction,ComponentPad*%
%ADD14C,1.803400*%
%TD*%
%TA.AperFunction,ComponentPad*%
%ADD15O,1.600000X1.600000*%
%TD*%
%TA.AperFunction,ComponentPad*%
%ADD16O,1.700000X1.700000*%
%TD*%
%TA.AperFunction,ComponentPad*%
%ADD17R,1.700000X1.700000*%
%TD*%
%TA.AperFunction,ComponentPad*%
%ADD18R,1.600000X1.600000*%
%TD*%
%TA.AperFunction,ComponentPad*%
%ADD19C,1.800000*%
%TD*%
%TA.AperFunction,ComponentPad*%
%ADD20O,1.050000X1.500000*%
%TD*%
%TA.AperFunction,ComponentPad*%
%ADD21R,1.050000X1.500000*%
%TD*%
%TA.AperFunction,ComponentPad*%
%ADD22R,1.500000X1.050000*%
%TD*%
%TA.AperFunction,ComponentPad*%
%ADD23O,1.500000X1.050000*%
%TD*%
%TA.AperFunction,ComponentPad*%
%ADD24O,2.250000X4.000000*%
%TD*%
%TA.AperFunction,ComponentPad*%
%ADD25C,2.000000*%
%TD*%
%TA.AperFunction,ComponentPad*%
%ADD26R,2.000000X2.000000*%
%TD*%
%TA.AperFunction,ComponentPad*%
%ADD27C,1.440000*%
%TD*%
%TA.AperFunction,ViaPad*%
%ADD28C,0.600000*%
%TD*%
%TA.AperFunction,Conductor*%
%ADD29C,0.400000*%
%TD*%
G04 APERTURE END LIST*
D10*
%TO.P,C2,1*%
%TO.N,/Circuit Panel/Attack 2*%
X102738000Y-71268000D03*
%TO.P,C2,2*%
%TO.N,GND*%
X102738000Y-68768000D03*
%TD*%
%TO.P,C1,1*%
%TO.N,Net-(U1D--)*%
X115760000Y-49560000D03*
%TO.P,C1,2*%
%TO.N,Net-(D1-A)*%
X115760000Y-52060000D03*
%TD*%
%TO.P,C5,1*%
%TO.N,+12V*%
X95950000Y-139261472D03*
%TO.P,C5,2*%
%TO.N,GND*%
X98450000Y-139261472D03*
%TD*%
%TO.P,C4,1*%
%TO.N,-12V*%
X98350000Y-143011472D03*
%TO.P,C4,2*%
%TO.N,GND*%
X95850000Y-143011472D03*
%TD*%
D11*
%TO.P,C7,2*%
%TO.N,GND*%
X105950000Y-125090000D03*
D12*
%TO.P,C7,1*%
%TO.N,+12V*%
X103950000Y-125090000D03*
%TD*%
D11*
%TO.P,C6,2*%
%TO.N,-12V*%
X106020000Y-132981472D03*
D12*
%TO.P,C6,1*%
%TO.N,GND*%
X104020000Y-132981472D03*
%TD*%
D13*
%TO.P,POT4,5*%
%TO.N,N/C*%
X136087637Y-99486557D03*
%TO.P,POT4,4*%
X144876037Y-99486557D03*
D14*
%TO.P,POT4,3,Right*%
%TO.N,/Control Panel/lfo rate 3*%
X137941837Y-92476157D03*
%TO.P,POT4,2,Center*%
%TO.N,/Control Panel/lfo rate 2*%
X140481837Y-92476157D03*
%TO.P,POT4,1,Left*%
%TO.N,/Control Panel/Lfo rate 1*%
X143021837Y-92476157D03*
%TD*%
D10*
%TO.P,R12,1*%
%TO.N,Net-(TRIM2-Center)*%
X99770000Y-111450000D03*
D15*
%TO.P,R12,2*%
%TO.N,Net-(Q2-C)*%
X99770000Y-103830000D03*
%TD*%
D16*
%TO.P,J12,4,Pin_4*%
%TO.N,/Control Panel/Release 2*%
X130958000Y-50160000D03*
%TO.P,J12,3,Pin_3*%
%TO.N,/Control Panel/Release 1*%
X130958000Y-47620000D03*
%TO.P,J12,2,Pin_2*%
%TO.N,/Control Panel/Sustain 2*%
X130958000Y-45080000D03*
D17*
%TO.P,J12,1,Pin_1*%
%TO.N,/Control Panel/Sustain 1*%
X130958000Y-42540000D03*
%TD*%
D10*
%TO.P,R25,1*%
%TO.N,/Circuit Panel/lfo led 1 -*%
X96230000Y-118540000D03*
D15*
%TO.P,R25,2*%
%TO.N,Net-(U2B-+)*%
X96230000Y-126160000D03*
%TD*%
D18*
%TO.P,D4,1,K*%
%TO.N,Net-(D3-A)*%
X112980000Y-73370000D03*
D15*
%TO.P,D4,2,A*%
%TO.N,/Circuit Panel/Release 1*%
X105360000Y-73370000D03*
%TD*%
D19*
%TO.P,J3,3*%
%TO.N,/Control Panel/GND*%
X135000000Y-135014000D03*
%TO.P,J3,2*%
%TO.N,unconnected-(J3-Pad2)*%
X135000000Y-143314000D03*
%TO.P,J3,1*%
%TO.N,/Control Panel/Audio In*%
X135000000Y-146414000D03*
%TD*%
D18*
%TO.P,D5,1,K*%
%TO.N,/Circuit Panel/Sustain 1*%
X99410000Y-38790000D03*
D15*
%TO.P,D5,2,A*%
%TO.N,Net-(D5-A)*%
X99410000Y-46410000D03*
%TD*%
D17*
%TO.P,J10,1,Pin_1*%
%TO.N,/Circuit Panel/Sustain 1*%
X96260000Y-38950000D03*
D16*
%TO.P,J10,2,Pin_2*%
%TO.N,/Circuit Panel/Sustain 2*%
X96260000Y-41490000D03*
%TO.P,J10,3,Pin_3*%
%TO.N,/Circuit Panel/Release 1*%
X96260000Y-44030000D03*
%TO.P,J10,4,Pin_4*%
%TO.N,/Circuit Panel/Attack 2*%
X96260000Y-46570000D03*
%TD*%
D10*
%TO.P,R18,1*%
%TO.N,Net-(Q1-B)*%
X112136000Y-107884000D03*
D15*
%TO.P,R18,2*%
%TO.N,GND*%
X112136000Y-115504000D03*
%TD*%
D19*
%TO.P,J5,3*%
%TO.N,/Control Panel/GND*%
X135000000Y-119894000D03*
%TO.P,J5,2*%
%TO.N,unconnected-(J5-Pad2)*%
X135000000Y-128194000D03*
%TO.P,J5,1*%
%TO.N,/Control Panel/Cv out*%
X135000000Y-131294000D03*
%TD*%
D10*
%TO.P,R13,1*%
%TO.N,GND*%
X112390000Y-118298000D03*
D15*
%TO.P,R13,2*%
%TO.N,Net-(U2D-+)*%
X112390000Y-125918000D03*
%TD*%
D10*
%TO.P,R6,1*%
%TO.N,+12V*%
X99260000Y-126180000D03*
D15*
%TO.P,R6,2*%
%TO.N,Net-(U1C--)*%
X99260000Y-118560000D03*
%TD*%
%TO.P,R26,2*%
%TO.N,Net-(Q3-B)*%
X131846000Y-64284000D03*
D10*
%TO.P,R26,1*%
%TO.N,/Control Panel/led 1 +*%
X131846000Y-56664000D03*
%TD*%
%TO.P,R17,1*%
%TO.N,/Circuit Panel/Audio in*%
X102770000Y-101460000D03*
D15*
%TO.P,R17,2*%
%TO.N,Net-(Q1-B)*%
X102770000Y-93840000D03*
%TD*%
D10*
%TO.P,R24,1*%
%TO.N,/Circuit Panel/lfo led 1 -*%
X112660000Y-41800000D03*
D15*
%TO.P,R24,2*%
%TO.N,GND*%
X105040000Y-41800000D03*
%TD*%
D10*
%TO.P,R3,1*%
%TO.N,Net-(U1B--)*%
X96388000Y-84516000D03*
D15*
%TO.P,R3,2*%
%TO.N,Net-(U2C--)*%
X96388000Y-76896000D03*
%TD*%
D10*
%TO.P,R29,1*%
%TO.N,Net-(U1D--)*%
X112580000Y-45130000D03*
D15*
%TO.P,R29,2*%
%TO.N,/Circuit Panel/lfo switch 1*%
X104960000Y-45130000D03*
%TD*%
D10*
%TO.P,R19,1*%
%TO.N,Net-(U2A--)*%
X102910000Y-116570000D03*
D15*
%TO.P,R19,2*%
%TO.N,/Circuit Panel/lfo pot 2*%
X102910000Y-108950000D03*
%TD*%
D13*
%TO.P,POT1,5*%
%TO.N,N/C*%
X136087637Y-50312157D03*
%TO.P,POT1,4*%
X144876037Y-50312157D03*
D14*
%TO.P,POT1,3,Right*%
%TO.N,unconnected-(POT1A-Right-Pad3)*%
X137941837Y-43301757D03*
%TO.P,POT1,2,Center*%
%TO.N,/Control Panel/Attack 2*%
X140481837Y-43301757D03*
%TO.P,POT1,1,Left*%
%TO.N,/Control Panel/Attack 1*%
X143021837Y-43301757D03*
%TD*%
D20*
%TO.P,Q4,3,C*%
%TO.N,Net-(D6-A)*%
X150642000Y-92224000D03*
%TO.P,Q4,2,B*%
%TO.N,Net-(Q4-B)*%
X149372000Y-92224000D03*
D21*
%TO.P,Q4,1,E*%
%TO.N,Net-(Q4-E)*%
X148102000Y-92224000D03*
%TD*%
D10*
%TO.P,R4,1*%
%TO.N,Net-(U2C--)*%
X110900000Y-92780000D03*
D15*
%TO.P,R4,2*%
%TO.N,Net-(R33-Pad2)*%
X110900000Y-100400000D03*
%TD*%
D22*
%TO.P,Q2,1,E*%
%TO.N,Net-(Q1-E)*%
X98830000Y-90410000D03*
D23*
%TO.P,Q2,2,B*%
%TO.N,Net-(Q2-B)*%
X98830000Y-89140000D03*
%TO.P,Q2,3,C*%
%TO.N,Net-(Q2-C)*%
X98830000Y-87870000D03*
%TD*%
D15*
%TO.P,R31,2*%
%TO.N,/Control Panel/GND*%
X131592000Y-81048000D03*
D10*
%TO.P,R31,1*%
%TO.N,Net-(Q4-E)*%
X131592000Y-88668000D03*
%TD*%
D17*
%TO.P,J11,1,Pin_1*%
%TO.N,GND*%
X115575000Y-105165000D03*
D16*
%TO.P,J11,2,Pin_2*%
%TO.N,/Circuit Panel/lfo pot 1*%
X115575000Y-107705000D03*
%TO.P,J11,3,Pin_3*%
%TO.N,/Circuit Panel/lfo pot 2*%
X115575000Y-110245000D03*
%TO.P,J11,4,Pin_4*%
%TO.N,GND*%
X115575000Y-112785000D03*
%TD*%
D10*
%TO.P,R14,1*%
%TO.N,Net-(Q5-C)*%
X115490000Y-101821472D03*
D15*
%TO.P,R14,2*%
%TO.N,Net-(Q1-E)*%
X115490000Y-94201472D03*
%TD*%
D16*
%TO.P,J14,4,Pin_4*%
%TO.N,/Control Panel/led 2 +*%
X130988000Y-76070000D03*
%TO.P,J14,3,Pin_3*%
%TO.N,/Control Panel/led 2 -*%
X130988000Y-73530000D03*
%TO.P,J14,2,Pin_2*%
%TO.N,/Control Panel/lfo switch 2*%
X130988000Y-70990000D03*
D17*
%TO.P,J14,1,Pin_1*%
%TO.N,/Control Panel/lfo switch 1*%
X130988000Y-68450000D03*
%TD*%
D15*
%TO.P,R27,2*%
%TO.N,/Control Panel/GND*%
X147680000Y-78010000D03*
D10*
%TO.P,R27,1*%
%TO.N,Net-(Q3-E)*%
X147680000Y-70390000D03*
%TD*%
D15*
%TO.P,R30,2*%
%TO.N,Net-(Q4-B)*%
X149360000Y-88310000D03*
D10*
%TO.P,R30,1*%
%TO.N,/Control Panel/led 2 +*%
X149360000Y-80690000D03*
%TD*%
%TO.P,R22,1*%
%TO.N,Net-(U2B-+)*%
X99182000Y-136078000D03*
D15*
%TO.P,R22,2*%
%TO.N,Net-(C3-Pad1)*%
X99182000Y-128458000D03*
%TD*%
D10*
%TO.P,R8,1*%
%TO.N,/Circuit Panel/Sustain 2*%
X112136000Y-76896000D03*
D15*
%TO.P,R8,2*%
%TO.N,Net-(D2-K)*%
X112136000Y-84516000D03*
%TD*%
D16*
%TO.P,J8,4,Pin_4*%
%TO.N,/Control Panel/Cv out*%
X130998000Y-116370000D03*
%TO.P,J8,3,Pin_3*%
%TO.N,/Control Panel/Attack 2*%
X130998000Y-113830000D03*
%TO.P,J8,2,Pin_2*%
%TO.N,/Control Panel/Attack 1*%
X130998000Y-111290000D03*
D17*
%TO.P,J8,1,Pin_1*%
%TO.N,/Control Panel/Gate In*%
X130998000Y-108750000D03*
%TD*%
D19*
%TO.P,J6,3*%
%TO.N,/Control Panel/GND*%
X145900000Y-119910000D03*
%TO.P,J6,2*%
%TO.N,unconnected-(J6-Pad2)*%
X145900000Y-128210000D03*
%TO.P,J6,1*%
%TO.N,/Control Panel/Gate In*%
X145900000Y-131310000D03*
%TD*%
D18*
%TO.P,U2,1*%
%TO.N,Net-(C3-Pad1)*%
X101976000Y-119822000D03*
D15*
%TO.P,U2,2,-*%
%TO.N,Net-(U2A--)*%
X101976000Y-122362000D03*
%TO.P,U2,3,+*%
%TO.N,Net-(U2A-+)*%
X101976000Y-124902000D03*
%TO.P,U2,4,V+*%
%TO.N,+12V*%
X101976000Y-127442000D03*
%TO.P,U2,5,+*%
%TO.N,Net-(U2B-+)*%
X101976000Y-129982000D03*
%TO.P,U2,6,-*%
%TO.N,GND*%
X101976000Y-132522000D03*
%TO.P,U2,7*%
%TO.N,Net-(R23-Pad2)*%
X101976000Y-135062000D03*
%TO.P,U2,8*%
%TO.N,Net-(R33-Pad2)*%
X109596000Y-135062000D03*
%TO.P,U2,9,-*%
%TO.N,Net-(U2C--)*%
X109596000Y-132522000D03*
%TO.P,U2,10,+*%
%TO.N,GND*%
X109596000Y-129982000D03*
%TO.P,U2,11,V-*%
%TO.N,-12V*%
X109596000Y-127442000D03*
%TO.P,U2,12,+*%
%TO.N,Net-(U2D-+)*%
X109596000Y-124902000D03*
%TO.P,U2,13,-*%
%TO.N,Net-(U2D--)*%
X109596000Y-122362000D03*
%TO.P,U2,14*%
%TO.N,/Circuit Panel/adsr led 2 -*%
X109596000Y-119822000D03*
%TD*%
D18*
%TO.P,D3,1,K*%
%TO.N,/Circuit Panel/Attack 1*%
X105340000Y-70510000D03*
D15*
%TO.P,D3,2,A*%
%TO.N,Net-(D3-A)*%
X112960000Y-70510000D03*
%TD*%
D10*
%TO.P,R21,1*%
%TO.N,GND*%
X99520000Y-101370000D03*
D15*
%TO.P,R21,2*%
%TO.N,Net-(U2A-+)*%
X99520000Y-93750000D03*
%TD*%
D17*
%TO.P,J2,1,Pin_1*%
%TO.N,/Circuit Panel/Gate In*%
X96290000Y-105170000D03*
D16*
%TO.P,J2,2,Pin_2*%
%TO.N,/Circuit Panel/Attack 1*%
X96290000Y-107710000D03*
%TO.P,J2,3,Pin_3*%
%TO.N,/Circuit Panel/Attack 2*%
X96290000Y-110250000D03*
%TO.P,J2,4,Pin_4*%
%TO.N,/Circuit Panel/CV out*%
X96290000Y-112790000D03*
%TD*%
D18*
%TO.P,U1,1*%
%TO.N,Net-(D3-A)*%
X102350000Y-50460000D03*
D15*
%TO.P,U1,2,-*%
X102350000Y-53000000D03*
%TO.P,U1,3,+*%
%TO.N,Net-(D2-K)*%
X102350000Y-55540000D03*
%TO.P,U1,4,V+*%
%TO.N,+12V*%
X102350000Y-58080000D03*
%TO.P,U1,5,+*%
%TO.N,/Circuit Panel/Attack 2*%
X102350000Y-60620000D03*
%TO.P,U1,6,-*%
%TO.N,Net-(U1B--)*%
X102350000Y-63160000D03*
%TO.P,U1,7*%
X102350000Y-65700000D03*
%TO.P,U1,8*%
%TO.N,Net-(D2-A)*%
X109970000Y-65700000D03*
%TO.P,U1,9,-*%
%TO.N,Net-(U1C--)*%
X109970000Y-63160000D03*
%TO.P,U1,10,+*%
%TO.N,Net-(D1-K)*%
X109970000Y-60620000D03*
%TO.P,U1,11,V-*%
%TO.N,-12V*%
X109970000Y-58080000D03*
%TO.P,U1,12,+*%
%TO.N,GND*%
X109970000Y-55540000D03*
%TO.P,U1,13,-*%
%TO.N,Net-(U1D--)*%
X109970000Y-53000000D03*
%TO.P,U1,14*%
%TO.N,Net-(D5-A)*%
X109970000Y-50460000D03*
%TD*%
D10*
%TO.P,R15,1*%
%TO.N,/Circuit Panel/adsr led 2 -*%
X105010000Y-38650000D03*
D15*
%TO.P,R15,2*%
%TO.N,/Circuit Panel/Audio out*%
X112630000Y-38650000D03*
%TD*%
D24*
%TO.P,SW1,3,C*%
%TO.N,unconnected-(SW1-C-Pad3)*%
X144732000Y-110602000D03*
%TO.P,SW1,2,B*%
%TO.N,/Control Panel/lfo switch 2*%
X140482000Y-110512000D03*
%TO.P,SW1,1,A*%
%TO.N,/Control Panel/lfo switch 1*%
X136232000Y-110602000D03*
%TD*%
D10*
%TO.P,R32,1*%
%TO.N,-12V*%
X99580000Y-84500000D03*
D15*
%TO.P,R32,2*%
%TO.N,Net-(Q5-C)*%
X99580000Y-76880000D03*
%TD*%
D18*
%TO.P,D2,1,K*%
%TO.N,Net-(D2-K)*%
X113030000Y-67240000D03*
D15*
%TO.P,D2,2,A*%
%TO.N,Net-(D2-A)*%
X113030000Y-59620000D03*
%TD*%
D25*
%TO.P,D7,2,A*%
%TO.N,Net-(D7-A)*%
X149118000Y-67840000D03*
D26*
%TO.P,D7,1,K*%
%TO.N,/Control Panel/led 1 -*%
X149118000Y-65300000D03*
%TD*%
D22*
%TO.P,Q1,1,E*%
%TO.N,Net-(Q1-E)*%
X103700000Y-90500000D03*
D23*
%TO.P,Q1,2,B*%
%TO.N,Net-(Q1-B)*%
X103700000Y-89230000D03*
%TO.P,Q1,3,C*%
%TO.N,Net-(Q1-C)*%
X103700000Y-87960000D03*
%TD*%
D10*
%TO.P,R5,1*%
%TO.N,/Circuit Panel/CV out*%
X102370000Y-38760000D03*
D15*
%TO.P,R5,2*%
%TO.N,Net-(U1B--)*%
X102370000Y-46380000D03*
%TD*%
D16*
%TO.P,J9,4,Pin_4*%
%TO.N,/Control Panel/led 1 +*%
X150298000Y-50180000D03*
%TO.P,J9,3,Pin_3*%
%TO.N,/Control Panel/led 1 -*%
X150298000Y-47640000D03*
%TO.P,J9,2,Pin_2*%
%TO.N,/Control Panel/Audio Out*%
X150298000Y-45100000D03*
D17*
%TO.P,J9,1,Pin_1*%
%TO.N,/Control Panel/Audio In*%
X150298000Y-42560000D03*
%TD*%
%TO.P,J13,1,Pin_1*%
%TO.N,/Control Panel/GND*%
X150273000Y-108755000D03*
D16*
%TO.P,J13,2,Pin_2*%
%TO.N,/Control Panel/Lfo rate 1*%
X150273000Y-111295000D03*
%TO.P,J13,3,Pin_3*%
%TO.N,/Control Panel/lfo rate 2*%
X150273000Y-113835000D03*
%TO.P,J13,4,Pin_4*%
%TO.N,/Control Panel/lfo rate 3*%
X150273000Y-116375000D03*
%TD*%
D10*
%TO.P,R35,1*%
%TO.N,Net-(Q2-B)*%
X102620000Y-84520000D03*
D15*
%TO.P,R35,2*%
%TO.N,GND*%
X102620000Y-76900000D03*
%TD*%
D10*
%TO.P,R16,1*%
%TO.N,Net-(U2D--)*%
X112480000Y-128190000D03*
D15*
%TO.P,R16,2*%
%TO.N,/Circuit Panel/adsr led 2 -*%
X112480000Y-135810000D03*
%TD*%
D10*
%TO.P,R2,1*%
%TO.N,GND*%
X115670000Y-77480000D03*
D15*
%TO.P,R2,2*%
%TO.N,Net-(D1-K)*%
X115670000Y-69860000D03*
%TD*%
D10*
%TO.P,R9,1*%
%TO.N,Net-(TRIM2-Center)*%
X107290000Y-92860000D03*
D15*
%TO.P,R9,2*%
%TO.N,Net-(Q1-C)*%
X107290000Y-100480000D03*
%TD*%
D19*
%TO.P,J4,3*%
%TO.N,/Control Panel/GND*%
X146000000Y-135014000D03*
%TO.P,J4,2*%
%TO.N,unconnected-(J4-Pad2)*%
X146000000Y-143314000D03*
%TO.P,J4,1*%
%TO.N,/Control Panel/Audio Out*%
X146000000Y-146414000D03*
%TD*%
D20*
%TO.P,Q3,3,C*%
%TO.N,Net-(D7-A)*%
X150388000Y-59310000D03*
%TO.P,Q3,2,B*%
%TO.N,Net-(Q3-B)*%
X149118000Y-59310000D03*
D21*
%TO.P,Q3,1,E*%
%TO.N,Net-(Q3-E)*%
X147848000Y-59310000D03*
%TD*%
D17*
%TO.P,J15,1,Pin_1*%
%TO.N,/Circuit Panel/lfo switch 1*%
X96290000Y-64860000D03*
D16*
%TO.P,J15,2,Pin_2*%
%TO.N,/Circuit Panel/lfo led 1 -*%
X96290000Y-67400000D03*
%TO.P,J15,3,Pin_3*%
%TO.N,/Circuit Panel/adsr led 2 -*%
X96290000Y-69940000D03*
%TO.P,J15,4,Pin_4*%
%TO.N,+12V*%
X96290000Y-72480000D03*
%TD*%
D10*
%TO.P,R23,1*%
%TO.N,/Circuit Panel/lfo led 1 -*%
X115650000Y-84220000D03*
D15*
%TO.P,R23,2*%
%TO.N,Net-(R23-Pad2)*%
X115650000Y-91840000D03*
%TD*%
D10*
%TO.P,R11,1*%
%TO.N,Net-(Q1-C)*%
X108834000Y-108392000D03*
D15*
%TO.P,R11,2*%
%TO.N,Net-(U2D--)*%
X108834000Y-116012000D03*
%TD*%
D10*
%TO.P,R1,1*%
%TO.N,GND*%
X99640000Y-67710000D03*
D15*
%TO.P,R1,2*%
%TO.N,Net-(D1-A)*%
X99640000Y-60090000D03*
%TD*%
D10*
%TO.P,R7,1*%
%TO.N,Net-(U1C--)*%
X96388000Y-101534000D03*
D15*
%TO.P,R7,2*%
%TO.N,GND*%
X96388000Y-93914000D03*
%TD*%
D13*
%TO.P,POT2,5*%
%TO.N,N/C*%
X136087637Y-66720557D03*
%TO.P,POT2,4*%
X144876037Y-66720557D03*
D14*
%TO.P,POT2,3,Right*%
%TO.N,unconnected-(POT2A-Right-Pad3)*%
X137941837Y-59710157D03*
%TO.P,POT2,2,Center*%
%TO.N,/Control Panel/Sustain 2*%
X140481837Y-59710157D03*
%TO.P,POT2,1,Left*%
%TO.N,/Control Panel/Sustain 1*%
X143021837Y-59710157D03*
%TD*%
D15*
%TO.P,R20,2*%
%TO.N,/Circuit Panel/lfo pot 1*%
X96134000Y-128458000D03*
D10*
%TO.P,R20,1*%
%TO.N,Net-(U2B-+)*%
X96134000Y-136078000D03*
%TD*%
D13*
%TO.P,POT3,5*%
%TO.N,N/C*%
X136087637Y-83230557D03*
%TO.P,POT3,4*%
X144876037Y-83230557D03*
D14*
%TO.P,POT3,3,Right*%
%TO.N,unconnected-(POT3A-Right-Pad3)*%
X137941837Y-76220157D03*
%TO.P,POT3,2,Center*%
%TO.N,/Control Panel/Release 2*%
X140481837Y-76220157D03*
%TO.P,POT3,1,Left*%
%TO.N,/Control Panel/Release 1*%
X143021837Y-76220157D03*
%TD*%
D10*
%TO.P,C3,1*%
%TO.N,Net-(C3-Pad1)*%
X106040000Y-112964000D03*
%TO.P,C3,2*%
%TO.N,Net-(U2A--)*%
X106040000Y-115464000D03*
%TD*%
D18*
%TO.P,D1,1,K*%
%TO.N,Net-(D1-K)*%
X115670000Y-67030000D03*
D15*
%TO.P,D1,2,A*%
%TO.N,Net-(D1-A)*%
X115670000Y-59410000D03*
%TD*%
D10*
%TO.P,R34,1*%
%TO.N,Net-(Q5-B)*%
X108834000Y-84516000D03*
D15*
%TO.P,R34,2*%
%TO.N,Net-(TRIM1-Center)*%
X108834000Y-76896000D03*
%TD*%
D21*
%TO.P,Q5,1,E*%
%TO.N,GND*%
X109940000Y-88980000D03*
D20*
%TO.P,Q5,2,B*%
%TO.N,Net-(Q5-B)*%
X111210000Y-88980000D03*
%TO.P,Q5,3,C*%
%TO.N,Net-(Q5-C)*%
X112480000Y-88980000D03*
%TD*%
D10*
%TO.P,R28,1*%
%TO.N,Net-(U1D--)*%
X112600000Y-49480000D03*
D15*
%TO.P,R28,2*%
%TO.N,/Circuit Panel/Gate In*%
X112600000Y-57100000D03*
%TD*%
D10*
%TO.P,R33,1*%
%TO.N,Net-(Q5-B)*%
X105786000Y-76896000D03*
D15*
%TO.P,R33,2*%
%TO.N,Net-(R33-Pad2)*%
X105786000Y-84516000D03*
%TD*%
D25*
%TO.P,D6,2,A*%
%TO.N,Net-(D6-A)*%
X149118000Y-100606000D03*
D26*
%TO.P,D6,1,K*%
%TO.N,/Control Panel/led 2 -*%
X149118000Y-98066000D03*
%TD*%
D10*
%TO.P,R10,1*%
%TO.N,Net-(Q2-C)*%
X115530000Y-128510000D03*
D15*
%TO.P,R10,2*%
%TO.N,Net-(U2D-+)*%
X115530000Y-136130000D03*
%TD*%
D17*
%TO.P,J7,1,Pin_1*%
%TO.N,/Circuit Panel/Audio in*%
X115600000Y-38970000D03*
D16*
%TO.P,J7,2,Pin_2*%
%TO.N,/Circuit Panel/Audio out*%
X115600000Y-41510000D03*
%TO.P,J7,3,Pin_3*%
%TO.N,/Circuit Panel/lfo led 1 -*%
X115600000Y-44050000D03*
%TO.P,J7,4,Pin_4*%
%TO.N,+12V*%
X115600000Y-46590000D03*
%TD*%
%TO.P,J1,1,+12V*%
%TO.N,+12V*%
X103660000Y-139701472D03*
%TO.P,J1,2,+12V*%
X103660000Y-142241472D03*
%TO.P,J1,3,GND*%
%TO.N,GND*%
X106200000Y-139701472D03*
%TO.P,J1,4,GND*%
X106200000Y-142241472D03*
%TO.P,J1,5,GND*%
X108740000Y-139701472D03*
%TO.P,J1,6,GND*%
X108740000Y-142241472D03*
%TO.P,J1,7,GND*%
X111280000Y-139701472D03*
%TO.P,J1,8,GND*%
X111280000Y-142241472D03*
%TO.P,J1,9,-12V*%
%TO.N,-12V*%
X113820000Y-139701472D03*
%TO.P,J1,10,-12V*%
X113820000Y-142241472D03*
%TD*%
D27*
%TO.P,TRIM2,1,Left*%
%TO.N,+12V*%
X111870000Y-104340000D03*
%TO.P,TRIM2,2,Center*%
%TO.N,Net-(TRIM2-Center)*%
X109330000Y-104340000D03*
%TO.P,TRIM2,3,Right*%
%TO.N,-12V*%
X106790000Y-104340000D03*
%TD*%
%TO.P,TRIM1,1,Left*%
%TO.N,+12V*%
X97658000Y-56576000D03*
%TO.P,TRIM1,2,Center*%
%TO.N,Net-(TRIM1-Center)*%
X97658000Y-54036000D03*
%TO.P,TRIM1,3,Right*%
%TO.N,GND*%
X97658000Y-51496000D03*
%TD*%
D28*
%TO.N,Net-(D1-A)*%
X105400000Y-57210000D03*
X104250000Y-60070000D03*
%TO.N,/Circuit Panel/Attack 1*%
X101754040Y-75830765D03*
X101700000Y-86490000D03*
X102230000Y-91470000D03*
%TO.N,/Circuit Panel/Release 1*%
X95080000Y-60070000D03*
X99734092Y-66330000D03*
X99630207Y-63975743D03*
%TO.N,Net-(Q1-E)*%
X107605517Y-89454759D03*
X107620000Y-91418858D03*
%TO.N,Net-(Q1-B)*%
X103040000Y-98950000D03*
X105620000Y-102150523D03*
%TO.N,GND*%
X104640000Y-65160000D03*
X105920000Y-56590000D03*
X105960000Y-54180000D03*
X96800000Y-96540000D03*
X107020000Y-73990000D03*
X113420000Y-120230000D03*
X104970000Y-107170000D03*
X98890000Y-96840000D03*
%TO.N,Net-(Q2-C)*%
X99770000Y-124740000D03*
X105170000Y-130840000D03*
X104300000Y-128441472D03*
%TO.N,/Control Panel/led 2 -*%
X138450000Y-95680000D03*
X132046000Y-95450000D03*
%TO.N,Net-(U1B--)*%
X99550025Y-55329975D03*
X101150000Y-51710000D03*
X101040000Y-75470000D03*
X100925025Y-67924975D03*
X101420000Y-72790000D03*
%TO.N,/Circuit Panel/CV out*%
X95810000Y-75650000D03*
X95882874Y-97080000D03*
X98370000Y-49960000D03*
X98860000Y-64330000D03*
X98960000Y-66530000D03*
X95262000Y-63012000D03*
X95930000Y-95330000D03*
X96854737Y-74225312D03*
%TO.N,Net-(U1C--)*%
X110391176Y-74759655D03*
X104129975Y-80910025D03*
%TO.N,+12V*%
X98990000Y-121050000D03*
X104250000Y-58968137D03*
X103570851Y-104420850D03*
X107891950Y-106460000D03*
%TO.N,/Circuit Panel/Sustain 2*%
X103220000Y-64420000D03*
X99270000Y-61680000D03*
X108790000Y-72120000D03*
X105830000Y-66011182D03*
X96910000Y-61550000D03*
%TO.N,Net-(U2D-+)*%
X114890000Y-126047395D03*
%TO.N,Net-(U2C--)*%
X108914998Y-88320000D03*
X108124975Y-85865025D03*
%TO.N,/Circuit Panel/lfo pot 1*%
X110230000Y-114450000D03*
%TO.N,Net-(U2A-+)*%
X97800000Y-105020000D03*
X96960000Y-114510000D03*
X98130000Y-124190000D03*
X97850000Y-109350000D03*
%TO.N,Net-(R23-Pad2)*%
X114300000Y-116460000D03*
X113500000Y-112830000D03*
%TO.N,/Circuit Panel/Attack 2*%
X103690000Y-73880000D03*
X104790000Y-85640000D03*
X103773438Y-76300345D03*
X105300000Y-88790000D03*
%TO.N,-12V*%
X103564288Y-80344338D03*
X106307368Y-88659265D03*
X107251711Y-74755711D03*
%TO.N,Net-(R33-Pad2)*%
X110285743Y-117247265D03*
X107130000Y-85860000D03*
X107780000Y-88454579D03*
%TO.N,/Control Panel/Audio In*%
X131092000Y-90330000D03*
%TO.N,/Control Panel/Attack 1*%
X142500000Y-52310000D03*
%TO.N,/Control Panel/Attack 2*%
X138740000Y-73580000D03*
X133360000Y-54060000D03*
%TO.N,/Control Panel/Sustain 2*%
X137180000Y-54160000D03*
%TO.N,/Circuit Panel/lfo led 1 -*%
X99904904Y-72669824D03*
%TO.N,Net-(Q4-E)*%
X135086359Y-86533412D03*
%TO.N,/Circuit Panel/adsr led 2 -*%
X104320000Y-118720000D03*
X105399143Y-120469286D03*
X97654480Y-62017858D03*
X99110000Y-72760000D03*
X98110000Y-55320000D03*
X99810000Y-51510000D03*
X104560801Y-104420850D03*
%TO.N,/Control Panel/GND*%
X136380000Y-86350000D03*
%TO.N,/Control Panel/lfo switch 1*%
X131300000Y-102880000D03*
X133410000Y-102880000D03*
%TO.N,/Control Panel/lfo switch 2*%
X135920000Y-72130000D03*
X135940137Y-75801642D03*
%TD*%
D29*
%TO.N,GND*%
X97290000Y-96840000D02*
X96990000Y-96540000D01*
X96990000Y-96540000D02*
X96800000Y-96540000D01*
X98890000Y-96840000D02*
X97290000Y-96840000D01*
%TO.N,Net-(U2A-+)*%
X98130000Y-124190000D02*
X98800000Y-123520000D01*
X100932000Y-124902000D02*
X101976000Y-124902000D01*
X98800000Y-123520000D02*
X99550000Y-123520000D01*
X99550000Y-123520000D02*
X100932000Y-124902000D01*
%TO.N,/Control Panel/Attack 1*%
X142600000Y-52310000D02*
X144340000Y-54050000D01*
%TO.N,/Circuit Panel/Sustain 2*%
X96870000Y-60560000D02*
X94980000Y-58670000D01*
X94980000Y-58670000D02*
X94980000Y-42770000D01*
X94980000Y-42770000D02*
X96260000Y-41490000D01*
%TO.N,Net-(R33-Pad2)*%
X110900000Y-100400000D02*
X109458415Y-100400000D01*
X109458415Y-100400000D02*
X109090000Y-100768415D01*
%TO.N,/Circuit Panel/lfo pot 2*%
X110416943Y-118022000D02*
X111892943Y-119498000D01*
X107991472Y-111040000D02*
X110930000Y-113978528D01*
X116900000Y-115560000D02*
X116900000Y-111570000D01*
X109434000Y-117385472D02*
X110070528Y-118022000D01*
X110034000Y-116509057D02*
X109434000Y-117109057D01*
X110034000Y-116246000D02*
X110034000Y-116509057D01*
X110930000Y-113978528D02*
X110930000Y-115350000D01*
X110070528Y-118022000D02*
X110416943Y-118022000D01*
X110930000Y-115350000D02*
X110034000Y-116246000D01*
X106131370Y-111040000D02*
X107991472Y-111040000D01*
X111892943Y-119498000D02*
X112962000Y-119498000D01*
X104041370Y-108950000D02*
X106131370Y-111040000D01*
X109434000Y-117109057D02*
X109434000Y-117385472D01*
X112962000Y-119498000D02*
X116900000Y-115560000D01*
X102910000Y-108950000D02*
X104041370Y-108950000D01*
X116900000Y-111570000D02*
X115575000Y-110245000D01*
%TO.N,Net-(Q5-C)*%
X112840000Y-100471472D02*
X112840000Y-88950000D01*
X115490000Y-101821472D02*
X114190000Y-101821472D01*
X114190000Y-101821472D02*
X112840000Y-100471472D01*
%TO.N,/Control Panel/led 2 -*%
X132046000Y-95450000D02*
X132046000Y-94696000D01*
X129678000Y-74462000D02*
X130800000Y-73340000D01*
X132046000Y-94696000D02*
X130185000Y-92835000D01*
X130185000Y-92835000D02*
X130113000Y-92835000D01*
X130113000Y-92835000D02*
X129678000Y-92400000D01*
X129678000Y-92400000D02*
X129678000Y-74462000D01*
%TO.N,/Control Panel/GND*%
X145900000Y-119910000D02*
X147200000Y-121210000D01*
X147200000Y-133814000D02*
X146000000Y-135014000D01*
X147200000Y-121210000D02*
X147200000Y-133814000D01*
X135000000Y-135014000D02*
X136300000Y-133714000D01*
X136300000Y-133714000D02*
X136300000Y-121194000D01*
X136300000Y-121194000D02*
X135000000Y-119894000D01*
X146000000Y-135014000D02*
X135000000Y-135014000D01*
%TO.N,+12V*%
X95950000Y-139261472D02*
X97240000Y-140551472D01*
X97240000Y-140551472D02*
X102810000Y-140551472D01*
X102810000Y-140551472D02*
X103660000Y-139701472D01*
%TO.N,-12V*%
X113820000Y-142241472D02*
X113820000Y-139701472D01*
X98350000Y-143011472D02*
X98830000Y-143491472D01*
X112570000Y-143491472D02*
X113820000Y-142241472D01*
X98830000Y-143491472D02*
X112570000Y-143491472D01*
%TO.N,GND*%
X104020000Y-132981472D02*
X102435472Y-132981472D01*
X102435472Y-132981472D02*
X101976000Y-132522000D01*
%TO.N,+12V*%
X103807401Y-125251472D02*
X105000000Y-126444071D01*
X105000000Y-126444071D02*
X105000000Y-129202000D01*
X105000000Y-129202000D02*
X103736000Y-129202000D01*
X103736000Y-129202000D02*
X101976000Y-127442000D01*
%TO.N,GND*%
X105807401Y-125251472D02*
X105807401Y-126193401D01*
X105807401Y-126193401D02*
X109596000Y-129982000D01*
%TO.N,Net-(Q2-C)*%
X104300000Y-128441472D02*
X104300000Y-128068943D01*
X104300000Y-128068943D02*
X102341057Y-126110000D01*
X102341057Y-126110000D02*
X101030000Y-126110000D01*
X101030000Y-126110000D02*
X99770000Y-124850000D01*
X99770000Y-124850000D02*
X99770000Y-124740000D01*
%TO.N,+12V*%
X103660000Y-139701472D02*
X103660000Y-142241472D01*
X101976000Y-127442000D02*
X100440000Y-128978000D01*
X100440000Y-128978000D02*
X100440000Y-136481472D01*
X100440000Y-136481472D02*
X103660000Y-139701472D01*
%TO.N,GND*%
X111280000Y-142241472D02*
X108740000Y-142241472D01*
X111280000Y-142241472D02*
X111280000Y-139701472D01*
X111280000Y-139701472D02*
X108740000Y-139701472D01*
X106200000Y-139701472D02*
X106200000Y-136746000D01*
X106200000Y-136746000D02*
X101976000Y-132522000D01*
%TO.N,Net-(D1-A)*%
X105400000Y-58920000D02*
X105400000Y-57210000D01*
X104250000Y-60070000D02*
X105400000Y-58920000D01*
%TO.N,Net-(D2-K)*%
X111780000Y-72170000D02*
X112180000Y-72170000D01*
X111760000Y-67874000D02*
X112390000Y-67244000D01*
X113752000Y-82900000D02*
X113752000Y-76542000D01*
X112180000Y-71427057D02*
X111760000Y-71007057D01*
X111760000Y-71007057D02*
X111760000Y-67874000D01*
X111780000Y-74570000D02*
X111780000Y-72170000D01*
X112136000Y-84516000D02*
X113752000Y-82900000D01*
X113752000Y-76542000D02*
X111780000Y-74570000D01*
X112180000Y-72170000D02*
X112180000Y-71427057D01*
%TO.N,Net-(D2-A)*%
X109472943Y-61960000D02*
X110467057Y-61960000D01*
X109596000Y-65124000D02*
X108770000Y-64298000D01*
X112390000Y-60037057D02*
X112390000Y-59624000D01*
X108770000Y-64298000D02*
X108770000Y-62662943D01*
X110467057Y-61960000D02*
X112390000Y-60037057D01*
X108770000Y-62662943D02*
X109472943Y-61960000D01*
X109596000Y-65720000D02*
X109596000Y-65124000D01*
%TO.N,/Circuit Panel/Attack 1*%
X103370000Y-91425000D02*
X102230000Y-91470000D01*
X101380000Y-76120000D02*
X101380000Y-77357057D01*
X103970000Y-100229999D02*
X103970000Y-93342943D01*
X105130000Y-80510000D02*
X105130000Y-81330000D01*
X103820000Y-85017057D02*
X103117057Y-85720000D01*
X101730000Y-75770000D02*
X101520000Y-75980000D01*
X103970000Y-93342943D02*
X103370000Y-92742943D01*
X100970000Y-104118528D02*
X102428528Y-102660000D01*
X103117057Y-85720000D02*
X102470000Y-85720000D01*
X101730000Y-75806725D02*
X101730000Y-75770000D01*
X102720000Y-78100000D02*
X105130000Y-80510000D01*
X103370000Y-92742943D02*
X103370000Y-91425000D01*
X103820000Y-82640000D02*
X103820000Y-85017057D01*
X96290000Y-107710000D02*
X97530000Y-107710000D01*
X100970000Y-104327057D02*
X100970000Y-104118528D01*
X103715207Y-100484792D02*
X103970000Y-100229999D01*
X105130000Y-81330000D02*
X103820000Y-82640000D01*
X102195000Y-91425000D02*
X102180000Y-91440000D01*
X102428528Y-102660000D02*
X103267057Y-102660000D01*
X103970000Y-100739585D02*
X103715207Y-100484792D01*
X97530000Y-107710000D02*
X100210000Y-105030000D01*
X100267057Y-105030000D02*
X100970000Y-104327057D01*
X103970000Y-101957057D02*
X103970000Y-100739585D01*
X102470000Y-85720000D02*
X101700000Y-86490000D01*
X101730000Y-75770000D02*
X101380000Y-76120000D01*
X101380000Y-77357057D02*
X102122943Y-78100000D01*
X100210000Y-105030000D02*
X100267057Y-105030000D01*
X103267057Y-102660000D02*
X103970000Y-101957057D01*
X102230000Y-91470000D02*
X102195000Y-91425000D01*
X102122943Y-78100000D02*
X102720000Y-78100000D01*
X101754040Y-75830765D02*
X101730000Y-75806725D01*
%TO.N,Net-(D3-A)*%
X112980000Y-70718000D02*
X113152000Y-70546000D01*
X112960000Y-73350000D02*
X112980000Y-73370000D01*
%TO.N,/Circuit Panel/Release 1*%
X98581522Y-62830000D02*
X97476672Y-62830000D01*
X99630207Y-63834320D02*
X98775887Y-62980000D01*
X104140000Y-70380000D02*
X104140000Y-72150000D01*
X103740000Y-69980000D02*
X104140000Y-70380000D01*
X100320000Y-66330000D02*
X101630000Y-67640000D01*
X99734092Y-66330000D02*
X100320000Y-66330000D01*
X104140000Y-72150000D02*
X105360000Y-73370000D01*
X101630000Y-68178943D02*
X101538000Y-68270943D01*
X102252943Y-69980000D02*
X103740000Y-69980000D01*
X95080000Y-61690000D02*
X95080000Y-60070000D01*
X101538000Y-68270943D02*
X101538000Y-69265057D01*
X101538000Y-69265057D02*
X102252943Y-69980000D01*
X97476672Y-62830000D02*
X97286672Y-62640000D01*
X99630207Y-63975743D02*
X99630207Y-63834320D01*
X97286672Y-62640000D02*
X96030000Y-62640000D01*
X98731522Y-62980000D02*
X98581522Y-62830000D01*
X96030000Y-62640000D02*
X95080000Y-61690000D01*
X101630000Y-67640000D02*
X101630000Y-68178943D01*
X98775887Y-62980000D02*
X98731522Y-62980000D01*
%TO.N,Net-(Q1-E)*%
X98920000Y-90500000D02*
X98830000Y-90410000D01*
X107605517Y-89454759D02*
X107465241Y-89454759D01*
X107630000Y-89479242D02*
X107605517Y-89454759D01*
X107620000Y-91418858D02*
X107630000Y-91408858D01*
X107630000Y-91408858D02*
X107630000Y-89479242D01*
%TO.N,Net-(Q1-B)*%
X105530000Y-105981472D02*
X107576000Y-108027472D01*
X107576000Y-108831057D02*
X108336943Y-109592000D01*
X102010000Y-92845887D02*
X102010000Y-92880000D01*
X103040000Y-93910000D02*
X103040000Y-98950000D01*
X103040000Y-89230000D02*
X101310000Y-90960000D01*
X108336943Y-109592000D02*
X110428000Y-109592000D01*
X101310000Y-92145887D02*
X102010000Y-92845887D01*
X110428000Y-109592000D02*
X112136000Y-107884000D01*
X103700000Y-89230000D02*
X103040000Y-89230000D01*
X103040000Y-98950000D02*
X103040000Y-98961057D01*
X105620000Y-102150523D02*
X105530000Y-102240523D01*
X107576000Y-108027472D02*
X107576000Y-108831057D01*
X105530000Y-102240523D02*
X105530000Y-105981472D01*
X101310000Y-90960000D02*
X101310000Y-92145887D01*
X102010000Y-92880000D02*
X103040000Y-93910000D01*
%TO.N,Net-(Q1-C)*%
X108022000Y-105038000D02*
X106728528Y-106331472D01*
X106857056Y-106460000D02*
X106902000Y-106460000D01*
X107080000Y-88876583D02*
X106865241Y-89091342D01*
X107080000Y-88360000D02*
X107080000Y-88876583D01*
X103700000Y-87960000D02*
X103890000Y-87770000D01*
X108400000Y-101775472D02*
X108400000Y-102948528D01*
X107030000Y-91018908D02*
X106090000Y-91958908D01*
X107290000Y-100665471D02*
X108400000Y-101775472D01*
X106728528Y-106331472D02*
X106857056Y-106460000D01*
X106865241Y-89091342D02*
X106865241Y-89704433D01*
X108400000Y-102948528D02*
X108022000Y-103326528D01*
X107290000Y-100480000D02*
X107290000Y-100665471D01*
X107030000Y-89869192D02*
X107030000Y-91018908D01*
X108022000Y-103326528D02*
X108022000Y-105038000D01*
X106090000Y-91958908D02*
X106090000Y-99280000D01*
X106490000Y-87770000D02*
X107080000Y-88360000D01*
X106090000Y-99280000D02*
X107290000Y-100480000D01*
X106865241Y-89704433D02*
X107030000Y-89869192D01*
X106902000Y-106460000D02*
X108834000Y-108392000D01*
X103890000Y-87770000D02*
X106490000Y-87770000D01*
%TO.N,GND*%
X96800000Y-96730000D02*
X96960000Y-96570000D01*
X114190000Y-126714464D02*
X114190000Y-121000000D01*
X108700000Y-142210000D02*
X108700000Y-139670000D01*
X109596000Y-129982000D02*
X112708000Y-129982000D01*
X107490000Y-70260000D02*
X106540000Y-69310000D01*
X104970000Y-107170000D02*
X112136000Y-114336000D01*
X108700000Y-139670000D02*
X106160000Y-139670000D01*
X102620000Y-76870000D02*
X102620000Y-76900000D01*
X96388000Y-93262000D02*
X96388000Y-93914000D01*
X104516000Y-129982000D02*
X101976000Y-132522000D01*
X104530000Y-65050000D02*
X104530000Y-61277472D01*
X105960000Y-54180000D02*
X105920000Y-54220000D01*
X107020000Y-73990000D02*
X107020000Y-73635585D01*
X104140000Y-69380000D02*
X103350000Y-69380000D01*
X113844000Y-128846000D02*
X113844000Y-128050415D01*
X107810000Y-42180000D02*
X105630000Y-42180000D01*
X106210000Y-56880000D02*
X105920000Y-56590000D01*
X96800000Y-96540000D02*
X96800000Y-96730000D01*
X104530000Y-61277472D02*
X106210000Y-59597472D01*
X106160000Y-142210000D02*
X106160000Y-139670000D01*
X106000000Y-54220000D02*
X105960000Y-54180000D01*
X114190000Y-121000000D02*
X113420000Y-120230000D01*
X107810000Y-52200000D02*
X107810000Y-42180000D01*
X112708000Y-129982000D02*
X113844000Y-128846000D01*
X102670000Y-68700000D02*
X102670000Y-68460000D01*
X106210000Y-59597472D02*
X106210000Y-56880000D01*
X114140000Y-126764464D02*
X114190000Y-126714464D01*
X105630000Y-42180000D02*
X105130000Y-41680000D01*
X100382000Y-54220000D02*
X97658000Y-51496000D01*
X106160000Y-142210000D02*
X108700000Y-142210000D01*
X103350000Y-69380000D02*
X102738000Y-68768000D01*
X102738000Y-68768000D02*
X102670000Y-68700000D01*
X107490000Y-73165585D02*
X107490000Y-70260000D01*
X105920000Y-54220000D02*
X105790000Y-54220000D01*
X104640000Y-65160000D02*
X104530000Y-65050000D01*
X114140000Y-127754415D02*
X114140000Y-126764464D01*
X109596000Y-129982000D02*
X104516000Y-129982000D01*
X107020000Y-73635585D02*
X107490000Y-73165585D01*
X105790000Y-54220000D02*
X100382000Y-54220000D01*
X105790000Y-54220000D02*
X107810000Y-52200000D01*
X106540000Y-69310000D02*
X104210000Y-69310000D01*
X113844000Y-128050415D02*
X114140000Y-127754415D01*
X112136000Y-114336000D02*
X112136000Y-115504000D01*
X104975000Y-107175000D02*
X104970000Y-107170000D01*
X113420000Y-120230000D02*
X113400000Y-120210000D01*
X104210000Y-69310000D02*
X104140000Y-69380000D01*
%TO.N,Net-(Q2-C)*%
X100110000Y-92642943D02*
X100110000Y-88886852D01*
X99660000Y-124740000D02*
X99860000Y-124940000D01*
X112858000Y-131182000D02*
X105462000Y-131182000D01*
X115530000Y-128510000D02*
X112858000Y-131182000D01*
X101510000Y-102730000D02*
X101510000Y-99668528D01*
X100810000Y-98968528D02*
X100810000Y-93342943D01*
X105462000Y-131182000D02*
X105170000Y-130890000D01*
X105170000Y-130840000D02*
X105120000Y-130840000D01*
X99770000Y-124740000D02*
X99660000Y-124740000D01*
X101510000Y-99668528D02*
X100810000Y-98968528D01*
X100810000Y-93342943D02*
X100110000Y-92642943D01*
X99770000Y-103830000D02*
X100410000Y-103830000D01*
X100110000Y-88886852D02*
X99093148Y-87870000D01*
X105170000Y-130890000D02*
X105170000Y-130840000D01*
X100410000Y-103830000D02*
X101510000Y-102730000D01*
X99093148Y-87870000D02*
X98830000Y-87870000D01*
X105120000Y-130840000D02*
X105100000Y-130820000D01*
%TO.N,/Control Panel/led 2 -*%
X146732000Y-95680000D02*
X149118000Y-98066000D01*
X138450000Y-95680000D02*
X146732000Y-95680000D01*
%TO.N,Net-(U1B--)*%
X101150000Y-47600000D02*
X102370000Y-46380000D01*
X101420000Y-69995585D02*
X101420000Y-72790000D01*
X101150000Y-51710000D02*
X101150000Y-47600000D01*
X100925025Y-67924975D02*
X100925025Y-69500610D01*
X100550000Y-56188528D02*
X100550000Y-59070000D01*
X99691447Y-55329975D02*
X100550000Y-56188528D01*
X100550000Y-59070000D02*
X101150000Y-59670000D01*
X101150000Y-61117057D02*
X101852943Y-61820000D01*
X101040000Y-75470000D02*
X101090000Y-75470000D01*
X99550025Y-55329975D02*
X99691447Y-55329975D01*
X96388000Y-84516000D02*
X100780000Y-80124000D01*
X101040000Y-75520000D02*
X101040000Y-75470000D01*
X101852943Y-61820000D02*
X101940000Y-61820000D01*
X100780000Y-80124000D02*
X100780000Y-75780000D01*
X102350000Y-62230000D02*
X102350000Y-63160000D01*
X100925025Y-69500610D02*
X101420000Y-69995585D01*
X101090000Y-75470000D02*
X100890000Y-75670000D01*
X100780000Y-75780000D02*
X101040000Y-75520000D01*
X101150000Y-59670000D02*
X101150000Y-61117057D01*
X101940000Y-61820000D02*
X102350000Y-62230000D01*
%TO.N,Net-(Q5-B)*%
X108834000Y-84516000D02*
X109080000Y-84762000D01*
X109633999Y-80013999D02*
X108770000Y-79150000D01*
X108770000Y-79150000D02*
X108040000Y-79150000D01*
X108834000Y-84516000D02*
X109633999Y-83716001D01*
X109633999Y-83716001D02*
X109633999Y-80013999D01*
X108040000Y-79150000D02*
X105786000Y-76896000D01*
%TO.N,/Circuit Panel/CV out*%
X97960000Y-67590000D02*
X98960000Y-66590000D01*
X98551428Y-50007106D02*
X98598534Y-49960000D01*
X99560000Y-73870000D02*
X100060176Y-73369824D01*
X95040000Y-111540000D02*
X96290000Y-112790000D01*
X96509057Y-103110000D02*
X95850000Y-103110000D01*
X95190000Y-75650000D02*
X95188000Y-75652000D01*
X99030000Y-48140000D02*
X98210000Y-47320000D01*
X97960000Y-68221472D02*
X97960000Y-67590000D01*
X95810000Y-75650000D02*
X95190000Y-75650000D01*
X95882874Y-97080000D02*
X95882874Y-99331817D01*
X95860000Y-63610000D02*
X98140000Y-63610000D01*
X100194854Y-73369824D02*
X100604904Y-72959774D01*
X95850000Y-103110000D02*
X95040000Y-103920000D01*
X98370000Y-49960000D02*
X98370000Y-50188534D01*
X95262000Y-63012000D02*
X95090000Y-62840000D01*
X95188000Y-94588000D02*
X95930000Y-95330000D01*
X96854737Y-74225312D02*
X97210049Y-73870000D01*
X97588000Y-101036943D02*
X97588000Y-102031057D01*
X98960000Y-66530000D02*
X99020000Y-66530000D01*
X99020000Y-66530000D02*
X98945000Y-66605000D01*
X95188000Y-75652000D02*
X95188000Y-94588000D01*
X98210000Y-47320000D02*
X98210000Y-42920000D01*
X97588000Y-102031057D02*
X96509057Y-103110000D01*
X98140000Y-63610000D02*
X98860000Y-64330000D01*
X97210049Y-73870000D02*
X99560000Y-73870000D01*
X99030000Y-49528534D02*
X99030000Y-48140000D01*
X95810000Y-75650000D02*
X95790000Y-75630000D01*
X98598534Y-49960000D02*
X98370000Y-49960000D01*
X98960000Y-66590000D02*
X98960000Y-66530000D01*
X95882874Y-99331817D02*
X97588000Y-101036943D01*
X100604904Y-70866376D02*
X97960000Y-68221472D01*
X95262000Y-63012000D02*
X95860000Y-63610000D01*
X100060176Y-73369824D02*
X100194854Y-73369824D01*
X100604904Y-72959774D02*
X100604904Y-70866376D01*
X98370000Y-50188534D02*
X99030000Y-49528534D01*
X98210000Y-42920000D02*
X102370000Y-38760000D01*
X95040000Y-103920000D02*
X95040000Y-111540000D01*
%TO.N,Net-(U1C--)*%
X100780000Y-84997057D02*
X100057057Y-85720000D01*
X100057057Y-85720000D02*
X96720000Y-85720000D01*
X95100000Y-100246000D02*
X96388000Y-101534000D01*
X95100000Y-96872924D02*
X95100000Y-100246000D01*
X96510050Y-95840000D02*
X95970050Y-96380000D01*
X111700000Y-67085472D02*
X111700000Y-66727057D01*
X100780000Y-84260000D02*
X100780000Y-84997057D01*
X104129975Y-80910025D02*
X100780000Y-84260000D01*
X96720000Y-85720000D02*
X95788000Y-86652000D01*
X97720000Y-93460000D02*
X97720000Y-95010000D01*
X95788000Y-86652000D02*
X95788000Y-91528000D01*
X111170000Y-64754000D02*
X109596000Y-63180000D01*
X110391176Y-74759655D02*
X110391176Y-73438824D01*
X111160000Y-67625472D02*
X111700000Y-67085472D01*
X95592924Y-96380000D02*
X95100000Y-96872924D01*
X97720000Y-95010000D02*
X96890000Y-95840000D01*
X95788000Y-91528000D02*
X97720000Y-93460000D01*
X96890000Y-95840000D02*
X96510050Y-95840000D01*
X110391176Y-73438824D02*
X111160000Y-72670000D01*
X111700000Y-66727057D02*
X111170000Y-66197057D01*
X111160000Y-72670000D02*
X111160000Y-67625472D01*
X111170000Y-66197057D02*
X111170000Y-64754000D01*
X95970050Y-96380000D02*
X95592924Y-96380000D01*
%TO.N,+12V*%
X110004000Y-106460000D02*
X112136000Y-104328000D01*
X111828000Y-54320000D02*
X111832000Y-54316000D01*
X100776000Y-114153057D02*
X101110000Y-113819057D01*
X107779950Y-54320000D02*
X111828000Y-54320000D01*
X101976000Y-127442000D02*
X100522000Y-127442000D01*
X100776000Y-119264000D02*
X100776000Y-114153057D01*
X103570851Y-104562272D02*
X103570851Y-104420850D01*
X113960000Y-48230000D02*
X115600000Y-46590000D01*
X104250000Y-57260000D02*
X105620000Y-55890000D01*
X104250000Y-58968137D02*
X104250000Y-57260000D01*
X100522000Y-127442000D02*
X99260000Y-126180000D01*
X105620000Y-55890000D02*
X106209950Y-55890000D01*
X113960000Y-52011472D02*
X113960000Y-48230000D01*
X101110000Y-107023123D02*
X103570851Y-104562272D01*
X106209950Y-55890000D02*
X107779950Y-54320000D01*
X111832000Y-54316000D02*
X111832000Y-54139472D01*
X101110000Y-113819057D02*
X101110000Y-107023123D01*
X98990000Y-121050000D02*
X100776000Y-119264000D01*
X107891950Y-106460000D02*
X110004000Y-106460000D01*
X111832000Y-54139472D02*
X113960000Y-52011472D01*
X104250000Y-58968137D02*
X104250000Y-59110000D01*
%TO.N,/Circuit Panel/Sustain 2*%
X101852943Y-64360000D02*
X102940000Y-64360000D01*
X103220000Y-64420000D02*
X102950000Y-64380000D01*
X101150000Y-63657057D02*
X101852943Y-64360000D01*
X99800000Y-61680000D02*
X101150000Y-63030000D01*
X106704264Y-67315736D02*
X108690000Y-69301472D01*
X102950000Y-64370000D02*
X103220000Y-64420000D01*
X96910000Y-61550000D02*
X96950000Y-61510000D01*
X108690000Y-69301472D02*
X108690000Y-70570000D01*
X105830000Y-66011182D02*
X106850000Y-67031182D01*
X108790000Y-70670000D02*
X108790000Y-72120000D01*
X101150000Y-63030000D02*
X101150000Y-63657057D01*
X96950000Y-61510000D02*
X96950000Y-60560000D01*
X106850000Y-67031182D02*
X106850000Y-67170000D01*
X102940000Y-64360000D02*
X102950000Y-64370000D01*
X106850000Y-67170000D02*
X106704264Y-67315736D01*
X99270000Y-61680000D02*
X99800000Y-61680000D01*
X108690000Y-70570000D02*
X108790000Y-70670000D01*
%TO.N,Net-(U2D-+)*%
X114890000Y-126047395D02*
X116152604Y-127310000D01*
X116730000Y-129007057D02*
X116027057Y-129710000D01*
X114690000Y-130870000D02*
X114690000Y-134970000D01*
X116152604Y-127310000D02*
X116027057Y-127310000D01*
X112390000Y-125918000D02*
X110612000Y-125918000D01*
X114690000Y-134970000D02*
X115890000Y-136170000D01*
X116730000Y-128012943D02*
X116730000Y-129007057D01*
X115850000Y-129710000D02*
X114690000Y-130870000D01*
X116027057Y-129710000D02*
X115850000Y-129710000D01*
X110612000Y-125918000D02*
X109596000Y-124902000D01*
X116027057Y-127310000D02*
X116730000Y-128012943D01*
%TO.N,Net-(U2D--)*%
X108834000Y-117634000D02*
X108834000Y-116012000D01*
X113590000Y-126415057D02*
X113590000Y-123580000D01*
X109822000Y-118622000D02*
X108834000Y-117634000D01*
X109596000Y-122362000D02*
X110796000Y-121162000D01*
X110093057Y-118622000D02*
X109822000Y-118622000D01*
X112644000Y-128204000D02*
X113500000Y-127348000D01*
X113500000Y-126505057D02*
X113590000Y-126415057D01*
X113500000Y-127348000D02*
X113500000Y-126505057D01*
X110796000Y-121162000D02*
X110796000Y-119324943D01*
X112372000Y-122362000D02*
X109596000Y-122362000D01*
X110796000Y-119324943D02*
X110093057Y-118622000D01*
X113590000Y-123580000D02*
X112372000Y-122362000D01*
%TO.N,/Circuit Panel/Audio in*%
X115600000Y-38970000D02*
X116850000Y-40220000D01*
X114560000Y-49062943D02*
X114560000Y-52260000D01*
X100710000Y-90711472D02*
X100710000Y-92394415D01*
X111560000Y-86810000D02*
X109478528Y-86810000D01*
X102910000Y-100320000D02*
X102910000Y-101500000D01*
X114352000Y-52468000D02*
X114352000Y-84018000D01*
X102550000Y-88871472D02*
X100710000Y-90711472D01*
X101410000Y-98720000D02*
X103040000Y-100350000D01*
X109118528Y-87170000D02*
X104443148Y-87170000D01*
X103091852Y-87035000D02*
X102550000Y-87576852D01*
X104443148Y-87170000D02*
X104308148Y-87035000D01*
X116850000Y-47107767D02*
X116117767Y-47840000D01*
X104308148Y-87035000D02*
X103091852Y-87035000D01*
X109478528Y-86810000D02*
X109118528Y-87170000D01*
X116850000Y-40220000D02*
X116850000Y-47107767D01*
X100710000Y-92394415D02*
X101410000Y-93094415D01*
X114560000Y-52260000D02*
X114352000Y-52468000D01*
X115782943Y-47840000D02*
X114560000Y-49062943D01*
X101410000Y-93094415D02*
X101410000Y-98720000D01*
X102550000Y-87576852D02*
X102550000Y-88871472D01*
X116117767Y-47840000D02*
X115782943Y-47840000D01*
X114352000Y-84018000D02*
X111560000Y-86810000D01*
%TO.N,Net-(U2C--)*%
X105288943Y-78096000D02*
X104586000Y-77393057D01*
X100908528Y-74510000D02*
X100348528Y-75070000D01*
X102579104Y-75380000D02*
X102489552Y-75290448D01*
X109986000Y-92780000D02*
X110900000Y-92780000D01*
X98214000Y-75070000D02*
X96388000Y-76896000D01*
X104586000Y-77393057D02*
X104586000Y-75380000D01*
X108930000Y-88335002D02*
X108930000Y-91724000D01*
X106137472Y-78096000D02*
X105288943Y-78096000D01*
X108914998Y-88320000D02*
X108930000Y-88335002D01*
X102269104Y-75070000D02*
X101790000Y-75070000D01*
X102579104Y-75380000D02*
X102269104Y-75070000D01*
X104586000Y-75380000D02*
X102579104Y-75380000D01*
X101230000Y-74510000D02*
X100908528Y-74510000D01*
X108124975Y-85865025D02*
X107634000Y-85374050D01*
X107634000Y-79592528D02*
X106137472Y-78096000D01*
X108124975Y-85865025D02*
X108124975Y-85964975D01*
X108930000Y-91724000D02*
X109986000Y-92780000D01*
X101790000Y-75070000D02*
X101230000Y-74510000D01*
X100348528Y-75070000D02*
X98214000Y-75070000D01*
X107634000Y-85374050D02*
X107634000Y-79592528D01*
%TO.N,Net-(U2A--)*%
X102992000Y-116520000D02*
X102738000Y-116774000D01*
X103537999Y-119912051D02*
X104030050Y-119420000D01*
X101976000Y-122362000D02*
X103537999Y-120800001D01*
X105020000Y-116484000D02*
X106040000Y-115464000D01*
X104609950Y-119420000D02*
X105020000Y-119009950D01*
X104030050Y-119420000D02*
X104609950Y-119420000D01*
X105020000Y-119009950D02*
X105020000Y-116484000D01*
X103537999Y-117573999D02*
X102738000Y-116774000D01*
X103537999Y-120800001D02*
X103537999Y-119912051D01*
X105746000Y-115758000D02*
X106040000Y-115464000D01*
X103537999Y-120800001D02*
X103537999Y-117573999D01*
%TO.N,/Circuit Panel/lfo pot 1*%
X98010000Y-122900000D02*
X97430000Y-123480000D01*
X101478943Y-123562000D02*
X100816943Y-122900000D01*
X104858478Y-120020000D02*
X104310000Y-120020000D01*
X105670000Y-117531057D02*
X105670000Y-119208478D01*
X107634000Y-115567057D02*
X105670000Y-117531057D01*
X110230000Y-114450000D02*
X108698943Y-114450000D01*
X104310000Y-120020000D02*
X104137999Y-120192001D01*
X108698943Y-114450000D02*
X107634000Y-115514943D01*
X97430000Y-123480000D02*
X97430000Y-127162000D01*
X104137999Y-120192001D02*
X104137999Y-121897058D01*
X102473057Y-123562000D02*
X101478943Y-123562000D01*
X97430000Y-127162000D02*
X96134000Y-128458000D01*
X100816943Y-122900000D02*
X98010000Y-122900000D01*
X107634000Y-115514943D02*
X107634000Y-115567057D01*
X104137999Y-121897058D02*
X102473057Y-123562000D01*
X105670000Y-119208478D02*
X104858478Y-120020000D01*
%TO.N,Net-(U2A-+)*%
X97430000Y-111110000D02*
X97850000Y-110690000D01*
X97800000Y-105010000D02*
X97800000Y-105020000D01*
X97800000Y-105020000D02*
X97810000Y-105020000D01*
X100210000Y-94680000D02*
X99500000Y-93970000D01*
X100210000Y-100362943D02*
X100210000Y-94680000D01*
X100720000Y-102570000D02*
X100720000Y-100872943D01*
X100720000Y-100872943D02*
X100210000Y-100362943D01*
X97850000Y-110690000D02*
X97850000Y-109350000D01*
X97540000Y-104208528D02*
X99178528Y-102570000D01*
X97810000Y-105020000D02*
X97800000Y-105010000D01*
X97540000Y-104208528D02*
X97540000Y-104750000D01*
X97540000Y-104750000D02*
X97800000Y-105010000D01*
X98130000Y-124190000D02*
X98310000Y-124010000D01*
X97540000Y-111220000D02*
X97430000Y-111110000D01*
X96960000Y-114510000D02*
X97540000Y-113930000D01*
X97540000Y-113930000D02*
X97540000Y-111220000D01*
X99178528Y-102570000D02*
X100720000Y-102570000D01*
%TO.N,Net-(R23-Pad2)*%
X113500000Y-112830000D02*
X114320000Y-113650000D01*
X114320000Y-113650000D02*
X114300000Y-116460000D01*
X114300000Y-116460000D02*
X114320000Y-116250000D01*
%TO.N,/Circuit Panel/Gate In*%
X104691676Y-86570000D02*
X104421676Y-86300000D01*
X108870000Y-86570000D02*
X104691676Y-86570000D01*
X97680000Y-87486852D02*
X97680000Y-91680000D01*
X109490000Y-69252944D02*
X109490000Y-73070000D01*
X110233999Y-85206001D02*
X108870000Y-86570000D01*
X98320000Y-92320000D02*
X98320000Y-94890000D01*
X99438148Y-86945000D02*
X98221852Y-86945000D01*
X102958324Y-86320000D02*
X101950000Y-87328324D01*
X99590000Y-99602943D02*
X98190000Y-101002943D01*
X97680000Y-91680000D02*
X98320000Y-92320000D01*
X100710000Y-89862944D02*
X100710000Y-88216852D01*
X104421676Y-86300000D02*
X103385585Y-86300000D01*
X112600000Y-58231370D02*
X111411370Y-59420000D01*
X98190000Y-102710000D02*
X96290000Y-104610000D01*
X99590000Y-96160000D02*
X99590000Y-99602943D01*
X98320000Y-94890000D02*
X99590000Y-96160000D01*
X110233999Y-76015746D02*
X110233999Y-85206001D01*
X112600000Y-57100000D02*
X112600000Y-58231370D01*
X98221852Y-86945000D02*
X97680000Y-87486852D01*
X108860000Y-73700000D02*
X108860000Y-74641747D01*
X98190000Y-101002943D02*
X98190000Y-102710000D01*
X109472943Y-59420000D02*
X107896000Y-60996943D01*
X101950000Y-88622944D02*
X100710000Y-89862944D01*
X107896000Y-67658944D02*
X109490000Y-69252944D01*
X100710000Y-88216852D02*
X99438148Y-86945000D01*
X109490000Y-73070000D02*
X108860000Y-73700000D01*
X103365585Y-86320000D02*
X102958324Y-86320000D01*
X108860000Y-74641747D02*
X110233999Y-76015746D01*
X96290000Y-104610000D02*
X96290000Y-105170000D01*
X101950000Y-87328324D02*
X101950000Y-88622944D01*
X103385585Y-86300000D02*
X103365585Y-86320000D01*
X107896000Y-60996943D02*
X107896000Y-67658944D01*
X111411370Y-59420000D02*
X109472943Y-59420000D01*
%TO.N,Net-(U1D--)*%
X115510000Y-49460000D02*
X115620000Y-49570000D01*
%TO.N,/Control Panel/led 1 -*%
X146923000Y-50705000D02*
X146923000Y-63105000D01*
X150262000Y-47366000D02*
X146923000Y-50705000D01*
X146923000Y-63105000D02*
X149118000Y-65300000D01*
%TO.N,/Circuit Panel/Attack 2*%
X96260000Y-46570000D02*
X95580000Y-47250000D01*
X103820000Y-77397057D02*
X103820000Y-76402943D01*
X104890000Y-94580000D02*
X104890000Y-92290000D01*
X101200000Y-57532943D02*
X101150000Y-57582943D01*
X105870000Y-78710000D02*
X105054415Y-78710000D01*
X105350000Y-88790000D02*
X105300000Y-88840000D01*
X104420000Y-85270000D02*
X104420000Y-83010000D01*
X103515585Y-103260000D02*
X104890000Y-101885585D01*
X102350000Y-60021472D02*
X102350000Y-60620000D01*
X96290000Y-110250000D02*
X96290000Y-109920050D01*
X103690000Y-73880000D02*
X102738000Y-72928000D01*
X104890000Y-92290000D02*
X104890000Y-92040000D01*
X104890000Y-101885585D02*
X104890000Y-98100000D01*
X104890000Y-98100000D02*
X104890000Y-94580000D01*
X104890000Y-89250000D02*
X105300000Y-88840000D01*
X106660000Y-80770000D02*
X106660000Y-79500000D01*
X97194080Y-52616000D02*
X97826000Y-52616000D01*
X97826000Y-52616000D02*
X101200000Y-55990000D01*
X104890000Y-92040000D02*
X104890000Y-89250000D01*
X103820000Y-76402943D02*
X103773438Y-76356381D01*
X102738000Y-72928000D02*
X102738000Y-71268000D01*
X105300000Y-88840000D02*
X105300000Y-88790000D01*
X101150000Y-57582943D02*
X101150000Y-58821472D01*
X101150000Y-58821472D02*
X102350000Y-60021472D01*
X101200000Y-55990000D02*
X101200000Y-57532943D01*
X103773438Y-76356381D02*
X103773438Y-76300345D01*
X102350000Y-60620000D02*
X102330000Y-60640000D01*
X104790000Y-85640000D02*
X104420000Y-85270000D01*
X102950050Y-103260000D02*
X103515585Y-103260000D01*
X105300000Y-88790000D02*
X105350000Y-88790000D01*
X105054415Y-78710000D02*
X103780736Y-77436321D01*
X96290000Y-109920050D02*
X102950050Y-103260000D01*
X103780736Y-77436321D02*
X103820000Y-77397057D01*
X95580000Y-51001920D02*
X97194080Y-52616000D01*
X95580000Y-47250000D02*
X95580000Y-51001920D01*
X104420000Y-83010000D02*
X106660000Y-80770000D01*
X106660000Y-79500000D02*
X105870000Y-78710000D01*
X102330000Y-60640000D02*
X101976000Y-60640000D01*
%TO.N,-12V*%
X106792943Y-101680000D02*
X107456001Y-101680000D01*
X105340000Y-65449950D02*
X105340000Y-64870050D01*
X106307368Y-88659265D02*
X106265241Y-88701392D01*
X105340000Y-64870050D02*
X105130000Y-64660050D01*
X105130000Y-62700000D02*
X109596000Y-58234000D01*
X107056000Y-103444000D02*
X107056000Y-104328000D01*
X108090000Y-73550000D02*
X108090000Y-69550000D01*
X107720000Y-74287422D02*
X107720000Y-73920000D01*
X105490000Y-99528528D02*
X106090000Y-100128528D01*
X105130000Y-65659950D02*
X105340000Y-65449950D01*
X106265241Y-88701392D02*
X106265241Y-89952961D01*
X105130000Y-66590000D02*
X105130000Y-65659950D01*
X107251711Y-74755711D02*
X107720000Y-74287422D01*
X106090000Y-100128528D02*
X106090000Y-100977057D01*
X101420000Y-82660000D02*
X99580000Y-84500000D01*
X106430000Y-90770380D02*
X105490000Y-91710380D01*
X107720000Y-73920000D02*
X108090000Y-73550000D01*
X107456001Y-101680000D02*
X107800000Y-102024000D01*
X109596000Y-58234000D02*
X109596000Y-58100000D01*
X103564288Y-80360828D02*
X101420000Y-82505116D01*
X106265241Y-89952961D02*
X106430000Y-90117720D01*
X101420000Y-82505116D02*
X101420000Y-82660000D01*
X105130000Y-64660050D02*
X105130000Y-62700000D01*
X103564288Y-80344338D02*
X103564288Y-80360828D01*
X106430000Y-90117720D02*
X106430000Y-90770380D01*
X107800000Y-102024000D02*
X107800000Y-102700000D01*
X106090000Y-100977057D02*
X106792943Y-101680000D01*
X108090000Y-69550000D02*
X105130000Y-66590000D01*
X107800000Y-102700000D02*
X107056000Y-103444000D01*
X105490000Y-91710380D02*
X105490000Y-99528528D01*
%TO.N,Net-(R33-Pad2)*%
X113336000Y-116001057D02*
X112633057Y-116704000D01*
X110829008Y-116704000D02*
X110285743Y-117247265D01*
X114030000Y-110310000D02*
X112420000Y-111920000D01*
X109090000Y-100768415D02*
X111541585Y-103220000D01*
X108540000Y-92412943D02*
X108540000Y-99184415D01*
X108540000Y-99184415D02*
X109090000Y-99734415D01*
X107130000Y-85860000D02*
X105786000Y-84516000D01*
X108330000Y-89004579D02*
X108330000Y-92202943D01*
X112333920Y-103220000D02*
X114030000Y-104916080D01*
X109090000Y-99734415D02*
X109090000Y-100768415D01*
X112420000Y-113771472D02*
X113336000Y-114687472D01*
X113336000Y-114687472D02*
X113336000Y-116001057D01*
X107780000Y-88454579D02*
X108330000Y-89004579D01*
X108330000Y-92202943D02*
X108540000Y-92412943D01*
X112633057Y-116704000D02*
X110829008Y-116704000D01*
X111541585Y-103220000D02*
X112333920Y-103220000D01*
X114030000Y-104916080D02*
X114030000Y-110310000D01*
X112420000Y-111920000D02*
X112420000Y-113771472D01*
%TO.N,/Control Panel/Audio In*%
X143723537Y-74406463D02*
X143723537Y-69716653D01*
X138650000Y-63950000D02*
X136980000Y-62280000D01*
X134840137Y-90039863D02*
X134840137Y-89082857D01*
X136980000Y-62280000D02*
X136980000Y-61900000D01*
X134840137Y-89082857D02*
X138195940Y-85727054D01*
X143460000Y-80015472D02*
X143460000Y-78600000D01*
X139881837Y-64271837D02*
X139560000Y-63950000D01*
X136640137Y-57889863D02*
X141800000Y-52730000D01*
X141800000Y-50936654D02*
X150042654Y-42694000D01*
X138195940Y-85727054D02*
X138195940Y-85279532D01*
X143460000Y-78600000D02*
X144323537Y-77736463D01*
X138195940Y-85279532D02*
X143460000Y-80015472D01*
X143723537Y-69716653D02*
X139881837Y-65874953D01*
X131092000Y-90330000D02*
X134550000Y-90330000D01*
X139881837Y-65874953D02*
X139881837Y-64271837D01*
X150042654Y-42694000D02*
X150134000Y-42694000D01*
X144323537Y-77736463D02*
X144323537Y-75006463D01*
X136980000Y-61900000D02*
X136640137Y-61560137D01*
X134550000Y-90330000D02*
X134840137Y-90039863D01*
X139560000Y-63950000D02*
X138650000Y-63950000D01*
X144323537Y-75006463D02*
X143723537Y-74406463D01*
X141800000Y-52730000D02*
X141800000Y-50936654D01*
X136640137Y-61560137D02*
X136640137Y-57889863D01*
%TO.N,/Control Panel/Audio Out*%
X151598000Y-46698000D02*
X151598000Y-80222000D01*
X150134000Y-45234000D02*
X151598000Y-46698000D01*
X147800000Y-106201796D02*
X147800000Y-144614000D01*
X137540000Y-94980000D02*
X137340000Y-95180000D01*
X146670000Y-85150000D02*
X146670000Y-92365932D01*
X146670000Y-92365932D02*
X144055932Y-94980000D01*
X144055932Y-94980000D02*
X137540000Y-94980000D01*
X137340000Y-95741796D02*
X147800000Y-106201796D01*
X151598000Y-80222000D02*
X146670000Y-85150000D01*
X147800000Y-144614000D02*
X146000000Y-146414000D01*
X137340000Y-95180000D02*
X137340000Y-95741796D01*
%TO.N,/Control Panel/Gate In*%
X132930000Y-110682000D02*
X132930000Y-115378000D01*
X130704000Y-108456000D02*
X132930000Y-110682000D01*
X132930000Y-115378000D02*
X144600000Y-127048000D01*
X144600000Y-130010000D02*
X145900000Y-131310000D01*
X144600000Y-127048000D02*
X144600000Y-130010000D01*
%TO.N,/Control Panel/Attack 1*%
X146609537Y-82512517D02*
X146609537Y-83948597D01*
X142500000Y-52310000D02*
X142600000Y-52310000D01*
X144340000Y-63732980D02*
X146609537Y-66002517D01*
X129680000Y-109972000D02*
X130998000Y-111290000D01*
X146609537Y-66002517D02*
X146609537Y-67438597D01*
X146240000Y-82142980D02*
X146609537Y-82512517D01*
X145594077Y-84964057D02*
X143521893Y-84964057D01*
X144340000Y-54050000D02*
X144340000Y-63732980D01*
X146609537Y-83948597D02*
X145594077Y-84964057D01*
X146240000Y-67808134D02*
X146240000Y-82142980D01*
X129680000Y-98805950D02*
X129680000Y-109972000D01*
X146609537Y-67438597D02*
X146240000Y-67808134D01*
X143521893Y-84964057D02*
X129680000Y-98805950D01*
%TO.N,/Control Panel/Attack 2*%
X134354137Y-69194137D02*
X134354137Y-54974137D01*
X133360000Y-54060000D02*
X133630000Y-54250000D01*
X138740000Y-73580000D02*
X134354137Y-69194137D01*
X134354137Y-54974137D02*
X133360000Y-54060000D01*
%TO.N,/Control Panel/Sustain 2*%
X132208000Y-49158000D02*
X137180000Y-54130000D01*
X137180000Y-54160000D02*
X137210000Y-54160000D01*
X130958000Y-45080000D02*
X132208000Y-46330000D01*
X132208000Y-46330000D02*
X132208000Y-49158000D01*
X137180000Y-54130000D02*
X137180000Y-54160000D01*
X137210000Y-54160000D02*
X137070000Y-54020000D01*
%TO.N,/Control Panel/Release 1*%
X130472233Y-72280000D02*
X131505767Y-72280000D01*
X132238000Y-73089455D02*
X136670402Y-77521857D01*
X132238000Y-73012233D02*
X132238000Y-73089455D01*
X129708000Y-71515767D02*
X130472233Y-72280000D01*
X131505767Y-72280000D02*
X132238000Y-73012233D01*
X136670402Y-77521857D02*
X141720137Y-77521857D01*
X130958000Y-47620000D02*
X129708000Y-48870000D01*
X141720137Y-77521857D02*
X143021837Y-76220157D01*
X129708000Y-48870000D02*
X129708000Y-71515767D01*
%TO.N,/Control Panel/Release 2*%
X136040137Y-55242137D02*
X136040137Y-64221517D01*
X136040137Y-64221517D02*
X140481837Y-68663217D01*
X140481837Y-68663217D02*
X140481837Y-76220157D01*
X130958000Y-50160000D02*
X136040137Y-55242137D01*
%TO.N,/Circuit Panel/lfo led 1 -*%
X103550000Y-60359950D02*
X103930000Y-60739950D01*
X111400000Y-48168000D02*
X110564943Y-48168000D01*
X97540000Y-68650000D02*
X96290000Y-67400000D01*
X99904904Y-72669824D02*
X99904904Y-71944904D01*
X98668528Y-65630000D02*
X96898528Y-67400000D01*
X105781472Y-54880000D02*
X103550000Y-57111472D01*
X103930000Y-65817057D02*
X102847057Y-66900000D01*
X101760000Y-66900000D02*
X100152214Y-65292214D01*
X106249950Y-54880000D02*
X105781472Y-54880000D01*
X108770000Y-49962943D02*
X108770000Y-52359950D01*
X110564943Y-48168000D02*
X108770000Y-49962943D01*
X103930000Y-60739950D02*
X103930000Y-65817057D01*
X103550000Y-59920000D02*
X103510000Y-59960000D01*
X100152214Y-65292214D02*
X99814428Y-65630000D01*
X103510000Y-59960000D02*
X103550000Y-60000000D01*
X108770000Y-52359950D02*
X106249950Y-54880000D01*
X99814428Y-65630000D02*
X98668528Y-65630000D01*
X115692000Y-43876000D02*
X111400000Y-48168000D01*
X96898528Y-67400000D02*
X96290000Y-67400000D01*
X103550000Y-57111472D02*
X103550000Y-59920000D01*
X97540000Y-69580000D02*
X97540000Y-68650000D01*
X102847057Y-66900000D02*
X101760000Y-66900000D01*
X99904904Y-71944904D02*
X97540000Y-69580000D01*
X103550000Y-60000000D02*
X103550000Y-60359950D01*
%TO.N,Net-(Q4-E)*%
X132178847Y-88668000D02*
X131592000Y-88668000D01*
X134313435Y-86533412D02*
X132178847Y-88668000D01*
X135086359Y-86533412D02*
X134313435Y-86533412D01*
%TO.N,/Circuit Panel/adsr led 2 -*%
X97650000Y-62013378D02*
X97650000Y-60360000D01*
X99770000Y-51470000D02*
X99770000Y-48131472D01*
X99810000Y-51510000D02*
X99770000Y-51470000D01*
X95580000Y-58290000D02*
X95580000Y-57070080D01*
X104560801Y-104420850D02*
X101710000Y-107271651D01*
X106046429Y-119822000D02*
X109596000Y-119822000D01*
X100790736Y-42869264D02*
X105010000Y-38650000D01*
X97650000Y-60360000D02*
X95580000Y-58290000D01*
X96290000Y-70220000D02*
X96290000Y-69940000D01*
X101710000Y-113580000D02*
X104380000Y-116250000D01*
X97330080Y-55320000D02*
X98110000Y-55320000D01*
X97654480Y-62017858D02*
X97650000Y-62013378D01*
X99770000Y-48131472D02*
X100790736Y-47110736D01*
X100790736Y-47110736D02*
X100790736Y-42869264D01*
X98830000Y-72760000D02*
X96290000Y-70220000D01*
X97654480Y-62017858D02*
X97502142Y-62017858D01*
X104320000Y-118720000D02*
X104410000Y-118510000D01*
X105399143Y-120469286D02*
X106046429Y-119822000D01*
X95580000Y-57070080D02*
X97330080Y-55320000D01*
X104380000Y-116250000D02*
X104380000Y-118480000D01*
X101710000Y-107271651D02*
X101710000Y-113580000D01*
X104380000Y-118480000D02*
X104320000Y-118720000D01*
X99110000Y-72760000D02*
X98830000Y-72760000D01*
%TO.N,/Control Panel/GND*%
X136380000Y-86230000D02*
X136380000Y-86350000D01*
X131592000Y-81048000D02*
X131592000Y-82179370D01*
X135840000Y-85690000D02*
X136380000Y-86230000D01*
X136500000Y-86350000D02*
X136370000Y-86220000D01*
X131592000Y-82179370D02*
X135102630Y-85690000D01*
X135102630Y-85690000D02*
X135840000Y-85690000D01*
X136380000Y-86350000D02*
X136500000Y-86350000D01*
%TO.N,/Control Panel/lfo switch 1*%
X133410000Y-102880000D02*
X131300000Y-102880000D01*
%TO.N,/Control Panel/lfo switch 2*%
X135940137Y-75610137D02*
X135940137Y-75801642D01*
X135920000Y-72130000D02*
X135920000Y-75590000D01*
X135920000Y-75590000D02*
X135940137Y-75610137D01*
%TO.N,Net-(TRIM2-Center)*%
X106710000Y-93440000D02*
X107290000Y-92860000D01*
X108490000Y-99982943D02*
X106710000Y-98202943D01*
X108490000Y-100977057D02*
X108490000Y-99982943D01*
X109596000Y-102122943D02*
X108470057Y-100997000D01*
X109596000Y-104328000D02*
X109596000Y-102122943D01*
X106710000Y-98202943D02*
X106710000Y-93440000D01*
X108470057Y-100997000D02*
X108490000Y-100977057D01*
%TO.N,Net-(TRIM1-Center)*%
X99132943Y-58890000D02*
X98250000Y-59772943D01*
X95490000Y-74810000D02*
X96449475Y-74810000D01*
X97600000Y-74470000D02*
X100100000Y-74470000D01*
X99260075Y-56029975D02*
X99542919Y-56029975D01*
X99024415Y-62380000D02*
X100830000Y-64185585D01*
X98850025Y-55619925D02*
X99260075Y-56029975D01*
X97658000Y-54036000D02*
X98397472Y-54036000D01*
X99542919Y-56029975D02*
X99950000Y-56437056D01*
X101418528Y-73850000D02*
X102038528Y-74470000D01*
X100830000Y-64185585D02*
X100830000Y-64620000D01*
X102517633Y-74470000D02*
X102797633Y-74750000D01*
X97144687Y-74925312D02*
X97600000Y-74470000D01*
X100830000Y-64620000D02*
X99975900Y-64620000D01*
X95040000Y-66882233D02*
X95040000Y-74360000D01*
X100720000Y-73850000D02*
X101418528Y-73850000D01*
X98397472Y-54036000D02*
X99030000Y-54668528D01*
X98250000Y-61649950D02*
X98980050Y-62380000D01*
X99975900Y-64620000D02*
X99565900Y-65030000D01*
X100100000Y-74470000D02*
X100720000Y-73850000D01*
X98250000Y-59772943D02*
X98250000Y-61649950D01*
X95040000Y-74360000D02*
X95490000Y-74810000D01*
X99030000Y-54668528D02*
X99030000Y-54860050D01*
X97340000Y-66110000D02*
X95812233Y-66110000D01*
X106961761Y-75455711D02*
X107393711Y-75455711D01*
X99030000Y-54860050D02*
X98850025Y-55040025D01*
X102797633Y-74750000D02*
X106256050Y-74750000D01*
X107393711Y-75455711D02*
X108834000Y-76896000D01*
X98850025Y-55040025D02*
X98850025Y-55619925D01*
X99950000Y-56437056D02*
X99950000Y-58890000D01*
X99950000Y-58890000D02*
X99132943Y-58890000D01*
X98980050Y-62380000D02*
X99024415Y-62380000D01*
X96449475Y-74810000D02*
X96564787Y-74925312D01*
X98420000Y-65030000D02*
X97340000Y-66110000D01*
X106256050Y-74750000D02*
X106961761Y-75455711D01*
X96564787Y-74925312D02*
X97144687Y-74925312D01*
X102038528Y-74470000D02*
X102517633Y-74470000D01*
X99565900Y-65030000D02*
X98420000Y-65030000D01*
X95812233Y-66110000D02*
X95040000Y-66882233D01*
%TD*%
M02*
