%TF.GenerationSoftware,KiCad,Pcbnew,7.0.11-7.0.11~ubuntu22.04.1*%
%TF.CreationDate,2024-09-22T23:22:13-04:00*%
%TF.ProjectId,ad-vca,61642d76-6361-42e6-9b69-6361645f7063,rev?*%
%TF.SameCoordinates,Original*%
%TF.FileFunction,Soldermask,Top*%
%TF.FilePolarity,Negative*%
%FSLAX46Y46*%
G04 Gerber Fmt 4.6, Leading zero omitted, Abs format (unit mm)*
G04 Created by KiCad (PCBNEW 7.0.11-7.0.11~ubuntu22.04.1) date 2024-09-22 23:22:13*
%MOMM*%
%LPD*%
G01*
G04 APERTURE LIST*
%ADD10C,1.600000*%
%ADD11C,1.200000*%
%ADD12R,1.200000X1.200000*%
%ADD13C,2.667000*%
%ADD14C,1.803400*%
%ADD15O,1.600000X1.600000*%
%ADD16O,1.700000X1.700000*%
%ADD17R,1.700000X1.700000*%
%ADD18R,1.600000X1.600000*%
%ADD19C,1.800000*%
%ADD20O,1.050000X1.500000*%
%ADD21R,1.050000X1.500000*%
%ADD22R,1.500000X1.050000*%
%ADD23O,1.500000X1.050000*%
%ADD24O,2.250000X4.000000*%
%ADD25C,2.000000*%
%ADD26R,2.000000X2.000000*%
%ADD27C,1.440000*%
G04 APERTURE END LIST*
D10*
%TO.C,C2*%
X102738000Y-71268000D03*
X102738000Y-68768000D03*
%TD*%
%TO.C,C1*%
X115760000Y-49560000D03*
X115760000Y-52060000D03*
%TD*%
%TO.C,C5*%
X95950000Y-139261472D03*
X98450000Y-139261472D03*
%TD*%
%TO.C,C4*%
X98350000Y-143011472D03*
X95850000Y-143011472D03*
%TD*%
D11*
%TO.C,C7*%
X105950000Y-125090000D03*
D12*
X103950000Y-125090000D03*
%TD*%
D11*
%TO.C,C6*%
X106020000Y-132981472D03*
D12*
X104020000Y-132981472D03*
%TD*%
D13*
%TO.C,POT4*%
X136087637Y-99486557D03*
X144876037Y-99486557D03*
D14*
X137941837Y-92476157D03*
X140481837Y-92476157D03*
X143021837Y-92476157D03*
%TD*%
D10*
%TO.C,R12*%
X99770000Y-111450000D03*
D15*
X99770000Y-103830000D03*
%TD*%
D16*
%TO.C,J12*%
X130958000Y-50160000D03*
X130958000Y-47620000D03*
X130958000Y-45080000D03*
D17*
X130958000Y-42540000D03*
%TD*%
D10*
%TO.C,R25*%
X96230000Y-118540000D03*
D15*
X96230000Y-126160000D03*
%TD*%
D18*
%TO.C,D4*%
X112980000Y-73370000D03*
D15*
X105360000Y-73370000D03*
%TD*%
D19*
%TO.C,J3*%
X135000000Y-135014000D03*
X135000000Y-143314000D03*
X135000000Y-146414000D03*
%TD*%
D18*
%TO.C,D5*%
X99410000Y-38790000D03*
D15*
X99410000Y-46410000D03*
%TD*%
D17*
%TO.C,J10*%
X96260000Y-38950000D03*
D16*
X96260000Y-41490000D03*
X96260000Y-44030000D03*
X96260000Y-46570000D03*
%TD*%
D10*
%TO.C,R18*%
X112136000Y-107884000D03*
D15*
X112136000Y-115504000D03*
%TD*%
D19*
%TO.C,J5*%
X135000000Y-119894000D03*
X135000000Y-128194000D03*
X135000000Y-131294000D03*
%TD*%
D10*
%TO.C,R13*%
X112390000Y-118298000D03*
D15*
X112390000Y-125918000D03*
%TD*%
D10*
%TO.C,R6*%
X99260000Y-126180000D03*
D15*
X99260000Y-118560000D03*
%TD*%
%TO.C,R26*%
X131846000Y-64284000D03*
D10*
X131846000Y-56664000D03*
%TD*%
%TO.C,R17*%
X102770000Y-101460000D03*
D15*
X102770000Y-93840000D03*
%TD*%
D10*
%TO.C,R24*%
X112660000Y-41800000D03*
D15*
X105040000Y-41800000D03*
%TD*%
D10*
%TO.C,R3*%
X96388000Y-84516000D03*
D15*
X96388000Y-76896000D03*
%TD*%
D10*
%TO.C,R29*%
X112580000Y-45130000D03*
D15*
X104960000Y-45130000D03*
%TD*%
D10*
%TO.C,R19*%
X102910000Y-116570000D03*
D15*
X102910000Y-108950000D03*
%TD*%
D13*
%TO.C,POT1*%
X136087637Y-50312157D03*
X144876037Y-50312157D03*
D14*
X137941837Y-43301757D03*
X140481837Y-43301757D03*
X143021837Y-43301757D03*
%TD*%
D20*
%TO.C,Q4*%
X150642000Y-92224000D03*
X149372000Y-92224000D03*
D21*
X148102000Y-92224000D03*
%TD*%
D10*
%TO.C,R4*%
X110900000Y-92780000D03*
D15*
X110900000Y-100400000D03*
%TD*%
D22*
%TO.C,Q2*%
X98830000Y-90410000D03*
D23*
X98830000Y-89140000D03*
X98830000Y-87870000D03*
%TD*%
D15*
%TO.C,R31*%
X131592000Y-81048000D03*
D10*
X131592000Y-88668000D03*
%TD*%
D17*
%TO.C,J11*%
X115575000Y-105165000D03*
D16*
X115575000Y-107705000D03*
X115575000Y-110245000D03*
X115575000Y-112785000D03*
%TD*%
D10*
%TO.C,R14*%
X115490000Y-101821472D03*
D15*
X115490000Y-94201472D03*
%TD*%
D16*
%TO.C,J14*%
X130988000Y-76070000D03*
X130988000Y-73530000D03*
X130988000Y-70990000D03*
D17*
X130988000Y-68450000D03*
%TD*%
D15*
%TO.C,R27*%
X147680000Y-78010000D03*
D10*
X147680000Y-70390000D03*
%TD*%
D15*
%TO.C,R30*%
X149360000Y-88310000D03*
D10*
X149360000Y-80690000D03*
%TD*%
%TO.C,R22*%
X99182000Y-136078000D03*
D15*
X99182000Y-128458000D03*
%TD*%
D10*
%TO.C,R8*%
X112136000Y-76896000D03*
D15*
X112136000Y-84516000D03*
%TD*%
D16*
%TO.C,J8*%
X130998000Y-116370000D03*
X130998000Y-113830000D03*
X130998000Y-111290000D03*
D17*
X130998000Y-108750000D03*
%TD*%
D19*
%TO.C,J6*%
X145900000Y-119910000D03*
X145900000Y-128210000D03*
X145900000Y-131310000D03*
%TD*%
D18*
%TO.C,U2*%
X101976000Y-119822000D03*
D15*
X101976000Y-122362000D03*
X101976000Y-124902000D03*
X101976000Y-127442000D03*
X101976000Y-129982000D03*
X101976000Y-132522000D03*
X101976000Y-135062000D03*
X109596000Y-135062000D03*
X109596000Y-132522000D03*
X109596000Y-129982000D03*
X109596000Y-127442000D03*
X109596000Y-124902000D03*
X109596000Y-122362000D03*
X109596000Y-119822000D03*
%TD*%
D18*
%TO.C,D3*%
X105340000Y-70510000D03*
D15*
X112960000Y-70510000D03*
%TD*%
D10*
%TO.C,R21*%
X99520000Y-101370000D03*
D15*
X99520000Y-93750000D03*
%TD*%
D17*
%TO.C,J2*%
X96290000Y-105170000D03*
D16*
X96290000Y-107710000D03*
X96290000Y-110250000D03*
X96290000Y-112790000D03*
%TD*%
D18*
%TO.C,U1*%
X102350000Y-50460000D03*
D15*
X102350000Y-53000000D03*
X102350000Y-55540000D03*
X102350000Y-58080000D03*
X102350000Y-60620000D03*
X102350000Y-63160000D03*
X102350000Y-65700000D03*
X109970000Y-65700000D03*
X109970000Y-63160000D03*
X109970000Y-60620000D03*
X109970000Y-58080000D03*
X109970000Y-55540000D03*
X109970000Y-53000000D03*
X109970000Y-50460000D03*
%TD*%
D10*
%TO.C,R15*%
X105010000Y-38650000D03*
D15*
X112630000Y-38650000D03*
%TD*%
D24*
%TO.C,SW1*%
X144732000Y-110602000D03*
X140482000Y-110512000D03*
X136232000Y-110602000D03*
%TD*%
D10*
%TO.C,R32*%
X99580000Y-84500000D03*
D15*
X99580000Y-76880000D03*
%TD*%
D18*
%TO.C,D2*%
X113030000Y-67240000D03*
D15*
X113030000Y-59620000D03*
%TD*%
D25*
%TO.C,D7*%
X149118000Y-67840000D03*
D26*
X149118000Y-65300000D03*
%TD*%
D22*
%TO.C,Q1*%
X103700000Y-90500000D03*
D23*
X103700000Y-89230000D03*
X103700000Y-87960000D03*
%TD*%
D10*
%TO.C,R5*%
X102370000Y-38760000D03*
D15*
X102370000Y-46380000D03*
%TD*%
D16*
%TO.C,J9*%
X150298000Y-50180000D03*
X150298000Y-47640000D03*
X150298000Y-45100000D03*
D17*
X150298000Y-42560000D03*
%TD*%
%TO.C,J13*%
X150273000Y-108755000D03*
D16*
X150273000Y-111295000D03*
X150273000Y-113835000D03*
X150273000Y-116375000D03*
%TD*%
D10*
%TO.C,R35*%
X102620000Y-84520000D03*
D15*
X102620000Y-76900000D03*
%TD*%
D10*
%TO.C,R16*%
X112480000Y-128190000D03*
D15*
X112480000Y-135810000D03*
%TD*%
D10*
%TO.C,R2*%
X115670000Y-77480000D03*
D15*
X115670000Y-69860000D03*
%TD*%
D10*
%TO.C,R9*%
X107290000Y-92860000D03*
D15*
X107290000Y-100480000D03*
%TD*%
D19*
%TO.C,J4*%
X146000000Y-135014000D03*
X146000000Y-143314000D03*
X146000000Y-146414000D03*
%TD*%
D20*
%TO.C,Q3*%
X150388000Y-59310000D03*
X149118000Y-59310000D03*
D21*
X147848000Y-59310000D03*
%TD*%
D17*
%TO.C,J15*%
X96290000Y-64860000D03*
D16*
X96290000Y-67400000D03*
X96290000Y-69940000D03*
X96290000Y-72480000D03*
%TD*%
D10*
%TO.C,R23*%
X115650000Y-84220000D03*
D15*
X115650000Y-91840000D03*
%TD*%
D10*
%TO.C,R11*%
X108834000Y-108392000D03*
D15*
X108834000Y-116012000D03*
%TD*%
D10*
%TO.C,R1*%
X99640000Y-67710000D03*
D15*
X99640000Y-60090000D03*
%TD*%
D10*
%TO.C,R7*%
X96388000Y-101534000D03*
D15*
X96388000Y-93914000D03*
%TD*%
D13*
%TO.C,POT2*%
X136087637Y-66720557D03*
X144876037Y-66720557D03*
D14*
X137941837Y-59710157D03*
X140481837Y-59710157D03*
X143021837Y-59710157D03*
%TD*%
D15*
%TO.C,R20*%
X96134000Y-128458000D03*
D10*
X96134000Y-136078000D03*
%TD*%
D13*
%TO.C,POT3*%
X136087637Y-83230557D03*
X144876037Y-83230557D03*
D14*
X137941837Y-76220157D03*
X140481837Y-76220157D03*
X143021837Y-76220157D03*
%TD*%
D10*
%TO.C,C3*%
X106040000Y-112964000D03*
X106040000Y-115464000D03*
%TD*%
D18*
%TO.C,D1*%
X115670000Y-67030000D03*
D15*
X115670000Y-59410000D03*
%TD*%
D10*
%TO.C,R34*%
X108834000Y-84516000D03*
D15*
X108834000Y-76896000D03*
%TD*%
D21*
%TO.C,Q5*%
X109940000Y-88980000D03*
D20*
X111210000Y-88980000D03*
X112480000Y-88980000D03*
%TD*%
D10*
%TO.C,R28*%
X112600000Y-49480000D03*
D15*
X112600000Y-57100000D03*
%TD*%
D10*
%TO.C,R33*%
X105786000Y-76896000D03*
D15*
X105786000Y-84516000D03*
%TD*%
D25*
%TO.C,D6*%
X149118000Y-100606000D03*
D26*
X149118000Y-98066000D03*
%TD*%
D10*
%TO.C,R10*%
X115530000Y-128510000D03*
D15*
X115530000Y-136130000D03*
%TD*%
D17*
%TO.C,J7*%
X115600000Y-38970000D03*
D16*
X115600000Y-41510000D03*
X115600000Y-44050000D03*
X115600000Y-46590000D03*
%TD*%
%TO.C,J1*%
X103660000Y-139701472D03*
X103660000Y-142241472D03*
X106200000Y-139701472D03*
X106200000Y-142241472D03*
X108740000Y-139701472D03*
X108740000Y-142241472D03*
X111280000Y-139701472D03*
X111280000Y-142241472D03*
X113820000Y-139701472D03*
X113820000Y-142241472D03*
%TD*%
D27*
%TO.C,TRIM2*%
X111870000Y-104340000D03*
X109330000Y-104340000D03*
X106790000Y-104340000D03*
%TD*%
%TO.C,TRIM1*%
X97658000Y-56576000D03*
X97658000Y-54036000D03*
X97658000Y-51496000D03*
%TD*%
M02*
