%TF.GenerationSoftware,KiCad,Pcbnew,7.0.11-7.0.11~ubuntu22.04.1*%
%TF.CreationDate,2024-09-21T00:23:00-04:00*%
%TF.ProjectId,ad-vca,61642d76-6361-42e6-9b69-6361645f7063,rev?*%
%TF.SameCoordinates,Original*%
%TF.FileFunction,Drillmap*%
%TF.FilePolarity,Positive*%
%FSLAX45Y45*%
G04 Gerber Fmt 4.5, Leading zero omitted, Abs format (unit mm)*
G04 Created by KiCad (PCBNEW 7.0.11-7.0.11~ubuntu22.04.1) date 2024-09-21 00:23:00*
%MOMM*%
%LPD*%
G01*
G04 APERTURE LIST*
%ADD10C,0.150000*%
%ADD11C,0.200000*%
G04 APERTURE END LIST*
D10*
X17833886Y-13718736D02*
X17869265Y-13724747D01*
X17903747Y-13734681D01*
X17936901Y-13748414D01*
X17968308Y-13765772D01*
X17997575Y-13786538D01*
X18024332Y-13810449D01*
X18048244Y-13837207D01*
X18069010Y-13866473D01*
X18086368Y-13897881D01*
X18100101Y-13931034D01*
X18110035Y-13965517D01*
X18116046Y-14000895D01*
X18118058Y-14036724D01*
X18116046Y-14072552D01*
X18110035Y-14107930D01*
X18100101Y-14142413D01*
X18086368Y-14175566D01*
X18069010Y-14206974D01*
X18048244Y-14236240D01*
X18024332Y-14262998D01*
X17997575Y-14286910D01*
X17968308Y-14307675D01*
X17936901Y-14325034D01*
X17903747Y-14338766D01*
X17869265Y-14348701D01*
X17833886Y-14354712D01*
X17798058Y-14356724D01*
X17762229Y-14354712D01*
X17726851Y-14348701D01*
X17692369Y-14338766D01*
X17659215Y-14325034D01*
X17627808Y-14307675D01*
X17598541Y-14286910D01*
X17571784Y-14262998D01*
X17547872Y-14236240D01*
X17527106Y-14206974D01*
X17509748Y-14175566D01*
X17496015Y-14142413D01*
X17486081Y-14107930D01*
X17480070Y-14072552D01*
X17478058Y-14036724D01*
X17480070Y-14000895D01*
X17486081Y-13965517D01*
X17496015Y-13931034D01*
X17509748Y-13897881D01*
X17527106Y-13866473D01*
X17547872Y-13837207D01*
X17571784Y-13810449D01*
X17598541Y-13786538D01*
X17627808Y-13765772D01*
X17659215Y-13748414D01*
X17692369Y-13734681D01*
X17726851Y-13724747D01*
X17762229Y-13718736D01*
X17798058Y-13716724D01*
X17833886Y-13718736D01*
G36*
X17833886Y-13718736D02*
G01*
X17869265Y-13724747D01*
X17903747Y-13734681D01*
X17936901Y-13748414D01*
X17968308Y-13765772D01*
X17997575Y-13786538D01*
X18024332Y-13810449D01*
X18048244Y-13837207D01*
X18069010Y-13866473D01*
X18086368Y-13897881D01*
X18100101Y-13931034D01*
X18110035Y-13965517D01*
X18116046Y-14000895D01*
X18118058Y-14036724D01*
X18116046Y-14072552D01*
X18110035Y-14107930D01*
X18100101Y-14142413D01*
X18086368Y-14175566D01*
X18069010Y-14206974D01*
X18048244Y-14236240D01*
X18024332Y-14262998D01*
X17997575Y-14286910D01*
X17968308Y-14307675D01*
X17936901Y-14325034D01*
X17903747Y-14338766D01*
X17869265Y-14348701D01*
X17833886Y-14354712D01*
X17798058Y-14356724D01*
X17762229Y-14354712D01*
X17726851Y-14348701D01*
X17692369Y-14338766D01*
X17659215Y-14325034D01*
X17627808Y-14307675D01*
X17598541Y-14286910D01*
X17571784Y-14262998D01*
X17547872Y-14236240D01*
X17527106Y-14206974D01*
X17509748Y-14175566D01*
X17496015Y-14142413D01*
X17486081Y-14107930D01*
X17480070Y-14072552D01*
X17478058Y-14036724D01*
X17480070Y-14000895D01*
X17486081Y-13965517D01*
X17496015Y-13931034D01*
X17509748Y-13897881D01*
X17527106Y-13866473D01*
X17547872Y-13837207D01*
X17571784Y-13810449D01*
X17598541Y-13786538D01*
X17627808Y-13765772D01*
X17659215Y-13748414D01*
X17692369Y-13734681D01*
X17726851Y-13724747D01*
X17762229Y-13718736D01*
X17798058Y-13716724D01*
X17833886Y-13718736D01*
G37*
X18519910Y-9606704D02*
X18557156Y-9614358D01*
X18593436Y-9625741D01*
X18628378Y-9640736D01*
X18661625Y-9659190D01*
X18692833Y-9680911D01*
X18721684Y-9705679D01*
X18747882Y-9733239D01*
X18771156Y-9763307D01*
X18791270Y-9795576D01*
X18808015Y-9829714D01*
X18821221Y-9865371D01*
X18830752Y-9902181D01*
X18836510Y-9939767D01*
X18838436Y-9977742D01*
X18836510Y-10015717D01*
X18830752Y-10053303D01*
X18821221Y-10090113D01*
X18808015Y-10125770D01*
X18791270Y-10159908D01*
X18771156Y-10192177D01*
X18747882Y-10222246D01*
X18721684Y-10249805D01*
X18692833Y-10274573D01*
X18661625Y-10296295D01*
X18628378Y-10314748D01*
X18593436Y-10329743D01*
X18557156Y-10341126D01*
X18519910Y-10348780D01*
X18482081Y-10352627D01*
X18444057Y-10352627D01*
X18406228Y-10348780D01*
X18368983Y-10341126D01*
X18332702Y-10329743D01*
X18297760Y-10314748D01*
X18264514Y-10296295D01*
X18233305Y-10274573D01*
X18204454Y-10249805D01*
X18178257Y-10222246D01*
X18154982Y-10192177D01*
X18134869Y-10159908D01*
X18118123Y-10125770D01*
X18104917Y-10090113D01*
X18095386Y-10053303D01*
X18089629Y-10015717D01*
X18087703Y-9977742D01*
X18089629Y-9939767D01*
X18095386Y-9902181D01*
X18104917Y-9865371D01*
X18118123Y-9829714D01*
X18134869Y-9795576D01*
X18154982Y-9763307D01*
X18178257Y-9733239D01*
X18204454Y-9705679D01*
X18233305Y-9680911D01*
X18264514Y-9659190D01*
X18297760Y-9640736D01*
X18332702Y-9625741D01*
X18368983Y-9614358D01*
X18406228Y-9606704D01*
X18444057Y-9602857D01*
X18482081Y-9602857D01*
X18519910Y-9606704D01*
G36*
X18519910Y-9606704D02*
G01*
X18557156Y-9614358D01*
X18593436Y-9625741D01*
X18628378Y-9640736D01*
X18661625Y-9659190D01*
X18692833Y-9680911D01*
X18721684Y-9705679D01*
X18747882Y-9733239D01*
X18771156Y-9763307D01*
X18791270Y-9795576D01*
X18808015Y-9829714D01*
X18821221Y-9865371D01*
X18830752Y-9902181D01*
X18836510Y-9939767D01*
X18838436Y-9977742D01*
X18836510Y-10015717D01*
X18830752Y-10053303D01*
X18821221Y-10090113D01*
X18808015Y-10125770D01*
X18791270Y-10159908D01*
X18771156Y-10192177D01*
X18747882Y-10222246D01*
X18721684Y-10249805D01*
X18692833Y-10274573D01*
X18661625Y-10296295D01*
X18628378Y-10314748D01*
X18593436Y-10329743D01*
X18557156Y-10341126D01*
X18519910Y-10348780D01*
X18482081Y-10352627D01*
X18444057Y-10352627D01*
X18406228Y-10348780D01*
X18368983Y-10341126D01*
X18332702Y-10329743D01*
X18297760Y-10314748D01*
X18264514Y-10296295D01*
X18233305Y-10274573D01*
X18204454Y-10249805D01*
X18178257Y-10222246D01*
X18154982Y-10192177D01*
X18134869Y-10159908D01*
X18118123Y-10125770D01*
X18104917Y-10090113D01*
X18095386Y-10053303D01*
X18089629Y-10015717D01*
X18087703Y-9977742D01*
X18089629Y-9939767D01*
X18095386Y-9902181D01*
X18104917Y-9865371D01*
X18118123Y-9829714D01*
X18134869Y-9795576D01*
X18154982Y-9763307D01*
X18178257Y-9733239D01*
X18204454Y-9705679D01*
X18233305Y-9680911D01*
X18264514Y-9659190D01*
X18297760Y-9640736D01*
X18332702Y-9625741D01*
X18368983Y-9614358D01*
X18406228Y-9606704D01*
X18444057Y-9602857D01*
X18482081Y-9602857D01*
X18519910Y-9606704D01*
G37*
X18469110Y-8003932D02*
X18506356Y-8011586D01*
X18542636Y-8022969D01*
X18577578Y-8037964D01*
X18610825Y-8056417D01*
X18642033Y-8078139D01*
X18670884Y-8102907D01*
X18697082Y-8130466D01*
X18720356Y-8160535D01*
X18740470Y-8192804D01*
X18757215Y-8226942D01*
X18770421Y-8262599D01*
X18779952Y-8299409D01*
X18785710Y-8336994D01*
X18787636Y-8374970D01*
X18785710Y-8412945D01*
X18779952Y-8450530D01*
X18770421Y-8487341D01*
X18757215Y-8522998D01*
X18740470Y-8557136D01*
X18720356Y-8589405D01*
X18697082Y-8619473D01*
X18670884Y-8647033D01*
X18642033Y-8671800D01*
X18610825Y-8693522D01*
X18577578Y-8711975D01*
X18542636Y-8726970D01*
X18506356Y-8738353D01*
X18469110Y-8746008D01*
X18431281Y-8749854D01*
X18393257Y-8749854D01*
X18355428Y-8746008D01*
X18318183Y-8738353D01*
X18281902Y-8726970D01*
X18246960Y-8711975D01*
X18213714Y-8693522D01*
X18182505Y-8671800D01*
X18153654Y-8647033D01*
X18127457Y-8619473D01*
X18104182Y-8589405D01*
X18084069Y-8557136D01*
X18067323Y-8522998D01*
X18054117Y-8487341D01*
X18044586Y-8450530D01*
X18038829Y-8412945D01*
X18036903Y-8374970D01*
X18038829Y-8336994D01*
X18044586Y-8299409D01*
X18054117Y-8262599D01*
X18067323Y-8226942D01*
X18084069Y-8192804D01*
X18104182Y-8160535D01*
X18127457Y-8130466D01*
X18153654Y-8102907D01*
X18182505Y-8078139D01*
X18213714Y-8056417D01*
X18246960Y-8037964D01*
X18281902Y-8022969D01*
X18318183Y-8011586D01*
X18355428Y-8003932D01*
X18393257Y-8000085D01*
X18431281Y-8000085D01*
X18469110Y-8003932D01*
G36*
X18469110Y-8003932D02*
G01*
X18506356Y-8011586D01*
X18542636Y-8022969D01*
X18577578Y-8037964D01*
X18610825Y-8056417D01*
X18642033Y-8078139D01*
X18670884Y-8102907D01*
X18697082Y-8130466D01*
X18720356Y-8160535D01*
X18740470Y-8192804D01*
X18757215Y-8226942D01*
X18770421Y-8262599D01*
X18779952Y-8299409D01*
X18785710Y-8336994D01*
X18787636Y-8374970D01*
X18785710Y-8412945D01*
X18779952Y-8450530D01*
X18770421Y-8487341D01*
X18757215Y-8522998D01*
X18740470Y-8557136D01*
X18720356Y-8589405D01*
X18697082Y-8619473D01*
X18670884Y-8647033D01*
X18642033Y-8671800D01*
X18610825Y-8693522D01*
X18577578Y-8711975D01*
X18542636Y-8726970D01*
X18506356Y-8738353D01*
X18469110Y-8746008D01*
X18431281Y-8749854D01*
X18393257Y-8749854D01*
X18355428Y-8746008D01*
X18318183Y-8738353D01*
X18281902Y-8726970D01*
X18246960Y-8711975D01*
X18213714Y-8693522D01*
X18182505Y-8671800D01*
X18153654Y-8647033D01*
X18127457Y-8619473D01*
X18104182Y-8589405D01*
X18084069Y-8557136D01*
X18067323Y-8522998D01*
X18054117Y-8487341D01*
X18044586Y-8450530D01*
X18038829Y-8412945D01*
X18036903Y-8374970D01*
X18038829Y-8336994D01*
X18044586Y-8299409D01*
X18054117Y-8262599D01*
X18067323Y-8226942D01*
X18084069Y-8192804D01*
X18104182Y-8160535D01*
X18127457Y-8130466D01*
X18153654Y-8102907D01*
X18182505Y-8078139D01*
X18213714Y-8056417D01*
X18246960Y-8037964D01*
X18281902Y-8022969D01*
X18318183Y-8011586D01*
X18355428Y-8003932D01*
X18393257Y-8000085D01*
X18431281Y-8000085D01*
X18469110Y-8003932D01*
G37*
D11*
X10006000Y-3999853D02*
X12338000Y-3999853D01*
X12338000Y-14799853D01*
X10006000Y-14799853D01*
X10006000Y-3999853D01*
D10*
X19344000Y-9836987D02*
X19368413Y-9842848D01*
X19391609Y-9852456D01*
X19413016Y-9865574D01*
X19432108Y-9881880D01*
X19448413Y-9900971D01*
X19461532Y-9922378D01*
X19471140Y-9945574D01*
X19477001Y-9969987D01*
X19478971Y-9995017D01*
X19477001Y-10020046D01*
X19471140Y-10044460D01*
X19461532Y-10067655D01*
X19448413Y-10089062D01*
X19432108Y-10108154D01*
X19413016Y-10124460D01*
X19391609Y-10137578D01*
X19368413Y-10147186D01*
X19344000Y-10153047D01*
X19318971Y-10155017D01*
X19293941Y-10153047D01*
X19269528Y-10147186D01*
X19246332Y-10137578D01*
X19224925Y-10124460D01*
X19205833Y-10108154D01*
X19189528Y-10089062D01*
X19176410Y-10067655D01*
X19166802Y-10044460D01*
X19160940Y-10020046D01*
X19158971Y-9995017D01*
X19160940Y-9969987D01*
X19166802Y-9945574D01*
X19176410Y-9922378D01*
X19189528Y-9900971D01*
X19205833Y-9881880D01*
X19224925Y-9865574D01*
X19246332Y-9852456D01*
X19269528Y-9842848D01*
X19293941Y-9836987D01*
X19318971Y-9835017D01*
X19344000Y-9836987D01*
G36*
X19344000Y-9836987D02*
G01*
X19368413Y-9842848D01*
X19391609Y-9852456D01*
X19413016Y-9865574D01*
X19432108Y-9881880D01*
X19448413Y-9900971D01*
X19461532Y-9922378D01*
X19471140Y-9945574D01*
X19477001Y-9969987D01*
X19478971Y-9995017D01*
X19477001Y-10020046D01*
X19471140Y-10044460D01*
X19461532Y-10067655D01*
X19448413Y-10089062D01*
X19432108Y-10108154D01*
X19413016Y-10124460D01*
X19391609Y-10137578D01*
X19368413Y-10147186D01*
X19344000Y-10153047D01*
X19318971Y-10155017D01*
X19293941Y-10153047D01*
X19269528Y-10147186D01*
X19246332Y-10137578D01*
X19224925Y-10124460D01*
X19205833Y-10108154D01*
X19189528Y-10089062D01*
X19176410Y-10067655D01*
X19166802Y-10044460D01*
X19160940Y-10020046D01*
X19158971Y-9995017D01*
X19160940Y-9969987D01*
X19166802Y-9945574D01*
X19176410Y-9922378D01*
X19189528Y-9900971D01*
X19205833Y-9881880D01*
X19224925Y-9865574D01*
X19246332Y-9852456D01*
X19269528Y-9842848D01*
X19293941Y-9836987D01*
X19318971Y-9835017D01*
X19344000Y-9836987D01*
G37*
D11*
X13815000Y-3958000D02*
X16147000Y-3958000D01*
X16147000Y-14758000D01*
X13815000Y-14758000D01*
X13815000Y-3958000D01*
X17170400Y-3075800D02*
X19668400Y-3075800D01*
X19668400Y-15925800D01*
X17170400Y-15925800D01*
X17170400Y-3075800D01*
D10*
X17825569Y-12214396D02*
X17860947Y-12220407D01*
X17895430Y-12230342D01*
X17928583Y-12244074D01*
X17959991Y-12261433D01*
X17989257Y-12282198D01*
X18016015Y-12306110D01*
X18039927Y-12332868D01*
X18060692Y-12362134D01*
X18078051Y-12393542D01*
X18091783Y-12426695D01*
X18101718Y-12461178D01*
X18107729Y-12496556D01*
X18109741Y-12532384D01*
X18107729Y-12568213D01*
X18101718Y-12603591D01*
X18091783Y-12638074D01*
X18078051Y-12671227D01*
X18060692Y-12702635D01*
X18039927Y-12731901D01*
X18016015Y-12758659D01*
X17989257Y-12782570D01*
X17959991Y-12803336D01*
X17928583Y-12820694D01*
X17895430Y-12834427D01*
X17860947Y-12844361D01*
X17825569Y-12850372D01*
X17789741Y-12852384D01*
X17753912Y-12850372D01*
X17718534Y-12844361D01*
X17684051Y-12834427D01*
X17650898Y-12820694D01*
X17619490Y-12803336D01*
X17590224Y-12782570D01*
X17563466Y-12758659D01*
X17539555Y-12731901D01*
X17518789Y-12702635D01*
X17501431Y-12671227D01*
X17487698Y-12638074D01*
X17477764Y-12603591D01*
X17471753Y-12568213D01*
X17469741Y-12532384D01*
X17471753Y-12496556D01*
X17477764Y-12461178D01*
X17487698Y-12426695D01*
X17501431Y-12393542D01*
X17518789Y-12362134D01*
X17539555Y-12332868D01*
X17563466Y-12306110D01*
X17590224Y-12282198D01*
X17619490Y-12261433D01*
X17650898Y-12244074D01*
X17684051Y-12230342D01*
X17718534Y-12220407D01*
X17753912Y-12214396D01*
X17789741Y-12212384D01*
X17825569Y-12214396D01*
G36*
X17825569Y-12214396D02*
G01*
X17860947Y-12220407D01*
X17895430Y-12230342D01*
X17928583Y-12244074D01*
X17959991Y-12261433D01*
X17989257Y-12282198D01*
X18016015Y-12306110D01*
X18039927Y-12332868D01*
X18060692Y-12362134D01*
X18078051Y-12393542D01*
X18091783Y-12426695D01*
X18101718Y-12461178D01*
X18107729Y-12496556D01*
X18109741Y-12532384D01*
X18107729Y-12568213D01*
X18101718Y-12603591D01*
X18091783Y-12638074D01*
X18078051Y-12671227D01*
X18060692Y-12702635D01*
X18039927Y-12731901D01*
X18016015Y-12758659D01*
X17989257Y-12782570D01*
X17959991Y-12803336D01*
X17928583Y-12820694D01*
X17895430Y-12834427D01*
X17860947Y-12844361D01*
X17825569Y-12850372D01*
X17789741Y-12852384D01*
X17753912Y-12850372D01*
X17718534Y-12844361D01*
X17684051Y-12834427D01*
X17650898Y-12820694D01*
X17619490Y-12803336D01*
X17590224Y-12782570D01*
X17563466Y-12758659D01*
X17539555Y-12731901D01*
X17518789Y-12702635D01*
X17501431Y-12671227D01*
X17487698Y-12638074D01*
X17477764Y-12603591D01*
X17471753Y-12568213D01*
X17469741Y-12532384D01*
X17471753Y-12496556D01*
X17477764Y-12461178D01*
X17487698Y-12426695D01*
X17501431Y-12393542D01*
X17518789Y-12362134D01*
X17539555Y-12332868D01*
X17563466Y-12306110D01*
X17590224Y-12282198D01*
X17619490Y-12261433D01*
X17650898Y-12244074D01*
X17684051Y-12230342D01*
X17718534Y-12220407D01*
X17753912Y-12214396D01*
X17789741Y-12212384D01*
X17825569Y-12214396D01*
G37*
X18472342Y-10784741D02*
X18507251Y-10790672D01*
X18541276Y-10800475D01*
X18573989Y-10814025D01*
X18604980Y-10831153D01*
X18633858Y-10851643D01*
X18660260Y-10875238D01*
X18683855Y-10901640D01*
X18704345Y-10930518D01*
X18721473Y-10961509D01*
X18735023Y-10994222D01*
X18744825Y-11028247D01*
X18750757Y-11063156D01*
X18752742Y-11098509D01*
X18750757Y-11133862D01*
X18744825Y-11168770D01*
X18735023Y-11202795D01*
X18721473Y-11235509D01*
X18704345Y-11266499D01*
X18683855Y-11295377D01*
X18660260Y-11321780D01*
X18633858Y-11345374D01*
X18604980Y-11365864D01*
X18573989Y-11382992D01*
X18541276Y-11396543D01*
X18507251Y-11406345D01*
X18472342Y-11412276D01*
X18436989Y-11414262D01*
X18401636Y-11412276D01*
X18366727Y-11406345D01*
X18332702Y-11396543D01*
X18299989Y-11382992D01*
X18268998Y-11365864D01*
X18240120Y-11345374D01*
X18213718Y-11321780D01*
X18190123Y-11295377D01*
X18169633Y-11266499D01*
X18152505Y-11235509D01*
X18138955Y-11202795D01*
X18129152Y-11168770D01*
X18123221Y-11133862D01*
X18121236Y-11098509D01*
X18123221Y-11063156D01*
X18129152Y-11028247D01*
X18138955Y-10994222D01*
X18152505Y-10961509D01*
X18169633Y-10930518D01*
X18190123Y-10901640D01*
X18213718Y-10875238D01*
X18240120Y-10851643D01*
X18268998Y-10831153D01*
X18299989Y-10814025D01*
X18332702Y-10800475D01*
X18366727Y-10790672D01*
X18401636Y-10784741D01*
X18436989Y-10782756D01*
X18472342Y-10784741D01*
G36*
X18472342Y-10784741D02*
G01*
X18507251Y-10790672D01*
X18541276Y-10800475D01*
X18573989Y-10814025D01*
X18604980Y-10831153D01*
X18633858Y-10851643D01*
X18660260Y-10875238D01*
X18683855Y-10901640D01*
X18704345Y-10930518D01*
X18721473Y-10961509D01*
X18735023Y-10994222D01*
X18744825Y-11028247D01*
X18750757Y-11063156D01*
X18752742Y-11098509D01*
X18750757Y-11133862D01*
X18744825Y-11168770D01*
X18735023Y-11202795D01*
X18721473Y-11235509D01*
X18704345Y-11266499D01*
X18683855Y-11295377D01*
X18660260Y-11321780D01*
X18633858Y-11345374D01*
X18604980Y-11365864D01*
X18573989Y-11382992D01*
X18541276Y-11396543D01*
X18507251Y-11406345D01*
X18472342Y-11412276D01*
X18436989Y-11414262D01*
X18401636Y-11412276D01*
X18366727Y-11406345D01*
X18332702Y-11396543D01*
X18299989Y-11382992D01*
X18268998Y-11365864D01*
X18240120Y-11345374D01*
X18213718Y-11321780D01*
X18190123Y-11295377D01*
X18169633Y-11266499D01*
X18152505Y-11235509D01*
X18138955Y-11202795D01*
X18129152Y-11168770D01*
X18123221Y-11133862D01*
X18121236Y-11098509D01*
X18123221Y-11063156D01*
X18129152Y-11028247D01*
X18138955Y-10994222D01*
X18152505Y-10961509D01*
X18169633Y-10930518D01*
X18190123Y-10901640D01*
X18213718Y-10875238D01*
X18240120Y-10851643D01*
X18268998Y-10831153D01*
X18299989Y-10814025D01*
X18332702Y-10800475D01*
X18366727Y-10790672D01*
X18401636Y-10784741D01*
X18436989Y-10782756D01*
X18472342Y-10784741D01*
G37*
D11*
X17961400Y-3214047D02*
X17961400Y-3214047D01*
G75*
G02*
X18111400Y-3364047I0J-150003D01*
G01*
X18111400Y-3384047D01*
G75*
G02*
X17961400Y-3534047I-150000J-3D01*
G01*
X17621400Y-3534047D01*
G75*
G02*
X17471400Y-3384047I0J149997D01*
G01*
X17471400Y-3364047D01*
G75*
G02*
X17621400Y-3214047I150000J-3D01*
G01*
X17961400Y-3214047D01*
G36*
X17961400Y-3214047D02*
G01*
X17961400Y-3214047D01*
G75*
G02*
X18111400Y-3364047I0J-150003D01*
G01*
X18111400Y-3384047D01*
G75*
G02*
X17961400Y-3534047I-150000J-3D01*
G01*
X17621400Y-3534047D01*
G75*
G02*
X17471400Y-3384047I0J149997D01*
G01*
X17471400Y-3364047D01*
G75*
G02*
X17621400Y-3214047I150000J-3D01*
G01*
X17961400Y-3214047D01*
G37*
D10*
X18494510Y-4704504D02*
X18531756Y-4712158D01*
X18568036Y-4723541D01*
X18602978Y-4738536D01*
X18636225Y-4756990D01*
X18667433Y-4778711D01*
X18696284Y-4803479D01*
X18722482Y-4831039D01*
X18745756Y-4861107D01*
X18765870Y-4893376D01*
X18782615Y-4927514D01*
X18795821Y-4963171D01*
X18805352Y-4999981D01*
X18811110Y-5037567D01*
X18813036Y-5075542D01*
X18811110Y-5113517D01*
X18805352Y-5151103D01*
X18795821Y-5187913D01*
X18782615Y-5223570D01*
X18765870Y-5257708D01*
X18745756Y-5289977D01*
X18722482Y-5320046D01*
X18696284Y-5347605D01*
X18667433Y-5372373D01*
X18636225Y-5394095D01*
X18602978Y-5412548D01*
X18568036Y-5427543D01*
X18531756Y-5438926D01*
X18494510Y-5446580D01*
X18456681Y-5450427D01*
X18418657Y-5450427D01*
X18380828Y-5446580D01*
X18343583Y-5438926D01*
X18307302Y-5427543D01*
X18272360Y-5412548D01*
X18239114Y-5394095D01*
X18207905Y-5372373D01*
X18179054Y-5347605D01*
X18152857Y-5320046D01*
X18129582Y-5289977D01*
X18109469Y-5257708D01*
X18092723Y-5223570D01*
X18079517Y-5187913D01*
X18069986Y-5151103D01*
X18064229Y-5113517D01*
X18062303Y-5075542D01*
X18064229Y-5037567D01*
X18069986Y-4999981D01*
X18079517Y-4963171D01*
X18092723Y-4927514D01*
X18109469Y-4893376D01*
X18129582Y-4861107D01*
X18152857Y-4831039D01*
X18179054Y-4803479D01*
X18207905Y-4778711D01*
X18239114Y-4756990D01*
X18272360Y-4738536D01*
X18307302Y-4723541D01*
X18343583Y-4712158D01*
X18380828Y-4704504D01*
X18418657Y-4700657D01*
X18456681Y-4700657D01*
X18494510Y-4704504D01*
G36*
X18494510Y-4704504D02*
G01*
X18531756Y-4712158D01*
X18568036Y-4723541D01*
X18602978Y-4738536D01*
X18636225Y-4756990D01*
X18667433Y-4778711D01*
X18696284Y-4803479D01*
X18722482Y-4831039D01*
X18745756Y-4861107D01*
X18765870Y-4893376D01*
X18782615Y-4927514D01*
X18795821Y-4963171D01*
X18805352Y-4999981D01*
X18811110Y-5037567D01*
X18813036Y-5075542D01*
X18811110Y-5113517D01*
X18805352Y-5151103D01*
X18795821Y-5187913D01*
X18782615Y-5223570D01*
X18765870Y-5257708D01*
X18745756Y-5289977D01*
X18722482Y-5320046D01*
X18696284Y-5347605D01*
X18667433Y-5372373D01*
X18636225Y-5394095D01*
X18602978Y-5412548D01*
X18568036Y-5427543D01*
X18531756Y-5438926D01*
X18494510Y-5446580D01*
X18456681Y-5450427D01*
X18418657Y-5450427D01*
X18380828Y-5446580D01*
X18343583Y-5438926D01*
X18307302Y-5427543D01*
X18272360Y-5412548D01*
X18239114Y-5394095D01*
X18207905Y-5372373D01*
X18179054Y-5347605D01*
X18152857Y-5320046D01*
X18129582Y-5289977D01*
X18109469Y-5257708D01*
X18092723Y-5223570D01*
X18079517Y-5187913D01*
X18069986Y-5151103D01*
X18064229Y-5113517D01*
X18062303Y-5075542D01*
X18064229Y-5037567D01*
X18069986Y-4999981D01*
X18079517Y-4963171D01*
X18092723Y-4927514D01*
X18109469Y-4893376D01*
X18129582Y-4861107D01*
X18152857Y-4831039D01*
X18179054Y-4803479D01*
X18207905Y-4778711D01*
X18239114Y-4756990D01*
X18272360Y-4738536D01*
X18307302Y-4723541D01*
X18343583Y-4712158D01*
X18380828Y-4704504D01*
X18418657Y-4700657D01*
X18456681Y-4700657D01*
X18494510Y-4704504D01*
G37*
X18494184Y-6350090D02*
X18531430Y-6357744D01*
X18567710Y-6369127D01*
X18602652Y-6384122D01*
X18635899Y-6402575D01*
X18667107Y-6424297D01*
X18695958Y-6449065D01*
X18722156Y-6476624D01*
X18745430Y-6506693D01*
X18765544Y-6538962D01*
X18782289Y-6573100D01*
X18795495Y-6608757D01*
X18805026Y-6645567D01*
X18810784Y-6683152D01*
X18812710Y-6721128D01*
X18810784Y-6759103D01*
X18805026Y-6796688D01*
X18795495Y-6833499D01*
X18782289Y-6869156D01*
X18765544Y-6903294D01*
X18745430Y-6935563D01*
X18722156Y-6965631D01*
X18695958Y-6993191D01*
X18667107Y-7017958D01*
X18635899Y-7039680D01*
X18602652Y-7058133D01*
X18567710Y-7073128D01*
X18531430Y-7084511D01*
X18494184Y-7092166D01*
X18456355Y-7096012D01*
X18418331Y-7096012D01*
X18380502Y-7092166D01*
X18343257Y-7084511D01*
X18306976Y-7073128D01*
X18272034Y-7058133D01*
X18238788Y-7039680D01*
X18207579Y-7017958D01*
X18178728Y-6993191D01*
X18152531Y-6965631D01*
X18129256Y-6935563D01*
X18109143Y-6903294D01*
X18092397Y-6869156D01*
X18079191Y-6833499D01*
X18069661Y-6796688D01*
X18063903Y-6759103D01*
X18061977Y-6721128D01*
X18063903Y-6683152D01*
X18069661Y-6645567D01*
X18079191Y-6608757D01*
X18092397Y-6573100D01*
X18109143Y-6538962D01*
X18129256Y-6506693D01*
X18152531Y-6476624D01*
X18178728Y-6449065D01*
X18207579Y-6424297D01*
X18238788Y-6402575D01*
X18272034Y-6384122D01*
X18306976Y-6369127D01*
X18343257Y-6357744D01*
X18380502Y-6350090D01*
X18418331Y-6346243D01*
X18456355Y-6346243D01*
X18494184Y-6350090D01*
G36*
X18494184Y-6350090D02*
G01*
X18531430Y-6357744D01*
X18567710Y-6369127D01*
X18602652Y-6384122D01*
X18635899Y-6402575D01*
X18667107Y-6424297D01*
X18695958Y-6449065D01*
X18722156Y-6476624D01*
X18745430Y-6506693D01*
X18765544Y-6538962D01*
X18782289Y-6573100D01*
X18795495Y-6608757D01*
X18805026Y-6645567D01*
X18810784Y-6683152D01*
X18812710Y-6721128D01*
X18810784Y-6759103D01*
X18805026Y-6796688D01*
X18795495Y-6833499D01*
X18782289Y-6869156D01*
X18765544Y-6903294D01*
X18745430Y-6935563D01*
X18722156Y-6965631D01*
X18695958Y-6993191D01*
X18667107Y-7017958D01*
X18635899Y-7039680D01*
X18602652Y-7058133D01*
X18567710Y-7073128D01*
X18531430Y-7084511D01*
X18494184Y-7092166D01*
X18456355Y-7096012D01*
X18418331Y-7096012D01*
X18380502Y-7092166D01*
X18343257Y-7084511D01*
X18306976Y-7073128D01*
X18272034Y-7058133D01*
X18238788Y-7039680D01*
X18207579Y-7017958D01*
X18178728Y-6993191D01*
X18152531Y-6965631D01*
X18129256Y-6935563D01*
X18109143Y-6903294D01*
X18092397Y-6869156D01*
X18079191Y-6833499D01*
X18069661Y-6796688D01*
X18063903Y-6759103D01*
X18061977Y-6721128D01*
X18063903Y-6683152D01*
X18069661Y-6645567D01*
X18079191Y-6608757D01*
X18092397Y-6573100D01*
X18109143Y-6538962D01*
X18129256Y-6506693D01*
X18152531Y-6476624D01*
X18178728Y-6449065D01*
X18207579Y-6424297D01*
X18238788Y-6402575D01*
X18272034Y-6384122D01*
X18306976Y-6369127D01*
X18343257Y-6357744D01*
X18380502Y-6350090D01*
X18418331Y-6346243D01*
X18456355Y-6346243D01*
X18494184Y-6350090D01*
G37*
X19294187Y-6566248D02*
X19318600Y-6572109D01*
X19341796Y-6581717D01*
X19363203Y-6594835D01*
X19382294Y-6611141D01*
X19398600Y-6630232D01*
X19411718Y-6651639D01*
X19421326Y-6674835D01*
X19427187Y-6699248D01*
X19429157Y-6724278D01*
X19427187Y-6749307D01*
X19421326Y-6773721D01*
X19411718Y-6796916D01*
X19398600Y-6818323D01*
X19382294Y-6837415D01*
X19363203Y-6853721D01*
X19341796Y-6866839D01*
X19318600Y-6876447D01*
X19294187Y-6882308D01*
X19269157Y-6884278D01*
X19244128Y-6882308D01*
X19219715Y-6876447D01*
X19196519Y-6866839D01*
X19175112Y-6853721D01*
X19156020Y-6837415D01*
X19139715Y-6818323D01*
X19126596Y-6796916D01*
X19116988Y-6773721D01*
X19111127Y-6749307D01*
X19109157Y-6724278D01*
X19111127Y-6699248D01*
X19116988Y-6674835D01*
X19126596Y-6651639D01*
X19139715Y-6630232D01*
X19156020Y-6611141D01*
X19175112Y-6594835D01*
X19196519Y-6581717D01*
X19219715Y-6572109D01*
X19244128Y-6566248D01*
X19269157Y-6564278D01*
X19294187Y-6566248D01*
G36*
X19294187Y-6566248D02*
G01*
X19318600Y-6572109D01*
X19341796Y-6581717D01*
X19363203Y-6594835D01*
X19382294Y-6611141D01*
X19398600Y-6630232D01*
X19411718Y-6651639D01*
X19421326Y-6674835D01*
X19427187Y-6699248D01*
X19429157Y-6724278D01*
X19427187Y-6749307D01*
X19421326Y-6773721D01*
X19411718Y-6796916D01*
X19398600Y-6818323D01*
X19382294Y-6837415D01*
X19363203Y-6853721D01*
X19341796Y-6866839D01*
X19318600Y-6876447D01*
X19294187Y-6882308D01*
X19269157Y-6884278D01*
X19244128Y-6882308D01*
X19219715Y-6876447D01*
X19196519Y-6866839D01*
X19175112Y-6853721D01*
X19156020Y-6837415D01*
X19139715Y-6818323D01*
X19126596Y-6796916D01*
X19116988Y-6773721D01*
X19111127Y-6749307D01*
X19109157Y-6724278D01*
X19111127Y-6699248D01*
X19116988Y-6674835D01*
X19126596Y-6651639D01*
X19139715Y-6630232D01*
X19156020Y-6611141D01*
X19175112Y-6594835D01*
X19196519Y-6581717D01*
X19219715Y-6572109D01*
X19244128Y-6566248D01*
X19269157Y-6564278D01*
X19294187Y-6566248D01*
G37*
D11*
X19295600Y-15464047D02*
X19295600Y-15464047D01*
G75*
G02*
X19445600Y-15614047I0J-150003D01*
G01*
X19445600Y-15634047D01*
G75*
G02*
X19295600Y-15784047I-150000J-3D01*
G01*
X18955600Y-15784047D01*
G75*
G02*
X18805600Y-15634047I0J149997D01*
G01*
X18805600Y-15614047D01*
G75*
G02*
X18955600Y-15464047I150000J-3D01*
G01*
X19295600Y-15464047D01*
G36*
X19295600Y-15464047D02*
G01*
X19295600Y-15464047D01*
G75*
G02*
X19445600Y-15614047I0J-150003D01*
G01*
X19445600Y-15634047D01*
G75*
G02*
X19295600Y-15784047I-150000J-3D01*
G01*
X18955600Y-15784047D01*
G75*
G02*
X18805600Y-15634047I0J149997D01*
G01*
X18805600Y-15614047D01*
G75*
G02*
X18955600Y-15464047I150000J-3D01*
G01*
X19295600Y-15464047D01*
G37*
D10*
X19108945Y-12214396D02*
X19144323Y-12220407D01*
X19178806Y-12230342D01*
X19211959Y-12244074D01*
X19243367Y-12261433D01*
X19272633Y-12282198D01*
X19299390Y-12306110D01*
X19323302Y-12332868D01*
X19344068Y-12362134D01*
X19361426Y-12393542D01*
X19375159Y-12426695D01*
X19385093Y-12461178D01*
X19391104Y-12496556D01*
X19393116Y-12532384D01*
X19391104Y-12568213D01*
X19385093Y-12603591D01*
X19375159Y-12638074D01*
X19361426Y-12671227D01*
X19344068Y-12702635D01*
X19323302Y-12731901D01*
X19299390Y-12758659D01*
X19272633Y-12782570D01*
X19243367Y-12803336D01*
X19211959Y-12820694D01*
X19178806Y-12834427D01*
X19144323Y-12844361D01*
X19108945Y-12850372D01*
X19073116Y-12852384D01*
X19037288Y-12850372D01*
X19001910Y-12844361D01*
X18967427Y-12834427D01*
X18934273Y-12820694D01*
X18902866Y-12803336D01*
X18873600Y-12782570D01*
X18846842Y-12758659D01*
X18822930Y-12731901D01*
X18802165Y-12702635D01*
X18784806Y-12671227D01*
X18771074Y-12638074D01*
X18761139Y-12603591D01*
X18755128Y-12568213D01*
X18753116Y-12532384D01*
X18755128Y-12496556D01*
X18761139Y-12461178D01*
X18771074Y-12426695D01*
X18784806Y-12393542D01*
X18802165Y-12362134D01*
X18822930Y-12332868D01*
X18846842Y-12306110D01*
X18873600Y-12282198D01*
X18902866Y-12261433D01*
X18934273Y-12244074D01*
X18967427Y-12230342D01*
X19001910Y-12220407D01*
X19037288Y-12214396D01*
X19073116Y-12212384D01*
X19108945Y-12214396D01*
G36*
X19108945Y-12214396D02*
G01*
X19144323Y-12220407D01*
X19178806Y-12230342D01*
X19211959Y-12244074D01*
X19243367Y-12261433D01*
X19272633Y-12282198D01*
X19299390Y-12306110D01*
X19323302Y-12332868D01*
X19344068Y-12362134D01*
X19361426Y-12393542D01*
X19375159Y-12426695D01*
X19385093Y-12461178D01*
X19391104Y-12496556D01*
X19393116Y-12532384D01*
X19391104Y-12568213D01*
X19385093Y-12603591D01*
X19375159Y-12638074D01*
X19361426Y-12671227D01*
X19344068Y-12702635D01*
X19323302Y-12731901D01*
X19299390Y-12758659D01*
X19272633Y-12782570D01*
X19243367Y-12803336D01*
X19211959Y-12820694D01*
X19178806Y-12834427D01*
X19144323Y-12844361D01*
X19108945Y-12850372D01*
X19073116Y-12852384D01*
X19037288Y-12850372D01*
X19001910Y-12844361D01*
X18967427Y-12834427D01*
X18934273Y-12820694D01*
X18902866Y-12803336D01*
X18873600Y-12782570D01*
X18846842Y-12758659D01*
X18822930Y-12731901D01*
X18802165Y-12702635D01*
X18784806Y-12671227D01*
X18771074Y-12638074D01*
X18761139Y-12603591D01*
X18755128Y-12568213D01*
X18753116Y-12532384D01*
X18755128Y-12496556D01*
X18761139Y-12461178D01*
X18771074Y-12426695D01*
X18784806Y-12393542D01*
X18802165Y-12362134D01*
X18822930Y-12332868D01*
X18846842Y-12306110D01*
X18873600Y-12282198D01*
X18902866Y-12261433D01*
X18934273Y-12244074D01*
X18967427Y-12230342D01*
X19001910Y-12220407D01*
X19037288Y-12214396D01*
X19073116Y-12212384D01*
X19108945Y-12214396D01*
G37*
X19112870Y-13718736D02*
X19148248Y-13724747D01*
X19182731Y-13734681D01*
X19215884Y-13748414D01*
X19247292Y-13765772D01*
X19276558Y-13786538D01*
X19303316Y-13810449D01*
X19327228Y-13837207D01*
X19347993Y-13866473D01*
X19365352Y-13897881D01*
X19379084Y-13931034D01*
X19389018Y-13965517D01*
X19395029Y-14000895D01*
X19397042Y-14036724D01*
X19395029Y-14072552D01*
X19389018Y-14107930D01*
X19379084Y-14142413D01*
X19365352Y-14175566D01*
X19347993Y-14206974D01*
X19327228Y-14236240D01*
X19303316Y-14262998D01*
X19276558Y-14286910D01*
X19247292Y-14307675D01*
X19215884Y-14325034D01*
X19182731Y-14338766D01*
X19148248Y-14348701D01*
X19112870Y-14354712D01*
X19077042Y-14356724D01*
X19041213Y-14354712D01*
X19005835Y-14348701D01*
X18971352Y-14338766D01*
X18938199Y-14325034D01*
X18906791Y-14307675D01*
X18877525Y-14286910D01*
X18850767Y-14262998D01*
X18826855Y-14236240D01*
X18806090Y-14206974D01*
X18788732Y-14175566D01*
X18774999Y-14142413D01*
X18765065Y-14107930D01*
X18759054Y-14072552D01*
X18757042Y-14036724D01*
X18759054Y-14000895D01*
X18765065Y-13965517D01*
X18774999Y-13931034D01*
X18788732Y-13897881D01*
X18806090Y-13866473D01*
X18826855Y-13837207D01*
X18850767Y-13810449D01*
X18877525Y-13786538D01*
X18906791Y-13765772D01*
X18938199Y-13748414D01*
X18971352Y-13734681D01*
X19005835Y-13724747D01*
X19041213Y-13718736D01*
X19077042Y-13716724D01*
X19112870Y-13718736D01*
G36*
X19112870Y-13718736D02*
G01*
X19148248Y-13724747D01*
X19182731Y-13734681D01*
X19215884Y-13748414D01*
X19247292Y-13765772D01*
X19276558Y-13786538D01*
X19303316Y-13810449D01*
X19327228Y-13837207D01*
X19347993Y-13866473D01*
X19365352Y-13897881D01*
X19379084Y-13931034D01*
X19389018Y-13965517D01*
X19395029Y-14000895D01*
X19397042Y-14036724D01*
X19395029Y-14072552D01*
X19389018Y-14107930D01*
X19379084Y-14142413D01*
X19365352Y-14175566D01*
X19347993Y-14206974D01*
X19327228Y-14236240D01*
X19303316Y-14262998D01*
X19276558Y-14286910D01*
X19247292Y-14307675D01*
X19215884Y-14325034D01*
X19182731Y-14338766D01*
X19148248Y-14348701D01*
X19112870Y-14354712D01*
X19077042Y-14356724D01*
X19041213Y-14354712D01*
X19005835Y-14348701D01*
X18971352Y-14338766D01*
X18938199Y-14325034D01*
X18906791Y-14307675D01*
X18877525Y-14286910D01*
X18850767Y-14262998D01*
X18826855Y-14236240D01*
X18806090Y-14206974D01*
X18788732Y-14175566D01*
X18774999Y-14142413D01*
X18765065Y-14107930D01*
X18759054Y-14072552D01*
X18757042Y-14036724D01*
X18759054Y-14000895D01*
X18765065Y-13965517D01*
X18774999Y-13931034D01*
X18788732Y-13897881D01*
X18806090Y-13866473D01*
X18826855Y-13837207D01*
X18850767Y-13810449D01*
X18877525Y-13786538D01*
X18906791Y-13765772D01*
X18938199Y-13748414D01*
X18971352Y-13734681D01*
X19005835Y-13724747D01*
X19041213Y-13718736D01*
X19077042Y-13716724D01*
X19112870Y-13718736D01*
G37*
D11*
X10256777Y-16247284D02*
X10256777Y-16047284D01*
X10256777Y-16047284D02*
X10304396Y-16047284D01*
X10304396Y-16047284D02*
X10332967Y-16056808D01*
X10332967Y-16056808D02*
X10352015Y-16075855D01*
X10352015Y-16075855D02*
X10361539Y-16094903D01*
X10361539Y-16094903D02*
X10371063Y-16132998D01*
X10371063Y-16132998D02*
X10371063Y-16161569D01*
X10371063Y-16161569D02*
X10361539Y-16199665D01*
X10361539Y-16199665D02*
X10352015Y-16218712D01*
X10352015Y-16218712D02*
X10332967Y-16237760D01*
X10332967Y-16237760D02*
X10304396Y-16247284D01*
X10304396Y-16247284D02*
X10256777Y-16247284D01*
X10456777Y-16247284D02*
X10456777Y-16113950D01*
X10456777Y-16152046D02*
X10466301Y-16132998D01*
X10466301Y-16132998D02*
X10475824Y-16123474D01*
X10475824Y-16123474D02*
X10494872Y-16113950D01*
X10494872Y-16113950D02*
X10513920Y-16113950D01*
X10580586Y-16247284D02*
X10580586Y-16113950D01*
X10580586Y-16047284D02*
X10571063Y-16056808D01*
X10571063Y-16056808D02*
X10580586Y-16066331D01*
X10580586Y-16066331D02*
X10590110Y-16056808D01*
X10590110Y-16056808D02*
X10580586Y-16047284D01*
X10580586Y-16047284D02*
X10580586Y-16066331D01*
X10704396Y-16247284D02*
X10685348Y-16237760D01*
X10685348Y-16237760D02*
X10675824Y-16218712D01*
X10675824Y-16218712D02*
X10675824Y-16047284D01*
X10809158Y-16247284D02*
X10790110Y-16237760D01*
X10790110Y-16237760D02*
X10780586Y-16218712D01*
X10780586Y-16218712D02*
X10780586Y-16047284D01*
X11037729Y-16247284D02*
X11037729Y-16047284D01*
X11037729Y-16047284D02*
X11104396Y-16190141D01*
X11104396Y-16190141D02*
X11171063Y-16047284D01*
X11171063Y-16047284D02*
X11171063Y-16247284D01*
X11352015Y-16247284D02*
X11352015Y-16142522D01*
X11352015Y-16142522D02*
X11342491Y-16123474D01*
X11342491Y-16123474D02*
X11323443Y-16113950D01*
X11323443Y-16113950D02*
X11285348Y-16113950D01*
X11285348Y-16113950D02*
X11266301Y-16123474D01*
X11352015Y-16237760D02*
X11332967Y-16247284D01*
X11332967Y-16247284D02*
X11285348Y-16247284D01*
X11285348Y-16247284D02*
X11266301Y-16237760D01*
X11266301Y-16237760D02*
X11256777Y-16218712D01*
X11256777Y-16218712D02*
X11256777Y-16199665D01*
X11256777Y-16199665D02*
X11266301Y-16180617D01*
X11266301Y-16180617D02*
X11285348Y-16171093D01*
X11285348Y-16171093D02*
X11332967Y-16171093D01*
X11332967Y-16171093D02*
X11352015Y-16161569D01*
X11447253Y-16113950D02*
X11447253Y-16313950D01*
X11447253Y-16123474D02*
X11466301Y-16113950D01*
X11466301Y-16113950D02*
X11504396Y-16113950D01*
X11504396Y-16113950D02*
X11523443Y-16123474D01*
X11523443Y-16123474D02*
X11532967Y-16132998D01*
X11532967Y-16132998D02*
X11542491Y-16152046D01*
X11542491Y-16152046D02*
X11542491Y-16209188D01*
X11542491Y-16209188D02*
X11532967Y-16228236D01*
X11532967Y-16228236D02*
X11523443Y-16237760D01*
X11523443Y-16237760D02*
X11504396Y-16247284D01*
X11504396Y-16247284D02*
X11466301Y-16247284D01*
X11466301Y-16247284D02*
X11447253Y-16237760D01*
X11628205Y-16228236D02*
X11637729Y-16237760D01*
X11637729Y-16237760D02*
X11628205Y-16247284D01*
X11628205Y-16247284D02*
X11618682Y-16237760D01*
X11618682Y-16237760D02*
X11628205Y-16228236D01*
X11628205Y-16228236D02*
X11628205Y-16247284D01*
X11628205Y-16123474D02*
X11637729Y-16132998D01*
X11637729Y-16132998D02*
X11628205Y-16142522D01*
X11628205Y-16142522D02*
X11618682Y-16132998D01*
X11618682Y-16132998D02*
X11628205Y-16123474D01*
X11628205Y-16123474D02*
X11628205Y-16142522D01*
M02*
