<?xml version="1.0" encoding="UTF-8" standalone="no"?>
<!-- Created with Inkscape (http://www.inkscape.org/) -->

<svg
   width="210mm"
   height="297mm"
   viewBox="0 0 210 297"
   version="1.1"
   id="svg5"
   sodipodi:docname="vca.svg"
   inkscape:version="1.1.2 (0a00cf5339, 2022-02-04)"
   xmlns:inkscape="http://www.inkscape.org/namespaces/inkscape"
   xmlns:sodipodi="http://sodipodi.sourceforge.net/DTD/sodipodi-0.dtd"
   xmlns="http://www.w3.org/2000/svg"
   xmlns:svg="http://www.w3.org/2000/svg">
  <sodipodi:namedview
     id="namedview7"
     pagecolor="#ffffff"
     bordercolor="#666666"
     borderopacity="1.0"
     inkscape:pageshadow="2"
     inkscape:pageopacity="0.0"
     inkscape:pagecheckerboard="0"
     inkscape:document-units="mm"
     showgrid="false"
     inkscape:zoom="2.114039"
     inkscape:cx="202.45606"
     inkscape:cy="531.21064"
     inkscape:window-width="1848"
     inkscape:window-height="1011"
     inkscape:window-x="72"
     inkscape:window-y="32"
     inkscape:window-maximized="1"
     inkscape:current-layer="layer1" />
  <defs
     id="defs2" />
  <g
     inkscape:label="Layer 1"
     inkscape:groupmode="layer"
     id="layer1">
    <path
       style="fill:none;stroke:#000000;stroke-width:0.26962302;stroke-linecap:round;stroke-linejoin:round;stroke-miterlimit:4;stroke-dasharray:none;stroke-opacity:1"
       d="m 33.570269,166.98741 0.841662,-5.00672 0.70905,2.38295 5.244621,-0.0459 3.430147,2.68071"
       id="path892"
       sodipodi:nodetypes="ccccc" />
    <path
       style="fill:none;stroke:#000000;stroke-width:0.26962302;stroke-linecap:round;stroke-linejoin:round;stroke-miterlimit:4;stroke-dasharray:none;stroke-opacity:1"
       d="m 33.869168,161.61408 v -4.97053 h 0.825191 l 0.135204,4.92241 9.265085,0.0591"
       id="path1506"
       sodipodi:nodetypes="ccccc" />
    <path
       style="fill:none;stroke:#000000;stroke-width:0.26962302;stroke-linecap:round;stroke-linejoin:round;stroke-miterlimit:4;stroke-dasharray:none;stroke-opacity:1"
       d="m 43.920052,170.64983 -0.259027,-0.0185 -0.221303,0.2247 -0.212934,-0.50548 -0.212844,0.70949 -0.234234,-0.79952 -0.274942,0.95627 -0.275181,-1.18403 -0.200265,1.34093 -0.239319,-1.48879 -0.180442,1.63912 -0.247026,-1.8526 -0.243196,2.04419 -0.206929,-2.20768 -0.192486,2.36016 -0.266265,-2.48119 -0.293259,2.52699 -0.178804,-2.52699 -0.286695,2.52699 -0.185367,-2.52699 -0.280132,2.52699 c 0,0 -0.195494,-2.41044 -0.191931,-2.52699 0.0036,-0.11655 -0.273568,2.52699 -0.273568,2.52699 l -0.198495,-2.52699 -0.267004,2.52699 -0.205059,-2.52699 -0.26044,2.52699 -0.211622,-2.52699 -0.253877,2.52699 -0.218186,-2.52699 -0.247313,2.52699 -0.22475,-2.52699 -0.240749,2.52699 -0.231313,-2.52699 -0.234186,2.52699 -0.237877,-2.52699 -0.227622,2.52699 -0.24444,-2.52699 -0.197254,2.51533 -0.261853,-2.90485 -0.227299,3.69016 -0.257993,-4.50867 -0.179884,4.35669 -0.281761,-2.96723 -0.147053,1.60704 -0.227326,-0.53081"
       id="path1541"
       sodipodi:nodetypes="ccccccccccccccccccccccsccccccccccccccccccccccc" />
    <path
       style="fill:none;stroke:#000000;stroke-width:0.26962302;stroke-linecap:round;stroke-linejoin:round;stroke-miterlimit:4;stroke-dasharray:none;stroke-opacity:1"
       d="m 43.706816,173.95422 -0.152059,5.00796 -0.313441,-5.00796 -0.158621,5.00796 -0.306876,-5.00796 -0.165187,5.00796 -0.300313,-5.00796 -0.17175,5.00796 -0.293747,-5.00796 -0.178313,5.00796 -0.287188,-5.00796 -0.184875,5.00796 -0.280622,-5.00796 -0.191441,5.00796 -0.274059,-5.00796 -0.198003,5.00796 -0.267497,-5.00796 -0.204566,5.00796 -0.260931,-5.00796 -0.211132,5.00796 -0.254368,-5.00796 c 0,0 -0.221259,4.89142 -0.217695,5.00796 0.0036,0.11655 -0.247803,-5.00796 -0.247803,-5.00796 l -0.22426,5.00796 -0.24124,-5.00796 -0.230822,5.00796 -0.234678,-5.00796 -0.237385,5.00796 -0.228112,-5.00796 -0.243951,5.00796 -0.221549,-5.00796 -0.250514,5.00796 -0.214984,-5.00796 -0.257079,5.00796 -0.208421,-5.00796 -0.263642,5.00796 -0.201858,-5.00796 -0.270204,5.00796 -0.195293,-5.00796 -0.27677,5.00796 -0.18873,-5.00796 -0.283333,5.00796 -0.182165,-5.00796 -0.289898,5.00796 -0.175602,-5.00796 -0.296461,5.00796"
       id="path1541-4"
       sodipodi:nodetypes="ccccccccccccccccccccccsccccccccccccccccccccccc" />
  </g>
</svg>
